<svg width="145" height="121" viewBox="0 0 145 121" fill="none" xmlns="http://www.w3.org/2000/svg">
<path d="M143.024 1H2.022C1.45756 1 1 1.45756 1 2.022V119.524C1 120.088 1.45756 120.546 2.022 120.546H143.024C143.588 120.546 144.046 120.088 144.046 119.524V2.022C144.046 1.45756 143.588 1 143.024 1Z" fill="white" stroke="black" stroke-opacity="0.25" stroke-width="0.511"/>
<path d="M13.7619 18.022V12.8725H14.2446L16.2686 17.2031L18.2819 12.8725H18.7718V18.0184H18.2712V14.0455L16.4367 18.022H16.097L14.2661 14.0455V18.022H13.7619Z" fill="black" fill-opacity="0.65"/>
<path d="M113.415 54.1528H103.198C102.633 54.1528 102.176 54.6104 102.176 55.1748V65.3918C102.176 65.9563 102.633 66.4138 103.198 66.4138H113.415C113.979 66.4138 114.437 65.9563 114.437 65.3918V55.1748C114.437 54.6104 113.979 54.1528 113.415 54.1528Z" fill="#0010F7"/>
<path d="M13.6188 32.3446L13.6224 31.8654L15.9504 29.7627C16.1506 29.5815 16.283 29.4099 16.3473 29.2478C16.4141 29.0833 16.4474 28.9116 16.4474 28.7328C16.4474 28.5206 16.3974 28.3287 16.2973 28.1571C16.1971 27.9854 16.0624 27.8495 15.8932 27.7494C15.7239 27.6469 15.5344 27.5956 15.3246 27.5956C15.1053 27.5956 14.9098 27.6481 14.7381 27.753C14.5665 27.8579 14.4306 27.9962 14.3305 28.1678C14.2327 28.3394 14.185 28.5266 14.1874 28.7292H13.651C13.651 28.4169 13.7249 28.1368 13.8727 27.8889C14.0205 27.6409 14.2208 27.4466 14.4735 27.306C14.7262 27.1629 15.0123 27.0914 15.3317 27.0914C15.644 27.0914 15.9242 27.1653 16.1721 27.3131C16.4224 27.4586 16.6191 27.6564 16.7621 27.9068C16.9076 28.1547 16.9803 28.4312 16.9803 28.7364C16.9803 28.9509 16.954 29.1405 16.9016 29.305C16.8515 29.4671 16.7717 29.6185 16.662 29.7591C16.5547 29.8974 16.4176 30.0404 16.2508 30.1882L14.1838 32.0549L14.1016 31.8404H16.9803V32.3446H13.6188ZM19.4106 32.4554C19.0888 32.4554 18.8039 32.3911 18.5559 32.2623C18.3104 32.1336 18.1173 31.9536 17.9766 31.7223C17.8384 31.4887 17.7692 31.2157 17.7692 30.9034C17.7692 30.584 17.8467 30.3003 18.0017 30.0524C18.1566 29.802 18.3926 29.6125 18.7097 29.4838L18.7026 29.6912C18.4379 29.5934 18.2365 29.4337 18.0982 29.212C17.9599 28.9903 17.8908 28.7447 17.8908 28.4753C17.8908 28.1893 17.9564 27.9437 18.0875 27.7387C18.2186 27.5313 18.3974 27.3715 18.6239 27.2595C18.8528 27.1474 19.115 27.0914 19.4106 27.0914C19.7062 27.0914 19.9685 27.1474 20.1973 27.2595C20.4262 27.3715 20.6062 27.5313 20.7373 27.7387C20.8684 27.9437 20.934 28.1893 20.934 28.4753C20.934 28.7447 20.8672 28.9891 20.7337 29.2084C20.6026 29.4277 20.4012 29.5887 20.1294 29.6912L20.1115 29.4838C20.4286 29.6101 20.6658 29.7985 20.8231 30.0488C20.9829 30.2991 21.0627 30.584 21.0627 30.9034C21.0627 31.2157 20.9924 31.4887 20.8517 31.7223C20.7111 31.9536 20.5168 32.1336 20.2688 32.2623C20.0209 32.3911 19.7348 32.4554 19.4106 32.4554ZM19.4106 31.9512C19.7348 31.9512 19.9983 31.8618 20.2009 31.683C20.4035 31.5018 20.5049 31.242 20.5049 30.9034C20.5049 30.5601 20.4047 30.3003 20.2045 30.1239C20.0042 29.9451 19.7396 29.8557 19.4106 29.8557C19.0816 29.8557 18.8182 29.9451 18.6203 30.1239C18.4224 30.3003 18.3235 30.5601 18.3235 30.9034C18.3235 31.242 18.4236 31.5018 18.6239 31.683C18.8241 31.8618 19.0864 31.9512 19.4106 31.9512ZM19.4106 29.3479C19.6967 29.3479 19.9291 29.2752 20.1079 29.1297C20.2867 28.9819 20.3761 28.7638 20.3761 28.4753C20.3761 28.1869 20.2867 27.9711 20.1079 27.8281C19.9291 27.6827 19.6967 27.6099 19.4106 27.6099C19.1245 27.6099 18.8921 27.6827 18.7133 27.8281C18.5369 27.9711 18.4487 28.1869 18.4487 28.4753C18.4487 28.7638 18.5369 28.9819 18.7133 29.1297C18.8921 29.2752 19.1245 29.3479 19.4106 29.3479Z" fill="black" fill-opacity="0.25"/>
<path d="M15.4426 47.7821C15.1255 47.7821 14.8394 47.7082 14.5844 47.5604C14.3316 47.4126 14.1314 47.2123 13.9836 46.9596C13.8358 46.7045 13.7619 46.4184 13.7619 46.1014V44.0988C13.7619 43.7817 13.8358 43.4968 13.9836 43.2441C14.1314 42.9891 14.3316 42.7876 14.5844 42.6398C14.8394 42.492 15.1255 42.4181 15.4426 42.4181C15.7597 42.4181 16.0446 42.492 16.2973 42.6398C16.5523 42.7876 16.7538 42.9891 16.9016 43.2441C17.0494 43.4968 17.1233 43.7817 17.1233 44.0988V46.1014C17.1233 46.4184 17.0494 46.7045 16.9016 46.9596C16.7538 47.2123 16.5523 47.4126 16.2973 47.5604C16.0446 47.7082 15.7597 47.7821 15.4426 47.7821ZM15.4426 47.2743C15.6548 47.2743 15.8479 47.223 16.0219 47.1205C16.1959 47.0156 16.3342 46.8762 16.4367 46.7021C16.5392 46.5281 16.5905 46.3362 16.5905 46.1264V44.0738C16.5905 43.8616 16.5392 43.6685 16.4367 43.4945C16.3342 43.3204 16.1959 43.1822 16.0219 43.0796C15.8479 42.9747 15.6548 42.9223 15.4426 42.9223C15.2304 42.9223 15.0373 42.9747 14.8633 43.0796C14.6892 43.1822 14.551 43.3204 14.4485 43.4945C14.346 43.6685 14.2947 43.8616 14.2947 44.0738V46.1264C14.2947 46.3362 14.346 46.5281 14.4485 46.7021C14.551 46.8762 14.6892 47.0156 14.8633 47.1205C15.0373 47.223 15.2304 47.2743 15.4426 47.2743ZM19.6469 47.7821C19.3799 47.7821 19.1332 47.7273 18.9067 47.6176C18.6802 47.5079 18.4871 47.3565 18.3274 47.1634C18.1676 46.9703 18.0532 46.7486 17.9841 46.4983L18.4883 46.3624C18.5336 46.5484 18.6158 46.7093 18.735 46.8452C18.8542 46.9787 18.9937 47.0824 19.1534 47.1563C19.3155 47.2302 19.4848 47.2671 19.6612 47.2671C19.8901 47.2671 20.0951 47.2123 20.2763 47.1026C20.4598 46.9906 20.6053 46.8428 20.7126 46.6592C20.8198 46.4757 20.8735 46.2742 20.8735 46.0549C20.8735 45.8284 20.8174 45.6246 20.7054 45.4434C20.5934 45.2598 20.4455 45.1144 20.262 45.0071C20.0784 44.8998 19.8782 44.8462 19.6612 44.8462C19.418 44.8462 19.2082 44.8998 19.0318 45.0071C18.8554 45.112 18.7148 45.2443 18.6099 45.404L18.1307 45.2038L18.288 42.5254H21.038V43.0296H18.5205L18.7815 42.7828L18.642 45.0679L18.5097 44.8927C18.6575 44.7234 18.8363 44.5911 19.0461 44.4957C19.2559 44.4004 19.4764 44.3527 19.7077 44.3527C20.0248 44.3527 20.3108 44.429 20.5659 44.5816C20.821 44.7318 21.0237 44.9356 21.1739 45.1931C21.324 45.4505 21.3991 45.7378 21.3991 46.0549C21.3991 46.3696 21.3193 46.658 21.1596 46.9203C20.9998 47.1801 20.7876 47.3887 20.523 47.5461C20.2584 47.7034 19.9664 47.7821 19.6469 47.7821Z" fill="black" fill-opacity="0.65"/>
<path d="M14.6594 63.001V58.438L13.6904 59.0209V58.4308L14.6594 57.8515H15.1923V63.001H14.6594ZM16.4056 62.9974L16.4092 62.5182L18.7371 60.4155C18.9374 60.2343 19.0697 60.0627 19.1341 59.9006C19.2008 59.7361 19.2342 59.5644 19.2342 59.3856C19.2342 59.1735 19.1841 58.9816 19.084 58.8099C18.9839 58.6383 18.8492 58.5024 18.6799 58.4022C18.5107 58.2997 18.3211 58.2485 18.1113 58.2485C17.892 58.2485 17.6965 58.3009 17.5249 58.4058C17.3532 58.5107 17.2173 58.649 17.1172 58.8206C17.0195 58.9923 16.9718 59.1794 16.9742 59.3821H16.4378C16.4378 59.0698 16.5117 58.7896 16.6595 58.5417C16.8073 58.2938 17.0076 58.0995 17.2603 57.9588C17.513 57.8158 17.799 57.7443 18.1185 57.7443C18.4308 57.7443 18.7109 57.8182 18.9589 57.966C19.2092 58.1114 19.4059 58.3093 19.5489 58.5596C19.6943 58.8075 19.767 59.0841 19.767 59.3892C19.767 59.6038 19.7408 59.7933 19.6884 59.9578C19.6383 60.1199 19.5584 60.2713 19.4488 60.412C19.3415 60.5502 19.2044 60.6933 19.0375 60.8411L16.9706 62.7077L16.8884 62.4932H19.767V62.9974H16.4056Z" fill="black" fill-opacity="0.65"/>
<path d="M14.6594 78.3281V73.7651L13.6904 74.348V73.758L14.6594 73.1787H15.1923V78.3281H14.6594ZM18.2437 73.075C18.5655 73.075 18.8575 73.1537 19.1198 73.311C19.3844 73.466 19.5942 73.6781 19.7492 73.9475C19.9065 74.2145 19.9852 74.5161 19.9852 74.8523V76.6367C19.9852 76.9824 19.9077 77.2911 19.7527 77.5629C19.5978 77.8323 19.3856 78.0456 19.1162 78.203C18.8492 78.3579 18.5452 78.4354 18.2043 78.4354C17.9111 78.4354 17.6381 78.371 17.3854 78.2423C17.1351 78.1136 16.9301 77.9336 16.7703 77.7023L17.1744 77.3698C17.2841 77.5414 17.4295 77.6785 17.6107 77.781C17.7919 77.8835 17.9898 77.9348 18.2043 77.9348C18.4451 77.9348 18.6597 77.8764 18.848 77.7595C19.0363 77.6427 19.1841 77.4901 19.2914 77.3018C19.3987 77.1111 19.4523 76.9049 19.4523 76.6832V75.5603L19.5847 75.7105C19.4345 75.9465 19.2366 76.1372 18.991 76.2827C18.7479 76.4281 18.4821 76.5008 18.1936 76.5008C17.8741 76.5008 17.5869 76.4257 17.3318 76.2755C17.0767 76.1229 16.8741 75.9179 16.7239 75.6604C16.5737 75.403 16.4986 75.1145 16.4986 74.795C16.4986 74.478 16.5772 74.1895 16.7346 73.9296C16.8943 73.6698 17.1053 73.4624 17.3675 73.3074C17.6322 73.1525 17.9242 73.075 18.2437 73.075ZM18.2437 73.5863C18.0196 73.5863 17.8145 73.64 17.6286 73.7473C17.445 73.8545 17.2984 74 17.1887 74.1835C17.0815 74.3671 17.0278 74.5709 17.0278 74.795C17.0278 75.0191 17.0815 75.2242 17.1887 75.4101C17.2984 75.5937 17.445 75.7403 17.6286 75.85C17.8122 75.9572 18.016 76.0109 18.2401 76.0109C18.4642 76.0109 18.668 75.9572 18.8516 75.85C19.0351 75.7403 19.1806 75.5937 19.2879 75.4101C19.3975 75.2242 19.4523 75.0191 19.4523 74.795C19.4523 74.5733 19.3987 74.3707 19.2914 74.1871C19.1841 74.0035 19.0387 73.8581 18.8552 73.7508C18.6716 73.6412 18.4678 73.5863 18.2437 73.5863Z" fill="black" fill-opacity="0.65"/>
<path d="M13.6188 93.6502L13.6224 93.171L15.9504 91.0684C16.1506 90.8872 16.283 90.7155 16.3473 90.5534C16.4141 90.3889 16.4474 90.2173 16.4474 90.0385C16.4474 89.8263 16.3974 89.6344 16.2973 89.4627C16.1971 89.2911 16.0624 89.1552 15.8932 89.0551C15.7239 88.9526 15.5344 88.9013 15.3246 88.9013C15.1053 88.9013 14.9098 88.9538 14.7381 89.0586C14.5665 89.1635 14.4306 89.3018 14.3305 89.4735C14.2327 89.6451 14.185 89.8323 14.1874 90.0349H13.651C13.651 89.7226 13.7249 89.4425 13.8727 89.1945C14.0205 88.9466 14.2208 88.7523 14.4735 88.6116C14.7262 88.4686 15.0123 88.3971 15.3317 88.3971C15.644 88.3971 15.9242 88.471 16.1721 88.6188C16.4224 88.7642 16.6191 88.9621 16.7621 89.2124C16.9076 89.4604 16.9803 89.7369 16.9803 90.042C16.9803 90.2566 16.954 90.4461 16.9016 90.6106C16.8515 90.7727 16.7717 90.9241 16.662 91.0648C16.5547 91.2031 16.4176 91.3461 16.2508 91.4939L14.1838 93.3606L14.1016 93.146H16.9803V93.6502H13.6188ZM19.5823 93.7611C19.2604 93.7611 18.9672 93.6836 18.7026 93.5286C18.4403 93.3713 18.2305 93.1591 18.0732 92.8921C17.9182 92.6227 17.8407 92.32 17.8407 91.9838V90.1994C17.8407 89.8537 17.9182 89.5462 18.0732 89.2768C18.2281 89.005 18.4391 88.7916 18.7061 88.6367C18.9755 88.4793 19.2807 88.4007 19.6216 88.4007C19.9148 88.4007 20.1866 88.465 20.4369 88.5938C20.6896 88.7225 20.8958 88.9025 21.0556 89.1337L20.6515 89.4663C20.5418 89.2947 20.3964 89.1576 20.2152 89.0551C20.034 88.9526 19.8362 88.9013 19.6216 88.9013C19.3808 88.9013 19.1662 88.9597 18.9779 89.0765C18.7896 89.1933 18.6418 89.3471 18.5345 89.5378C18.4272 89.7262 18.3736 89.9312 18.3736 90.1529V91.2758L18.2413 91.1256C18.3914 90.8896 18.5881 90.6988 18.8313 90.5534C19.0768 90.408 19.3439 90.3353 19.6323 90.3353C19.9518 90.3353 20.239 90.4116 20.4941 90.5641C20.7492 90.7143 20.9519 90.9182 21.1021 91.1756C21.2522 91.4331 21.3273 91.7216 21.3273 92.041C21.3273 92.3581 21.2475 92.6466 21.0878 92.9064C20.9304 93.1663 20.7194 93.3737 20.4548 93.5286C20.1926 93.6836 19.9017 93.7611 19.5823 93.7611ZM19.5823 93.2497C19.8064 93.2497 20.0102 93.1961 20.1938 93.0888C20.3797 92.9815 20.5263 92.8361 20.6336 92.6525C20.7433 92.469 20.7981 92.2651 20.7981 92.041C20.7981 91.8169 20.7433 91.6131 20.6336 91.4295C20.5263 91.2436 20.3809 91.097 20.1973 90.9897C20.0138 90.88 19.8099 90.8252 19.5858 90.8252C19.3617 90.8252 19.1579 90.88 18.9743 90.9897C18.7908 91.097 18.6442 91.2436 18.5345 91.4295C18.4272 91.6131 18.3736 91.8169 18.3736 92.041C18.3736 92.2627 18.4272 92.4654 18.5345 92.649C18.6418 92.8325 18.7872 92.9791 18.9708 93.0888C19.1543 93.1961 19.3582 93.2497 19.5823 93.2497Z" fill="black" fill-opacity="0.65"/>
<path d="M33.5231 18.022V13.3767H31.7244V12.8725H35.8475V13.3767H34.0488V18.022H33.5231Z" fill="black" fill-opacity="0.65"/>
<path d="M32.0104 32.3446L32.014 31.8654L34.342 29.7627C34.5422 29.5815 34.6746 29.4099 34.7389 29.2478C34.8057 29.0833 34.839 28.9116 34.839 28.7328C34.839 28.5206 34.789 28.3287 34.6889 28.1571C34.5887 27.9854 34.454 27.8495 34.2848 27.7494C34.1155 27.6469 33.926 27.5956 33.7162 27.5956C33.4969 27.5956 33.3014 27.6481 33.1297 27.753C32.9581 27.8579 32.8222 27.9962 32.7221 28.1678C32.6243 28.3394 32.5766 28.5266 32.579 28.7292H32.0426C32.0426 28.4169 32.1165 28.1368 32.2643 27.8889C32.4121 27.6409 32.6124 27.4466 32.8651 27.306C33.1178 27.1629 33.4039 27.0914 33.7233 27.0914C34.0356 27.0914 34.3158 27.1653 34.5637 27.3131C34.814 27.4586 35.0107 27.6564 35.1537 27.9068C35.2992 28.1547 35.3719 28.4312 35.3719 28.7364C35.3719 28.9509 35.3456 29.1405 35.2932 29.305C35.2431 29.4671 35.1633 29.6185 35.0536 29.7591C34.9463 29.8974 34.8092 30.0404 34.6424 30.1882L32.5754 32.0549L32.4932 31.8404H35.3719V32.3446H32.0104ZM37.9274 27.095C38.2492 27.095 38.5413 27.1737 38.8035 27.331C39.0681 27.486 39.2779 27.6982 39.4329 27.9675C39.5902 28.2346 39.6689 28.5361 39.6689 28.8723V30.6567C39.6689 31.0024 39.5914 31.3111 39.4364 31.5829C39.2815 31.8523 39.0693 32.0656 38.7999 32.223C38.5329 32.3779 38.2289 32.4554 37.888 32.4554C37.5948 32.4554 37.3218 32.3911 37.0691 32.2623C36.8188 32.1336 36.6138 31.9536 36.4541 31.7223L36.8581 31.3898C36.9678 31.5614 37.1132 31.6985 37.2944 31.801C37.4756 31.9035 37.6735 31.9548 37.888 31.9548C38.1288 31.9548 38.3434 31.8964 38.5317 31.7796C38.7201 31.6627 38.8679 31.5102 38.9751 31.3218C39.0824 31.1311 39.1361 30.9249 39.1361 30.7032V29.5803L39.2684 29.7305C39.1182 29.9665 38.9203 30.1572 38.6748 30.3027C38.4316 30.4481 38.1658 30.5208 37.8773 30.5208C37.5579 30.5208 37.2706 30.4457 37.0155 30.2955C36.7604 30.1429 36.5578 29.9379 36.4076 29.6804C36.2574 29.423 36.1823 29.1345 36.1823 28.8151C36.1823 28.498 36.261 28.2095 36.4183 27.9497C36.578 27.6898 36.789 27.4824 37.0513 27.3274C37.3159 27.1725 37.6079 27.095 37.9274 27.095ZM37.9274 27.6064C37.7033 27.6064 37.4983 27.66 37.3123 27.7673C37.1287 27.8746 36.9821 28.02 36.8725 28.2036C36.7652 28.3871 36.7115 28.591 36.7115 28.8151C36.7115 29.0392 36.7652 29.2442 36.8725 29.4301C36.9821 29.6137 37.1287 29.7603 37.3123 29.87C37.4959 29.9773 37.6997 30.0309 37.9238 30.0309C38.1479 30.0309 38.3517 29.9773 38.5353 29.87C38.7189 29.7603 38.8643 29.6137 38.9716 29.4301C39.0812 29.2442 39.1361 29.0392 39.1361 28.8151C39.1361 28.5933 39.0824 28.3907 38.9751 28.2071C38.8679 28.0236 38.7224 27.8781 38.5389 27.7709C38.3553 27.6612 38.1515 27.6064 37.9274 27.6064Z" fill="black" fill-opacity="0.25"/>
<path d="M33.8342 47.7821C33.5171 47.7821 33.231 47.7082 32.976 47.5604C32.7232 47.4126 32.523 47.2123 32.3752 46.9596C32.2274 46.7045 32.1535 46.4184 32.1535 46.1014V44.0988C32.1535 43.7817 32.2274 43.4968 32.3752 43.2441C32.523 42.9891 32.7232 42.7876 32.976 42.6398C33.231 42.492 33.5171 42.4181 33.8342 42.4181C34.1513 42.4181 34.4362 42.492 34.6889 42.6398C34.9439 42.7876 35.1454 42.9891 35.2932 43.2441C35.441 43.4968 35.5149 43.7817 35.5149 44.0988V46.1014C35.5149 46.4184 35.441 46.7045 35.2932 46.9596C35.1454 47.2123 34.9439 47.4126 34.6889 47.5604C34.4362 47.7082 34.1513 47.7821 33.8342 47.7821ZM33.8342 47.2743C34.0464 47.2743 34.2395 47.223 34.4135 47.1205C34.5875 47.0156 34.7258 46.8762 34.8283 46.7021C34.9308 46.5281 34.9821 46.3362 34.9821 46.1264V44.0738C34.9821 43.8616 34.9308 43.6685 34.8283 43.4945C34.7258 43.3204 34.5875 43.1822 34.4135 43.0796C34.2395 42.9747 34.0464 42.9223 33.8342 42.9223C33.622 42.9223 33.4289 42.9747 33.2549 43.0796C33.0808 43.1822 32.9426 43.3204 32.8401 43.4945C32.7376 43.6685 32.6863 43.8616 32.6863 44.0738V46.1264C32.6863 46.3362 32.7376 46.5281 32.8401 46.7021C32.9426 46.8762 33.0808 47.0156 33.2549 47.1205C33.4289 47.223 33.622 47.2743 33.8342 47.2743ZM38.2602 47.7821C37.9384 47.7821 37.6451 47.7046 37.3805 47.5496C37.1183 47.3923 36.9085 47.1801 36.7511 46.9131C36.5962 46.6437 36.5187 46.341 36.5187 46.0048V44.2204C36.5187 43.8747 36.5962 43.5672 36.7511 43.2978C36.9061 43.026 37.1171 42.8126 37.3841 42.6577C37.6535 42.5003 37.9586 42.4217 38.2996 42.4217C38.5928 42.4217 38.8646 42.486 39.1149 42.6148C39.3676 42.7435 39.5738 42.9235 39.7335 43.1547L39.3294 43.4873C39.2198 43.3157 39.0744 43.1786 38.8932 43.0761C38.712 42.9736 38.5141 42.9223 38.2996 42.9223C38.0588 42.9223 37.8442 42.9807 37.6559 43.0975C37.4675 43.2143 37.3197 43.3681 37.2125 43.5588C37.1052 43.7472 37.0515 43.9522 37.0515 44.1739V45.2968L36.9192 45.1466C37.0694 44.9106 37.2661 44.7198 37.5093 44.5744C37.7548 44.429 38.0218 44.3563 38.3103 44.3563C38.6297 44.3563 38.917 44.4326 39.1721 44.5851C39.4272 44.7353 39.6298 44.9392 39.78 45.1966C39.9302 45.4541 40.0053 45.7426 40.0053 46.062C40.0053 46.3791 39.9254 46.6676 39.7657 46.9274C39.6084 47.1873 39.3974 47.3947 39.1328 47.5496C38.8705 47.7046 38.5797 47.7821 38.2602 47.7821ZM38.2602 47.2707C38.4843 47.2707 38.6881 47.2171 38.8717 47.1098C39.0577 47.0025 39.2043 46.8571 39.3116 46.6735C39.4212 46.49 39.4761 46.2861 39.4761 46.062C39.4761 45.8379 39.4212 45.6341 39.3116 45.4505C39.2043 45.2646 39.0589 45.118 38.8753 45.0107C38.6917 44.901 38.4879 44.8462 38.2638 44.8462C38.0397 44.8462 37.8359 44.901 37.6523 45.0107C37.4687 45.118 37.3221 45.2646 37.2125 45.4505C37.1052 45.6341 37.0515 45.8379 37.0515 46.062C37.0515 46.2837 37.1052 46.4864 37.2125 46.6699C37.3197 46.8535 37.4652 47.0001 37.6487 47.1098C37.8323 47.2171 38.0361 47.2707 38.2602 47.2707Z" fill="black" fill-opacity="0.65"/>
<path d="M33.8342 109.087C33.5171 109.087 33.231 109.013 32.976 108.866C32.7232 108.718 32.523 108.517 32.3752 108.265C32.2274 108.01 32.1535 107.724 32.1535 107.407V105.404C32.1535 105.087 32.2274 104.802 32.3752 104.549C32.523 104.294 32.7232 104.093 32.976 103.945C33.231 103.797 33.5171 103.723 33.8342 103.723C34.1513 103.723 34.4362 103.797 34.6889 103.945C34.9439 104.093 35.1454 104.294 35.2932 104.549C35.441 104.802 35.5149 105.087 35.5149 105.404V107.407C35.5149 107.724 35.441 108.01 35.2932 108.265C35.1454 108.517 34.9439 108.718 34.6889 108.866C34.4362 109.013 34.1513 109.087 33.8342 109.087ZM33.8342 108.579C34.0464 108.579 34.2395 108.528 34.4135 108.426C34.5875 108.321 34.7258 108.181 34.8283 108.007C34.9308 107.833 34.9821 107.641 34.9821 107.432V105.379C34.9821 105.167 34.9308 104.974 34.8283 104.8C34.7258 104.626 34.5875 104.487 34.4135 104.385C34.2395 104.28 34.0464 104.227 33.8342 104.227C33.622 104.227 33.4289 104.28 33.2549 104.385C33.0808 104.487 32.9426 104.626 32.8401 104.8C32.7376 104.974 32.6863 105.167 32.6863 105.379V107.432C32.6863 107.641 32.7376 107.833 32.8401 108.007C32.9426 108.181 33.0808 108.321 33.2549 108.426C33.4289 108.528 33.622 108.579 33.8342 108.579ZM38.7859 108.98V107.982H36.3757V107.482L38.0993 103.831H38.6893L36.9657 107.482H38.7859V105.98H39.3151V107.482H39.8766V107.982H39.3151V108.98H38.7859Z" fill="black" fill-opacity="0.25"/>
<path d="M33.051 63.001V58.438L32.082 59.0209V58.4308L33.051 57.8515H33.5839V63.001H33.051ZM36.3241 63.1047C36.0691 63.1047 35.8342 63.0594 35.6197 62.9688C35.4051 62.8782 35.2204 62.7495 35.0654 62.5826C34.9104 62.4133 34.7972 62.2119 34.7257 61.9782L35.2263 61.828C35.3121 62.0831 35.4528 62.2762 35.6483 62.4074C35.8462 62.5385 36.0691 62.6017 36.317 62.5969C36.5459 62.5921 36.7425 62.5409 36.907 62.4431C37.0739 62.3454 37.2015 62.2095 37.2897 62.0355C37.3779 61.8614 37.422 61.66 37.422 61.4311C37.422 61.0807 37.3195 60.7994 37.1144 60.5872C36.9118 60.3726 36.6436 60.2653 36.3098 60.2653C36.2169 60.2653 36.1191 60.2784 36.0166 60.3047C35.9141 60.3285 35.8187 60.3631 35.7305 60.4084L35.4659 59.99L37.4685 58.1412L37.5543 58.3558H34.9295V57.8515H37.9047V58.3629L36.1597 60.0293L36.1525 59.8219C36.5101 59.7766 36.8248 59.8171 37.0966 59.9435C37.3683 60.0698 37.5805 60.263 37.7331 60.5228C37.8881 60.7803 37.9655 61.083 37.9655 61.4311C37.9655 61.7601 37.894 62.051 37.751 62.3037C37.6103 62.554 37.416 62.7507 37.1681 62.8937C36.9201 63.0344 36.6388 63.1047 36.3241 63.1047Z" fill="black" fill-opacity="0.65"/>
<path d="M32.0104 78.3245L32.014 77.8454L34.342 75.7427C34.5422 75.5615 34.6746 75.3898 34.7389 75.2277C34.8057 75.0632 34.839 74.8916 34.839 74.7128C34.839 74.5006 34.789 74.3087 34.6889 74.1371C34.5887 73.9654 34.454 73.8295 34.2848 73.7294C34.1155 73.6269 33.926 73.5756 33.7162 73.5756C33.4969 73.5756 33.3014 73.6281 33.1297 73.733C32.9581 73.8379 32.8222 73.9761 32.7221 74.1478C32.6243 74.3194 32.5766 74.5066 32.579 74.7092H32.0426C32.0426 74.3969 32.1165 74.1168 32.2643 73.8689C32.4121 73.6209 32.6124 73.4266 32.8651 73.286C33.1178 73.1429 33.4039 73.0714 33.7233 73.0714C34.0356 73.0714 34.3158 73.1453 34.5637 73.2931C34.814 73.4385 35.0107 73.6364 35.1537 73.8867C35.2992 74.1347 35.3719 74.4112 35.3719 74.7164C35.3719 74.9309 35.3456 75.1205 35.2932 75.2849C35.2431 75.4471 35.1633 75.5984 35.0536 75.7391C34.9463 75.8774 34.8092 76.0204 34.6424 76.1682L32.5754 78.0349L32.4932 77.8203H35.3719V78.3245H32.0104ZM37.9131 78.4354C37.596 78.4354 37.3099 78.3615 37.0548 78.2137C36.8021 78.0659 36.6019 77.8656 36.4541 77.6129C36.3063 77.3578 36.2323 77.0718 36.2323 76.7547V74.7521C36.2323 74.4351 36.3063 74.1502 36.4541 73.8975C36.6019 73.6424 36.8021 73.4409 37.0548 73.2931C37.3099 73.1453 37.596 73.0714 37.9131 73.0714C38.2301 73.0714 38.515 73.1453 38.7677 73.2931C39.0228 73.4409 39.2243 73.6424 39.3721 73.8975C39.5199 74.1502 39.5938 74.4351 39.5938 74.7521V76.7547C39.5938 77.0718 39.5199 77.3578 39.3721 77.6129C39.2243 77.8656 39.0228 78.0659 38.7677 78.2137C38.515 78.3615 38.2301 78.4354 37.9131 78.4354ZM37.9131 77.9276C38.1252 77.9276 38.3183 77.8764 38.4924 77.7738C38.6664 77.6689 38.8047 77.5295 38.9072 77.3555C39.0097 77.1814 39.061 76.9895 39.061 76.7797V74.7271C39.061 74.5149 39.0097 74.3218 38.9072 74.1478C38.8047 73.9737 38.6664 73.8355 38.4924 73.733C38.3183 73.6281 38.1252 73.5756 37.9131 73.5756C37.7009 73.5756 37.5078 73.6281 37.3338 73.733C37.1597 73.8355 37.0215 73.9737 36.9189 74.1478C36.8164 74.3218 36.7652 74.5149 36.7652 74.7271V76.7797C36.7652 76.9895 36.8164 77.1814 36.9189 77.3555C37.0215 77.5295 37.1597 77.6689 37.3338 77.7738C37.5078 77.8764 37.7009 77.9276 37.9131 77.9276Z" fill="black" fill-opacity="0.65"/>
<path d="M32.0104 93.6502L32.014 93.171L34.342 91.0684C34.5422 90.8872 34.6746 90.7155 34.7389 90.5534C34.8057 90.3889 34.839 90.2173 34.839 90.0385C34.839 89.8263 34.789 89.6344 34.6889 89.4627C34.5887 89.2911 34.454 89.1552 34.2848 89.0551C34.1155 88.9526 33.926 88.9013 33.7162 88.9013C33.4969 88.9013 33.3014 88.9538 33.1297 89.0586C32.9581 89.1635 32.8222 89.3018 32.7221 89.4735C32.6243 89.6451 32.5766 89.8323 32.579 90.0349H32.0426C32.0426 89.7226 32.1165 89.4425 32.2643 89.1945C32.4121 88.9466 32.6124 88.7523 32.8651 88.6116C33.1178 88.4686 33.4039 88.3971 33.7233 88.3971C34.0356 88.3971 34.3158 88.471 34.5637 88.6188C34.814 88.7642 35.0107 88.9621 35.1537 89.2124C35.2992 89.4604 35.3719 89.7369 35.3719 90.042C35.3719 90.2566 35.3456 90.4461 35.2932 90.6106C35.2431 90.7727 35.1633 90.9241 35.0536 91.0648C34.9463 91.2031 34.8092 91.3461 34.6424 91.4939L32.5754 93.3606L32.4932 93.146H35.3719V93.6502H32.0104ZM36.5077 93.6538L38.403 89.0157H36.0178V88.5044H38.9644V89.0157L37.0727 93.6538H36.5077Z" fill="black" fill-opacity="0.65"/>
<path d="M51.6496 18.022L50.162 12.8725H50.7091L51.9142 17.1244L53.1122 12.8761L53.6629 12.8725L54.868 17.1244L56.0659 12.8725H56.6166L55.1326 18.022H54.6033L53.3875 13.7987L52.1788 18.022H51.6496Z" fill="black" fill-opacity="0.65"/>
<path d="M51.9285 32.4518C51.6734 32.4518 51.4386 32.4066 51.224 32.316C51.0095 32.2254 50.8247 32.0966 50.6697 31.9298C50.5148 31.7605 50.4015 31.559 50.33 31.3254L50.8307 31.1752C50.9165 31.4303 51.0571 31.6234 51.2526 31.7545C51.4505 31.8856 51.6734 31.9488 51.9213 31.9441C52.1502 31.9393 52.3469 31.888 52.5114 31.7903C52.6783 31.6925 52.8058 31.5567 52.894 31.3826C52.9822 31.2086 53.0263 31.0071 53.0263 30.7783C53.0263 30.4278 52.9238 30.1465 52.7188 29.9343C52.5162 29.7198 52.248 29.6125 51.9142 29.6125C51.8212 29.6125 51.7235 29.6256 51.621 29.6518C51.5184 29.6757 51.4231 29.7102 51.3349 29.7555L51.0703 29.3372L53.0728 27.4884L53.1586 27.7029H50.5339V27.1987H53.5091V27.7101L51.764 29.3765L51.7568 29.1691C52.1144 29.1238 52.4291 29.1643 52.7009 29.2907C52.9727 29.417 53.1849 29.6101 53.3374 29.87C53.4924 30.1274 53.5699 30.4302 53.5699 30.7783C53.5699 31.1073 53.4984 31.3981 53.3553 31.6508C53.2147 31.9011 53.0204 32.0978 52.7724 32.2409C52.5245 32.3815 52.2432 32.4518 51.9285 32.4518ZM56.1785 32.4554C55.8614 32.4554 55.5753 32.3815 55.3202 32.2337C55.0675 32.0859 54.8673 31.8856 54.7195 31.6329C54.5716 31.3779 54.4977 31.0918 54.4977 30.7747V28.7721C54.4977 28.4551 54.5716 28.1702 54.7195 27.9175C54.8673 27.6624 55.0675 27.4609 55.3202 27.3131C55.5753 27.1653 55.8614 27.0914 56.1785 27.0914C56.4955 27.0914 56.7804 27.1653 57.0331 27.3131C57.2882 27.4609 57.4897 27.6624 57.6375 27.9175C57.7853 28.1702 57.8592 28.4551 57.8592 28.7721V30.7747C57.8592 31.0918 57.7853 31.3779 57.6375 31.6329C57.4897 31.8856 57.2882 32.0859 57.0331 32.2337C56.7804 32.3815 56.4955 32.4554 56.1785 32.4554ZM56.1785 31.9476C56.3906 31.9476 56.5837 31.8964 56.7578 31.7939C56.9318 31.689 57.0701 31.5495 57.1726 31.3755C57.2751 31.2014 57.3264 31.0095 57.3264 30.7997V28.7471C57.3264 28.5349 57.2751 28.3418 57.1726 28.1678C57.0701 27.9938 56.9318 27.8555 56.7578 27.753C56.5837 27.6481 56.3906 27.5956 56.1785 27.5956C55.9663 27.5956 55.7732 27.6481 55.5991 27.753C55.4251 27.8555 55.2868 27.9938 55.1843 28.1678C55.0818 28.3418 55.0306 28.5349 55.0306 28.7471V30.7997C55.0306 31.0095 55.0818 31.2014 55.1843 31.3755C55.2868 31.5495 55.4251 31.689 55.5991 31.7939C55.7732 31.8964 55.9663 31.9476 56.1785 31.9476Z" fill="black" fill-opacity="0.25"/>
<path d="M52.2253 47.7821C51.9082 47.7821 51.6222 47.7082 51.3671 47.5604C51.1144 47.4126 50.9141 47.2123 50.7663 46.9596C50.6185 46.7045 50.5446 46.4184 50.5446 46.1014V44.0988C50.5446 43.7817 50.6185 43.4968 50.7663 43.2441C50.9141 42.9891 51.1144 42.7876 51.3671 42.6398C51.6222 42.492 51.9082 42.4181 52.2253 42.4181C52.5424 42.4181 52.8273 42.492 53.08 42.6398C53.3351 42.7876 53.5365 42.9891 53.6843 43.2441C53.8321 43.4968 53.906 43.7817 53.906 44.0988V46.1014C53.906 46.4184 53.8321 46.7045 53.6843 46.9596C53.5365 47.2123 53.3351 47.4126 53.08 47.5604C52.8273 47.7082 52.5424 47.7821 52.2253 47.7821ZM52.2253 47.2743C52.4375 47.2743 52.6306 47.223 52.8046 47.1205C52.9786 47.0156 53.1169 46.8762 53.2194 46.7021C53.3219 46.5281 53.3732 46.3362 53.3732 46.1264V44.0738C53.3732 43.8616 53.3219 43.6685 53.2194 43.4945C53.1169 43.3204 52.9786 43.1822 52.8046 43.0796C52.6306 42.9747 52.4375 42.9223 52.2253 42.9223C52.0131 42.9223 51.82 42.9747 51.646 43.0796C51.472 43.1822 51.3337 43.3204 51.2312 43.4945C51.1287 43.6685 51.0774 43.8616 51.0774 44.0738V46.1264C51.0774 46.3362 51.1287 46.5281 51.2312 46.7021C51.3337 46.8762 51.472 47.0156 51.646 47.1205C51.82 47.223 52.0131 47.2743 52.2253 47.2743ZM55.1852 47.6748L57.0805 43.0367H54.6953V42.5254H57.6419V43.0367L55.7502 47.6748H55.1852Z" fill="black" fill-opacity="0.65"/>
<path d="M52.2253 109.087C51.9082 109.087 51.6222 109.013 51.3671 108.866C51.1144 108.718 50.9141 108.517 50.7663 108.265C50.6185 108.01 50.5446 107.724 50.5446 107.407V105.404C50.5446 105.087 50.6185 104.802 50.7663 104.549C50.9141 104.294 51.1144 104.093 51.3671 103.945C51.6222 103.797 51.9082 103.723 52.2253 103.723C52.5424 103.723 52.8273 103.797 53.08 103.945C53.3351 104.093 53.5365 104.294 53.6843 104.549C53.8321 104.802 53.906 105.087 53.906 105.404V107.407C53.906 107.724 53.8321 108.01 53.6843 108.265C53.5365 108.517 53.3351 108.718 53.08 108.866C52.8273 109.013 52.5424 109.087 52.2253 109.087ZM52.2253 108.579C52.4375 108.579 52.6306 108.528 52.8046 108.426C52.9786 108.321 53.1169 108.181 53.2194 108.007C53.3219 107.833 53.3732 107.641 53.3732 107.432V105.379C53.3732 105.167 53.3219 104.974 53.2194 104.8C53.1169 104.626 52.9786 104.487 52.8046 104.385C52.6306 104.28 52.4375 104.227 52.2253 104.227C52.0131 104.227 51.82 104.28 51.646 104.385C51.472 104.487 51.3337 104.626 51.2312 104.8C51.1287 104.974 51.0774 105.167 51.0774 105.379V107.432C51.0774 107.641 51.1287 107.833 51.2312 108.007C51.3337 108.181 51.472 108.321 51.646 108.426C51.82 108.528 52.0131 108.579 52.2253 108.579ZM56.4296 109.087C56.1626 109.087 55.9159 109.032 55.6894 108.923C55.4629 108.813 55.2698 108.662 55.1101 108.469C54.9503 108.276 54.8359 108.054 54.7668 107.803L55.271 107.668C55.3163 107.854 55.3985 108.014 55.5177 108.15C55.6369 108.284 55.7764 108.388 55.9361 108.461C56.0982 108.535 56.2675 108.572 56.4439 108.572C56.6728 108.572 56.8778 108.517 57.059 108.408C57.2426 108.296 57.388 108.148 57.4953 107.964C57.6025 107.781 57.6562 107.579 57.6562 107.36C57.6562 107.134 57.6002 106.93 57.4881 106.749C57.3761 106.565 57.2283 106.42 57.0447 106.312C56.8611 106.205 56.6609 106.151 56.4439 106.151C56.2008 106.151 55.991 106.205 55.8145 106.312C55.6381 106.417 55.4975 106.549 55.3926 106.709L54.9134 106.509L55.0707 103.831H57.8207V104.335H55.3032L55.5642 104.088L55.4248 106.373L55.2925 106.198C55.4403 106.029 55.6191 105.896 55.8289 105.801C56.0386 105.706 56.2592 105.658 56.4904 105.658C56.8075 105.658 57.0936 105.734 57.3487 105.887C57.6037 106.037 57.8064 106.241 57.9566 106.498C58.1068 106.756 58.1819 107.043 58.1819 107.36C58.1819 107.675 58.102 107.963 57.9423 108.225C57.7825 108.485 57.5704 108.694 57.3057 108.851C57.0411 109.009 56.7491 109.087 56.4296 109.087Z" fill="black" fill-opacity="0.25"/>
<path d="M51.4422 63.001V58.438L50.4731 59.0209V58.4308L51.4422 57.8515H51.975V63.001H51.4422ZM55.5985 63.001V62.0033H53.1883V61.5026L54.9119 57.8515H55.502L53.7784 61.5026H55.5985V60.0007H56.1278V61.5026H56.6892V62.0033H56.1278V63.001H55.5985Z" fill="black" fill-opacity="0.65"/>
<path d="M50.4015 78.3245L50.4051 77.8454L52.7331 75.7427C52.9334 75.5615 53.0657 75.3898 53.13 75.2277C53.1968 75.0632 53.2302 74.8916 53.2302 74.7128C53.2302 74.5006 53.1801 74.3087 53.08 74.1371C52.9798 73.9654 52.8451 73.8295 52.6759 73.7294C52.5066 73.6269 52.3171 73.5756 52.1073 73.5756C51.888 73.5756 51.6925 73.6281 51.5208 73.733C51.3492 73.8379 51.2133 73.9761 51.1132 74.1478C51.0154 74.3194 50.9677 74.5066 50.9701 74.7092H50.4337C50.4337 74.3969 50.5076 74.1168 50.6554 73.8689C50.8032 73.6209 51.0035 73.4266 51.2562 73.286C51.5089 73.1429 51.795 73.0714 52.1144 73.0714C52.4268 73.0714 52.7069 73.1453 52.9548 73.2931C53.2051 73.4385 53.4018 73.6364 53.5448 73.8867C53.6903 74.1347 53.763 74.4112 53.763 74.7164C53.763 74.9309 53.7368 75.1205 53.6843 75.2849C53.6342 75.4471 53.5544 75.5984 53.4447 75.7391C53.3374 75.8774 53.2004 76.0204 53.0335 76.1682L50.9666 78.0349L50.8843 77.8203H53.763V78.3245H50.4015ZM55.521 78.3281V73.7651L54.5519 74.348V73.758L55.521 73.1787H56.0539V78.3281H55.521Z" fill="black" fill-opacity="0.65"/>
<path d="M50.4015 93.6502L50.4051 93.171L52.7331 91.0684C52.9334 90.8872 53.0657 90.7155 53.13 90.5534C53.1968 90.3889 53.2302 90.2173 53.2302 90.0385C53.2302 89.8263 53.1801 89.6344 53.08 89.4627C52.9798 89.2911 52.8451 89.1552 52.6759 89.0551C52.5066 88.9526 52.3171 88.9013 52.1073 88.9013C51.888 88.9013 51.6925 88.9538 51.5208 89.0586C51.3492 89.1635 51.2133 89.3018 51.1132 89.4735C51.0154 89.6451 50.9677 89.8323 50.9701 90.0349H50.4337C50.4337 89.7226 50.5076 89.4425 50.6554 89.1945C50.8032 88.9466 51.0035 88.7523 51.2562 88.6116C51.5089 88.4686 51.795 88.3971 52.1144 88.3971C52.4268 88.3971 52.7069 88.471 52.9548 88.6188C53.2051 88.7642 53.4018 88.9621 53.5448 89.2124C53.6903 89.4604 53.763 89.7369 53.763 90.042C53.763 90.2566 53.7368 90.4461 53.6843 90.6106C53.6342 90.7727 53.5544 90.9241 53.4447 91.0648C53.3374 91.2031 53.2004 91.3461 53.0335 91.4939L50.9666 93.3606L50.8843 93.146H53.763V93.6502H50.4015ZM56.1933 93.7611C55.8715 93.7611 55.5866 93.6967 55.3387 93.568C55.0931 93.4392 54.9 93.2593 54.7593 93.028C54.6211 92.7944 54.5519 92.5214 54.5519 92.2091C54.5519 91.8896 54.6294 91.606 54.7844 91.358C54.9393 91.1077 55.1754 90.9182 55.4924 90.7894L55.4853 90.9968C55.2207 90.8991 55.0192 90.7394 54.8809 90.5177C54.7427 90.2959 54.6735 90.0504 54.6735 89.781C54.6735 89.4949 54.7391 89.2494 54.8702 89.0443C55.0013 88.8369 55.1801 88.6772 55.4066 88.5652C55.6355 88.4531 55.8977 88.3971 56.1933 88.3971C56.4889 88.3971 56.7512 88.4531 56.98 88.5652C57.2089 88.6772 57.3889 88.8369 57.52 89.0443C57.6511 89.2494 57.7167 89.4949 57.7167 89.781C57.7167 90.0504 57.6499 90.2948 57.5164 90.5141C57.3853 90.7334 57.1839 90.8943 56.9121 90.9968L56.8942 90.7894C57.2113 90.9158 57.4485 91.1041 57.6058 91.3544C57.7656 91.6048 57.8454 91.8896 57.8454 92.2091C57.8454 92.5214 57.7751 92.7944 57.6345 93.028C57.4938 93.2593 57.2995 93.4392 57.0516 93.568C56.8036 93.6967 56.5175 93.7611 56.1933 93.7611ZM56.1933 93.2569C56.5175 93.2569 56.781 93.1675 56.9836 92.9887C57.1863 92.8075 57.2876 92.5476 57.2876 92.2091C57.2876 91.8658 57.1875 91.606 56.9872 91.4295C56.7869 91.2507 56.5223 91.1613 56.1933 91.1613C55.8643 91.1613 55.6009 91.2507 55.403 91.4295C55.2052 91.606 55.1062 91.8658 55.1062 92.2091C55.1062 92.5476 55.2063 92.8075 55.4066 92.9887C55.6069 93.1675 55.8691 93.2569 56.1933 93.2569ZM56.1933 90.6535C56.4794 90.6535 56.7118 90.5808 56.8906 90.4354C57.0694 90.2876 57.1588 90.0695 57.1588 89.781C57.1588 89.4925 57.0694 89.2768 56.8906 89.1337C56.7118 88.9883 56.4794 88.9156 56.1933 88.9156C55.9072 88.9156 55.6748 88.9883 55.496 89.1337C55.3196 89.2768 55.2314 89.4925 55.2314 89.781C55.2314 90.0695 55.3196 90.2876 55.496 90.4354C55.6748 90.5808 55.9072 90.6535 56.1933 90.6535Z" fill="black" fill-opacity="0.65"/>
<path d="M70.3063 18.022V13.3767H68.5076V12.8725H72.6307V13.3767H70.832V18.022H70.3063Z" fill="black" fill-opacity="0.65"/>
<path d="M70.6174 32.4554C70.3003 32.4554 70.0142 32.3815 69.7592 32.2337C69.5065 32.0859 69.3062 31.8856 69.1584 31.6329C69.0106 31.3779 68.9367 31.0918 68.9367 30.7747V28.7721C68.9367 28.4551 69.0106 28.1702 69.1584 27.9175C69.3062 27.6624 69.5065 27.4609 69.7592 27.3131C70.0142 27.1653 70.3003 27.0914 70.6174 27.0914C70.9345 27.0914 71.2194 27.1653 71.4721 27.3131C71.7271 27.4609 71.9286 27.6624 72.0764 27.9175C72.2242 28.1702 72.2981 28.4551 72.2981 28.7721V30.7747C72.2981 31.0918 72.2242 31.3779 72.0764 31.6329C71.9286 31.8856 71.7271 32.0859 71.4721 32.2337C71.2194 32.3815 70.9345 32.4554 70.6174 32.4554ZM70.6174 31.9476C70.8296 31.9476 71.0227 31.8964 71.1967 31.7939C71.3707 31.689 71.509 31.5495 71.6115 31.3755C71.714 31.2014 71.7653 31.0095 71.7653 30.7997V28.7471C71.7653 28.5349 71.714 28.3418 71.6115 28.1678C71.509 27.9938 71.3707 27.8555 71.1967 27.753C71.0227 27.6481 70.8296 27.5956 70.6174 27.5956C70.4052 27.5956 70.2121 27.6481 70.0381 27.753C69.8641 27.8555 69.7258 27.9938 69.6233 28.1678C69.5208 28.3418 69.4695 28.5349 69.4695 28.7471V30.7997C69.4695 31.0095 69.5208 31.2014 69.6233 31.3755C69.7258 31.5495 69.8641 31.689 70.0381 31.7939C70.2121 31.8964 70.4052 31.9476 70.6174 31.9476ZM74.1995 32.3481V27.7852L73.2304 28.3681V27.778L74.1995 27.1987H74.7323V32.3481H74.1995Z" fill="black" fill-opacity="0.65"/>
<path d="M70.6174 47.7821C70.3003 47.7821 70.0142 47.7082 69.7592 47.5604C69.5065 47.4126 69.3062 47.2123 69.1584 46.9596C69.0106 46.7045 68.9367 46.4184 68.9367 46.1014V44.0988C68.9367 43.7817 69.0106 43.4968 69.1584 43.2441C69.3062 42.9891 69.5065 42.7876 69.7592 42.6398C70.0142 42.492 70.3003 42.4181 70.6174 42.4181C70.9345 42.4181 71.2194 42.492 71.4721 42.6398C71.7271 42.7876 71.9286 42.9891 72.0764 43.2441C72.2242 43.4968 72.2981 43.7817 72.2981 44.0988V46.1014C72.2981 46.4184 72.2242 46.7045 72.0764 46.9596C71.9286 47.2123 71.7271 47.4126 71.4721 47.5604C71.2194 47.7082 70.9345 47.7821 70.6174 47.7821ZM70.6174 47.2743C70.8296 47.2743 71.0227 47.223 71.1967 47.1205C71.3707 47.0156 71.509 46.8762 71.6115 46.7021C71.714 46.5281 71.7653 46.3362 71.7653 46.1264V44.0738C71.7653 43.8616 71.714 43.6685 71.6115 43.4945C71.509 43.3204 71.3707 43.1822 71.1967 43.0796C71.0227 42.9747 70.8296 42.9223 70.6174 42.9223C70.4052 42.9223 70.2121 42.9747 70.0381 43.0796C69.8641 43.1822 69.7258 43.3204 69.6233 43.4945C69.5208 43.6685 69.4695 43.8616 69.4695 44.0738V46.1264C69.4695 46.3362 69.5208 46.5281 69.6233 46.7021C69.7258 46.8762 69.8641 47.0156 70.0381 47.1205C70.2121 47.223 70.4052 47.2743 70.6174 47.2743ZM74.8718 47.7821C74.5499 47.7821 74.265 47.7177 74.0171 47.589C73.7716 47.4602 73.5785 47.2803 73.4378 47.049C73.2995 46.8154 73.2304 46.5424 73.2304 46.2301C73.2304 45.9106 73.3079 45.6269 73.4628 45.379C73.6178 45.1287 73.8538 44.9392 74.1709 44.8104L74.1637 45.0178C73.8991 44.9201 73.6977 44.7604 73.5594 44.5387C73.4211 44.3169 73.352 44.0714 73.352 43.802C73.352 43.5159 73.4175 43.2704 73.5487 43.0653C73.6798 42.8579 73.8586 42.6982 74.0851 42.5862C74.3139 42.4741 74.5762 42.4181 74.8718 42.4181C75.1674 42.4181 75.4296 42.4741 75.6585 42.5862C75.8874 42.6982 76.0673 42.8579 76.1985 43.0653C76.3296 43.2704 76.3951 43.5159 76.3951 43.802C76.3951 44.0714 76.3284 44.3157 76.1949 44.5351C76.0638 44.7544 75.8623 44.9153 75.5905 45.0178L75.5727 44.8104C75.8897 44.9368 76.1269 45.1251 76.2843 45.3754C76.444 45.6258 76.5239 45.9106 76.5239 46.2301C76.5239 46.5424 76.4536 46.8154 76.3129 47.049C76.1722 47.2803 75.9779 47.4602 75.73 47.589C75.4821 47.7177 75.196 47.7821 74.8718 47.7821ZM74.8718 47.2779C75.196 47.2779 75.4594 47.1885 75.6621 47.0097C75.8647 46.8285 75.966 46.5686 75.966 46.2301C75.966 45.8868 75.8659 45.6269 75.6656 45.4505C75.4654 45.2717 75.2008 45.1823 74.8718 45.1823C74.5428 45.1823 74.2793 45.2717 74.0815 45.4505C73.8836 45.6269 73.7847 45.8868 73.7847 46.2301C73.7847 46.5686 73.8848 46.8285 74.0851 47.0097C74.2853 47.1885 74.5475 47.2779 74.8718 47.2779ZM74.8718 44.6745C75.1579 44.6745 75.3903 44.6018 75.5691 44.4564C75.7479 44.3086 75.8373 44.0905 75.8373 43.802C75.8373 43.5135 75.7479 43.2978 75.5691 43.1547C75.3903 43.0093 75.1579 42.9366 74.8718 42.9366C74.5857 42.9366 74.3533 43.0093 74.1745 43.1547C73.998 43.2978 73.9098 43.5135 73.9098 43.802C73.9098 44.0905 73.998 44.3086 74.1745 44.4564C74.3533 44.6018 74.5857 44.6745 74.8718 44.6745Z" fill="black" fill-opacity="0.65"/>
<path d="M70.6174 109.087C70.3003 109.087 70.0142 109.013 69.7592 108.866C69.5065 108.718 69.3062 108.517 69.1584 108.265C69.0106 108.01 68.9367 107.724 68.9367 107.407V105.404C68.9367 105.087 69.0106 104.802 69.1584 104.549C69.3062 104.294 69.5065 104.093 69.7592 103.945C70.0142 103.797 70.3003 103.723 70.6174 103.723C70.9345 103.723 71.2194 103.797 71.4721 103.945C71.7271 104.093 71.9286 104.294 72.0764 104.549C72.2242 104.802 72.2981 105.087 72.2981 105.404V107.407C72.2981 107.724 72.2242 108.01 72.0764 108.265C71.9286 108.517 71.7271 108.718 71.4721 108.866C71.2194 109.013 70.9345 109.087 70.6174 109.087ZM70.6174 108.579C70.8296 108.579 71.0227 108.528 71.1967 108.426C71.3707 108.321 71.509 108.181 71.6115 108.007C71.714 107.833 71.7653 107.641 71.7653 107.432V105.379C71.7653 105.167 71.714 104.974 71.6115 104.8C71.509 104.626 71.3707 104.487 71.1967 104.385C71.0227 104.28 70.8296 104.227 70.6174 104.227C70.4052 104.227 70.2121 104.28 70.0381 104.385C69.8641 104.487 69.7258 104.626 69.6233 104.8C69.5208 104.974 69.4695 105.167 69.4695 105.379V107.432C69.4695 107.641 69.5208 107.833 69.6233 108.007C69.7258 108.181 69.8641 108.321 70.0381 108.426C70.2121 108.528 70.4052 108.579 70.6174 108.579ZM75.0434 109.087C74.7216 109.087 74.4283 109.01 74.1637 108.855C73.9015 108.697 73.6917 108.485 73.5343 108.218C73.3794 107.949 73.3019 107.646 73.3019 107.31V105.526C73.3019 105.18 73.3794 104.872 73.5343 104.603C73.6893 104.331 73.9003 104.118 74.1673 103.963C74.4367 103.806 74.7418 103.727 75.0828 103.727C75.376 103.727 75.6478 103.791 75.8981 103.92C76.1508 104.049 76.357 104.229 76.5167 104.46L76.1126 104.792C76.003 104.621 75.8576 104.484 75.6764 104.381C75.4952 104.279 75.2973 104.227 75.0828 104.227C74.842 104.227 74.6274 104.286 74.4391 104.403C74.2507 104.52 74.1029 104.673 73.9957 104.864C73.8884 105.052 73.8347 105.257 73.8347 105.479V106.602L73.7024 106.452C73.8526 106.216 74.0493 106.025 74.2925 105.88C74.538 105.734 74.805 105.661 75.0935 105.661C75.4129 105.661 75.7002 105.738 75.9553 105.89C76.2104 106.041 76.413 106.244 76.5632 106.502C76.7134 106.759 76.7885 107.048 76.7885 107.367C76.7885 107.684 76.7086 107.973 76.5489 108.233C76.3916 108.492 76.1806 108.7 75.916 108.855C75.6537 109.01 75.3629 109.087 75.0434 109.087ZM75.0434 108.576C75.2675 108.576 75.4713 108.522 75.6549 108.415C75.8409 108.308 75.9875 108.162 76.0948 107.979C76.2044 107.795 76.2593 107.591 76.2593 107.367C76.2593 107.143 76.2044 106.939 76.0948 106.756C75.9875 106.57 75.8421 106.423 75.6585 106.316C75.4749 106.206 75.2711 106.151 75.047 106.151C74.8229 106.151 74.6191 106.206 74.4355 106.316C74.2519 106.423 74.1053 106.57 73.9957 106.756C73.8884 106.939 73.8347 107.143 73.8347 107.367C73.8347 107.589 73.8884 107.792 73.9957 107.975C74.1029 108.159 74.2484 108.305 74.4319 108.415C74.6155 108.522 74.8193 108.576 75.0434 108.576Z" fill="black" fill-opacity="0.25"/>
<path d="M69.8343 63.001V58.438L68.8652 59.0209V58.4308L69.8343 57.8515H70.3671V63.001H69.8343ZM73.2432 63.1083C72.9762 63.1083 72.7295 63.0534 72.503 62.9438C72.2765 62.8341 72.0834 62.6827 71.9237 62.4896C71.764 62.2965 71.6495 62.0748 71.5804 61.8245L72.0846 61.6886C72.1299 61.8745 72.2122 62.0355 72.3314 62.1713C72.4506 62.3048 72.59 62.4086 72.7498 62.4825C72.9119 62.5564 73.0811 62.5933 73.2575 62.5933C73.4864 62.5933 73.6914 62.5385 73.8726 62.4288C74.0562 62.3168 74.2016 62.169 74.3089 61.9854C74.4162 61.8018 74.4698 61.6004 74.4698 61.381C74.4698 61.1546 74.4138 60.9507 74.3017 60.7696C74.1897 60.586 74.0419 60.4406 73.8583 60.3333C73.6747 60.226 73.4745 60.1724 73.2575 60.1724C73.0144 60.1724 72.8046 60.226 72.6282 60.3333C72.4518 60.4382 72.3111 60.5705 72.2062 60.7302L71.727 60.53L71.8844 57.8515H74.6343V58.3558H72.1168L72.3778 58.109L72.2384 60.3941L72.1061 60.2188C72.2539 60.0496 72.4327 59.9173 72.6425 59.8219C72.8523 59.7266 73.0728 59.6789 73.304 59.6789C73.6211 59.6789 73.9072 59.7552 74.1623 59.9077C74.4174 60.0579 74.62 60.2618 74.7702 60.5192C74.9204 60.7767 74.9955 61.064 74.9955 61.381C74.9955 61.6957 74.9156 61.9842 74.7559 62.2464C74.5962 62.5063 74.384 62.7149 74.1194 62.8722C73.8547 63.0296 73.5627 63.1083 73.2432 63.1083Z" fill="black" fill-opacity="0.65"/>
<path d="M68.7936 78.3245L68.7972 77.8454L71.1252 75.7427C71.3254 75.5615 71.4578 75.3898 71.5221 75.2277C71.5889 75.0632 71.6223 74.8916 71.6223 74.7128C71.6223 74.5006 71.5722 74.3087 71.4721 74.1371C71.3719 73.9654 71.2372 73.8295 71.068 73.7294C70.8987 73.6269 70.7092 73.5756 70.4994 73.5756C70.2801 73.5756 70.0846 73.6281 69.9129 73.733C69.7413 73.8379 69.6054 73.9761 69.5053 74.1478C69.4075 74.3194 69.3598 74.5066 69.3622 74.7092H68.8258C68.8258 74.3969 68.8997 74.1168 69.0475 73.8689C69.1953 73.6209 69.3956 73.4266 69.6483 73.286C69.901 73.1429 70.1871 73.0714 70.5065 73.0714C70.8188 73.0714 71.099 73.1453 71.3469 73.2931C71.5972 73.4385 71.7939 73.6364 71.9369 73.8867C72.0824 74.1347 72.1551 74.4112 72.1551 74.7164C72.1551 74.9309 72.1289 75.1205 72.0764 75.2849C72.0263 75.4471 71.9465 75.5984 71.8368 75.7391C71.7295 75.8774 71.5925 76.0204 71.4256 76.1682L69.3586 78.0349L69.2764 77.8203H72.1551V78.3245H68.7936ZM72.8725 78.3245L72.8761 77.8454L75.2041 75.7427C75.4043 75.5615 75.5366 75.3898 75.601 75.2277C75.6678 75.0632 75.7011 74.8916 75.7011 74.7128C75.7011 74.5006 75.6511 74.3087 75.5509 74.1371C75.4508 73.9654 75.3161 73.8295 75.1468 73.7294C74.9776 73.6269 74.7881 73.5756 74.5783 73.5756C74.3589 73.5756 74.1634 73.6281 73.9918 73.733C73.8202 73.8379 73.6843 73.9761 73.5841 74.1478C73.4864 74.3194 73.4387 74.5066 73.4411 74.7092H72.9047C72.9047 74.3969 72.9786 74.1168 73.1264 73.8689C73.2742 73.6209 73.4745 73.4266 73.7272 73.286C73.9799 73.1429 74.266 73.0714 74.5854 73.0714C74.8977 73.0714 75.1778 73.1453 75.4258 73.2931C75.6761 73.4385 75.8728 73.6364 76.0158 73.8867C76.1612 74.1347 76.234 74.4112 76.234 74.7164C76.234 74.9309 76.2077 75.1205 76.1553 75.2849C76.1052 75.4471 76.0254 75.5984 75.9157 75.7391C75.8084 75.8774 75.6713 76.0204 75.5044 76.1682L73.4375 78.0349L73.3553 77.8203H76.234V78.3245H72.8725Z" fill="black" fill-opacity="0.65"/>
<path d="M68.7936 93.6502L68.7972 93.171L71.1252 91.0684C71.3254 90.8872 71.4578 90.7155 71.5221 90.5534C71.5889 90.3889 71.6223 90.2173 71.6223 90.0385C71.6223 89.8263 71.5722 89.6344 71.4721 89.4627C71.3719 89.2911 71.2372 89.1552 71.068 89.0551C70.8987 88.9526 70.7092 88.9013 70.4994 88.9013C70.2801 88.9013 70.0846 88.9538 69.9129 89.0586C69.7413 89.1635 69.6054 89.3018 69.5053 89.4735C69.4075 89.6451 69.3598 89.8323 69.3622 90.0349H68.8258C68.8258 89.7226 68.8997 89.4425 69.0475 89.1945C69.1953 88.9466 69.3956 88.7523 69.6483 88.6116C69.901 88.4686 70.1871 88.3971 70.5065 88.3971C70.8188 88.3971 71.099 88.471 71.3469 88.6188C71.5972 88.7642 71.7939 88.9621 71.9369 89.2124C72.0824 89.4604 72.1551 89.7369 72.1551 90.042C72.1551 90.2566 72.1289 90.4461 72.0764 90.6106C72.0263 90.7727 71.9465 90.9241 71.8368 91.0648C71.7295 91.2031 71.5925 91.3461 71.4256 91.4939L69.3586 93.3606L69.2764 93.146H72.1551V93.6502H68.7936ZM74.7106 88.4007C75.0324 88.4007 75.3245 88.4793 75.5867 88.6367C75.8513 88.7916 76.0611 89.0038 76.2161 89.2732C76.3734 89.5402 76.4521 89.8418 76.4521 90.1779V91.9624C76.4521 92.308 76.3746 92.6168 76.2196 92.8885C76.0647 93.1579 75.8525 93.3713 75.5831 93.5286C75.3161 93.6836 75.0122 93.7611 74.6712 93.7611C74.378 93.7611 74.105 93.6967 73.8523 93.568C73.602 93.4392 73.397 93.2593 73.2373 93.028L73.6414 92.6954C73.751 92.8671 73.8964 93.0042 74.0776 93.1067C74.2588 93.2092 74.4567 93.2604 74.6712 93.2604C74.912 93.2604 75.1266 93.202 75.3149 93.0852C75.5033 92.9684 75.6511 92.8158 75.7583 92.6275C75.8656 92.4368 75.9193 92.2306 75.9193 92.0088V90.886L76.0516 91.0362C75.9014 91.2722 75.7035 91.4629 75.458 91.6083C75.2148 91.7538 74.949 91.8265 74.6605 91.8265C74.3411 91.8265 74.0538 91.7514 73.7987 91.6012C73.5436 91.4486 73.341 91.2436 73.1908 90.9861C73.0406 90.7286 72.9655 90.4402 72.9655 90.1207C72.9655 89.8036 73.0442 89.5152 73.2015 89.2553C73.3612 88.9955 73.5722 88.7881 73.8345 88.6331C74.0991 88.4781 74.3911 88.4007 74.7106 88.4007ZM74.7106 88.912C74.4865 88.912 74.2815 88.9657 74.0955 89.073C73.9119 89.1802 73.7653 89.3257 73.6557 89.5092C73.5484 89.6928 73.4947 89.8966 73.4947 90.1207C73.4947 90.3448 73.5484 90.5498 73.6557 90.7358C73.7653 90.9194 73.9119 91.066 74.0955 91.1756C74.2791 91.2829 74.4829 91.3366 74.707 91.3366C74.9311 91.3366 75.1349 91.2829 75.3185 91.1756C75.5021 91.066 75.6475 90.9194 75.7548 90.7358C75.8644 90.5498 75.9193 90.3448 75.9193 90.1207C75.9193 89.899 75.8656 89.6964 75.7583 89.5128C75.6511 89.3292 75.5056 89.1838 75.3221 89.0765C75.1385 88.9669 74.9347 88.912 74.7106 88.912Z" fill="black" fill-opacity="0.65"/>
<path d="M88.2263 63.001V58.438L87.2572 59.0209V58.4308L88.2263 57.8515H88.7592V63.001H88.2263ZM91.857 63.1083C91.5352 63.1083 91.242 63.0308 90.9773 62.8758C90.7151 62.7185 90.5053 62.5063 90.348 62.2393C90.193 61.9699 90.1155 61.6671 90.1155 61.331V59.5466C90.1155 59.2009 90.193 58.8933 90.348 58.624C90.5029 58.3522 90.7139 58.1388 90.9809 57.9838C91.2503 57.8265 91.5555 57.7478 91.8964 57.7478C92.1896 57.7478 92.4614 57.8122 92.7117 57.9409C92.9644 58.0697 93.1706 58.2497 93.3304 58.4809L92.9263 58.8135C92.8166 58.6418 92.6712 58.5048 92.49 58.4022C92.3088 58.2997 92.1109 58.2485 91.8964 58.2485C91.6556 58.2485 91.441 58.3069 91.2527 58.4237C91.0644 58.5405 90.9166 58.6943 90.8093 58.885C90.702 59.0733 90.6484 59.2784 90.6484 59.5001V60.6229L90.516 60.4727C90.6662 60.2367 90.8629 60.046 91.1061 59.9006C91.3516 59.7552 91.6186 59.6824 91.9071 59.6824C92.2266 59.6824 92.5138 59.7587 92.7689 59.9113C93.024 60.0615 93.2267 60.2653 93.3768 60.5228C93.527 60.7803 93.6021 61.0687 93.6021 61.3882C93.6021 61.7053 93.5223 61.9937 93.3625 62.2536C93.2052 62.5134 92.9942 62.7209 92.7296 62.8758C92.4673 63.0308 92.1765 63.1083 91.857 63.1083ZM91.857 62.5969C92.0811 62.5969 92.285 62.5432 92.4685 62.436C92.6545 62.3287 92.8011 62.1833 92.9084 61.9997C93.0181 61.8161 93.0729 61.6123 93.0729 61.3882C93.0729 61.1641 93.0181 60.9603 92.9084 60.7767C92.8011 60.5908 92.6557 60.4441 92.4721 60.3369C92.2885 60.2272 92.0847 60.1724 91.8606 60.1724C91.6365 60.1724 91.4327 60.2272 91.2491 60.3369C91.0656 60.4441 90.9189 60.5908 90.8093 60.7767C90.702 60.9603 90.6484 61.1641 90.6484 61.3882C90.6484 61.6099 90.702 61.8126 90.8093 61.9961C90.9166 62.1797 91.062 62.3263 91.2455 62.436C91.4291 62.5432 91.6329 62.5969 91.857 62.5969Z" fill="#666666"/>
<path d="M87.1857 78.3245L87.1893 77.8454L89.5173 75.7427C89.7175 75.5615 89.8498 75.3898 89.9142 75.2277C89.981 75.0632 90.0143 74.8916 90.0143 74.7128C90.0143 74.5006 89.9643 74.3087 89.8641 74.1371C89.764 73.9654 89.6293 73.8295 89.4601 73.7294C89.2908 73.6269 89.1013 73.5756 88.8915 73.5756C88.6721 73.5756 88.4767 73.6281 88.305 73.733C88.1334 73.8379 87.9975 73.9761 87.8973 74.1478C87.7996 74.3194 87.7519 74.5066 87.7543 74.7092H87.2179C87.2179 74.3969 87.2918 74.1168 87.4396 73.8689C87.5874 73.6209 87.7877 73.4266 88.0404 73.286C88.2931 73.1429 88.5792 73.0714 88.8986 73.0714C89.2109 73.0714 89.4911 73.1453 89.739 73.2931C89.9893 73.4385 90.186 73.6364 90.329 73.8867C90.4745 74.1347 90.5472 74.4112 90.5472 74.7164C90.5472 74.9309 90.5209 75.1205 90.4685 75.2849C90.4184 75.4471 90.3386 75.5984 90.2289 75.7391C90.1216 75.8774 89.9845 76.0204 89.8177 76.1682L87.7507 78.0349L87.6685 77.8203H90.5472V78.3245H87.1857ZM92.7916 78.4318C92.5365 78.4318 92.3016 78.3865 92.0871 78.2959C91.8725 78.2053 91.6878 78.0766 91.5328 77.9097C91.3778 77.7405 91.2646 77.539 91.1931 77.3054L91.6937 77.1552C91.7795 77.4103 91.9202 77.6034 92.1157 77.7345C92.3136 77.8656 92.5365 77.9288 92.7844 77.924C93.0133 77.9193 93.2099 77.868 93.3744 77.7703C93.5413 77.6725 93.6689 77.5366 93.7571 77.3626C93.8453 77.1886 93.8894 76.9871 93.8894 76.7583C93.8894 76.4078 93.7869 76.1265 93.5818 75.9143C93.3792 75.6998 93.111 75.5925 92.7772 75.5925C92.6843 75.5925 92.5865 75.6056 92.484 75.6318C92.3815 75.6557 92.2861 75.6902 92.1979 75.7355L91.9333 75.3171L93.9359 73.4683L94.0217 73.6829H91.3969V73.1787H94.3721V73.6901L92.6271 75.3565L92.6199 75.1491C92.9775 75.1038 93.2922 75.1443 93.564 75.2706C93.8357 75.397 94.0479 75.5901 94.2005 75.85C94.3555 76.1074 94.4329 76.4102 94.4329 76.7583C94.4329 77.0873 94.3614 77.3781 94.2184 77.6308C94.0777 77.8811 93.8834 78.0778 93.6355 78.2208C93.3876 78.3615 93.1062 78.4318 92.7916 78.4318Z" fill="black" fill-opacity="0.65"/>
<path d="M88.7127 93.7575C88.4576 93.7575 88.2228 93.7122 88.0082 93.6216C87.7936 93.531 87.6089 93.4023 87.4539 93.2354C87.299 93.0662 87.1857 92.8647 87.1142 92.6311L87.6148 92.4809C87.7007 92.736 87.8413 92.9291 88.0368 93.0602C88.2347 93.1913 88.4576 93.2545 88.7055 93.2497C88.9344 93.245 89.1311 93.1937 89.2956 93.096C89.4624 92.9982 89.59 92.8623 89.6782 92.6883C89.7664 92.5143 89.8105 92.3128 89.8105 92.0839C89.8105 91.7335 89.708 91.4522 89.503 91.24C89.3003 91.0254 89.0321 90.9182 88.6984 90.9182C88.6054 90.9182 88.5077 90.9313 88.4051 90.9575C88.3026 90.9813 88.2073 91.0159 88.1191 91.0612L87.8544 90.6428L89.857 88.794L89.9428 89.0086H87.318V88.5044H90.2933V89.0157L88.5482 90.6822L88.541 90.4747C88.8986 90.4294 89.2133 90.47 89.4851 90.5963C89.7569 90.7227 89.969 90.9158 90.1216 91.1756C90.2766 91.4331 90.3541 91.7359 90.3541 92.0839C90.3541 92.4129 90.2825 92.7038 90.1395 92.9565C89.9988 93.2068 89.8045 93.4035 89.5566 93.5465C89.3087 93.6872 89.0274 93.7575 88.7127 93.7575ZM92.9626 93.7611C92.6456 93.7611 92.3595 93.6872 92.1044 93.5394C91.8517 93.3916 91.6514 93.1913 91.5036 92.9386C91.3558 92.6835 91.2819 92.3974 91.2819 92.0804V90.0778C91.2819 89.7607 91.3558 89.4758 91.5036 89.2231C91.6514 88.9681 91.8517 88.7666 92.1044 88.6188C92.3595 88.471 92.6456 88.3971 92.9626 88.3971C93.2797 88.3971 93.5646 88.471 93.8173 88.6188C94.0724 88.7666 94.2738 88.9681 94.4216 89.2231C94.5695 89.4758 94.6434 89.7607 94.6434 90.0778V92.0804C94.6434 92.3974 94.5695 92.6835 94.4216 92.9386C94.2738 93.1913 94.0724 93.3916 93.8173 93.5394C93.5646 93.6872 93.2797 93.7611 92.9626 93.7611ZM92.9626 93.2533C93.1748 93.2533 93.3679 93.202 93.542 93.0995C93.716 92.9946 93.8543 92.8552 93.9568 92.6811C94.0593 92.5071 94.1105 92.3152 94.1105 92.1054V90.0528C94.1105 89.8406 94.0593 89.6475 93.9568 89.4735C93.8543 89.2994 93.716 89.1612 93.542 89.0586C93.3679 88.9538 93.1748 88.9013 92.9626 88.9013C92.7505 88.9013 92.5574 88.9538 92.3833 89.0586C92.2093 89.1612 92.071 89.2994 91.9685 89.4735C91.866 89.6475 91.8147 89.8406 91.8147 90.0528V92.1054C91.8147 92.3152 91.866 92.5071 91.9685 92.6811C92.071 92.8552 92.2093 92.9946 92.3833 93.0995C92.5574 93.202 92.7505 93.2533 92.9626 93.2533Z" fill="black" fill-opacity="0.65"/>
<path d="M87.3288 18.022V12.8725H90.2861V13.3982H87.8544V15.1862H89.857V15.7083H87.8544V18.022H87.3288Z" fill="black" fill-opacity="0.65"/>
<path d="M89.0095 32.4554C88.6924 32.4554 88.4063 32.3815 88.1512 32.2337C87.8985 32.0859 87.6983 31.8856 87.5505 31.6329C87.4027 31.3779 87.3288 31.0918 87.3288 30.7747V28.7721C87.3288 28.4551 87.4027 28.1702 87.5505 27.9175C87.6983 27.6624 87.8985 27.4609 88.1512 27.3131C88.4063 27.1653 88.6924 27.0914 89.0095 27.0914C89.3266 27.0914 89.6114 27.1653 89.8641 27.3131C90.1192 27.4609 90.3207 27.6624 90.4685 27.9175C90.6163 28.1702 90.6902 28.4551 90.6902 28.7721V30.7747C90.6902 31.0918 90.6163 31.3779 90.4685 31.6329C90.3207 31.8856 90.1192 32.0859 89.8641 32.2337C89.6114 32.3815 89.3266 32.4554 89.0095 32.4554ZM89.0095 31.9476C89.2217 31.9476 89.4148 31.8964 89.5888 31.7939C89.7628 31.689 89.9011 31.5495 90.0036 31.3755C90.1061 31.2014 90.1574 31.0095 90.1574 30.7997V28.7471C90.1574 28.5349 90.1061 28.3418 90.0036 28.1678C89.9011 27.9938 89.7628 27.8555 89.5888 27.753C89.4148 27.6481 89.2217 27.5956 89.0095 27.5956C88.7973 27.5956 88.6042 27.6481 88.4302 27.753C88.2561 27.8555 88.1179 27.9938 88.0154 28.1678C87.9128 28.3418 87.8616 28.5349 87.8616 28.7471V30.7997C87.8616 31.0095 87.9128 31.2014 88.0154 31.3755C88.1179 31.5495 88.2561 31.689 88.4302 31.7939C88.6042 31.8964 88.7973 31.9476 89.0095 31.9476ZM91.551 32.3446L91.5545 31.8654L93.8825 29.7627C94.0828 29.5815 94.2151 29.4099 94.2794 29.2478C94.3462 29.0833 94.3796 28.9116 94.3796 28.7328C94.3796 28.5206 94.3295 28.3287 94.2294 28.1571C94.1293 27.9854 93.9946 27.8495 93.8253 27.7494C93.656 27.6469 93.4665 27.5956 93.2567 27.5956C93.0374 27.5956 92.8419 27.6481 92.6702 27.753C92.4986 27.8579 92.3627 27.9962 92.2626 28.1678C92.1648 28.3394 92.1172 28.5266 92.1195 28.7292H91.5831C91.5831 28.4169 91.657 28.1368 91.8049 27.8889C91.9527 27.6409 92.1529 27.4466 92.4056 27.306C92.6583 27.1629 92.9444 27.0914 93.2639 27.0914C93.5762 27.0914 93.8563 27.1653 94.1042 27.3131C94.3545 27.4586 94.5512 27.6564 94.6943 27.9068C94.8397 28.1547 94.9124 28.4312 94.9124 28.7364C94.9124 28.9509 94.8862 29.1405 94.8337 29.305C94.7837 29.4671 94.7038 29.6185 94.5941 29.7591C94.4869 29.8974 94.3498 30.0404 94.1829 30.1882L92.116 32.0549L92.0337 31.8404H94.9124V32.3446H91.551Z" fill="black" fill-opacity="0.65"/>
<path d="M89.0095 47.7821C88.6924 47.7821 88.4063 47.7082 88.1512 47.5604C87.8985 47.4126 87.6983 47.2123 87.5505 46.9596C87.4027 46.7045 87.3288 46.4184 87.3288 46.1014V44.0988C87.3288 43.7817 87.4027 43.4968 87.5505 43.2441C87.6983 42.9891 87.8985 42.7876 88.1512 42.6398C88.4063 42.492 88.6924 42.4181 89.0095 42.4181C89.3266 42.4181 89.6114 42.492 89.8641 42.6398C90.1192 42.7876 90.3207 42.9891 90.4685 43.2441C90.6163 43.4968 90.6902 43.7817 90.6902 44.0988V46.1014C90.6902 46.4184 90.6163 46.7045 90.4685 46.9596C90.3207 47.2123 90.1192 47.4126 89.8641 47.5604C89.6114 47.7082 89.3266 47.7821 89.0095 47.7821ZM89.0095 47.2743C89.2217 47.2743 89.4148 47.223 89.5888 47.1205C89.7628 47.0156 89.9011 46.8762 90.0036 46.7021C90.1061 46.5281 90.1574 46.3362 90.1574 46.1264V44.0738C90.1574 43.8616 90.1061 43.6685 90.0036 43.4945C89.9011 43.3204 89.7628 43.1822 89.5888 43.0796C89.4148 42.9747 89.2217 42.9223 89.0095 42.9223C88.7973 42.9223 88.6042 42.9747 88.4302 43.0796C88.2561 43.1822 88.1179 43.3204 88.0154 43.4945C87.9128 43.6685 87.8616 43.8616 87.8616 44.0738V46.1264C87.8616 46.3362 87.9128 46.5281 88.0154 46.7021C88.1179 46.8762 88.2561 47.0156 88.4302 47.1205C88.6042 47.223 88.7973 47.2743 89.0095 47.2743ZM93.389 42.4217C93.7109 42.4217 94.0029 42.5003 94.2651 42.6577C94.5298 42.8126 94.7396 43.0248 94.8945 43.2942C95.0519 43.5612 95.1305 43.8628 95.1305 44.1989V45.9834C95.1305 46.329 95.0531 46.6378 94.8981 46.9095C94.7431 47.1789 94.531 47.3923 94.2616 47.5496C93.9946 47.7046 93.6906 47.7821 93.3497 47.7821C93.0565 47.7821 92.7835 47.7177 92.5308 47.589C92.2805 47.4602 92.0754 47.2803 91.9157 47.049L92.3198 46.7164C92.4295 46.8881 92.5749 47.0252 92.7561 47.1277C92.9373 47.2302 93.1351 47.2814 93.3497 47.2814C93.5905 47.2814 93.805 47.223 93.9934 47.1062C94.1817 46.9894 94.3295 46.8368 94.4368 46.6485C94.5441 46.4578 94.5977 46.2516 94.5977 46.0298V44.907L94.73 45.0572C94.5798 45.2932 94.382 45.4839 94.1364 45.6293C93.8932 45.7748 93.6274 45.8475 93.339 45.8475C93.0195 45.8475 92.7322 45.7724 92.4771 45.6222C92.2221 45.4696 92.0194 45.2646 91.8692 45.0071C91.719 44.7496 91.6439 44.4612 91.6439 44.1417C91.6439 43.8246 91.7226 43.5362 91.88 43.2763C92.0397 43.0165 92.2507 42.8091 92.5129 42.6541C92.7775 42.4991 93.0696 42.4217 93.389 42.4217ZM93.389 42.933C93.1649 42.933 92.9599 42.9867 92.774 43.0939C92.5904 43.2012 92.4438 43.3467 92.3341 43.5302C92.2268 43.7138 92.1732 43.9176 92.1732 44.1417C92.1732 44.3658 92.2268 44.5708 92.3341 44.7568C92.4438 44.9404 92.5904 45.087 92.774 45.1966C92.9575 45.3039 93.1614 45.3576 93.3854 45.3576C93.6095 45.3576 93.8134 45.3039 93.9969 45.1966C94.1805 45.087 94.3259 44.9404 94.4332 44.7568C94.5429 44.5708 94.5977 44.3658 94.5977 44.1417C94.5977 43.92 94.5441 43.7174 94.4368 43.5338C94.3295 43.3502 94.1841 43.2048 94.0005 43.0975C93.817 42.9879 93.6131 42.933 93.389 42.933Z" fill="black" fill-opacity="0.65"/>
<path d="M89.0095 109.087C88.6924 109.087 88.4063 109.013 88.1512 108.866C87.8985 108.718 87.6983 108.517 87.5505 108.265C87.4027 108.01 87.3288 107.724 87.3288 107.407V105.404C87.3288 105.087 87.4027 104.802 87.5505 104.549C87.6983 104.294 87.8985 104.093 88.1512 103.945C88.4063 103.797 88.6924 103.723 89.0095 103.723C89.3266 103.723 89.6114 103.797 89.8641 103.945C90.1192 104.093 90.3207 104.294 90.4685 104.549C90.6163 104.802 90.6902 105.087 90.6902 105.404V107.407C90.6902 107.724 90.6163 108.01 90.4685 108.265C90.3207 108.517 90.1192 108.718 89.8641 108.866C89.6114 109.013 89.3266 109.087 89.0095 109.087ZM89.0095 108.579C89.2217 108.579 89.4148 108.528 89.5888 108.426C89.7628 108.321 89.9011 108.181 90.0036 108.007C90.1061 107.833 90.1574 107.641 90.1574 107.432V105.379C90.1574 105.167 90.1061 104.974 90.0036 104.8C89.9011 104.626 89.7628 104.487 89.5888 104.385C89.4148 104.28 89.2217 104.227 89.0095 104.227C88.7973 104.227 88.6042 104.28 88.4302 104.385C88.2561 104.487 88.1179 104.626 88.0154 104.8C87.9128 104.974 87.8616 105.167 87.8616 105.379V107.432C87.8616 107.641 87.9128 107.833 88.0154 108.007C88.1179 108.181 88.2561 108.321 88.4302 108.426C88.6042 108.528 88.7973 108.579 89.0095 108.579ZM91.9694 108.98L93.8646 104.342H91.4794V103.831H94.4261V104.342L92.5344 108.98H91.9694Z" fill="black" fill-opacity="0.25"/>
<path d="M107.508 18.1293C107.148 18.1293 106.824 18.0697 106.535 17.9505C106.249 17.8289 106.012 17.6572 105.824 17.4355C105.638 17.2138 105.516 16.9504 105.459 16.6452L105.995 16.5558C106.081 16.8896 106.262 17.1518 106.539 17.3425C106.815 17.5309 107.146 17.625 107.529 17.625C107.782 17.625 108.009 17.5857 108.209 17.507C108.409 17.426 108.566 17.3115 108.681 17.1637C108.795 17.0159 108.852 16.8407 108.852 16.6381C108.852 16.5046 108.829 16.3913 108.781 16.2983C108.733 16.203 108.67 16.1243 108.591 16.0623C108.513 16.0003 108.427 15.9491 108.334 15.9086C108.241 15.8656 108.15 15.8311 108.062 15.8049L106.757 15.4151C106.6 15.3698 106.454 15.3126 106.321 15.2434C106.187 15.1719 106.07 15.0873 105.97 14.9895C105.872 14.8894 105.796 14.7726 105.741 14.6391C105.687 14.5056 105.659 14.353 105.659 14.1813C105.659 13.8905 105.735 13.639 105.888 13.4268C106.041 13.2146 106.249 13.0513 106.514 12.9369C106.778 12.8225 107.08 12.7664 107.418 12.7688C107.762 12.7688 108.068 12.8296 108.338 12.9512C108.609 13.0728 108.833 13.2468 109.01 13.4733C109.186 13.6974 109.303 13.9632 109.36 14.2707L108.81 14.3709C108.774 14.1468 108.692 13.9525 108.563 13.788C108.434 13.6235 108.27 13.4971 108.069 13.4089C107.871 13.3183 107.653 13.2719 107.415 13.2695C107.184 13.2695 106.977 13.3088 106.796 13.3875C106.617 13.4638 106.476 13.5687 106.371 13.7022C106.266 13.8357 106.213 13.9882 106.213 14.1599C106.213 14.3339 106.261 14.4734 106.356 14.5783C106.454 14.6832 106.573 14.7654 106.714 14.825C106.857 14.8846 106.995 14.9335 107.129 14.9716L108.137 15.2685C108.242 15.2971 108.365 15.3388 108.506 15.3936C108.649 15.4461 108.787 15.5223 108.92 15.6225C109.056 15.7202 109.168 15.849 109.257 16.0087C109.345 16.1684 109.389 16.3711 109.389 16.6166C109.389 16.855 109.341 17.0684 109.246 17.2567C109.153 17.445 109.021 17.6036 108.849 17.7323C108.68 17.8611 108.481 17.9588 108.252 18.0255C108.025 18.0947 107.777 18.1293 107.508 18.1293Z" fill="black" fill-opacity="0.65"/>
<path d="M107.401 32.4554C107.084 32.4554 106.797 32.3815 106.542 32.2337C106.29 32.0859 106.089 31.8856 105.942 31.6329C105.794 31.3779 105.72 31.0918 105.72 30.7747V28.7721C105.72 28.4551 105.794 28.1702 105.942 27.9175C106.089 27.6624 106.29 27.4609 106.542 27.3131C106.797 27.1653 107.084 27.0914 107.401 27.0914C107.718 27.0914 108.003 27.1653 108.255 27.3131C108.51 27.4609 108.712 27.6624 108.86 27.9175C109.007 28.1702 109.081 28.4551 109.081 28.7721V30.7747C109.081 31.0918 109.007 31.3779 108.86 31.6329C108.712 31.8856 108.51 32.0859 108.255 32.2337C108.003 32.3815 107.718 32.4554 107.401 32.4554ZM107.401 31.9476C107.613 31.9476 107.806 31.8964 107.98 31.7939C108.154 31.689 108.292 31.5495 108.395 31.3755C108.497 31.2014 108.548 31.0095 108.548 30.7997V28.7471C108.548 28.5349 108.497 28.3418 108.395 28.1678C108.292 27.9938 108.154 27.8555 107.98 27.753C107.806 27.6481 107.613 27.5956 107.401 27.5956C107.188 27.5956 106.995 27.6481 106.821 27.753C106.647 27.8555 106.509 27.9938 106.406 28.1678C106.304 28.3418 106.253 28.5349 106.253 28.7471V30.7997C106.253 31.0095 106.304 31.2014 106.406 31.3755C106.509 31.5495 106.647 31.689 106.821 31.7939C106.995 31.8964 107.188 31.9476 107.401 31.9476ZM111.469 32.4518C111.214 32.4518 110.979 32.4066 110.765 32.316C110.55 32.2254 110.365 32.0966 110.21 31.9298C110.055 31.7605 109.942 31.559 109.871 31.3254L110.371 31.1752C110.457 31.4303 110.598 31.6234 110.793 31.7545C110.991 31.8856 111.214 31.9488 111.462 31.9441C111.691 31.9393 111.887 31.888 112.052 31.7903C112.219 31.6925 112.346 31.5567 112.435 31.3826C112.523 31.2086 112.567 31.0071 112.567 30.7783C112.567 30.4278 112.464 30.1465 112.259 29.9343C112.057 29.7198 111.788 29.6125 111.455 29.6125C111.362 29.6125 111.264 29.6256 111.161 29.6518C111.059 29.6757 110.964 29.7102 110.875 29.7555L110.611 29.3372L112.613 27.4884L112.699 27.7029H110.074V27.1987H113.05V27.7101L111.305 29.3765L111.297 29.1691C111.655 29.1238 111.97 29.1643 112.241 29.2907C112.513 29.417 112.725 29.6101 112.878 29.87C113.033 30.1274 113.11 30.4302 113.11 30.7783C113.11 31.1073 113.039 31.3981 112.896 31.6508C112.755 31.9011 112.561 32.0978 112.313 32.2409C112.065 32.3815 111.784 32.4518 111.469 32.4518Z" fill="black" fill-opacity="0.65"/>
<path d="M106.617 47.6748V43.1118L105.648 43.6947V43.1047L106.617 42.5254H107.15V47.6748H106.617ZM110.187 47.7821C109.87 47.7821 109.584 47.7082 109.329 47.5604C109.076 47.4126 108.876 47.2123 108.728 46.9596C108.581 46.7045 108.507 46.4184 108.507 46.1014V44.0988C108.507 43.7817 108.581 43.4968 108.728 43.2441C108.876 42.9891 109.076 42.7876 109.329 42.6398C109.584 42.492 109.87 42.4181 110.187 42.4181C110.504 42.4181 110.789 42.492 111.042 42.6398C111.297 42.7876 111.499 42.9891 111.646 43.2441C111.794 43.4968 111.868 43.7817 111.868 44.0988V46.1014C111.868 46.4184 111.794 46.7045 111.646 46.9596C111.499 47.2123 111.297 47.4126 111.042 47.5604C110.789 47.7082 110.504 47.7821 110.187 47.7821ZM110.187 47.2743C110.4 47.2743 110.593 47.223 110.767 47.1205C110.941 47.0156 111.079 46.8762 111.181 46.7021C111.284 46.5281 111.335 46.3362 111.335 46.1264V44.0738C111.335 43.8616 111.284 43.6685 111.181 43.4945C111.079 43.3204 110.941 43.1822 110.767 43.0796C110.593 42.9747 110.4 42.9223 110.187 42.9223C109.975 42.9223 109.782 42.9747 109.608 43.0796C109.434 43.1822 109.296 43.3204 109.193 43.4945C109.091 43.6685 109.039 43.8616 109.039 44.0738V46.1264C109.039 46.3362 109.091 46.5281 109.193 46.7021C109.296 46.8762 109.434 47.0156 109.608 47.1205C109.782 47.223 109.975 47.2743 110.187 47.2743Z" fill="black" fill-opacity="0.65"/>
<path d="M107.401 109.087C107.084 109.087 106.797 109.013 106.542 108.866C106.29 108.718 106.089 108.517 105.942 108.265C105.794 108.01 105.72 107.724 105.72 107.407V105.404C105.72 105.087 105.794 104.802 105.942 104.549C106.089 104.294 106.29 104.093 106.542 103.945C106.797 103.797 107.084 103.723 107.401 103.723C107.718 103.723 108.003 103.797 108.255 103.945C108.51 104.093 108.712 104.294 108.86 104.549C109.007 104.802 109.081 105.087 109.081 105.404V107.407C109.081 107.724 109.007 108.01 108.86 108.265C108.712 108.517 108.51 108.718 108.255 108.866C108.003 109.013 107.718 109.087 107.401 109.087ZM107.401 108.579C107.613 108.579 107.806 108.528 107.98 108.426C108.154 108.321 108.292 108.181 108.395 108.007C108.497 107.833 108.548 107.641 108.548 107.432V105.379C108.548 105.167 108.497 104.974 108.395 104.8C108.292 104.626 108.154 104.487 107.98 104.385C107.806 104.28 107.613 104.227 107.401 104.227C107.188 104.227 106.995 104.28 106.821 104.385C106.647 104.487 106.509 104.626 106.406 104.8C106.304 104.974 106.253 105.167 106.253 105.379V107.432C106.253 107.641 106.304 107.833 106.406 108.007C106.509 108.181 106.647 108.321 106.821 108.426C106.995 108.528 107.188 108.579 107.401 108.579ZM111.655 109.087C111.333 109.087 111.048 109.023 110.8 108.894C110.555 108.765 110.362 108.585 110.221 108.354C110.083 108.121 110.014 107.848 110.014 107.535C110.014 107.216 110.091 106.932 110.246 106.684C110.401 106.434 110.637 106.244 110.954 106.116L110.947 106.323C110.682 106.225 110.481 106.066 110.343 105.844C110.204 105.622 110.135 105.377 110.135 105.107C110.135 104.821 110.201 104.576 110.332 104.371C110.463 104.163 110.642 104.003 110.868 103.891C111.097 103.779 111.359 103.723 111.655 103.723C111.951 103.723 112.213 103.779 112.442 103.891C112.671 104.003 112.851 104.163 112.982 104.371C113.113 104.576 113.178 104.821 113.178 105.107C113.178 105.377 113.112 105.621 112.978 105.84C112.847 106.06 112.646 106.221 112.374 106.323L112.356 106.116C112.673 106.242 112.91 106.43 113.067 106.681C113.227 106.931 113.307 107.216 113.307 107.535C113.307 107.848 113.237 108.121 113.096 108.354C112.955 108.585 112.761 108.765 112.513 108.894C112.265 109.023 111.979 109.087 111.655 109.087ZM111.655 108.583C111.979 108.583 112.243 108.494 112.445 108.315C112.648 108.134 112.749 107.874 112.749 107.535C112.749 107.192 112.649 106.932 112.449 106.756C112.249 106.577 111.984 106.488 111.655 106.488C111.326 106.488 111.063 106.577 110.865 106.756C110.667 106.932 110.568 107.192 110.568 107.535C110.568 107.874 110.668 108.134 110.868 108.315C111.069 108.494 111.331 108.583 111.655 108.583ZM111.655 105.98C111.941 105.98 112.173 105.907 112.352 105.762C112.531 105.614 112.62 105.396 112.62 105.107C112.62 104.819 112.531 104.603 112.352 104.46C112.173 104.314 111.941 104.242 111.655 104.242C111.369 104.242 111.136 104.314 110.958 104.46C110.781 104.603 110.693 104.819 110.693 105.107C110.693 105.396 110.781 105.614 110.958 105.762C111.136 105.907 111.369 105.98 111.655 105.98Z" fill="black" fill-opacity="0.25"/>
<path d="M106.617 63.001V58.438L105.648 59.0209V58.4308L106.617 57.8515H107.15V63.001H106.617ZM108.782 63.001L110.677 58.3629H108.292V57.8515H111.239V58.3629L109.347 63.001H108.782Z" fill="white"/>
<path d="M105.577 78.3245L105.58 77.8454L107.908 75.7427C108.109 75.5615 108.241 75.3898 108.305 75.2277C108.372 75.0632 108.405 74.8916 108.405 74.7128C108.405 74.5006 108.355 74.3087 108.255 74.1371C108.155 73.9654 108.02 73.8295 107.851 73.7294C107.682 73.6269 107.492 73.5756 107.283 73.5756C107.063 73.5756 106.868 73.6281 106.696 73.733C106.524 73.8379 106.389 73.9761 106.288 74.1478C106.191 74.3194 106.143 74.5066 106.145 74.7092H105.609C105.609 74.3969 105.683 74.1168 105.831 73.8689C105.979 73.6209 106.179 73.4266 106.432 73.286C106.684 73.1429 106.97 73.0714 107.29 73.0714C107.602 73.0714 107.882 73.1453 108.13 73.2931C108.38 73.4385 108.577 73.6364 108.72 73.8867C108.866 74.1347 108.938 74.4112 108.938 74.7164C108.938 74.9309 108.912 75.1205 108.86 75.2849C108.81 75.4471 108.73 75.5984 108.62 75.7391C108.513 75.8774 108.376 76.0204 108.209 76.1682L106.142 78.0349L106.06 77.8203H108.938V78.3245H105.577ZM111.926 78.3281V77.3304H109.516V76.8298L111.24 73.1787H111.83L110.106 76.8298H111.926V75.3279H112.455V76.8298H113.017V77.3304H112.455V78.3281H111.926Z" fill="black" fill-opacity="0.65"/>
<path d="M107.401 93.7611C107.084 93.7611 106.797 93.6872 106.542 93.5394C106.29 93.3916 106.089 93.1913 105.942 92.9386C105.794 92.6835 105.72 92.3974 105.72 92.0804V90.0778C105.72 89.7607 105.794 89.4758 105.942 89.2231C106.089 88.9681 106.29 88.7666 106.542 88.6188C106.797 88.471 107.084 88.3971 107.401 88.3971C107.718 88.3971 108.003 88.471 108.255 88.6188C108.51 88.7666 108.712 88.9681 108.86 89.2231C109.007 89.4758 109.081 89.7607 109.081 90.0778V92.0804C109.081 92.3974 109.007 92.6835 108.86 92.9386C108.712 93.1913 108.51 93.3916 108.255 93.5394C108.003 93.6872 107.718 93.7611 107.401 93.7611ZM107.401 93.2533C107.613 93.2533 107.806 93.202 107.98 93.0995C108.154 92.9946 108.292 92.8552 108.395 92.6811C108.497 92.5071 108.548 92.3152 108.548 92.1054V90.0528C108.548 89.8406 108.497 89.6475 108.395 89.4735C108.292 89.2994 108.154 89.1612 107.98 89.0586C107.806 88.9538 107.613 88.9013 107.401 88.9013C107.188 88.9013 106.995 88.9538 106.821 89.0586C106.647 89.1612 106.509 89.2994 106.406 89.4735C106.304 89.6475 106.253 89.8406 106.253 90.0528V92.1054C106.253 92.3152 106.304 92.5071 106.406 92.6811C106.509 92.8552 106.647 92.9946 106.821 93.0995C106.995 93.202 107.188 93.2533 107.401 93.2533ZM110.983 93.6538V89.0908L110.014 89.6737V89.0837L110.983 88.5044H111.516V93.6538H110.983Z" fill="black" fill-opacity="0.25"/>
<path d="M125.899 18.1293C125.539 18.1293 125.215 18.0697 124.927 17.9505C124.641 17.8289 124.404 17.6572 124.215 17.4355C124.029 17.2138 123.908 16.9504 123.85 16.6452L124.387 16.5558C124.473 16.8896 124.654 17.1518 124.93 17.3425C125.207 17.5309 125.537 17.625 125.921 17.625C126.174 17.625 126.4 17.5857 126.6 17.507C126.801 17.426 126.958 17.3115 127.072 17.1637C127.187 17.0159 127.244 16.8407 127.244 16.6381C127.244 16.5046 127.22 16.3913 127.173 16.2983C127.125 16.203 127.062 16.1243 126.983 16.0623C126.904 16.0003 126.819 15.9491 126.726 15.9086C126.633 15.8656 126.542 15.8311 126.454 15.8049L125.149 15.4151C124.991 15.3698 124.846 15.3126 124.712 15.2434C124.579 15.1719 124.462 15.0873 124.362 14.9895C124.264 14.8894 124.188 14.7726 124.133 14.6391C124.078 14.5056 124.051 14.353 124.051 14.1813C124.051 13.8905 124.127 13.639 124.28 13.4268C124.432 13.2146 124.641 13.0513 124.905 12.9369C125.17 12.8225 125.472 12.7664 125.81 12.7688C126.153 12.7688 126.46 12.8296 126.729 12.9512C127.001 13.0728 127.225 13.2468 127.401 13.4733C127.578 13.6974 127.695 13.9632 127.752 14.2707L127.201 14.3709C127.165 14.1468 127.083 13.9525 126.954 13.788C126.826 13.6235 126.661 13.4971 126.461 13.4089C126.263 13.3183 126.045 13.2719 125.807 13.2695C125.575 13.2695 125.369 13.3088 125.188 13.3875C125.009 13.4638 124.867 13.5687 124.762 13.7022C124.657 13.8357 124.605 13.9882 124.605 14.1599C124.605 14.3339 124.653 14.4734 124.748 14.5783C124.846 14.6832 124.965 14.7654 125.106 14.825C125.249 14.8846 125.387 14.9335 125.52 14.9716L126.529 15.2685C126.634 15.2971 126.757 15.3388 126.897 15.3936C127.04 15.4461 127.178 15.5223 127.312 15.6225C127.448 15.7202 127.56 15.849 127.648 16.0087C127.736 16.1684 127.78 16.3711 127.78 16.6166C127.78 16.855 127.733 17.0684 127.637 17.2567C127.544 17.445 127.412 17.6036 127.24 17.7323C127.071 17.8611 126.872 17.9588 126.643 18.0255C126.417 18.0947 126.169 18.1293 125.899 18.1293Z" fill="black" fill-opacity="0.65"/>
<path d="M125.792 32.4554C125.475 32.4554 125.189 32.3815 124.934 32.2337C124.681 32.0859 124.481 31.8856 124.333 31.6329C124.185 31.3779 124.111 31.0918 124.111 30.7747V28.7721C124.111 28.4551 124.185 28.1702 124.333 27.9175C124.481 27.6624 124.681 27.4609 124.934 27.3131C125.189 27.1653 125.475 27.0914 125.792 27.0914C126.109 27.0914 126.394 27.1653 126.647 27.3131C126.902 27.4609 127.103 27.6624 127.251 27.9175C127.399 28.1702 127.473 28.4551 127.473 28.7721V30.7747C127.473 31.0918 127.399 31.3779 127.251 31.6329C127.103 31.8856 126.902 32.0859 126.647 32.2337C126.394 32.3815 126.109 32.4554 125.792 32.4554ZM125.792 31.9476C126.004 31.9476 126.197 31.8964 126.372 31.7939C126.546 31.689 126.684 31.5495 126.786 31.3755C126.889 31.2014 126.94 31.0095 126.94 30.7997V28.7471C126.94 28.5349 126.889 28.3418 126.786 28.1678C126.684 27.9938 126.546 27.8555 126.372 27.753C126.197 27.6481 126.004 27.5956 125.792 27.5956C125.58 27.5956 125.387 27.6481 125.213 27.753C125.039 27.8555 124.901 27.9938 124.798 28.1678C124.696 28.3418 124.644 28.5349 124.644 28.7471V30.7997C124.644 31.0095 124.696 31.2014 124.798 31.3755C124.901 31.5495 125.039 31.689 125.213 31.7939C125.387 31.8964 125.58 31.9476 125.792 31.9476ZM130.744 32.3481V31.3504H128.334V30.8498L130.057 27.1987H130.647L128.924 30.8498H130.744V29.3479H131.273V30.8498H131.835V31.3504H131.273V32.3481H130.744Z" fill="black" fill-opacity="0.65"/>
<path d="M125.009 47.6748V43.1118L124.04 43.6947V43.1047L125.009 42.5254H125.542V47.6748H125.009ZM127.796 47.6748V43.1118L126.827 43.6947V43.1047L127.796 42.5254H128.329V47.6748H127.796Z" fill="black" fill-opacity="0.65"/>
<path d="M125.792 109.087C125.475 109.087 125.189 109.013 124.934 108.866C124.681 108.718 124.481 108.517 124.333 108.265C124.185 108.01 124.111 107.724 124.111 107.407V105.404C124.111 105.087 124.185 104.802 124.333 104.549C124.481 104.294 124.681 104.093 124.934 103.945C125.189 103.797 125.475 103.723 125.792 103.723C126.109 103.723 126.394 103.797 126.647 103.945C126.902 104.093 127.103 104.294 127.251 104.549C127.399 104.802 127.473 105.087 127.473 105.404V107.407C127.473 107.724 127.399 108.01 127.251 108.265C127.103 108.517 126.902 108.718 126.647 108.866C126.394 109.013 126.109 109.087 125.792 109.087ZM125.792 108.579C126.004 108.579 126.197 108.528 126.372 108.426C126.546 108.321 126.684 108.181 126.786 108.007C126.889 107.833 126.94 107.641 126.94 107.432V105.379C126.94 105.167 126.889 104.974 126.786 104.8C126.684 104.626 126.546 104.487 126.372 104.385C126.197 104.28 126.004 104.227 125.792 104.227C125.58 104.227 125.387 104.28 125.213 104.385C125.039 104.487 124.901 104.626 124.798 104.8C124.696 104.974 124.644 105.167 124.644 105.379V107.432C124.644 107.641 124.696 107.833 124.798 108.007C124.901 108.181 125.039 108.321 125.213 108.426C125.387 108.528 125.58 108.579 125.792 108.579ZM130.172 103.727C130.494 103.727 130.786 103.806 131.048 103.963C131.312 104.118 131.522 104.33 131.677 104.599C131.835 104.866 131.913 105.168 131.913 105.504V107.289C131.913 107.634 131.836 107.943 131.681 108.215C131.526 108.484 131.314 108.697 131.044 108.855C130.777 109.01 130.473 109.087 130.132 109.087C129.839 109.087 129.566 109.023 129.313 108.894C129.063 108.765 128.858 108.585 128.698 108.354L129.103 108.022C129.212 108.193 129.358 108.33 129.539 108.433C129.72 108.535 129.918 108.587 130.132 108.587C130.373 108.587 130.588 108.528 130.776 108.411C130.964 108.295 131.112 108.142 131.22 107.954C131.327 107.763 131.38 107.557 131.38 107.335V106.212L131.513 106.362C131.363 106.598 131.165 106.789 130.919 106.935C130.676 107.08 130.41 107.153 130.122 107.153C129.802 107.153 129.515 107.078 129.26 106.927C129.005 106.775 128.802 106.57 128.652 106.312C128.502 106.055 128.427 105.766 128.427 105.447C128.427 105.13 128.505 104.841 128.663 104.582C128.822 104.322 129.033 104.114 129.296 103.959C129.56 103.804 129.852 103.727 130.172 103.727ZM130.172 104.238C129.948 104.238 129.743 104.292 129.557 104.399C129.373 104.506 129.226 104.652 129.117 104.835C129.01 105.019 128.956 105.223 128.956 105.447C128.956 105.671 129.01 105.876 129.117 106.062C129.226 106.246 129.373 106.392 129.557 106.502C129.74 106.609 129.944 106.663 130.168 106.663C130.392 106.663 130.596 106.609 130.78 106.502C130.963 106.392 131.109 106.246 131.216 106.062C131.326 105.876 131.38 105.671 131.38 105.447C131.38 105.225 131.327 105.023 131.22 104.839C131.112 104.655 130.967 104.51 130.783 104.403C130.6 104.293 130.396 104.238 130.172 104.238Z" fill="black" fill-opacity="0.25"/>
<path d="M125.009 63.001V58.438L124.04 59.0209V58.4308L125.009 57.8515H125.542V63.001H125.009ZM128.468 63.1083C128.146 63.1083 127.861 63.0439 127.613 62.9152C127.368 62.7864 127.175 62.6064 127.034 62.3752C126.896 62.1415 126.827 61.8686 126.827 61.5563C126.827 61.2368 126.904 60.9531 127.059 60.7052C127.214 60.4549 127.45 60.2653 127.767 60.1366L127.76 60.344C127.495 60.2463 127.294 60.0865 127.156 59.8648C127.017 59.6431 126.948 59.3976 126.948 59.1282C126.948 58.8421 127.014 58.5965 127.145 58.3915C127.276 58.1841 127.455 58.0244 127.681 57.9123C127.91 57.8003 128.172 57.7443 128.468 57.7443C128.764 57.7443 129.026 57.8003 129.255 57.9123C129.484 58.0244 129.664 58.1841 129.795 58.3915C129.926 58.5965 129.991 58.8421 129.991 59.1282C129.991 59.3976 129.925 59.6419 129.791 59.8612C129.66 60.0806 129.459 60.2415 129.187 60.344L129.169 60.1366C129.486 60.263 129.723 60.4513 129.881 60.7016C130.04 60.9519 130.12 61.2368 130.12 61.5563C130.12 61.8686 130.05 62.1415 129.909 62.3752C129.769 62.6064 129.574 62.7864 129.326 62.9152C129.078 63.0439 128.792 63.1083 128.468 63.1083ZM128.468 62.604C128.792 62.604 129.056 62.5146 129.258 62.3358C129.461 62.1547 129.562 61.8948 129.562 61.5563C129.562 61.213 129.462 60.9531 129.262 60.7767C129.062 60.5979 128.797 60.5085 128.468 60.5085C128.139 60.5085 127.876 60.5979 127.678 60.7767C127.48 60.9531 127.381 61.213 127.381 61.5563C127.381 61.8948 127.481 62.1547 127.681 62.3358C127.882 62.5146 128.144 62.604 128.468 62.604ZM128.468 60.0007C128.754 60.0007 128.987 59.928 129.165 59.7826C129.344 59.6348 129.434 59.4166 129.434 59.1282C129.434 58.8397 129.344 58.624 129.165 58.4809C128.987 58.3355 128.754 58.2628 128.468 58.2628C128.182 58.2628 127.95 58.3355 127.771 58.4809C127.594 58.624 127.506 58.8397 127.506 59.1282C127.506 59.4166 127.594 59.6348 127.771 59.7826C127.95 59.928 128.182 60.0007 128.468 60.0007Z" fill="black" fill-opacity="0.65"/>
<path d="M123.968 78.3245L123.972 77.8454L126.3 75.7427C126.5 75.5615 126.633 75.3898 126.697 75.2277C126.764 75.0632 126.797 74.8916 126.797 74.7128C126.797 74.5006 126.747 74.3087 126.647 74.1371C126.547 73.9654 126.412 73.8295 126.243 73.7294C126.074 73.6269 125.884 73.5756 125.674 73.5756C125.455 73.5756 125.259 73.6281 125.088 73.733C124.916 73.8379 124.78 73.9761 124.68 74.1478C124.582 74.3194 124.535 74.5066 124.537 74.7092H124.001C124.001 74.3969 124.075 74.1168 124.222 73.8689C124.37 73.6209 124.57 73.4266 124.823 73.286C125.076 73.1429 125.362 73.0714 125.681 73.0714C125.994 73.0714 126.274 73.1453 126.522 73.2931C126.772 73.4385 126.969 73.6364 127.112 73.8867C127.257 74.1347 127.33 74.4112 127.33 74.7164C127.33 74.9309 127.304 75.1205 127.251 75.2849C127.201 75.4471 127.121 75.5984 127.012 75.7391C126.904 75.8774 126.767 76.0204 126.6 76.1682L124.533 78.0349L124.451 77.8203H127.33V78.3245H123.968ZM129.71 78.4354C129.443 78.4354 129.196 78.3806 128.97 78.2709C128.743 78.1612 128.55 78.0099 128.391 77.8168C128.231 77.6237 128.116 77.4019 128.047 77.1516L128.552 77.0157C128.597 77.2017 128.679 77.3626 128.798 77.4985C128.917 77.632 129.057 77.7357 129.217 77.8096C129.379 77.8835 129.548 77.9205 129.724 77.9205C129.953 77.9205 130.158 77.8656 130.34 77.756C130.523 77.6439 130.669 77.4961 130.776 77.3125C130.883 77.129 130.937 76.9275 130.937 76.7082C130.937 76.4817 130.881 76.2779 130.769 76.0967C130.657 75.9131 130.509 75.7677 130.325 75.6604C130.142 75.5531 129.941 75.4995 129.724 75.4995C129.481 75.4995 129.271 75.5531 129.095 75.6604C128.919 75.7653 128.778 75.8976 128.673 76.0574L128.194 75.8571L128.351 73.1787H131.101V73.6829H128.584L128.845 73.4362L128.705 75.7212L128.573 75.546C128.721 75.3767 128.9 75.2444 129.109 75.1491C129.319 75.0537 129.54 75.006 129.771 75.006C130.088 75.006 130.374 75.0823 130.629 75.2349C130.884 75.3851 131.087 75.5889 131.237 75.8464C131.387 76.1039 131.462 76.3911 131.462 76.7082C131.462 77.0229 131.383 77.3113 131.223 77.5736C131.063 77.8334 130.851 78.042 130.586 78.1994C130.322 78.3567 130.03 78.4354 129.71 78.4354Z" fill="black" fill-opacity="0.65"/>
<path d="M125.792 93.7611C125.475 93.7611 125.189 93.6872 124.934 93.5394C124.681 93.3916 124.481 93.1913 124.333 92.9386C124.185 92.6835 124.111 92.3974 124.111 92.0804V90.0778C124.111 89.7607 124.185 89.4758 124.333 89.2231C124.481 88.9681 124.681 88.7666 124.934 88.6188C125.189 88.471 125.475 88.3971 125.792 88.3971C126.109 88.3971 126.394 88.471 126.647 88.6188C126.902 88.7666 127.103 88.9681 127.251 89.2231C127.399 89.4758 127.473 89.7607 127.473 90.0778V92.0804C127.473 92.3974 127.399 92.6835 127.251 92.9386C127.103 93.1913 126.902 93.3916 126.647 93.5394C126.394 93.6872 126.109 93.7611 125.792 93.7611ZM125.792 93.2533C126.004 93.2533 126.197 93.202 126.372 93.0995C126.546 92.9946 126.684 92.8552 126.786 92.6811C126.889 92.5071 126.94 92.3152 126.94 92.1054V90.0528C126.94 89.8406 126.889 89.6475 126.786 89.4735C126.684 89.2994 126.546 89.1612 126.372 89.0586C126.197 88.9538 126.004 88.9013 125.792 88.9013C125.58 88.9013 125.387 88.9538 125.213 89.0586C125.039 89.1612 124.901 89.2994 124.798 89.4735C124.696 89.6475 124.644 89.8406 124.644 90.0528V92.1054C124.644 92.3152 124.696 92.5071 124.798 92.6811C124.901 92.8552 125.039 92.9946 125.213 93.0995C125.387 93.202 125.58 93.2533 125.792 93.2533ZM128.334 93.6502L128.337 93.171L130.665 91.0684C130.865 90.8872 130.998 90.7155 131.062 90.5534C131.129 90.3889 131.162 90.2173 131.162 90.0385C131.162 89.8263 131.112 89.6344 131.012 89.4627C130.912 89.2911 130.777 89.1552 130.608 89.0551C130.439 88.9526 130.249 88.9013 130.039 88.9013C129.82 88.9013 129.625 88.9538 129.453 89.0586C129.281 89.1635 129.145 89.3018 129.045 89.4735C128.948 89.6451 128.9 89.8323 128.902 90.0349H128.366C128.366 89.7226 128.44 89.4425 128.588 89.1945C128.735 88.9466 128.936 88.7523 129.188 88.6116C129.441 88.4686 129.727 88.3971 130.047 88.3971C130.359 88.3971 130.639 88.471 130.887 88.6188C131.137 88.7642 131.334 88.9621 131.477 89.2124C131.622 89.4604 131.695 89.7369 131.695 90.042C131.695 90.2566 131.669 90.4461 131.616 90.6106C131.566 90.7727 131.487 90.9241 131.377 91.0648C131.27 91.2031 131.132 91.3461 130.966 91.4939L128.899 93.3606L128.816 93.146H131.695V93.6502H128.334Z" fill="black" fill-opacity="0.25"/>
<path d="M15.4426 109.087C15.1255 109.087 14.8394 109.013 14.5844 108.866C14.3316 108.718 14.1314 108.517 13.9836 108.265C13.8358 108.01 13.7619 107.724 13.7619 107.407V105.404C13.7619 105.087 13.8358 104.802 13.9836 104.549C14.1314 104.294 14.3316 104.093 14.5844 103.945C14.8394 103.797 15.1255 103.723 15.4426 103.723C15.7597 103.723 16.0446 103.797 16.2973 103.945C16.5523 104.093 16.7538 104.294 16.9016 104.549C17.0494 104.802 17.1233 105.087 17.1233 105.404V107.407C17.1233 107.724 17.0494 108.01 16.9016 108.265C16.7538 108.517 16.5523 108.718 16.2973 108.866C16.0446 109.013 15.7597 109.087 15.4426 109.087ZM15.4426 108.579C15.6548 108.579 15.8479 108.528 16.0219 108.426C16.1959 108.321 16.3342 108.181 16.4367 108.007C16.5392 107.833 16.5905 107.641 16.5905 107.432V105.379C16.5905 105.167 16.5392 104.974 16.4367 104.8C16.3342 104.626 16.1959 104.487 16.0219 104.385C15.8479 104.28 15.6548 104.227 15.4426 104.227C15.2304 104.227 15.0373 104.28 14.8633 104.385C14.6892 104.487 14.551 104.626 14.4485 104.8C14.346 104.974 14.2947 105.167 14.2947 105.379V107.432C14.2947 107.641 14.346 107.833 14.4485 108.007C14.551 108.181 14.6892 108.321 14.8633 108.426C15.0373 108.528 15.2304 108.579 15.4426 108.579ZM19.511 109.084C19.2559 109.084 19.0211 109.038 18.8065 108.948C18.592 108.857 18.4072 108.728 18.2523 108.562C18.0973 108.392 17.9841 108.191 17.9125 107.957L18.4132 107.807C18.499 108.062 18.6397 108.255 18.8352 108.386C19.033 108.517 19.2559 108.581 19.5039 108.576C19.7327 108.571 19.9294 108.52 20.0939 108.422C20.2608 108.324 20.3883 108.188 20.4765 108.014C20.5647 107.84 20.6088 107.639 20.6088 107.41C20.6088 107.06 20.5063 106.778 20.3013 106.566C20.0987 106.352 19.8305 106.244 19.4967 106.244C19.4037 106.244 19.306 106.257 19.2035 106.284C19.101 106.308 19.0056 106.342 18.9174 106.387L18.6528 105.969L20.6553 104.12L20.7412 104.335H18.1164V103.831H21.0916V104.342L19.3465 106.008L19.3394 105.801C19.697 105.756 20.0117 105.796 20.2834 105.923C20.5552 106.049 20.7674 106.242 20.92 106.502C21.0749 106.759 21.1524 107.062 21.1524 107.41C21.1524 107.739 21.0809 108.03 20.9378 108.283C20.7972 108.533 20.6029 108.73 20.355 108.873C20.107 109.013 19.8257 109.084 19.511 109.084Z" fill="black" fill-opacity="0.25"/>
</svg>
