<svg width="120" height="68" viewBox="0 0 120 68" fill="none" xmlns="http://www.w3.org/2000/svg">
<path d="M118 1H2C1.44772 1 1 1.44772 1 2V30C1 30.5523 1.44772 31 2 31H118C118.552 31 119 30.5523 119 30V2C119 1.44772 118.552 1 118 1Z" fill="white"/>
<path opacity="0.15" d="M117.5 0.5H2.5C1.39543 0.5 0.5 1.39543 0.5 2.5V29.5C0.5 30.6046 1.39543 31.5 2.5 31.5H117.5C118.605 31.5 119.5 30.6046 119.5 29.5V2.5C119.5 1.39543 118.605 0.5 117.5 0.5Z" stroke="black"/>
<path opacity="0.25" d="M16.382 21.21C15.7287 21.21 15.1453 21.063 14.632 20.769C14.1233 20.4703 13.7197 20.0667 13.421 19.558C13.127 19.0447 12.98 18.4613 12.98 17.808V14.112C12.98 13.4587 13.127 12.8753 13.421 12.362C13.7197 11.8487 14.1233 11.445 14.632 11.151C15.1453 10.857 15.7287 10.71 16.382 10.71C17.0353 10.71 17.6187 10.857 18.132 11.151C18.6453 11.445 19.049 11.8487 19.343 12.362C19.637 12.8753 19.784 13.4587 19.784 14.112V17.808C19.784 18.4613 19.637 19.0447 19.343 19.558C19.049 20.0667 18.6453 20.4703 18.132 20.769C17.6187 21.063 17.0353 21.21 16.382 21.21ZM16.382 20.013C16.7787 20.013 17.138 19.9173 17.46 19.726C17.782 19.5347 18.0387 19.278 18.23 18.956C18.4213 18.6293 18.517 18.27 18.517 17.878V14.035C18.517 13.6383 18.4213 13.279 18.23 12.957C18.0387 12.635 17.782 12.3783 17.46 12.187C17.138 11.9957 16.7787 11.9 16.382 11.9C15.99 11.9 15.6307 11.9957 15.304 12.187C14.982 12.3783 14.7253 12.635 14.534 12.957C14.3427 13.279 14.247 13.6383 14.247 14.035V17.878C14.247 18.27 14.3427 18.6293 14.534 18.956C14.7253 19.278 14.982 19.5347 15.304 19.726C15.6307 19.9173 15.99 20.013 16.382 20.013ZM23.5007 21V12.299L21.6037 13.447V12.054L23.5007 10.92H24.7677V21H23.5007ZM29.9792 10.92L27.2912 21H28.5582L31.2462 10.92H29.9792ZM34.821 21V12.299L32.924 13.447V12.054L34.821 10.92H36.088V21H34.821ZM42.1535 21.21C41.5002 21.21 40.9168 21.063 40.4035 20.769C39.8948 20.4703 39.4912 20.0667 39.1925 19.558C38.8985 19.0447 38.7515 18.4613 38.7515 17.808V14.112C38.7515 13.4587 38.8985 12.8753 39.1925 12.362C39.4912 11.8487 39.8948 11.445 40.4035 11.151C40.9168 10.857 41.5002 10.71 42.1535 10.71C42.8068 10.71 43.3902 10.857 43.9035 11.151C44.4168 11.445 44.8205 11.8487 45.1145 12.362C45.4085 12.8753 45.5555 13.4587 45.5555 14.112V17.808C45.5555 18.4613 45.4085 19.0447 45.1145 19.558C44.8205 20.0667 44.4168 20.4703 43.9035 20.769C43.3902 21.063 42.8068 21.21 42.1535 21.21ZM42.1535 20.013C42.5502 20.013 42.9095 19.9173 43.2315 19.726C43.5535 19.5347 43.8102 19.278 44.0015 18.956C44.1928 18.6293 44.2885 18.27 44.2885 17.878V14.035C44.2885 13.6383 44.1928 13.279 44.0015 12.957C43.8102 12.635 43.5535 12.3783 43.2315 12.187C42.9095 11.9957 42.5502 11.9 42.1535 11.9C41.7615 11.9 41.4022 11.9957 41.0755 12.187C40.7535 12.3783 40.4968 12.635 40.3055 12.957C40.1142 13.279 40.0185 13.6383 40.0185 14.035V17.878C40.0185 18.27 40.1142 18.6293 40.3055 18.956C40.4968 19.278 40.7535 19.5347 41.0755 19.726C41.4022 19.9173 41.7615 20.013 42.1535 20.013ZM50.0632 10.92L47.3752 21H48.6422L51.3302 10.92H50.0632ZM52.868 20.993L52.875 19.873L57.348 15.848C57.7213 15.512 57.971 15.1947 58.097 14.896C58.2276 14.5927 58.293 14.2823 58.293 13.965C58.293 13.5777 58.2043 13.2277 58.027 12.915C57.8496 12.6023 57.607 12.355 57.299 12.173C56.9956 11.991 56.6503 11.9 56.263 11.9C55.8616 11.9 55.5046 11.9957 55.192 12.187C54.8793 12.3737 54.632 12.6233 54.45 12.936C54.2726 13.2487 54.1863 13.5893 54.191 13.958H52.917C52.917 13.3233 53.064 12.7633 53.358 12.278C53.652 11.788 54.051 11.4053 54.555 11.13C55.0636 10.85 55.64 10.71 56.284 10.71C56.9093 10.71 57.4693 10.8547 57.964 11.144C58.4586 11.4287 58.8483 11.8183 59.133 12.313C59.4223 12.803 59.567 13.3583 59.567 13.979C59.567 14.4177 59.511 14.798 59.399 15.12C59.2916 15.442 59.1236 15.7407 58.895 16.016C58.6663 16.2867 58.3793 16.576 58.034 16.884L54.317 20.223L54.156 19.803H59.567V20.993H52.868ZM64.6437 21.21C63.9904 21.21 63.4071 21.063 62.8937 20.769C62.3851 20.4703 61.9814 20.0667 61.6827 19.558C61.3887 19.0447 61.2417 18.4613 61.2417 17.808V14.112C61.2417 13.4587 61.3887 12.8753 61.6827 12.362C61.9814 11.8487 62.3851 11.445 62.8937 11.151C63.4071 10.857 63.9904 10.71 64.6437 10.71C65.2971 10.71 65.8804 10.857 66.3937 11.151C66.9071 11.445 67.3107 11.8487 67.6047 12.362C67.8987 12.8753 68.0457 13.4587 68.0457 14.112V17.808C68.0457 18.4613 67.8987 19.0447 67.6047 19.558C67.3107 20.0667 66.9071 20.4703 66.3937 20.769C65.8804 21.063 65.2971 21.21 64.6437 21.21ZM64.6437 20.013C65.0404 20.013 65.3997 19.9173 65.7217 19.726C66.0437 19.5347 66.3004 19.278 66.4917 18.956C66.6831 18.6293 66.7787 18.27 66.7787 17.878V14.035C66.7787 13.6383 66.6831 13.279 66.4917 12.957C66.3004 12.635 66.0437 12.3783 65.7217 12.187C65.3997 11.9957 65.0404 11.9 64.6437 11.9C64.2517 11.9 63.8924 11.9957 63.5657 12.187C63.2437 12.3783 62.9871 12.635 62.7957 12.957C62.6044 13.279 62.5087 13.6383 62.5087 14.035V17.878C62.5087 18.27 62.6044 18.6293 62.7957 18.956C62.9871 19.278 63.2437 19.5347 63.5657 19.726C63.8924 19.9173 64.2517 20.013 64.6437 20.013ZM69.7254 20.993L69.7324 19.873L74.2054 15.848C74.5787 15.512 74.8284 15.1947 74.9544 14.896C75.0851 14.5927 75.1504 14.2823 75.1504 13.965C75.1504 13.5777 75.0617 13.2277 74.8844 12.915C74.7071 12.6023 74.4644 12.355 74.1564 12.173C73.8531 11.991 73.5077 11.9 73.1204 11.9C72.7191 11.9 72.3621 11.9957 72.0494 12.187C71.7367 12.3737 71.4894 12.6233 71.3074 12.936C71.1301 13.2487 71.0437 13.5893 71.0484 13.958H69.7744C69.7744 13.3233 69.9214 12.7633 70.2154 12.278C70.5094 11.788 70.9084 11.4053 71.4124 11.13C71.9211 10.85 72.4974 10.71 73.1414 10.71C73.7667 10.71 74.3267 10.8547 74.8214 11.144C75.3161 11.4287 75.7057 11.8183 75.9904 12.313C76.2797 12.803 76.4244 13.3583 76.4244 13.979C76.4244 14.4177 76.3684 14.798 76.2564 15.12C76.1491 15.442 75.9811 15.7407 75.7524 16.016C75.5237 16.2867 75.2367 16.576 74.8914 16.884L71.1744 20.223L71.0134 19.803H76.4244V20.993H69.7254ZM79.8561 21V12.299L77.9591 13.447V12.054L79.8561 10.92H81.1231V21H79.8561Z" fill="black"/>
<g opacity="0.65">
<path opacity="0.65" d="M110.031 11.5156H107.734V10.6406C107.734 10.5805 107.685 10.5312 107.625 10.5312H106.859C106.799 10.5312 106.75 10.5805 106.75 10.6406V11.5156H103.25V10.6406C103.25 10.5805 103.201 10.5312 103.141 10.5312H102.375C102.315 10.5312 102.266 10.5805 102.266 10.6406V11.5156H99.9688C99.7268 11.5156 99.5312 11.7111 99.5312 11.9531V21.0312C99.5312 21.2732 99.7268 21.4688 99.9688 21.4688H110.031C110.273 21.4688 110.469 21.2732 110.469 21.0312V11.9531C110.469 11.7111 110.273 11.5156 110.031 11.5156ZM109.484 20.4844H100.516V15.2891H109.484V20.4844ZM100.516 14.3594V12.5H102.266V13.1562C102.266 13.2164 102.315 13.2656 102.375 13.2656H103.141C103.201 13.2656 103.25 13.2164 103.25 13.1562V12.5H106.75V13.1562C106.75 13.2164 106.799 13.2656 106.859 13.2656H107.625C107.685 13.2656 107.734 13.2164 107.734 13.1562V12.5H109.484V14.3594H100.516Z" fill="black"/>
</g>
<path d="M118 45H2C1.44772 45 1 45.4477 1 46V66C1 66.5523 1.44772 67 2 67H118C118.552 67 119 66.5523 119 66V46C119 45.4477 118.552 45 118 45Z" fill="white"/>
<path opacity="0.15" d="M117.5 44.5H2.5C1.39543 44.5 0.5 45.3954 0.5 46.5V65.5C0.5 66.6046 1.39543 67.5 2.5 67.5H117.5C118.605 67.5 119.5 66.6046 119.5 65.5V46.5C119.5 45.3954 118.605 44.5 117.5 44.5Z" stroke="black"/>
<path opacity="0.25" d="M11.443 60.165C10.9297 60.165 10.4713 60.0495 10.068 59.8185C9.66833 59.5838 9.35117 59.2667 9.1165 58.867C8.8855 58.4637 8.77 58.0053 8.77 57.492V54.588C8.77 54.0747 8.8855 53.6163 9.1165 53.213C9.35117 52.8097 9.66833 52.4925 10.068 52.2615C10.4713 52.0305 10.9297 51.915 11.443 51.915C11.9563 51.915 12.4147 52.0305 12.818 52.2615C13.2213 52.4925 13.5385 52.8097 13.7695 53.213C14.0005 53.6163 14.116 54.0747 14.116 54.588V57.492C14.116 58.0053 14.0005 58.4637 13.7695 58.867C13.5385 59.2667 13.2213 59.5838 12.818 59.8185C12.4147 60.0495 11.9563 60.165 11.443 60.165ZM11.443 59.2245C11.7547 59.2245 12.037 59.1493 12.29 58.999C12.543 58.8487 12.7447 58.647 12.895 58.394C13.0453 58.1373 13.1205 57.855 13.1205 57.547V54.5275C13.1205 54.2158 13.0453 53.9335 12.895 53.6805C12.7447 53.4275 12.543 53.2258 12.29 53.0755C12.037 52.9252 11.7547 52.85 11.443 52.85C11.135 52.85 10.8527 52.9252 10.596 53.0755C10.343 53.2258 10.1413 53.4275 9.991 53.6805C9.84067 53.9335 9.7655 54.2158 9.7655 54.5275V57.547C9.7655 57.855 9.84067 58.1373 9.991 58.394C10.1413 58.647 10.343 58.8487 10.596 58.999C10.8527 59.1493 11.135 59.2245 11.443 59.2245ZM17.0362 60V53.1635L15.5457 54.0655V52.971L17.0362 52.08H18.0317V60H17.0362ZM22.1265 52.08L20.0145 60H21.01L23.122 52.08H22.1265ZM25.9308 60V53.1635L24.4403 54.0655V52.971L25.9308 52.08H26.9263V60H25.9308ZM31.692 60.165C31.1787 60.165 30.7204 60.0495 30.317 59.8185C29.9174 59.5838 29.6002 59.2667 29.3655 58.867C29.1345 58.4637 29.019 58.0053 29.019 57.492V54.588C29.019 54.0747 29.1345 53.6163 29.3655 53.213C29.6002 52.8097 29.9174 52.4925 30.317 52.2615C30.7204 52.0305 31.1787 51.915 31.692 51.915C32.2054 51.915 32.6637 52.0305 33.067 52.2615C33.4704 52.4925 33.7875 52.8097 34.0185 53.213C34.2495 53.6163 34.365 54.0747 34.365 54.588V57.492C34.365 58.0053 34.2495 58.4637 34.0185 58.867C33.7875 59.2667 33.4704 59.5838 33.067 59.8185C32.6637 60.0495 32.2054 60.165 31.692 60.165ZM31.692 59.2245C32.0037 59.2245 32.286 59.1493 32.539 58.999C32.792 58.8487 32.9937 58.647 33.144 58.394C33.2944 58.1373 33.3695 57.855 33.3695 57.547V54.5275C33.3695 54.2158 33.2944 53.9335 33.144 53.6805C32.9937 53.4275 32.792 53.2258 32.539 53.0755C32.286 52.9252 32.0037 52.85 31.692 52.85C31.384 52.85 31.1017 52.9252 30.845 53.0755C30.592 53.2258 30.3904 53.4275 30.24 53.6805C30.0897 53.9335 30.0145 54.2158 30.0145 54.5275V57.547C30.0145 57.855 30.0897 58.1373 30.24 58.394C30.3904 58.647 30.592 58.8487 30.845 58.999C31.1017 59.1493 31.384 59.2245 31.692 59.2245ZM37.9068 52.08L35.7948 60H36.7903L38.9023 52.08H37.9068ZM40.1105 59.9945L40.116 59.1145L43.6305 55.952C43.9239 55.688 44.12 55.4387 44.219 55.204C44.3217 54.9657 44.373 54.7218 44.373 54.4725C44.373 54.1682 44.3034 53.8932 44.164 53.6475C44.0247 53.4018 43.834 53.2075 43.592 53.0645C43.3537 52.9215 43.0824 52.85 42.778 52.85C42.4627 52.85 42.1822 52.9252 41.9365 53.0755C41.6909 53.2222 41.4965 53.4183 41.3535 53.664C41.2142 53.9097 41.1464 54.1773 41.15 54.467H40.149C40.149 53.9683 40.2645 53.5283 40.4955 53.147C40.7265 52.762 41.04 52.4613 41.436 52.245C41.8357 52.025 42.2885 51.915 42.7945 51.915C43.2859 51.915 43.7259 52.0287 44.1145 52.256C44.5032 52.4797 44.8094 52.7858 45.033 53.1745C45.2604 53.5595 45.374 53.9958 45.374 54.4835C45.374 54.8282 45.33 55.127 45.242 55.38C45.1577 55.633 45.0257 55.8677 44.846 56.084C44.6664 56.2967 44.4409 56.524 44.1695 56.766L41.249 59.3895L41.1225 59.0595H45.374V59.9945H40.1105ZM49.3629 60.165C48.8496 60.165 48.3913 60.0495 47.9879 59.8185C47.5883 59.5838 47.2711 59.2667 47.0364 58.867C46.8054 58.4637 46.6899 58.0053 46.6899 57.492V54.588C46.6899 54.0747 46.8054 53.6163 47.0364 53.213C47.2711 52.8097 47.5883 52.4925 47.9879 52.2615C48.3913 52.0305 48.8496 51.915 49.3629 51.915C49.8763 51.915 50.3346 52.0305 50.7379 52.2615C51.1413 52.4925 51.4584 52.8097 51.6894 53.213C51.9204 53.6163 52.0359 54.0747 52.0359 54.588V57.492C52.0359 58.0053 51.9204 58.4637 51.6894 58.867C51.4584 59.2667 51.1413 59.5838 50.7379 59.8185C50.3346 60.0495 49.8763 60.165 49.3629 60.165ZM49.3629 59.2245C49.6746 59.2245 49.9569 59.1493 50.2099 58.999C50.4629 58.8487 50.6646 58.647 50.8149 58.394C50.9653 58.1373 51.0404 57.855 51.0404 57.547V54.5275C51.0404 54.2158 50.9653 53.9335 50.8149 53.6805C50.6646 53.4275 50.4629 53.2258 50.2099 53.0755C49.9569 52.9252 49.6746 52.85 49.3629 52.85C49.0549 52.85 48.7726 52.9252 48.5159 53.0755C48.2629 53.2258 48.0613 53.4275 47.9109 53.6805C47.7606 53.9335 47.6854 54.2158 47.6854 54.5275V57.547C47.6854 57.855 47.7606 58.1373 47.9109 58.394C48.0613 58.647 48.2629 58.8487 48.5159 58.999C48.7726 59.1493 49.0549 59.2245 49.3629 59.2245ZM53.3557 59.9945L53.3612 59.1145L56.8757 55.952C57.169 55.688 57.3652 55.4387 57.4642 55.204C57.5668 54.9657 57.6182 54.7218 57.6182 54.4725C57.6182 54.1682 57.5485 53.8932 57.4092 53.6475C57.2698 53.4018 57.0792 53.2075 56.8372 53.0645C56.5988 52.9215 56.3275 52.85 56.0232 52.85C55.7078 52.85 55.4273 52.9252 55.1817 53.0755C54.936 53.2222 54.7417 53.4183 54.5987 53.664C54.4593 53.9097 54.3915 54.1773 54.3952 54.467H53.3942C53.3942 53.9683 53.5097 53.5283 53.7407 53.147C53.9717 52.762 54.2852 52.4613 54.6812 52.245C55.0808 52.025 55.5337 51.915 56.0397 51.915C56.531 51.915 56.971 52.0287 57.3597 52.256C57.7483 52.4797 58.0545 52.7858 58.2782 53.1745C58.5055 53.5595 58.6192 53.9958 58.6192 54.4835C58.6192 54.8282 58.5752 55.127 58.4872 55.38C58.4028 55.633 58.2708 55.8677 58.0912 56.084C57.9115 56.2967 57.686 56.524 57.4147 56.766L54.4942 59.3895L54.3677 59.0595H58.6192V59.9945H53.3557ZM61.3155 60V53.1635L59.825 54.0655V52.971L61.3155 52.08H62.311V60H61.3155Z" fill="black"/>
<g opacity="0.65">
<path opacity="0.65" d="M110.312 52.1562H108.344V51.4062C108.344 51.3547 108.302 51.3125 108.25 51.3125H107.594C107.542 51.3125 107.5 51.3547 107.5 51.4062V52.1562H104.5V51.4062C104.5 51.3547 104.458 51.3125 104.406 51.3125H103.75C103.698 51.3125 103.656 51.3547 103.656 51.4062V52.1562H101.688C101.48 52.1562 101.312 52.3238 101.312 52.5312V60.3125C101.312 60.5199 101.48 60.6875 101.688 60.6875H110.312C110.52 60.6875 110.688 60.5199 110.688 60.3125V52.5312C110.688 52.3238 110.52 52.1562 110.312 52.1562ZM109.844 59.8438H102.156V55.3906H109.844V59.8438ZM102.156 54.5938V53H103.656V53.5625C103.656 53.6141 103.698 53.6562 103.75 53.6562H104.406C104.458 53.6562 104.5 53.6141 104.5 53.5625V53H107.5V53.5625C107.5 53.6141 107.542 53.6562 107.594 53.6562H108.25C108.302 53.6562 108.344 53.6141 108.344 53.5625V53H109.844V54.5938H102.156Z" fill="black"/>
</g>
</svg>
