<svg width="138" height="79" viewBox="0 0 138 79" fill="none" xmlns="http://www.w3.org/2000/svg">
<path d="M135.564 0.96582C136.447 0.96582 137.164 1.68216 137.164 2.56582V73.3658C137.164 74.2495 136.447 74.9658 135.564 74.9658H72.217L69.4182 78.1658L66.619 74.9658H1.6C0.716344 74.9658 0 74.2495 0 73.3658V2.56582C0 1.68216 0.716344 0.96582 1.6 0.96582H135.564Z" fill="black"/>
<path d="M135.564 0.96582C136.447 0.96582 137.164 1.68216 137.164 2.56582V73.3658C137.164 74.2495 136.447 74.9658 135.564 74.9658H72.217L69.4182 78.1658L66.619 74.9658H1.6C0.716344 74.9658 0 74.2495 0 73.3658V2.56582C0 1.68216 0.716344 0.96582 1.6 0.96582H135.564Z" fill="white"/>
<path d="M123.6 46H94.8C94.3582 46 94 46.3582 94 46.8V59.6C94 60.0418 94.3582 60.4 94.8 60.4H123.6C124.042 60.4 124.4 60.0418 124.4 59.6V46.8C124.4 46.3582 124.042 46 123.6 46Z" fill="white"/>
<path d="M123.6 45.2002H94.8002C93.9165 45.2002 93.2002 45.9165 93.2002 46.8002V59.6002C93.2002 60.4839 93.9165 61.2002 94.8002 61.2002H123.6C124.484 61.2002 125.2 60.4839 125.2 59.6002V46.8002C125.2 45.9165 124.484 45.2002 123.6 45.2002Z" fill="#0010F7"/>
<path d="M86.054 45.8008H58.1188C57.677 45.8008 57.3188 46.159 57.3188 46.6008V59.4008C57.3188 59.8426 57.677 60.2008 58.1188 60.2008H86.054C86.4958 60.2008 86.854 59.8426 86.854 59.4008V46.6008C86.854 46.159 86.4958 45.8008 86.054 45.8008Z" fill="white"/>
<path opacity="0.15" d="M85.6541 45.4004H58.5189C57.6353 45.4004 56.9189 46.1167 56.9189 47.0004V59.0004C56.9189 59.884 57.6353 60.6004 58.5189 60.6004H85.6541C86.5377 60.6004 87.2541 59.884 87.2541 59.0004V47.0004C87.2541 46.1167 86.5377 45.4004 85.6541 45.4004Z" stroke="black" stroke-width="0.8"/>
<path d="M18.6998 12C15.9939 12 13.7998 14.1941 13.7998 16.9C13.7998 19.6059 15.9939 21.8 18.6998 21.8C21.4057 21.8 23.5998 19.6059 23.5998 16.9C23.5998 14.1941 21.4057 12 18.6998 12ZM19.0498 19.2625C19.0498 19.3106 19.0104 19.35 18.9623 19.35H18.4373C18.3892 19.35 18.3498 19.3106 18.3498 19.2625V16.2875C18.3498 16.2394 18.3892 16.2 18.4373 16.2H18.9623C19.0104 16.2 19.0498 16.2394 19.0498 16.2875V19.2625ZM18.6998 15.5C18.41 15.5 18.1748 15.2648 18.1748 14.975C18.1748 14.6852 18.41 14.45 18.6998 14.45C18.9896 14.45 19.2248 14.6852 19.2248 14.975C19.2248 15.2648 18.9896 15.5 18.6998 15.5Z" fill="#FFC700"/>
<path d="M126 12H29V20H126V12Z" fill="#EBEBEB"/>
<path d="M82 24H29V32H82V24Z" fill="#EBEBEB"/>
</svg>
