<svg width="192" height="56" viewBox="0 0 192 56" fill="none" xmlns="http://www.w3.org/2000/svg">
<path d="M44.5 0.5H2.5C1.39543 0.5 0.5 1.39543 0.5 2.5V19.5C0.5 20.6046 1.39543 21.5 2.5 21.5H44.5C45.6046 21.5 46.5 20.6046 46.5 19.5V2.5C46.5 1.39543 45.6046 0.5 44.5 0.5Z" fill="#FAFAFA" stroke="#D9D9D9"/>
<path d="M11.138 15V7.206H8.12V6.36H15.038V7.206H12.02V15H11.138ZM17.0104 15.18C16.5224 15.18 16.1124 15.092 15.7804 14.916C15.4524 14.74 15.2064 14.506 15.0424 14.214C14.8784 13.922 14.7964 13.604 14.7964 13.26C14.7964 12.908 14.8664 12.608 15.0064 12.36C15.1504 12.108 15.3444 11.902 15.5884 11.742C15.8364 11.582 16.1224 11.46 16.4464 11.376C16.7744 11.296 17.1364 11.226 17.5324 11.166C17.9324 11.102 18.3224 11.048 18.7024 11.004C19.0864 10.956 19.4224 10.91 19.7104 10.866L19.3984 11.058C19.4104 10.418 19.2864 9.944 19.0264 9.636C18.7664 9.328 18.3144 9.174 17.6704 9.174C17.2264 9.174 16.8504 9.274 16.5424 9.474C16.2384 9.674 16.0244 9.99 15.9004 10.422L15.0424 10.17C15.1904 9.59 15.4884 9.14 15.9364 8.82C16.3844 8.5 16.9664 8.34 17.6824 8.34C18.2744 8.34 18.7764 8.452 19.1884 8.676C19.6044 8.896 19.8984 9.216 20.0704 9.636C20.1504 9.824 20.2024 10.034 20.2264 10.266C20.2504 10.498 20.2624 10.734 20.2624 10.974V15H19.4764V13.374L19.7044 13.47C19.4844 14.026 19.1424 14.45 18.6784 14.742C18.2144 15.034 17.6584 15.18 17.0104 15.18ZM17.1124 14.418C17.5244 14.418 17.8844 14.344 18.1924 14.196C18.5004 14.048 18.7484 13.846 18.9364 13.59C19.1244 13.33 19.2464 13.038 19.3024 12.714C19.3504 12.506 19.3764 12.278 19.3804 12.03C19.3844 11.778 19.3864 11.59 19.3864 11.466L19.7224 11.64C19.4224 11.68 19.0964 11.72 18.7444 11.76C18.3964 11.8 18.0524 11.846 17.7124 11.898C17.3764 11.95 17.0724 12.012 16.8004 12.084C16.6164 12.136 16.4384 12.21 16.2664 12.306C16.0944 12.398 15.9524 12.522 15.8404 12.678C15.7324 12.834 15.6784 13.028 15.6784 13.26C15.6784 13.448 15.7244 13.63 15.8164 13.806C15.9124 13.982 16.0644 14.128 16.2724 14.244C16.4844 14.36 16.7644 14.418 17.1124 14.418ZM24.3984 18.06C24.0664 18.06 23.7384 18.01 23.4144 17.91C23.0944 17.814 22.7984 17.66 22.5264 17.448C22.2544 17.24 22.0264 16.968 21.8424 16.632L22.6404 16.188C22.8204 16.548 23.0724 16.806 23.3964 16.962C23.7244 17.122 24.0584 17.202 24.3984 17.202C24.8664 17.202 25.2444 17.114 25.5324 16.938C25.8244 16.766 26.0364 16.51 26.1684 16.17C26.3004 15.83 26.3644 15.406 26.3604 14.898V13.17H26.4624V8.52H27.2484V14.91C27.2484 15.094 27.2424 15.27 27.2304 15.438C27.2224 15.61 27.2044 15.778 27.1764 15.942C27.1004 16.426 26.9424 16.824 26.7024 17.136C26.4664 17.448 26.1544 17.68 25.7664 17.832C25.3824 17.984 24.9264 18.06 24.3984 18.06ZM24.3384 15.18C23.7344 15.18 23.2184 15.03 22.7904 14.73C22.3624 14.426 22.0344 14.016 21.8064 13.5C21.5784 12.984 21.4644 12.402 21.4644 11.754C21.4644 11.11 21.5764 10.53 21.8004 10.014C22.0284 9.498 22.3544 9.09 22.7784 8.79C23.2024 8.49 23.7104 8.34 24.3024 8.34C24.9104 8.34 25.4224 8.488 25.8384 8.784C26.2544 9.08 26.5684 9.486 26.7804 10.002C26.9964 10.514 27.1044 11.098 27.1044 11.754C27.1044 12.398 26.9984 12.98 26.7864 13.5C26.5744 14.016 26.2624 14.426 25.8504 14.73C25.4384 15.03 24.9344 15.18 24.3384 15.18ZM24.4284 14.358C24.8884 14.358 25.2684 14.246 25.5684 14.022C25.8684 13.798 26.0924 13.49 26.2404 13.098C26.3884 12.702 26.4624 12.254 26.4624 11.754C26.4624 11.246 26.3884 10.798 26.2404 10.41C26.0924 10.018 25.8684 9.712 25.5684 9.492C25.2724 9.272 24.8984 9.162 24.4464 9.162C23.9824 9.162 23.5984 9.276 23.2944 9.504C22.9904 9.732 22.7644 10.042 22.6164 10.434C22.4724 10.826 22.4004 11.266 22.4004 11.754C22.4004 12.246 22.4744 12.69 22.6224 13.086C22.7744 13.478 23.0004 13.788 23.3004 14.016C23.6004 14.244 23.9764 14.358 24.4284 14.358ZM32.8343 15V7.344L31.2083 8.322V7.332L32.8343 6.36H33.7283V15H32.8343Z" fill="black" fill-opacity="0.85"/>
<path d="M62.5 34.5H2.5C1.39543 34.5 0.5 35.3954 0.5 36.5V53.5C0.5 54.6046 1.39543 55.5 2.5 55.5H62.5C63.6046 55.5 64.5 54.6046 64.5 53.5V36.5C64.5 35.3954 63.6046 34.5 62.5 34.5Z" fill="#FAFAFA" stroke="#D9D9D9"/>
<path d="M11.138 49V41.206H8.12V40.36H15.038V41.206H12.02V49H11.138ZM17.0104 49.18C16.5224 49.18 16.1124 49.092 15.7804 48.916C15.4524 48.74 15.2064 48.506 15.0424 48.214C14.8784 47.922 14.7964 47.604 14.7964 47.26C14.7964 46.908 14.8664 46.608 15.0064 46.36C15.1504 46.108 15.3444 45.902 15.5884 45.742C15.8364 45.582 16.1224 45.46 16.4464 45.376C16.7744 45.296 17.1364 45.226 17.5324 45.166C17.9324 45.102 18.3224 45.048 18.7024 45.004C19.0864 44.956 19.4224 44.91 19.7104 44.866L19.3984 45.058C19.4104 44.418 19.2864 43.944 19.0264 43.636C18.7664 43.328 18.3144 43.174 17.6704 43.174C17.2264 43.174 16.8504 43.274 16.5424 43.474C16.2384 43.674 16.0244 43.99 15.9004 44.422L15.0424 44.17C15.1904 43.59 15.4884 43.14 15.9364 42.82C16.3844 42.5 16.9664 42.34 17.6824 42.34C18.2744 42.34 18.7764 42.452 19.1884 42.676C19.6044 42.896 19.8984 43.216 20.0704 43.636C20.1504 43.824 20.2024 44.034 20.2264 44.266C20.2504 44.498 20.2624 44.734 20.2624 44.974V49H19.4764V47.374L19.7044 47.47C19.4844 48.026 19.1424 48.45 18.6784 48.742C18.2144 49.034 17.6584 49.18 17.0104 49.18ZM17.1124 48.418C17.5244 48.418 17.8844 48.344 18.1924 48.196C18.5004 48.048 18.7484 47.846 18.9364 47.59C19.1244 47.33 19.2464 47.038 19.3024 46.714C19.3504 46.506 19.3764 46.278 19.3804 46.03C19.3844 45.778 19.3864 45.59 19.3864 45.466L19.7224 45.64C19.4224 45.68 19.0964 45.72 18.7444 45.76C18.3964 45.8 18.0524 45.846 17.7124 45.898C17.3764 45.95 17.0724 46.012 16.8004 46.084C16.6164 46.136 16.4384 46.21 16.2664 46.306C16.0944 46.398 15.9524 46.522 15.8404 46.678C15.7324 46.834 15.6784 47.028 15.6784 47.26C15.6784 47.448 15.7244 47.63 15.8164 47.806C15.9124 47.982 16.0644 48.128 16.2724 48.244C16.4844 48.36 16.7644 48.418 17.1124 48.418ZM24.3984 52.06C24.0664 52.06 23.7384 52.01 23.4144 51.91C23.0944 51.814 22.7984 51.66 22.5264 51.448C22.2544 51.24 22.0264 50.968 21.8424 50.632L22.6404 50.188C22.8204 50.548 23.0724 50.806 23.3964 50.962C23.7244 51.122 24.0584 51.202 24.3984 51.202C24.8664 51.202 25.2444 51.114 25.5324 50.938C25.8244 50.766 26.0364 50.51 26.1684 50.17C26.3004 49.83 26.3644 49.406 26.3604 48.898V47.17H26.4624V42.52H27.2484V48.91C27.2484 49.094 27.2424 49.27 27.2304 49.438C27.2224 49.61 27.2044 49.778 27.1764 49.942C27.1004 50.426 26.9424 50.824 26.7024 51.136C26.4664 51.448 26.1544 51.68 25.7664 51.832C25.3824 51.984 24.9264 52.06 24.3984 52.06ZM24.3384 49.18C23.7344 49.18 23.2184 49.03 22.7904 48.73C22.3624 48.426 22.0344 48.016 21.8064 47.5C21.5784 46.984 21.4644 46.402 21.4644 45.754C21.4644 45.11 21.5764 44.53 21.8004 44.014C22.0284 43.498 22.3544 43.09 22.7784 42.79C23.2024 42.49 23.7104 42.34 24.3024 42.34C24.9104 42.34 25.4224 42.488 25.8384 42.784C26.2544 43.08 26.5684 43.486 26.7804 44.002C26.9964 44.514 27.1044 45.098 27.1044 45.754C27.1044 46.398 26.9984 46.98 26.7864 47.5C26.5744 48.016 26.2624 48.426 25.8504 48.73C25.4384 49.03 24.9344 49.18 24.3384 49.18ZM24.4284 48.358C24.8884 48.358 25.2684 48.246 25.5684 48.022C25.8684 47.798 26.0924 47.49 26.2404 47.098C26.3884 46.702 26.4624 46.254 26.4624 45.754C26.4624 45.246 26.3884 44.798 26.2404 44.41C26.0924 44.018 25.8684 43.712 25.5684 43.492C25.2724 43.272 24.8984 43.162 24.4464 43.162C23.9824 43.162 23.5984 43.276 23.2944 43.504C22.9904 43.732 22.7644 44.042 22.6164 44.434C22.4724 44.826 22.4004 45.266 22.4004 45.754C22.4004 46.246 22.4744 46.69 22.6224 47.086C22.7744 47.478 23.0004 47.788 23.3004 48.016C23.6004 48.244 23.9764 48.358 24.4284 48.358ZM31.0883 48.994L31.0943 48.19L35.0003 44.662C35.3363 44.358 35.5583 44.07 35.6663 43.798C35.7783 43.522 35.8343 43.234 35.8343 42.934C35.8343 42.578 35.7503 42.256 35.5823 41.968C35.4143 41.68 35.1883 41.452 34.9043 41.284C34.6203 41.112 34.3023 41.026 33.9503 41.026C33.5823 41.026 33.2543 41.114 32.9663 41.29C32.6783 41.466 32.4503 41.698 32.2823 41.986C32.1183 42.274 32.0383 42.588 32.0423 42.928H31.1423C31.1423 42.404 31.2663 41.934 31.5143 41.518C31.7623 41.102 32.0983 40.776 32.5223 40.54C32.9463 40.3 33.4263 40.18 33.9623 40.18C34.4863 40.18 34.9563 40.304 35.3723 40.552C35.7923 40.796 36.1223 41.128 36.3623 41.548C36.6063 41.964 36.7283 42.428 36.7283 42.94C36.7283 43.3 36.6843 43.618 36.5963 43.894C36.5123 44.166 36.3783 44.42 36.1943 44.656C36.0143 44.888 35.7843 45.128 35.5043 45.376L32.0363 48.508L31.8983 48.148H36.7283V48.994H31.0883Z" fill="black" fill-opacity="0.85"/>
<path d="M189.5 34.5H75.5C74.3954 34.5 73.5 35.3954 73.5 36.5V53.5C73.5 54.6046 74.3954 55.5 75.5 55.5H189.5C190.605 55.5 191.5 54.6046 191.5 53.5V36.5C191.5 35.3954 190.605 34.5 189.5 34.5Z" fill="#FAFAFA" stroke="#D9D9D9"/>
<path d="M81.84 49V40.36H85.176C85.26 40.36 85.354 40.364 85.458 40.372C85.566 40.376 85.674 40.388 85.782 40.408C86.234 40.476 86.616 40.634 86.928 40.882C87.244 41.126 87.482 41.434 87.642 41.806C87.806 42.178 87.888 42.59 87.888 43.042C87.888 43.49 87.806 43.9 87.642 44.272C87.478 44.644 87.238 44.954 86.922 45.202C86.61 45.446 86.23 45.602 85.782 45.67C85.674 45.686 85.566 45.698 85.458 45.706C85.354 45.714 85.26 45.718 85.176 45.718H82.722V49H81.84ZM82.722 44.878H85.152C85.224 44.878 85.308 44.874 85.404 44.866C85.5 44.858 85.594 44.844 85.686 44.824C85.982 44.76 86.224 44.638 86.412 44.458C86.604 44.278 86.746 44.064 86.838 43.816C86.934 43.568 86.982 43.31 86.982 43.042C86.982 42.774 86.934 42.516 86.838 42.268C86.746 42.016 86.604 41.8 86.412 41.62C86.224 41.44 85.982 41.318 85.686 41.254C85.594 41.234 85.5 41.222 85.404 41.218C85.308 41.21 85.224 41.206 85.152 41.206H82.722V44.878ZM89.0822 49V42.52H89.8742V44.08L89.7182 43.876C89.7902 43.684 89.8842 43.508 90.0002 43.348C90.1162 43.184 90.2422 43.05 90.3782 42.946C90.5462 42.798 90.7422 42.686 90.9662 42.61C91.1902 42.53 91.4162 42.484 91.6442 42.472C91.8722 42.456 92.0802 42.472 92.2682 42.52V43.348C92.0322 43.288 91.7742 43.274 91.4942 43.306C91.2142 43.338 90.9562 43.45 90.7202 43.642C90.5042 43.81 90.3422 44.012 90.2342 44.248C90.1262 44.48 90.0542 44.728 90.0182 44.992C89.9822 45.252 89.9642 45.51 89.9642 45.766V49H89.0822ZM96.0312 49.18C95.3992 49.18 94.8512 49.04 94.3872 48.76C93.9272 48.48 93.5692 48.086 93.3132 47.578C93.0572 47.07 92.9292 46.474 92.9292 45.79C92.9292 45.082 93.0552 44.47 93.3072 43.954C93.5592 43.438 93.9132 43.04 94.3692 42.76C94.8292 42.48 95.3712 42.34 95.9952 42.34C96.6352 42.34 97.1812 42.488 97.6332 42.784C98.0852 43.076 98.4272 43.496 98.6592 44.044C98.8912 44.592 98.9972 45.246 98.9772 46.006H98.0772V45.694C98.0612 44.854 97.8792 44.22 97.5312 43.792C97.1872 43.364 96.6832 43.15 96.0192 43.15C95.3232 43.15 94.7892 43.376 94.4172 43.828C94.0492 44.28 93.8652 44.924 93.8652 45.76C93.8652 46.576 94.0492 47.21 94.4172 47.662C94.7892 48.11 95.3152 48.334 95.9952 48.334C96.4592 48.334 96.8632 48.228 97.2072 48.016C97.5552 47.8 97.8292 47.49 98.0292 47.086L98.8512 47.404C98.5952 47.968 98.2172 48.406 97.7172 48.718C97.2212 49.026 96.6592 49.18 96.0312 49.18ZM93.5532 46.006V45.268H98.5032V46.006H93.5532ZM101.826 49L99.4744 42.52H100.368L102.282 47.848L104.184 42.52H105.09L102.738 49H101.826ZM108.676 49.18C108.044 49.18 107.496 49.04 107.032 48.76C106.572 48.48 106.214 48.086 105.958 47.578C105.702 47.07 105.574 46.474 105.574 45.79C105.574 45.082 105.7 44.47 105.952 43.954C106.204 43.438 106.558 43.04 107.014 42.76C107.474 42.48 108.016 42.34 108.64 42.34C109.28 42.34 109.826 42.488 110.278 42.784C110.73 43.076 111.072 43.496 111.304 44.044C111.536 44.592 111.642 45.246 111.622 46.006H110.722V45.694C110.706 44.854 110.524 44.22 110.176 43.792C109.832 43.364 109.328 43.15 108.664 43.15C107.968 43.15 107.434 43.376 107.062 43.828C106.694 44.28 106.51 44.924 106.51 45.76C106.51 46.576 106.694 47.21 107.062 47.662C107.434 48.11 107.96 48.334 108.64 48.334C109.104 48.334 109.508 48.228 109.852 48.016C110.2 47.8 110.474 47.49 110.674 47.086L111.496 47.404C111.24 47.968 110.862 48.406 110.362 48.718C109.866 49.026 109.304 49.18 108.676 49.18ZM106.198 46.006V45.268H111.148V46.006H106.198ZM117.458 49V45.694C117.458 45.334 117.424 45.004 117.356 44.704C117.288 44.4 117.178 44.136 117.026 43.912C116.878 43.684 116.684 43.508 116.444 43.384C116.208 43.26 115.92 43.198 115.58 43.198C115.268 43.198 114.992 43.252 114.752 43.36C114.516 43.468 114.316 43.624 114.152 43.828C113.992 44.028 113.87 44.272 113.786 44.56C113.702 44.848 113.66 45.176 113.66 45.544L113.036 45.406C113.036 44.742 113.152 44.184 113.384 43.732C113.616 43.28 113.936 42.938 114.344 42.706C114.752 42.474 115.22 42.358 115.748 42.358C116.136 42.358 116.474 42.418 116.762 42.538C117.054 42.658 117.3 42.82 117.5 43.024C117.704 43.228 117.868 43.462 117.992 43.726C118.116 43.986 118.206 44.264 118.262 44.56C118.318 44.852 118.346 45.144 118.346 45.436V49H117.458ZM112.772 49V42.52H113.57V44.116H113.66V49H112.772ZM123.431 49C123.067 49.076 122.707 49.106 122.351 49.09C121.999 49.074 121.683 48.998 121.403 48.862C121.127 48.726 120.917 48.514 120.773 48.226C120.657 47.986 120.593 47.744 120.581 47.5C120.573 47.252 120.569 46.97 120.569 46.654V40.72H121.445V46.618C121.445 46.89 121.447 47.118 121.451 47.302C121.459 47.482 121.501 47.642 121.577 47.782C121.721 48.05 121.949 48.21 122.261 48.262C122.577 48.314 122.967 48.302 123.431 48.226V49ZM119.183 43.276V42.52H123.431V43.276H119.183ZM127.11 49V40.36H129.732C129.824 40.36 129.98 40.362 130.2 40.366C130.424 40.37 130.638 40.386 130.842 40.414C131.498 40.506 132.046 40.75 132.486 41.146C132.926 41.542 133.256 42.046 133.476 42.658C133.696 43.27 133.806 43.944 133.806 44.68C133.806 45.416 133.696 46.09 133.476 46.702C133.256 47.314 132.926 47.818 132.486 48.214C132.046 48.61 131.498 48.854 130.842 48.946C130.642 48.97 130.428 48.986 130.2 48.994C129.972 48.998 129.816 49 129.732 49H127.11ZM128.022 48.154H129.732C129.896 48.154 130.072 48.15 130.26 48.142C130.452 48.13 130.616 48.11 130.752 48.082C131.256 47.994 131.662 47.79 131.97 47.47C132.282 47.15 132.51 46.75 132.654 46.27C132.798 45.786 132.87 45.256 132.87 44.68C132.87 44.1 132.798 43.568 132.654 43.084C132.51 42.6 132.282 42.2 131.97 41.884C131.658 41.568 131.252 41.366 130.752 41.278C130.616 41.25 130.45 41.232 130.254 41.224C130.062 41.212 129.888 41.206 129.732 41.206H128.022V48.154ZM137.914 49.18C137.282 49.18 136.734 49.04 136.27 48.76C135.81 48.48 135.452 48.086 135.196 47.578C134.94 47.07 134.812 46.474 134.812 45.79C134.812 45.082 134.938 44.47 135.19 43.954C135.442 43.438 135.796 43.04 136.252 42.76C136.712 42.48 137.254 42.34 137.878 42.34C138.518 42.34 139.064 42.488 139.516 42.784C139.968 43.076 140.31 43.496 140.542 44.044C140.774 44.592 140.88 45.246 140.86 46.006H139.96V45.694C139.944 44.854 139.762 44.22 139.414 43.792C139.07 43.364 138.566 43.15 137.902 43.15C137.206 43.15 136.672 43.376 136.3 43.828C135.932 44.28 135.748 44.924 135.748 45.76C135.748 46.576 135.932 47.21 136.3 47.662C136.672 48.11 137.198 48.334 137.878 48.334C138.342 48.334 138.746 48.228 139.09 48.016C139.438 47.8 139.712 47.49 139.912 47.086L140.734 47.404C140.478 47.968 140.1 48.406 139.6 48.718C139.104 49.026 138.542 49.18 137.914 49.18ZM135.436 46.006V45.268H140.386V46.006H135.436ZM142.834 49V42.04C142.834 41.872 142.842 41.706 142.858 41.542C142.878 41.378 142.916 41.222 142.972 41.074C143.028 40.922 143.116 40.782 143.236 40.654C143.368 40.51 143.512 40.406 143.668 40.342C143.824 40.274 143.986 40.23 144.154 40.21C144.326 40.19 144.494 40.18 144.658 40.18H145.486V40.924H144.718C144.382 40.924 144.13 41.006 143.962 41.17C143.798 41.334 143.716 41.592 143.716 41.944V49H142.834ZM141.712 43.276V42.52H145.486V43.276H141.712ZM148.124 49.18C147.636 49.18 147.226 49.092 146.894 48.916C146.566 48.74 146.32 48.506 146.156 48.214C145.992 47.922 145.91 47.604 145.91 47.26C145.91 46.908 145.98 46.608 146.12 46.36C146.264 46.108 146.458 45.902 146.702 45.742C146.95 45.582 147.236 45.46 147.56 45.376C147.888 45.296 148.25 45.226 148.646 45.166C149.046 45.102 149.436 45.048 149.816 45.004C150.2 44.956 150.536 44.91 150.824 44.866L150.512 45.058C150.524 44.418 150.4 43.944 150.14 43.636C149.88 43.328 149.428 43.174 148.784 43.174C148.34 43.174 147.964 43.274 147.656 43.474C147.352 43.674 147.138 43.99 147.014 44.422L146.156 44.17C146.304 43.59 146.602 43.14 147.05 42.82C147.498 42.5 148.08 42.34 148.796 42.34C149.388 42.34 149.89 42.452 150.302 42.676C150.718 42.896 151.012 43.216 151.184 43.636C151.264 43.824 151.316 44.034 151.34 44.266C151.364 44.498 151.376 44.734 151.376 44.974V49H150.59V47.374L150.818 47.47C150.598 48.026 150.256 48.45 149.792 48.742C149.328 49.034 148.772 49.18 148.124 49.18ZM148.226 48.418C148.638 48.418 148.998 48.344 149.306 48.196C149.614 48.048 149.862 47.846 150.05 47.59C150.238 47.33 150.36 47.038 150.416 46.714C150.464 46.506 150.49 46.278 150.494 46.03C150.498 45.778 150.5 45.59 150.5 45.466L150.836 45.64C150.536 45.68 150.21 45.72 149.858 45.76C149.51 45.8 149.166 45.846 148.826 45.898C148.49 45.95 148.186 46.012 147.914 46.084C147.73 46.136 147.552 46.21 147.38 46.306C147.208 46.398 147.066 46.522 146.954 46.678C146.846 46.834 146.792 47.028 146.792 47.26C146.792 47.448 146.838 47.63 146.93 47.806C147.026 47.982 147.178 48.128 147.386 48.244C147.598 48.36 147.878 48.418 148.226 48.418ZM155.416 49.162C155.028 49.162 154.688 49.102 154.396 48.982C154.108 48.862 153.862 48.7 153.658 48.496C153.458 48.292 153.296 48.06 153.172 47.8C153.048 47.536 152.958 47.258 152.902 46.966C152.846 46.67 152.818 46.376 152.818 46.084V42.52H153.706V45.826C153.706 46.182 153.74 46.512 153.808 46.816C153.876 47.12 153.984 47.386 154.132 47.614C154.284 47.838 154.478 48.012 154.714 48.136C154.954 48.26 155.244 48.322 155.584 48.322C155.896 48.322 156.17 48.268 156.406 48.16C156.646 48.052 156.846 47.898 157.006 47.698C157.17 47.494 157.294 47.248 157.378 46.96C157.462 46.668 157.504 46.34 157.504 45.976L158.128 46.114C158.128 46.778 158.012 47.336 157.78 47.788C157.548 48.24 157.228 48.582 156.82 48.814C156.412 49.046 155.944 49.162 155.416 49.162ZM157.594 49V47.404H157.504V42.52H158.386V49H157.594ZM160.183 49V40.18H161.065V49H160.183ZM166.391 49C166.027 49.076 165.667 49.106 165.311 49.09C164.959 49.074 164.643 48.998 164.363 48.862C164.087 48.726 163.877 48.514 163.733 48.226C163.617 47.986 163.553 47.744 163.541 47.5C163.533 47.252 163.529 46.97 163.529 46.654V40.72H164.405V46.618C164.405 46.89 164.407 47.118 164.411 47.302C164.419 47.482 164.461 47.642 164.537 47.782C164.681 48.05 164.909 48.21 165.221 48.262C165.537 48.314 165.927 48.302 166.391 48.226V49ZM162.143 43.276V42.52H166.391V43.276H162.143Z" fill="black" fill-opacity="0.85"/>
<path d="M92.5 0.5H57.5C56.3954 0.5 55.5 1.39543 55.5 2.5V19.5C55.5 20.6046 56.3954 21.5 57.5 21.5H92.5C93.6046 21.5 94.5 20.6046 94.5 19.5V2.5C94.5 1.39543 93.6046 0.5 92.5 0.5Z" fill="#FAFAFA" stroke="#D9D9D9"/>
<path d="M63.96 15V6.36H64.842V14.154H68.946V15H63.96ZM70.0889 7.29V6.3H70.9709V7.29H70.0889ZM70.0889 15V8.52H70.9709V15H70.0889ZM77.4497 15V11.694C77.4497 11.334 77.4157 11.004 77.3477 10.704C77.2797 10.4 77.1697 10.136 77.0177 9.912C76.8697 9.684 76.6757 9.508 76.4357 9.384C76.1997 9.26 75.9117 9.198 75.5717 9.198C75.2597 9.198 74.9837 9.252 74.7437 9.36C74.5077 9.468 74.3077 9.624 74.1437 9.828C73.9837 10.028 73.8617 10.272 73.7777 10.56C73.6937 10.848 73.6517 11.176 73.6517 11.544L73.0277 11.406C73.0277 10.742 73.1437 10.184 73.3757 9.732C73.6077 9.28 73.9277 8.938 74.3357 8.706C74.7437 8.474 75.2117 8.358 75.7397 8.358C76.1277 8.358 76.4657 8.418 76.7537 8.538C77.0457 8.658 77.2917 8.82 77.4917 9.024C77.6957 9.228 77.8597 9.462 77.9837 9.726C78.1077 9.986 78.1977 10.264 78.2537 10.56C78.3097 10.852 78.3377 11.144 78.3377 11.436V15H77.4497ZM72.7637 15V8.52H73.5617V10.116H73.6517V15H72.7637ZM79.8887 15L79.8947 6.36H80.7827V11.64L83.6747 8.52H84.8507L81.8147 11.76L85.2467 15H83.9627L80.7827 11.88V15H79.8887Z" fill="black" fill-opacity="0.85"/>
<path d="M51.6071 45L54.6833 41.3332C54.7349 41.2723 54.6915 41.1797 54.6118 41.1797H53.6767C53.6216 41.1797 53.5688 41.2043 53.5325 41.2465L50.9954 44.2711L48.4583 41.2465C48.4231 41.2043 48.3704 41.1797 48.3142 41.1797H47.379C47.2993 41.1797 47.256 41.2723 47.3075 41.3332L50.3837 45L47.3075 48.6668C47.256 48.7277 47.2993 48.8203 47.379 48.8203H48.3142C48.3692 48.8203 48.422 48.7957 48.4583 48.7535L50.9954 45.7289L53.5325 48.7535C53.5677 48.7957 53.6204 48.8203 53.6767 48.8203H54.6118C54.6915 48.8203 54.7349 48.7277 54.6833 48.6668L51.6071 45Z" fill="#898989"/>
<path d="M178.607 45L181.683 41.3332C181.735 41.2723 181.692 41.1797 181.612 41.1797H180.677C180.622 41.1797 180.569 41.2043 180.533 41.2465L177.995 44.2711L175.458 41.2465C175.423 41.2043 175.37 41.1797 175.314 41.1797H174.379C174.299 41.1797 174.256 41.2723 174.308 41.3332L177.384 45L174.308 48.6668C174.256 48.7277 174.299 48.8203 174.379 48.8203H175.314C175.369 48.8203 175.422 48.7957 175.458 48.7535L177.995 45.7289L180.533 48.7535C180.568 48.7957 180.62 48.8203 180.677 48.8203H181.612C181.692 48.8203 181.735 48.7277 181.683 48.6668L178.607 45Z" fill="#898989"/>
</svg>
