<svg width="156" height="57" viewBox="0 0 156 57" fill="none" xmlns="http://www.w3.org/2000/svg">
<g opacity="0.45">
<path opacity="0.45" d="M3.906 53.18C3.294 53.18 2.742 53.076 2.25 52.868C1.762 52.66 1.358 52.364 1.038 51.98C0.722 51.592 0.516 51.134 0.42 50.606L1.524 50.432C1.664 50.976 1.954 51.402 2.394 51.71C2.838 52.014 3.36 52.166 3.96 52.166C4.348 52.166 4.698 52.106 5.01 51.986C5.326 51.862 5.576 51.686 5.76 51.458C5.944 51.23 6.036 50.96 6.036 50.648C6.036 50.456 6.002 50.292 5.934 50.156C5.87 50.016 5.78 49.898 5.664 49.802C5.552 49.702 5.424 49.618 5.28 49.55C5.136 49.482 4.986 49.426 4.83 49.382L2.628 48.728C2.388 48.656 2.156 48.566 1.932 48.458C1.708 48.346 1.508 48.208 1.332 48.044C1.156 47.876 1.016 47.676 0.912 47.444C0.808 47.208 0.756 46.93 0.756 46.61C0.756 46.098 0.888 45.662 1.152 45.302C1.42 44.938 1.782 44.66 2.238 44.468C2.694 44.276 3.208 44.182 3.78 44.186C4.36 44.19 4.878 44.294 5.334 44.498C5.794 44.698 6.174 44.986 6.474 45.362C6.778 45.738 6.982 46.188 7.086 46.712L5.952 46.91C5.892 46.558 5.758 46.256 5.55 46.004C5.346 45.748 5.09 45.552 4.782 45.416C4.474 45.276 4.136 45.204 3.768 45.2C3.416 45.196 3.098 45.252 2.814 45.368C2.53 45.484 2.304 45.646 2.136 45.854C1.968 46.058 1.884 46.294 1.884 46.562C1.884 46.826 1.96 47.04 2.112 47.204C2.264 47.364 2.45 47.492 2.67 47.588C2.894 47.68 3.112 47.756 3.324 47.816L4.968 48.29C5.156 48.342 5.372 48.414 5.616 48.506C5.864 48.598 6.104 48.728 6.336 48.896C6.568 49.06 6.76 49.28 6.912 49.556C7.064 49.828 7.14 50.172 7.14 50.588C7.14 51.004 7.056 51.374 6.888 51.698C6.724 52.022 6.494 52.294 6.198 52.514C5.902 52.73 5.558 52.894 5.166 53.006C4.774 53.122 4.354 53.18 3.906 53.18ZM10.8586 53.168C10.4426 53.168 10.0846 53.102 9.78459 52.97C9.48859 52.838 9.24259 52.662 9.04659 52.442C8.85059 52.222 8.69659 51.978 8.58459 51.71C8.47259 51.442 8.39259 51.168 8.34459 50.888C8.30059 50.608 8.27859 50.346 8.27859 50.102V46.52H9.35859V49.766C9.35859 50.07 9.38659 50.364 9.44259 50.648C9.49859 50.932 9.59259 51.188 9.72459 51.416C9.86059 51.644 10.0406 51.824 10.2646 51.956C10.4926 52.088 10.7766 52.154 11.1166 52.154C11.3846 52.154 11.6286 52.108 11.8486 52.016C12.0686 51.924 12.2566 51.788 12.4126 51.608C12.5686 51.424 12.6886 51.192 12.7726 50.912C12.8566 50.632 12.8986 50.306 12.8986 49.934L13.6006 50.15C13.6006 50.774 13.4866 51.312 13.2586 51.764C13.0346 52.216 12.7166 52.564 12.3046 52.808C11.8966 53.048 11.4146 53.168 10.8586 53.168ZM13.0186 53V51.266H12.8986V46.52H13.9726V53H13.0186ZM18.6285 53.18C18.0205 53.18 17.5085 53.03 17.0925 52.73C16.6765 52.426 16.3605 52.016 16.1445 51.5C15.9325 50.98 15.8265 50.398 15.8265 49.754C15.8265 49.102 15.9325 48.518 16.1445 48.002C16.3605 47.486 16.6765 47.08 17.0925 46.784C17.5125 46.488 18.0265 46.34 18.6345 46.34C19.2345 46.34 19.7505 46.49 20.1825 46.79C20.6185 47.086 20.9525 47.492 21.1845 48.008C21.4165 48.524 21.5325 49.106 21.5325 49.754C21.5325 50.402 21.4165 50.984 21.1845 51.5C20.9525 52.016 20.6185 52.426 20.1825 52.73C19.7505 53.03 19.2325 53.18 18.6285 53.18ZM15.6465 55.88V46.52H16.6005V51.29H16.7205V55.88H15.6465ZM18.4965 52.202C18.9245 52.202 19.2785 52.094 19.5585 51.878C19.8385 51.662 20.0485 51.37 20.1885 51.002C20.3285 50.63 20.3985 50.214 20.3985 49.754C20.3985 49.298 20.3285 48.886 20.1885 48.518C20.0525 48.15 19.8405 47.858 19.5525 47.642C19.2685 47.426 18.9065 47.318 18.4665 47.318C18.0465 47.318 17.6985 47.422 17.4225 47.63C17.1465 47.834 16.9405 48.12 16.8045 48.488C16.6685 48.852 16.6005 49.274 16.6005 49.754C16.6005 50.226 16.6665 50.648 16.7985 51.02C16.9345 51.388 17.1425 51.678 17.4225 51.89C17.7025 52.098 18.0605 52.202 18.4965 52.202ZM25.8238 53.18C25.2158 53.18 24.7038 53.03 24.2878 52.73C23.8718 52.426 23.5558 52.016 23.3398 51.5C23.1278 50.98 23.0218 50.398 23.0218 49.754C23.0218 49.102 23.1278 48.518 23.3398 48.002C23.5558 47.486 23.8718 47.08 24.2878 46.784C24.7078 46.488 25.2218 46.34 25.8298 46.34C26.4298 46.34 26.9458 46.49 27.3778 46.79C27.8138 47.086 28.1478 47.492 28.3798 48.008C28.6118 48.524 28.7278 49.106 28.7278 49.754C28.7278 50.402 28.6118 50.984 28.3798 51.5C28.1478 52.016 27.8138 52.426 27.3778 52.73C26.9458 53.03 26.4278 53.18 25.8238 53.18ZM22.8418 55.88V46.52H23.7958V51.29H23.9158V55.88H22.8418ZM25.6918 52.202C26.1198 52.202 26.4738 52.094 26.7538 51.878C27.0338 51.662 27.2438 51.37 27.3838 51.002C27.5238 50.63 27.5938 50.214 27.5938 49.754C27.5938 49.298 27.5238 48.886 27.3838 48.518C27.2478 48.15 27.0358 47.858 26.7478 47.642C26.4638 47.426 26.1018 47.318 25.6618 47.318C25.2418 47.318 24.8938 47.422 24.6178 47.63C24.3418 47.834 24.1358 48.12 23.9998 48.488C23.8638 48.852 23.7958 49.274 23.7958 49.754C23.7958 50.226 23.8618 50.648 23.9938 51.02C24.1298 51.388 24.3378 51.678 24.6178 51.89C24.8978 52.098 25.2558 52.202 25.6918 52.202ZM32.8031 53.18C32.1591 53.18 31.6031 53.034 31.1351 52.742C30.6711 52.45 30.3131 52.046 30.0611 51.53C29.8091 51.014 29.6831 50.422 29.6831 49.754C29.6831 49.074 29.8111 48.478 30.0671 47.966C30.3231 47.454 30.6851 47.056 31.1531 46.772C31.6211 46.484 32.1711 46.34 32.8031 46.34C33.4511 46.34 34.0091 46.486 34.4771 46.778C34.9451 47.066 35.3031 47.468 35.5511 47.984C35.8031 48.496 35.9291 49.086 35.9291 49.754C35.9291 50.43 35.8031 51.026 35.5511 51.542C35.2991 52.054 34.9391 52.456 34.4711 52.748C34.0031 53.036 33.4471 53.18 32.8031 53.18ZM32.8031 52.166C33.4751 52.166 33.9751 51.942 34.3031 51.494C34.6311 51.046 34.7951 50.466 34.7951 49.754C34.7951 49.022 34.6291 48.44 34.2971 48.008C33.9651 47.572 33.4671 47.354 32.8031 47.354C32.3511 47.354 31.9791 47.456 31.6871 47.66C31.3951 47.864 31.1771 48.146 31.0331 48.506C30.8891 48.866 30.8171 49.282 30.8171 49.754C30.8171 50.482 30.9851 51.066 31.3211 51.506C31.6571 51.946 32.1511 52.166 32.8031 52.166ZM37.2502 53V46.52H38.2042V48.086L38.0482 47.882C38.1242 47.682 38.2222 47.498 38.3422 47.33C38.4662 47.162 38.6042 47.024 38.7562 46.916C38.9242 46.78 39.1142 46.676 39.3262 46.604C39.5382 46.532 39.7542 46.49 39.9742 46.478C40.1942 46.462 40.4002 46.476 40.5922 46.52V47.522C40.3682 47.462 40.1222 47.446 39.8542 47.474C39.5862 47.502 39.3382 47.6 39.1102 47.768C38.9022 47.916 38.7402 48.096 38.6242 48.308C38.5122 48.52 38.4342 48.75 38.3902 48.998C38.3462 49.242 38.3242 49.492 38.3242 49.748V53H37.2502ZM45.3447 53C44.9607 53.076 44.5807 53.106 44.2047 53.09C43.8327 53.078 43.5007 53.004 43.2087 52.868C42.9167 52.728 42.6947 52.512 42.5427 52.22C42.4147 51.964 42.3447 51.706 42.3327 51.446C42.3247 51.182 42.3207 50.884 42.3207 50.552V44.72H43.3887V50.504C43.3887 50.768 43.3907 50.994 43.3947 51.182C43.4027 51.37 43.4447 51.532 43.5207 51.668C43.6647 51.924 43.8927 52.074 44.2047 52.118C44.5207 52.162 44.9007 52.15 45.3447 52.082V53ZM41.0067 47.402V46.52H45.3447V47.402H41.0067ZM55.7351 53V51.824H56.9111V53H55.7351ZM58.7775 53V46.52H59.7315V48.086L59.5755 47.882C59.6515 47.682 59.7495 47.498 59.8695 47.33C59.9935 47.162 60.1315 47.024 60.2835 46.916C60.4515 46.78 60.6415 46.676 60.8535 46.604C61.0655 46.532 61.2815 46.49 61.5015 46.478C61.7215 46.462 61.9275 46.476 62.1195 46.52V47.522C61.8955 47.462 61.6495 47.446 61.3815 47.474C61.1135 47.502 60.8655 47.6 60.6375 47.768C60.4295 47.916 60.2675 48.096 60.1515 48.308C60.0395 48.52 59.9615 48.75 59.9175 48.998C59.8735 49.242 59.8515 49.492 59.8515 49.748V53H58.7775ZM64.8851 53.18C64.4011 53.18 63.9951 53.092 63.6671 52.916C63.3431 52.736 63.0971 52.5 62.9291 52.208C62.7651 51.916 62.6831 51.596 62.6831 51.248C62.6831 50.908 62.7471 50.614 62.8751 50.366C63.0071 50.114 63.1911 49.906 63.4271 49.742C63.6631 49.574 63.9451 49.442 64.2731 49.346C64.5811 49.262 64.9251 49.19 65.3051 49.13C65.6891 49.066 66.0771 49.008 66.4691 48.956C66.8611 48.904 67.2271 48.854 67.5671 48.806L67.1831 49.028C67.1951 48.452 67.0791 48.026 66.8351 47.75C66.5951 47.474 66.1791 47.336 65.5871 47.336C65.1951 47.336 64.8511 47.426 64.5551 47.606C64.2631 47.782 64.0571 48.07 63.9371 48.47L62.9231 48.164C63.0791 47.596 63.3811 47.15 63.8291 46.826C64.2771 46.502 64.8671 46.34 65.5991 46.34C66.1871 46.34 66.6911 46.446 67.1111 46.658C67.5351 46.866 67.8391 47.182 68.0231 47.606C68.1151 47.806 68.1731 48.024 68.1971 48.26C68.2211 48.492 68.2331 48.736 68.2331 48.992V53H67.2851V51.446L67.5071 51.59C67.2631 52.114 66.9211 52.51 66.4811 52.778C66.0451 53.046 65.5131 53.18 64.8851 53.18ZM65.0471 52.286C65.4311 52.286 65.7631 52.218 66.0431 52.082C66.3271 51.942 66.5551 51.76 66.7271 51.536C66.8991 51.308 67.0111 51.06 67.0631 50.792C67.1231 50.592 67.1551 50.37 67.1591 50.126C67.1671 49.878 67.1711 49.688 67.1711 49.556L67.5431 49.718C67.1951 49.766 66.8531 49.812 66.5171 49.856C66.1811 49.9 65.8631 49.948 65.5631 50C65.2631 50.048 64.9931 50.106 64.7531 50.174C64.5771 50.23 64.4111 50.302 64.2551 50.39C64.1031 50.478 63.9791 50.592 63.8831 50.732C63.7911 50.868 63.7451 51.038 63.7451 51.242C63.7451 51.418 63.7891 51.586 63.8771 51.746C63.9691 51.906 64.1091 52.036 64.2971 52.136C64.4891 52.236 64.7391 52.286 65.0471 52.286ZM69.7931 53V46.52H70.7471V48.086L70.5911 47.882C70.6671 47.682 70.7651 47.498 70.8851 47.33C71.0091 47.162 71.1471 47.024 71.2991 46.916C71.4671 46.78 71.6571 46.676 71.8691 46.604C72.0811 46.532 72.2971 46.49 72.5171 46.478C72.7371 46.462 72.9431 46.476 73.1351 46.52V47.522C72.9111 47.462 72.6651 47.446 72.3971 47.474C72.1291 47.502 71.8811 47.6 71.6531 47.768C71.4451 47.916 71.2831 48.096 71.1671 48.308C71.0551 48.52 70.9771 48.75 70.9331 48.998C70.8891 49.242 70.8671 49.492 70.8671 49.748V53H69.7931ZM76.864 53V51.824H78.04V53H76.864ZM79.3064 53V52.808L83.2364 47.492H79.6304V46.52H84.9584V46.724L81.0344 52.028H84.7544V53H79.3064ZM86.4014 45.374V44.27H87.4694V45.374H86.4014ZM86.4014 53V46.52H87.4694V53H86.4014ZM92.2457 53.18C91.6377 53.18 91.1257 53.03 90.7097 52.73C90.2937 52.426 89.9777 52.016 89.7617 51.5C89.5497 50.98 89.4437 50.398 89.4437 49.754C89.4437 49.102 89.5497 48.518 89.7617 48.002C89.9777 47.486 90.2937 47.08 90.7097 46.784C91.1297 46.488 91.6437 46.34 92.2517 46.34C92.8517 46.34 93.3677 46.49 93.7997 46.79C94.2357 47.086 94.5697 47.492 94.8017 48.008C95.0337 48.524 95.1497 49.106 95.1497 49.754C95.1497 50.402 95.0337 50.984 94.8017 51.5C94.5697 52.016 94.2357 52.426 93.7997 52.73C93.3677 53.03 92.8497 53.18 92.2457 53.18ZM89.2637 55.88V46.52H90.2177V51.29H90.3377V55.88H89.2637ZM92.1137 52.202C92.5417 52.202 92.8957 52.094 93.1757 51.878C93.4557 51.662 93.6657 51.37 93.8057 51.002C93.9457 50.63 94.0157 50.214 94.0157 49.754C94.0157 49.298 93.9457 48.886 93.8057 48.518C93.6697 48.15 93.4577 47.858 93.1697 47.642C92.8857 47.426 92.5237 47.318 92.0837 47.318C91.6637 47.318 91.3157 47.422 91.0397 47.63C90.7637 47.834 90.5577 48.12 90.4217 48.488C90.2857 48.852 90.2177 49.274 90.2177 49.754C90.2177 50.226 90.2837 50.648 90.4157 51.02C90.5517 51.388 90.7597 51.678 91.0397 51.89C91.3197 52.098 91.6777 52.202 92.1137 52.202ZM99.0593 53V51.824H100.235V53H99.0593ZM104.646 53.18C104.042 53.18 103.524 53.03 103.092 52.73C102.66 52.426 102.326 52.016 102.09 51.5C101.858 50.984 101.742 50.402 101.742 49.754C101.742 49.106 101.858 48.524 102.09 48.008C102.326 47.492 102.66 47.086 103.092 46.79C103.524 46.49 104.04 46.34 104.64 46.34C105.252 46.34 105.766 46.488 106.182 46.784C106.598 47.08 106.912 47.486 107.124 48.002C107.34 48.518 107.448 49.102 107.448 49.754C107.448 50.398 107.34 50.98 107.124 51.5C106.912 52.016 106.598 52.426 106.182 52.73C105.766 53.03 105.254 53.18 104.646 53.18ZM104.778 52.202C105.214 52.202 105.572 52.098 105.852 51.89C106.132 51.678 106.338 51.388 106.47 51.02C106.606 50.648 106.674 50.226 106.674 49.754C106.674 49.274 106.606 48.852 106.47 48.488C106.338 48.12 106.134 47.834 105.858 47.63C105.582 47.422 105.232 47.318 104.808 47.318C104.368 47.318 104.004 47.426 103.716 47.642C103.432 47.858 103.22 48.15 103.08 48.518C102.944 48.886 102.876 49.298 102.876 49.754C102.876 50.214 102.946 50.63 103.086 51.002C103.226 51.37 103.436 51.662 103.716 51.878C104 52.094 104.354 52.202 104.778 52.202ZM106.674 53V48.23H106.554V44.36H107.628V53H106.674ZM112.069 53.18C111.425 53.18 110.869 53.034 110.401 52.742C109.937 52.45 109.579 52.046 109.327 51.53C109.075 51.014 108.949 50.422 108.949 49.754C108.949 49.074 109.077 48.478 109.333 47.966C109.589 47.454 109.951 47.056 110.419 46.772C110.887 46.484 111.437 46.34 112.069 46.34C112.717 46.34 113.275 46.486 113.743 46.778C114.211 47.066 114.569 47.468 114.817 47.984C115.069 48.496 115.195 49.086 115.195 49.754C115.195 50.43 115.069 51.026 114.817 51.542C114.565 52.054 114.205 52.456 113.737 52.748C113.269 53.036 112.713 53.18 112.069 53.18ZM112.069 52.166C112.741 52.166 113.241 51.942 113.569 51.494C113.897 51.046 114.061 50.466 114.061 49.754C114.061 49.022 113.895 48.44 113.563 48.008C113.231 47.572 112.733 47.354 112.069 47.354C111.617 47.354 111.245 47.456 110.953 47.66C110.661 47.864 110.443 48.146 110.299 48.506C110.155 48.866 110.083 49.282 110.083 49.754C110.083 50.482 110.251 51.066 110.587 51.506C110.923 51.946 111.417 52.166 112.069 52.166ZM119.246 53.18C118.59 53.18 118.032 53.034 117.572 52.742C117.116 52.446 116.768 52.04 116.528 51.524C116.288 51.008 116.164 50.42 116.156 49.76C116.164 49.084 116.29 48.49 116.534 47.978C116.782 47.462 117.136 47.06 117.596 46.772C118.056 46.484 118.61 46.34 119.258 46.34C119.942 46.34 120.53 46.508 121.022 46.844C121.518 47.18 121.85 47.64 122.018 48.224L120.962 48.542C120.826 48.166 120.604 47.874 120.296 47.666C119.992 47.458 119.642 47.354 119.246 47.354C118.802 47.354 118.436 47.458 118.148 47.666C117.86 47.87 117.646 48.154 117.506 48.518C117.366 48.878 117.294 49.292 117.29 49.76C117.298 50.48 117.464 51.062 117.788 51.506C118.116 51.946 118.602 52.166 119.246 52.166C119.67 52.166 120.022 52.07 120.302 51.878C120.582 51.682 120.794 51.4 120.938 51.032L122.018 51.314C121.794 51.918 121.444 52.38 120.968 52.7C120.492 53.02 119.918 53.18 119.246 53.18ZM125.837 53V51.824H127.013V53H125.837ZM127.919 55.88V54.86H128.267C128.579 54.86 128.817 54.782 128.981 54.626C129.145 54.47 129.227 54.222 129.227 53.882V46.52H130.295V54.248C130.295 54.78 130.157 55.184 129.881 55.46C129.609 55.74 129.205 55.88 128.669 55.88H127.919ZM129.227 45.374V44.27H130.295V45.374H129.227ZM135.007 53.18C134.399 53.18 133.887 53.03 133.471 52.73C133.055 52.426 132.739 52.016 132.523 51.5C132.311 50.98 132.205 50.398 132.205 49.754C132.205 49.102 132.311 48.518 132.523 48.002C132.739 47.486 133.055 47.08 133.471 46.784C133.891 46.488 134.405 46.34 135.013 46.34C135.613 46.34 136.129 46.49 136.561 46.79C136.997 47.086 137.331 47.492 137.563 48.008C137.795 48.524 137.911 49.106 137.911 49.754C137.911 50.402 137.795 50.984 137.563 51.5C137.331 52.016 136.997 52.426 136.561 52.73C136.129 53.03 135.611 53.18 135.007 53.18ZM132.025 55.88V46.52H132.979V51.29H133.099V55.88H132.025ZM134.875 52.202C135.303 52.202 135.657 52.094 135.937 51.878C136.217 51.662 136.427 51.37 136.567 51.002C136.707 50.63 136.777 50.214 136.777 49.754C136.777 49.298 136.707 48.886 136.567 48.518C136.431 48.15 136.219 47.858 135.931 47.642C135.647 47.426 135.285 47.318 134.845 47.318C134.425 47.318 134.077 47.422 133.801 47.63C133.525 47.834 133.319 48.12 133.183 48.488C133.047 48.852 132.979 49.274 132.979 49.754C132.979 50.226 133.045 50.648 133.177 51.02C133.313 51.388 133.521 51.678 133.801 51.89C134.081 52.098 134.439 52.202 134.875 52.202ZM141.849 56.06C141.509 56.06 141.177 56.008 140.853 55.904C140.529 55.8 140.231 55.642 139.959 55.43C139.691 55.222 139.467 54.958 139.287 54.638L140.265 54.122C140.425 54.438 140.651 54.668 140.943 54.812C141.239 54.956 141.543 55.028 141.855 55.028C142.267 55.028 142.609 54.952 142.881 54.8C143.153 54.652 143.353 54.43 143.481 54.134C143.613 53.838 143.677 53.47 143.673 53.03V51.26H143.799V46.52H144.747V53.042C144.747 53.218 144.741 53.388 144.729 53.552C144.721 53.716 144.701 53.878 144.669 54.038C144.585 54.498 144.419 54.876 144.171 55.172C143.923 55.472 143.603 55.694 143.211 55.838C142.819 55.986 142.365 56.06 141.849 56.06ZM141.771 53.18C141.167 53.18 140.649 53.03 140.217 52.73C139.785 52.426 139.451 52.016 139.215 51.5C138.983 50.984 138.867 50.402 138.867 49.754C138.867 49.106 138.983 48.524 139.215 48.008C139.451 47.492 139.785 47.086 140.217 46.79C140.649 46.49 141.165 46.34 141.765 46.34C142.377 46.34 142.891 46.488 143.307 46.784C143.723 47.08 144.037 47.486 144.249 48.002C144.465 48.518 144.573 49.102 144.573 49.754C144.573 50.398 144.465 50.98 144.249 51.5C144.037 52.016 143.723 52.426 143.307 52.73C142.891 53.03 142.379 53.18 141.771 53.18ZM141.903 52.202C142.339 52.202 142.697 52.098 142.977 51.89C143.257 51.678 143.463 51.388 143.595 51.02C143.731 50.648 143.799 50.226 143.799 49.754C143.799 49.274 143.731 48.852 143.595 48.488C143.463 48.12 143.259 47.834 142.983 47.63C142.707 47.422 142.357 47.318 141.933 47.318C141.493 47.318 141.129 47.426 140.841 47.642C140.557 47.858 140.345 48.15 140.205 48.518C140.069 48.886 140.001 49.298 140.001 49.754C140.001 50.214 140.071 50.63 140.211 51.002C140.351 51.37 140.561 51.662 140.841 51.878C141.125 52.094 141.479 52.202 141.903 52.202ZM146.614 53V51.824H147.79V53H146.614ZM149.848 53V51.824H151.024V53H149.848ZM153.083 53V51.824H154.259V53H153.083Z" fill="black"/>
</g>
<path d="M97 1H2C1.44772 1 1 1.44772 1 2V30C1 30.5523 1.44772 31 2 31H97C97.5523 31 98 30.5523 98 30V2C98 1.44772 97.5523 1 97 1Z" fill="white"/>
<path opacity="0.15" d="M96.5 0.5H2.5C1.39543 0.5 0.5 1.39543 0.5 2.5V29.5C0.5 30.6046 1.39543 31.5 2.5 31.5H96.5C97.6046 31.5 98.5 30.6046 98.5 29.5V2.5C98.5 1.39543 97.6046 0.5 96.5 0.5Z" stroke="black"/>
<path opacity="0.65" d="M44.956 21.21C44.1767 21.21 43.4883 21.049 42.891 20.727C42.2937 20.405 41.8247 19.9547 41.484 19.376C41.148 18.7927 40.98 18.109 40.98 17.325V10.927L42.24 10.92V17.22C42.24 17.696 42.3193 18.1113 42.478 18.466C42.6413 18.816 42.856 19.1077 43.122 19.341C43.388 19.5743 43.6797 19.7493 43.997 19.866C44.319 19.978 44.6387 20.034 44.956 20.034C45.278 20.034 45.6 19.9757 45.922 19.859C46.244 19.7423 46.5357 19.5697 46.797 19.341C47.063 19.1077 47.2753 18.8137 47.434 18.459C47.5927 18.1043 47.672 17.6913 47.672 17.22V10.92H48.932V17.325C48.932 18.1043 48.7617 18.7857 48.421 19.369C48.085 19.9523 47.6183 20.405 47.021 20.727C46.4237 21.049 45.7353 21.21 44.956 21.21ZM54.3641 21.21C53.6548 21.21 53.0574 21.035 52.5721 20.685C52.0868 20.3303 51.7181 19.852 51.4661 19.25C51.2188 18.6433 51.0951 17.9643 51.0951 17.213C51.0951 16.4523 51.2188 15.771 51.4661 15.169C51.7181 14.567 52.0868 14.0933 52.5721 13.748C53.0621 13.4027 53.6618 13.23 54.3711 13.23C55.0711 13.23 55.6731 13.405 56.1771 13.755C56.6858 14.1003 57.0754 14.574 57.3461 15.176C57.6168 15.778 57.7521 16.457 57.7521 17.213C57.7521 17.969 57.6168 18.648 57.3461 19.25C57.0754 19.852 56.6858 20.3303 56.1771 20.685C55.6731 21.035 55.0688 21.21 54.3641 21.21ZM50.8851 24.36V13.44H51.9981V19.005H52.1381V24.36H50.8851ZM54.2101 20.069C54.7094 20.069 55.1224 19.943 55.4491 19.691C55.7758 19.439 56.0208 19.0983 56.1841 18.669C56.3474 18.235 56.4291 17.7497 56.4291 17.213C56.4291 16.681 56.3474 16.2003 56.1841 15.771C56.0254 15.3417 55.7781 15.001 55.4421 14.749C55.1108 14.497 54.6884 14.371 54.1751 14.371C53.6851 14.371 53.2791 14.4923 52.9571 14.735C52.6351 14.973 52.3948 15.3067 52.2361 15.736C52.0774 16.1607 51.9981 16.653 51.9981 17.213C51.9981 17.7637 52.0751 18.256 52.2291 18.69C52.3878 19.1193 52.6304 19.4577 52.9571 19.705C53.2838 19.9477 53.7014 20.069 54.2101 20.069ZM59.4266 21V10.71H60.6726V21H59.4266ZM65.993 21.21C65.2416 21.21 64.593 21.0397 64.047 20.699C63.5056 20.3583 63.088 19.887 62.794 19.285C62.5 18.683 62.353 17.9923 62.353 17.213C62.353 16.4197 62.5023 15.7243 62.801 15.127C63.0996 14.5297 63.522 14.0653 64.068 13.734C64.614 13.398 65.2556 13.23 65.993 13.23C66.749 13.23 67.4 13.4003 67.946 13.741C68.492 14.077 68.9096 14.546 69.199 15.148C69.493 15.7453 69.64 16.4337 69.64 17.213C69.64 18.0017 69.493 18.697 69.199 19.299C68.905 19.8963 68.485 20.3653 67.939 20.706C67.393 21.042 66.7443 21.21 65.993 21.21ZM65.993 20.027C66.777 20.027 67.3603 19.7657 67.743 19.243C68.1256 18.7203 68.317 18.0437 68.317 17.213C68.317 16.359 68.1233 15.68 67.736 15.176C67.3486 14.6673 66.7676 14.413 65.993 14.413C65.4656 14.413 65.0316 14.532 64.691 14.77C64.3503 15.008 64.096 15.337 63.928 15.757C63.76 16.177 63.676 16.6623 63.676 17.213C63.676 18.0623 63.872 18.7437 64.264 19.257C64.656 19.7703 65.2323 20.027 65.993 20.027ZM73.3302 21.21C72.7655 21.21 72.2918 21.1073 71.9092 20.902C71.5312 20.692 71.2442 20.4167 71.0482 20.076C70.8568 19.7353 70.7612 19.362 70.7612 18.956C70.7612 18.5593 70.8358 18.2163 70.9852 17.927C71.1392 17.633 71.3538 17.3903 71.6292 17.199C71.9045 17.003 72.2335 16.849 72.6162 16.737C72.9755 16.639 73.3768 16.555 73.8202 16.485C74.2682 16.4103 74.7208 16.3427 75.1782 16.282C75.6355 16.2213 76.0625 16.163 76.4592 16.107L76.0112 16.366C76.0252 15.694 75.8898 15.197 75.6052 14.875C75.3252 14.553 74.8398 14.392 74.1492 14.392C73.6918 14.392 73.2905 14.497 72.9452 14.707C72.6045 14.9123 72.3642 15.2483 72.2242 15.715L71.0412 15.358C71.2232 14.6953 71.5755 14.175 72.0982 13.797C72.6208 13.419 73.3092 13.23 74.1632 13.23C74.8492 13.23 75.4372 13.3537 75.9272 13.601C76.4218 13.8437 76.7765 14.2123 76.9912 14.707C77.0985 14.9403 77.1662 15.1947 77.1942 15.47C77.2222 15.7407 77.2362 16.0253 77.2362 16.324V21H76.1302V19.187L76.3892 19.355C76.1045 19.9663 75.7055 20.4283 75.1922 20.741C74.6835 21.0537 74.0628 21.21 73.3302 21.21ZM73.5192 20.167C73.9672 20.167 74.3545 20.0877 74.6812 19.929C75.0125 19.7657 75.2785 19.5533 75.4792 19.292C75.6798 19.026 75.8105 18.7367 75.8712 18.424C75.9412 18.1907 75.9785 17.9317 75.9832 17.647C75.9925 17.3577 75.9972 17.136 75.9972 16.982L76.4312 17.171C76.0252 17.227 75.6262 17.2807 75.2342 17.332C74.8422 17.3833 74.4712 17.4393 74.1212 17.5C73.7712 17.556 73.4562 17.6237 73.1762 17.703C72.9708 17.7683 72.7772 17.8523 72.5952 17.955C72.4178 18.0577 72.2732 18.1907 72.1612 18.354C72.0538 18.5127 72.0002 18.711 72.0002 18.949C72.0002 19.1543 72.0515 19.3503 72.1542 19.537C72.2615 19.7237 72.4248 19.8753 72.6442 19.992C72.8682 20.1087 73.1598 20.167 73.5192 20.167ZM82.0242 21.21C81.3195 21.21 80.7152 21.035 80.2112 20.685C79.7072 20.3303 79.3175 19.852 79.0422 19.25C78.7715 18.648 78.6362 17.969 78.6362 17.213C78.6362 16.457 78.7715 15.778 79.0422 15.176C79.3175 14.574 79.7072 14.1003 80.2112 13.755C80.7152 13.405 81.3172 13.23 82.0172 13.23C82.7312 13.23 83.3308 13.4027 83.8162 13.748C84.3015 14.0933 84.6678 14.567 84.9152 15.169C85.1672 15.771 85.2932 16.4523 85.2932 17.213C85.2932 17.9643 85.1672 18.6433 84.9152 19.25C84.6678 19.852 84.3015 20.3303 83.8162 20.685C83.3308 21.035 82.7335 21.21 82.0242 21.21ZM82.1782 20.069C82.6868 20.069 83.1045 19.9477 83.4312 19.705C83.7578 19.4577 83.9982 19.1193 84.1522 18.69C84.3108 18.256 84.3902 17.7637 84.3902 17.213C84.3902 16.653 84.3108 16.1607 84.1522 15.736C83.9982 15.3067 83.7602 14.973 83.4382 14.735C83.1162 14.4923 82.7078 14.371 82.2132 14.371C81.6998 14.371 81.2752 14.497 80.9392 14.749C80.6078 15.001 80.3605 15.3417 80.1972 15.771C80.0385 16.2003 79.9592 16.681 79.9592 17.213C79.9592 17.7497 80.0408 18.235 80.2042 18.669C80.3675 19.0983 80.6125 19.439 80.9392 19.691C81.2705 19.943 81.6835 20.069 82.1782 20.069ZM84.3902 21V15.435H84.2502V10.92H85.5032V21H84.3902Z" fill="black"/>
<path opacity="0.65" d="M22.25 12.964H23.4047V18.25C23.4047 18.3187 23.4609 18.375 23.5297 18.375H24.4672C24.5359 18.375 24.5922 18.3187 24.5922 18.25V12.964H25.75C25.8547 12.964 25.9125 12.8437 25.8484 12.7625L24.0984 10.5468C24.0484 10.4828 23.9516 10.4828 23.9016 10.5468L22.1516 12.7609C22.0875 12.8437 22.1453 12.964 22.25 12.964ZM29.7188 17.7812H28.7812C28.7125 17.7812 28.6562 17.8375 28.6562 17.9062V20.3125H19.3438V17.9062C19.3438 17.8375 19.2875 17.7812 19.2188 17.7812H18.2812C18.2125 17.7812 18.1562 17.8375 18.1562 17.9062V21C18.1562 21.2765 18.3797 21.5 18.6562 21.5H29.3438C29.6203 21.5 29.8438 21.2765 29.8438 21V17.9062C29.8438 17.8375 29.7875 17.7812 29.7188 17.7812Z" fill="black"/>
</svg>
