<svg width="316" height="138" viewBox="0 0 316 138" fill="none" xmlns="http://www.w3.org/2000/svg">
<path d="M48.0769 85.0565C31.7609 85.0565 18.5342 71.8298 18.5342 55.5139C18.5342 39.1979 31.7609 25.9712 48.0769 25.9712C64.3929 25.9712 77.6196 39.1979 77.6196 55.5139C77.6196 71.8298 64.3929 85.0565 48.0769 85.0565Z" fill="#FF0022"/>
<path d="M48.077 78.324C35.4793 78.324 25.2668 68.1115 25.2668 55.5138C25.2668 42.9161 35.4793 32.7036 48.077 32.7036C60.6747 32.7036 70.8872 42.9161 70.8872 55.5138C70.8872 68.1115 60.6747 78.324 48.077 78.324Z" fill="white"/>
<path d="M48.0769 72.295C38.809 72.295 31.2959 64.7819 31.2959 55.514C31.2959 46.2461 38.809 38.7329 48.0769 38.7329C57.3448 38.7329 64.8579 46.2461 64.8579 55.514C64.8579 64.7819 57.3448 72.295 48.0769 72.295Z" fill="#FF0022"/>
<path d="M48.0769 66.2772C42.1323 66.2772 37.3132 61.4582 37.3132 55.5136C37.3132 49.569 42.1323 44.75 48.0769 44.75C54.0215 44.75 58.8406 49.569 58.8406 55.5136C58.8406 61.4582 54.0215 66.2772 48.0769 66.2772Z" fill="white"/>
<path d="M48.0768 60.9177C45.0922 60.9177 42.6726 58.4982 42.6726 55.5135C42.6726 52.5289 45.0922 50.1094 48.0768 50.1094C51.0614 50.1094 53.481 52.5289 53.481 55.5135C53.481 58.4982 51.0614 60.9177 48.0768 60.9177Z" fill="#FF0022"/>
<path d="M9.11855 31.4589C11.5551 28.0368 4.91201 19.1288 10.3529 23.0065L16.7143 27.5316C21.5302 30.9584 22.2519 34.7495 20.6679 37.9489L48.183 54.8925C48.559 55.1249 48.6762 55.6171 48.4447 55.994C48.2934 56.2392 48.0307 56.3739 47.7621 56.3739C47.6195 56.3739 47.474 56.3358 47.3432 56.2558L19.828 39.312C17.3764 42.6156 13.2504 43.7371 7.89394 39.9243L1.53555 35.3998C-3.90781 31.5219 6.68105 34.8849 9.11855 31.4589Z" fill="#2D3436"/>
<path d="M118.048 49.9492H118.049C118.416 49.9492 118.751 49.749 118.926 49.4277L123.147 41.6885L130.876 37.4482C131.198 37.2725 131.396 36.9355 131.396 36.5703C131.396 36.2041 131.196 35.8682 130.875 35.6934L123.135 31.4727L118.895 23.7432C118.719 23.4229 118.383 23.2236 118.018 23.2236H118.017C117.651 23.2236 117.315 23.4238 117.14 23.7451L112.919 31.4844L105.19 35.7246C104.869 35.9004 104.67 36.2373 104.67 36.6025C104.67 36.9688 104.871 37.3047 105.192 37.4795L112.931 41.7002L117.171 49.4297C117.347 49.75 117.683 49.9492 118.048 49.9492ZM128.312 36.5742L121.929 40.0752C121.761 40.167 121.624 40.3057 121.532 40.4736L118.045 46.8652L114.544 40.4824C114.453 40.3145 114.314 40.1768 114.146 40.085L107.754 36.5986L114.137 33.0977C114.305 33.0059 114.443 32.8672 114.535 32.6992L118.021 26.3076L121.522 32.6904C121.614 32.8584 121.752 32.9961 121.92 33.0879L128.312 36.5742Z" fill="#FF0022"/>
<path d="M94.7583 19.3359H94.7593C95.1255 19.3359 95.4614 19.1357 95.6362 18.8145L98.5532 13.4648L103.896 10.5342C104.217 10.3584 104.416 10.0215 104.416 9.65625C104.416 9.29004 104.215 8.9541 103.894 8.7793L98.5444 5.8623L95.6138 0.519531C95.438 0.199219 95.1021 0 94.7368 0H94.7358C94.3696 0 94.0337 0.200195 93.8589 0.521484L90.9419 5.87012L85.5981 8.80176C85.2778 8.97754 85.0796 9.31445 85.0796 9.67969C85.0796 10.0459 85.2798 10.3818 85.6011 10.5566L90.9497 13.4736L93.8813 18.8174C94.0571 19.1367 94.3931 19.3359 94.7583 19.3359ZM101.332 9.66016L97.3354 11.8516C97.1675 11.9434 97.0298 12.082 96.938 12.25L94.7554 16.252L92.563 12.2549C92.4712 12.0879 92.3325 11.9502 92.1646 11.8584L88.1636 9.67578L92.1606 7.4834C92.3276 7.3916 92.4653 7.25293 92.5571 7.08496L94.7397 3.08398L96.9312 7.08008C97.0229 7.24805 97.1616 7.38574 97.3296 7.47754L101.332 9.66016Z" fill="#FF0022"/>
<path d="M176.972 74.2255C166.82 78.208 160.373 77.3515 158.644 77.258C157.314 77.1862 150.168 62.9502 148.372 56.3518C147.788 54.2026 150.75 53.58 150.75 53.58L165.654 51.6108L164.588 49.771C160.584 41.719 163.585 36.1504 165.986 34.288C168.386 32.425 171.356 33.4047 171.522 35.0034C171.688 36.603 171.908 38.958 171.913 42.3796C171.918 47.2505 175.453 50.4082 176.732 51.3918C176.804 51.4189 176.475 51.167 176.963 51.5576C178.79 53.021 180.965 54.3413 183.521 55.0339L177.695 74.4245" fill="#F9B59E"/>
<path d="M182.099 74.4188L187.441 55.8076L188.105 53.4956L187.364 53.3396L315.559 50.1616L315.6 83.4006L181.783 75.5214L182.099 74.4188Z" fill="#0063F7"/>
<path d="M177.695 74.4243L183.521 55.0337L184.229 52.6797L187.364 53.3396L188.105 53.4956L187.441 55.8076L182.099 74.4188L181.783 75.5214L181.549 76.3361L177.535 74.9581L177.695 74.4243Z" fill="#0010F7"/>
<path d="M131.475 126.167C119.038 131.046 109.569 130.402 107.45 130.288C105.822 130.2 97.0669 112.759 94.8672 104.676C94.1509 102.043 97.7788 101.28 97.7788 101.28L116.039 98.8673L114.733 96.6134C109.828 86.7489 113.505 79.9271 116.445 77.6454C119.385 75.3629 123.025 76.5633 123.227 78.5216C123.432 80.4815 123.701 83.3663 123.706 87.5584C123.713 93.5038 128.01 97.3641 129.592 98.5841C129.686 98.6151 129.784 98.6766 129.893 98.8021C131.526 100.677 135.467 102.329 138.475 103.167L132.475 126.167" fill="#F9B59E"/>
<path d="M135.616 127.822L135.677 127.84L135.934 126.81L137.879 119.002L141.8 103.727L142.503 100.989L314.014 97.0747L314.064 137.796L135.533 128.145L135.616 127.822Z" fill="#0010F7"/>
<path d="M131.475 127.646L137.866 101.476L138.43 99.167L143.028 100.026L142.45 102.516L138.527 119.432L136.463 128.07L135.96 128.07L136.367 128.07L136.104 129.167L132.762 128.074H132.787L131.475 127.646Z" fill="#0063F7"/>
</svg>
