<svg xmlns="http://www.w3.org/2000/svg" width="358.276" height="219.649" viewBox="0 0 358.276 219.649">
  <g id="welcome-illustration-2" transform="translate(-0.467 -0.352)">
    <path id="Path_506" data-name="Path 506" d="M264,138.2c-.066,53.295-79.9,81.87-133.361,81.8S33.934,148.414,34,95.118,77.421,26.934,130.879,27,264.066,84.9,264,138.2Z" fill="#292929"/>
    <path id="Path_507" data-name="Path 507" d="M332.685,61.146a5.486,5.486,0,1,1,5.486-5.486A5.494,5.494,0,0,1,332.685,61.146Zm0-8.973a3.486,3.486,0,1,0,3.486,3.486A3.492,3.492,0,0,0,332.685,52.174Z" fill="#0010f7"/>
    <path id="Path_508" data-name="Path 508" d="M179.43,12.711a6.18,6.18,0,1,1,6.18-6.18A6.188,6.188,0,0,1,179.43,12.711Zm0-10.359a4.18,4.18,0,1,0,4.18,4.18A4.186,4.186,0,0,0,179.43,2.352Z" fill="#0010f7"/>
    <path id="Path_509" data-name="Path 509" d="M304.806,102.321a1,1,0,0,1-.7-.29l-5.059-5.012a1,1,0,0,1-.007-1.413l3.917-3.956L299,87.734a1,1,0,0,1-.006-1.415l5.015-5.059a1,1,0,0,1,1.414-.006l3.954,3.917,3.919-3.952a1,1,0,0,1,1.414-.006l5.058,5.012a1,1,0,0,1,.005,1.414l-3.918,3.951,3.954,3.922a1,1,0,0,1,0,1.414l-5.011,5.058a1,1,0,0,1-1.414.006l-3.954-3.916-3.918,3.951A1,1,0,0,1,304.806,102.321ZM301.161,96.3l3.639,3.6,3.918-3.951a1,1,0,0,1,1.414-.007l3.953,3.917,3.6-3.638-3.954-3.922a1,1,0,0,1-.006-1.415l3.919-3.95-3.637-3.6-3.919,3.951a1,1,0,0,1-1.414.006l-3.953-3.916-3.608,3.638,3.954,3.917a1,1,0,0,1,.007,1.413Z" fill="#0010f7"/>
    <path id="Path_510" data-name="Path 510" d="M5.955,62.609a5.487,5.487,0,1,1,5.487-5.486A5.493,5.493,0,0,1,5.955,62.609Zm0-8.974a3.487,3.487,0,1,0,3.487,3.487A3.492,3.492,0,0,0,5.955,53.636Z" fill="#0010f7"/>
    <path id="Path_511" data-name="Path 511" d="M46.177,88.6a1,1,0,0,1-.7-.29l-4.8-4.758a1,1,0,0,1-.007-1.414l3.683-3.719L40.63,74.732a1,1,0,0,1-.006-1.414l4.76-4.8A1,1,0,0,1,46.8,68.51l3.717,3.683L54.2,68.477a1,1,0,0,1,1.414-.006l4.8,4.758a1,1,0,0,1,.006,1.414l-3.684,3.715,3.717,3.688a1,1,0,0,1,.006,1.414l-4.758,4.8a1,1,0,0,1-1.414.007l-3.718-3.683L46.887,88.3A1,1,0,0,1,46.177,88.6ZM42.79,82.832l3.381,3.351,3.685-3.715a1,1,0,0,1,1.414-.007l3.717,3.683,3.351-3.382-3.718-3.687a1,1,0,0,1-.006-1.414L58.3,73.945,54.917,70.6l-3.685,3.716a1,1,0,0,1-1.414.006L46.1,70.634l-3.352,3.381L46.465,77.7a1,1,0,0,1,.007,1.413Z" fill="#0010f7"/>
    <path id="Path_512" data-name="Path 512" d="M58.52,23.816c-.921-4.034-3.569-5.833-9.587-6.117-4.311-.217-5.377-.754-5.756-2.411-.267-1.169.1-2.759,2.53-3.315,2.9-.661,3.776.929,4.289,1.919l5.375-1.227c-.954-2.886-3.3-5.407-8.162-5.046l-.556-2.434-4.5,1.028L42.718,8.7c-3.436,1.5-5.71,4.511-4.835,8.347.813,3.56,3.22,5.495,10.036,5.875,3.742.2,4.934.885,5.358,2.742.346,1.515-.243,3.064-3.044,3.7A4.084,4.084,0,0,1,45.3,27.141l-5.37,1.226c1.129,3.591,4.255,5.681,8.78,5.349l.7,3.05,4.536-1.036-.7-3.062C57.249,31.1,59.495,28.089,58.52,23.816Z" fill="#0010f7"/>
    <path id="Path_513" data-name="Path 513" d="M240.488,18.838a14.8,14.8,0,0,1,2.254-3.884,13.5,13.5,0,0,1,3.408-3.03,13.881,13.881,0,0,1,9.628-1.892,13.063,13.063,0,0,1,6.509,2.76,11.062,11.062,0,0,1,3.557,5.126l-4.679,2.263a7.282,7.282,0,0,0-1.047-2.226,6.922,6.922,0,0,0-1.516-1.562A7.827,7.827,0,0,0,256.8,15.4a9.259,9.259,0,0,0-1.921-.519,7.933,7.933,0,0,0-2.891.043,7.556,7.556,0,0,0-2.415.958,8.042,8.042,0,0,0-1.928,1.664,9.356,9.356,0,0,0-1.4,2.176L256.458,21.3l-1.649,2.767-9.544-1.469-.068.442a10.112,10.112,0,0,0-.123,1.616l9.34,1.438-1.654,2.769-7.3-1.124a9.364,9.364,0,0,0,2.375,4.086,7.335,7.335,0,0,0,4.2,2.075,9.136,9.136,0,0,0,2.037.069,7.8,7.8,0,0,0,2.087-.454,7.665,7.665,0,0,0,1.947-1.073,6.309,6.309,0,0,0,1.58-1.778l4.112,3.287a8.606,8.606,0,0,1-2.372,2.518,12.582,12.582,0,0,1-3.15,1.621,14.793,14.793,0,0,1-3.57.758,14.98,14.98,0,0,1-3.579-.1,12.246,12.246,0,0,1-4.292-1.476,14.26,14.26,0,0,1-5.813-6.291,15.907,15.907,0,0,1-1.309-4.125l-4.149-.639,1.69-2.764,2.235.344a13.051,13.051,0,0,1,.153-1.775l.044-.282-2.8-.431,1.653-2.766Z" fill="#0010f7"/>
    <path id="Path_514" data-name="Path 514" d="M52.962,143.506a24.128,24.128,0,1,1-24.128-24.128A24.127,24.127,0,0,1,52.962,143.506Z" fill="#0010f7"/>
    <path id="Path_515" data-name="Path 515" d="M36.8,136.4a1.384,1.384,0,0,1,.981.407l.484.484a1.388,1.388,0,0,1,0,1.963l-8.883,8.882.021.022-2.447,2.446-.021-.021-.021.021-2.446-2.447.02-.021L19.4,143.047a1.388,1.388,0,0,1,0-1.963l.484-.484a1.387,1.387,0,0,1,1.963,0l4.113,4.113a1.386,1.386,0,0,0,1.963,0l7.9-7.9A1.384,1.384,0,0,1,36.8,136.4Zm0-2a3.368,3.368,0,0,0-2.4.992l-7.469,7.469-3.68-3.68a3.389,3.389,0,0,0-4.792,0l-.484.484a3.392,3.392,0,0,0,0,4.791l3.705,3.706,1.369,1.409,2.446,2.447,1.414,1.415.035-.035,1.42-1.38,2.447-2.446,1.411-1.41-.021-.022,7.473-7.472a3.393,3.393,0,0,0,0-4.792L39.2,135.4A3.364,3.364,0,0,0,36.8,134.4Z" fill="#fcfdff"/>
    <path id="Path_516" data-name="Path 516" d="M358.466,137.03c-2.964-5.063-5.893-10.148-8.84-15.222-.628-1.081-1.284-2.145-1.683-2.811-1.629,1.437-3.223,2.868-4.844,4.268-3.888,3.357-8.215,5.891-13.424,6.37a57.552,57.552,0,0,1-7.235-.118,23.149,23.149,0,0,0-20.424,9.837,1.342,1.342,0,0,0-.116,1.7c1.039,1.825,1.992,3.7,2.989,5.548,2.275,4.22,4.556,8.437,6.894,12.765,3.192-3.963,5.762-5.675,10.771-6.262a102.678,102.678,0,0,1,11.147-.323c10.909-.081,18.948-5.147,24.776-14.126A1.358,1.358,0,0,0,358.466,137.03Z" fill="#0010f7"/>
    <path id="Path_517" data-name="Path 517" d="M327.2,140.546a5.517,5.517,0,0,1-.03-1.679,5.043,5.043,0,0,1,.505-1.629,5.189,5.189,0,0,1,2.716-2.467,4.879,4.879,0,0,1,2.617-.375,4.134,4.134,0,0,1,2.13.953l-1.06,1.629a2.722,2.722,0,0,0-.766-.51,2.6,2.6,0,0,0-.787-.207,2.915,2.915,0,0,0-.77.032,3.424,3.424,0,0,0-.715.205,2.941,2.941,0,0,0-.917.573,2.807,2.807,0,0,0-.588.773,2.973,2.973,0,0,0-.295.906,3.446,3.446,0,0,0-.028.967l3.575-1.472.007,1.2-3.339,1.376.064.154a3.644,3.644,0,0,0,.273.541l3.267-1.346.006,1.207-2.555,1.052a3.5,3.5,0,0,0,1.55.849,2.737,2.737,0,0,0,1.744-.148,3.357,3.357,0,0,0,.666-.371,2.929,2.929,0,0,0,.58-.549,2.866,2.866,0,0,0,.416-.72,2.364,2.364,0,0,0,.162-.874l1.952.257a3.217,3.217,0,0,1-.273,1.264,4.675,4.675,0,0,1-.7,1.128,5.528,5.528,0,0,1-1,.933,5.6,5.6,0,0,1-1.165.659,4.575,4.575,0,0,1-1.659.358,5.327,5.327,0,0,1-3.078-.89,5.934,5.934,0,0,1-1.216-1.067l-1.452.6.007-1.211.782-.323a4.882,4.882,0,0,1-.3-.6l-.04-.1-.979.4-.005-1.205Z" fill="#fff"/>
    <path id="Path_518" data-name="Path 518" d="M140.778,39.7,136.4,22.872a2.512,2.512,0,0,0-.247-.592l-9.057,11.311Z" fill="#0063f7"/>
    <path id="Path_519" data-name="Path 519" d="M105.127,30.271a2.483,2.483,0,0,0,.069.723l4.423,16.991,9.265-11.571Z" fill="#0063f7"/>
    <path id="Path_520" data-name="Path 520" d="M112.715,49.862l26.317-6.852a2.524,2.524,0,0,0,1.806-3.078l-.06-.23-13.687-6.112-1.965,2.454a3.211,3.211,0,0,1-4.379,1.2l-1.863-.832-9.265,11.571.018.07A2.524,2.524,0,0,0,112.715,49.862Z" fill="#0010f7"/>
    <path id="Path_521" data-name="Path 521" d="M133.318,21.066,107,27.918a2.515,2.515,0,0,0-1.875,2.354l13.757,6.143,1.863.832a3.21,3.21,0,0,0,4.379-1.2l1.965-2.454,9.057-11.311A2.517,2.517,0,0,0,133.318,21.066Z" fill="#55b1f3"/>
    <path id="Path_522" data-name="Path 522" d="M273.142,196.154V78.712a8.018,8.018,0,0,0-7.994-8H89.442a8.018,8.018,0,0,0-7.995,8V196.154H63.205v2.458c0,3.557,2.426,6.433,5.417,6.433H283.8c2.99,0,5.417-2.876,5.417-6.433v-2.458Z" fill="#0010f7"/>
    <path id="Path_523" data-name="Path 523" d="M236.289,78.841h29.782v116.29H90.52V78.841H237.834" fill="#ebfafa"/>
    <path id="Path_524" data-name="Path 524" d="M257.552,87.177a1.236,1.236,0,1,0-1.236-1.236A1.236,1.236,0,0,0,257.552,87.177Z" fill="#fff"/>
    <path id="Path_525" data-name="Path 525" d="M252.609,87.177a1.236,1.236,0,1,0-1.236-1.236A1.236,1.236,0,0,0,252.609,87.177Z" fill="#fff"/>
    <path id="Path_526" data-name="Path 526" d="M247.9,87.177a1.236,1.236,0,1,0-1.236-1.236A1.236,1.236,0,0,0,247.9,87.177Z" fill="#fff"/>
    <path id="Path_527" data-name="Path 527" d="M184.213,201.131h-16a1,1,0,0,1,0-2h16a1,1,0,0,1,0,2Z" fill="#ebfafa"/>
    <path id="Path_528" data-name="Path 528" d="M208.345,165.58l-65.129-5.039a3.849,3.849,0,0,1-3.531-4.122l3.111-40.2a3.849,3.849,0,0,1,4.122-3.531l65.129,5.039a3.85,3.85,0,0,1,3.531,4.123l-3.11,40.2A3.85,3.85,0,0,1,208.345,165.58Z" fill="#fff"/>
    <path id="Path_529" data-name="Path 529" d="M217.4,148.9l-8.656-31.269-2.541-9.181a2.262,2.262,0,0,0-2.777-1.572l-59.475,16.463-3.292.911a2.264,2.264,0,0,0-1.573,2.777l3.339,12.059,7.858,28.391a2.264,2.264,0,0,0,2.777,1.573l61.981-17.157.786-.218A2.264,2.264,0,0,0,217.4,148.9Z" fill="#0010f7"/>
    <path id="Path_530" data-name="Path 530" d="M163.308,127.373a.929.929,0,0,1,.837.747l2.221,8.634a.884.884,0,0,1-.529,1.12l-13.224,3.4a.677.677,0,0,1-.167.021.93.93,0,0,1-.838-.747l-2.221-8.634a.883.883,0,0,1,.531-1.12l13.224-3.4A.669.669,0,0,1,163.308,127.373Zm0-1h0a1.671,1.671,0,0,0-.416.053l-13.224,3.4a1.882,1.882,0,0,0-1.25,2.337l2.222,8.635a1.918,1.918,0,0,0,1.806,1.5,1.659,1.659,0,0,0,.416-.053l13.224-3.4a1.732,1.732,0,0,0,1.128-.951,2.054,2.054,0,0,0,.12-1.387l-2.22-8.633A1.917,1.917,0,0,0,163.308,126.373Z" fill="#fff"/>
    <path id="Path_531" data-name="Path 531" d="M190.916,142.282l-.291-.957,4.927-1.5,10.975-2.971.262.965-10.961,2.967Z" fill="#fff"/>
    <path id="Path_532" data-name="Path 532" d="M184.463,142.828l-10.479,2.842.262.965,10.479-2.843Z" fill="#fff"/>
    <path id="Path_533" data-name="Path 533" d="M168.663,147.1l-14.108,3.827.261.965,14.108-3.827Z" fill="#fff"/>
    <path id="Path_534" data-name="Path 534" d="M170.092,153.456,155.98,157.27l.261.964,14.111-3.813Z" fill="#fff"/>
    <path id="Path_535" data-name="Path 535" d="M175.442,132.541l-.118-.459q-.193.118-.378.211a2.081,2.081,0,0,1-.392.145.927.927,0,0,1-.815-.121,1.77,1.77,0,0,1-.456-1.814.91.91,0,0,1,.641-.514,1.362,1.362,0,0,1,.4-.042,3.342,3.342,0,0,1,.385.049l.078-.495a2.12,2.12,0,0,0-.981.029,1.671,1.671,0,0,0-.777.416,1.374,1.374,0,0,0-.39.726,2.071,2.071,0,0,0,.043.941,1.886,1.886,0,0,0,.705,1.147,1.445,1.445,0,0,0,1.215.151A2.563,2.563,0,0,0,175.442,132.541Z" fill="#fff"/>
    <path id="Path_536" data-name="Path 536" d="M176.643,132.339l-.332-1.294a.759.759,0,0,1,.058-.584.7.7,0,0,1,.458-.338,1.051,1.051,0,0,1,.24-.033l-.075-.5a1.346,1.346,0,0,0-.267.045.785.785,0,0,0-.393.24,1.006,1.006,0,0,0-.231.434l-.027.007-.182-.418-.412.106.637,2.475Z" fill="#fff"/>
    <path id="Path_537" data-name="Path 537" d="M178.2,131.628a1.239,1.239,0,0,0,.99.106,2.426,2.426,0,0,0,.439-.155,1.641,1.641,0,0,0,.357-.23l-.11-.428a2.048,2.048,0,0,1-.371.242,1.814,1.814,0,0,1-.4.147.7.7,0,0,1-.567-.061.839.839,0,0,1-.337-.5l1.65-.424-.074-.285a1.176,1.176,0,0,0-.495-.746,1.056,1.056,0,0,0-.851-.1,1.081,1.081,0,0,0-.741.561,1.445,1.445,0,0,0-.057,1.03A1.318,1.318,0,0,0,178.2,131.628Zm-.025-1.774a.547.547,0,0,1,.361-.262.519.519,0,0,1,.434.056.707.707,0,0,1,.268.426l-1.124.289A.789.789,0,0,1,178.172,129.854Z" fill="#fff"/>
    <path id="Path_538" data-name="Path 538" d="M180.771,130.967a.892.892,0,0,0,.809.15.869.869,0,0,0,.646-.559l.025-.007.175.3.412-.107-.9-3.482-.528.136.231.9a3.364,3.364,0,0,0,.147.411l-.027.007a.878.878,0,0,0-.835-.17.9.9,0,0,0-.642.527,1.9,1.9,0,0,0,.483,1.891Zm.027-1.686a.5.5,0,0,1,.369-.334.586.586,0,0,1,.528.074,1.142,1.142,0,0,1,.323.625l.02.075a1,1,0,0,1,0,.631.59.59,0,0,1-.425.3.507.507,0,0,1-.492-.1,1.164,1.164,0,0,1-.307-.59A1.2,1.2,0,0,1,180.8,129.281Z" fill="#fff"/>
    <path id="Path_539" data-name="Path 539" d="M183.48,127.942l-.525.135.635,2.475.525-.135Z" fill="#fff"/>
    <path id="Path_540" data-name="Path 540" d="M183.125,127.641a.279.279,0,0,0,.219-.365.3.3,0,0,0-.133-.2.357.357,0,0,0-.437.112.3.3,0,0,0-.022.237.289.289,0,0,0,.133.191A.3.3,0,0,0,183.125,127.641Z" fill="#fff"/>
    <path id="Path_541" data-name="Path 541" d="M185.691,129.606a.355.355,0,0,1-.272-.026.384.384,0,0,1-.167-.257L184.91,128l.705-.182-.1-.4-.7.182-.143-.551-.324.083-.045.569-.313.286.061.233.338-.087.343,1.334a.7.7,0,0,0,.95.6,1.579,1.579,0,0,0,.278-.1,1.1,1.1,0,0,0,.209-.121l-.1-.4A1.326,1.326,0,0,1,185.691,129.606Z" fill="#fff"/>
    <path id="Path_542" data-name="Path 542" d="M189.594,128.524a2.056,2.056,0,0,1-.392.146.93.93,0,0,1-.815-.12,1.46,1.46,0,0,1-.488-.847,1.444,1.444,0,0,1,.032-.969.914.914,0,0,1,.642-.514,1.355,1.355,0,0,1,.4-.041,3.155,3.155,0,0,1,.386.048l.078-.494a2.119,2.119,0,0,0-.981.028,1.67,1.67,0,0,0-.778.416,1.381,1.381,0,0,0-.39.726,2.084,2.084,0,0,0,.043.941,1.886,1.886,0,0,0,.705,1.147,1.442,1.442,0,0,0,1.215.151,2.533,2.533,0,0,0,.836-.37l-.118-.459C189.843,128.392,189.717,128.464,189.594,128.524Z" fill="#fff"/>
    <path id="Path_543" data-name="Path 543" d="M191.376,128.6a1.169,1.169,0,0,0,.444-.2,1.036,1.036,0,0,0,.282-.4l.018-.005.193.316.376-.1-.428-1.667a.833.833,0,0,0-.407-.585,1.112,1.112,0,0,0-.766-.023,2.172,2.172,0,0,0-.438.171,1.9,1.9,0,0,0-.4.274l.267.332a2.891,2.891,0,0,1,.3-.218,1.261,1.261,0,0,1,.351-.15.46.46,0,0,1,.374.031.506.506,0,0,1,.2.325l.034.132-.424.123a1.692,1.692,0,0,0-.812.435.68.68,0,0,0-.135.652.757.757,0,0,0,.348.5A.807.807,0,0,0,191.376,128.6Zm-.339-1.073a1.126,1.126,0,0,1,.508-.264l.314-.094.056.214a.6.6,0,0,1-.058.493.67.67,0,0,1-.419.278.44.44,0,0,1-.319-.014.341.341,0,0,1-.164-.23A.389.389,0,0,1,191.037,127.524Z" fill="#fff"/>
    <path id="Path_544" data-name="Path 544" d="M193.949,127.887l-.332-1.294a.764.764,0,0,1,.059-.584.692.692,0,0,1,.458-.338,1,1,0,0,1,.239-.033l-.074-.5a1.283,1.283,0,0,0-.268.045.779.779,0,0,0-.392.24,1,1,0,0,0-.232.434l-.026.006-.182-.418-.412.107.637,2.474Z" fill="#fff"/>
    <path id="Path_545" data-name="Path 545" d="M195.437,127.194a.89.89,0,0,0,.809.15.87.87,0,0,0,.647-.56l.024-.006.175.3.412-.105-.9-3.483-.528.136.232.9a3.023,3.023,0,0,0,.146.411l-.026.007a.883.883,0,0,0-.836-.169.9.9,0,0,0-.642.528,1.906,1.906,0,0,0,.483,1.89Zm.027-1.685a.5.5,0,0,1,.37-.335.584.584,0,0,1,.528.074,1.156,1.156,0,0,1,.322.626l.019.074a.981.981,0,0,1,0,.631.592.592,0,0,1-.424.3.506.506,0,0,1-.493-.105,1.163,1.163,0,0,1-.307-.59A1.194,1.194,0,0,1,195.464,125.509Z" fill="#fff"/>
  </g>
</svg>
