<svg xmlns="http://www.w3.org/2000/svg" xmlns:xlink="http://www.w3.org/1999/xlink" width="379" height="242" viewBox="0 0 379 242">
  <defs>
    <clipPath id="clip-path">
      <rect id="Rectangle_113" data-name="Rectangle 113" width="379" height="242" fill="#fff"/>
    </clipPath>
  </defs>
  <g id="welcome-illustration-1" clip-path="url(#clip-path)">
    <path id="Path_461" data-name="Path 461" d="M282.913,142.86c-.06,47.9-71.606,73.591-119.51,73.531S76.742,152.044,76.8,104.139s38.912-61.289,86.817-61.23S282.972,94.954,282.913,142.86Z" fill="#292929"/>
    <path id="Path_462" data-name="Path 462" d="M51.461,204.037l-21.445-.165h-.055a6.818,6.818,0,0,0-.069,13.6l21.444.165h.055a6.818,6.818,0,0,0,.07-13.6Z" fill="#0010f7"/>
    <path id="Path_463" data-name="Path 463" d="M52.9,208.354l-.9-.939-2.436,2.326-2.393-2.371-.916.923,2.368,2.348-2.41,2.3.9.939,2.435-2.326,2.393,2.371.916-.924-2.368-2.346Z" fill="#fff"/>
    <path id="Path_464" data-name="Path 464" d="M50.188,164.018a6.108,6.108,0,0,0-4.487-2.047l-21.445-.165a6.131,6.131,0,0,0-4.523,1.963,7.009,7.009,0,0,0-1.894,4.778,6.6,6.6,0,0,0,6.293,6.861l21.444.165h.056a6.116,6.116,0,0,0,4.469-1.964,7.144,7.144,0,0,0,.088-9.591Z" fill="#0010f7"/>
    <path id="Path_465" data-name="Path 465" d="M47.14,166.289l-.9-.94-2.436,2.327L41.412,165.3l-.916.924,2.368,2.347-2.41,2.3.9.94,2.435-2.327,2.393,2.372.916-.924-2.368-2.347Z" fill="#fff"/>
    <path id="Path_466" data-name="Path 466" d="M74.36,185.16a6.108,6.108,0,0,0-4.487-2.047l-17.347-.16A6.027,6.027,0,0,0,48,184.917a7.143,7.143,0,0,0-.088,9.59,6.1,6.1,0,0,0,4.486,2.047l17.347.161H69.8a6.117,6.117,0,0,0,4.468-1.964,7.145,7.145,0,0,0,.088-9.591Z" fill="#0010f7"/>
    <path id="Path_467" data-name="Path 467" d="M71.311,187.43l-.9-.939-2.436,2.327-2.394-2.372-.914.924,2.368,2.346-2.411,2.3.9.939,2.436-2.327L70.354,193l.914-.923L68.9,189.733Z" fill="#fff"/>
    <path id="Path_468" data-name="Path 468" d="M29.912,182.786l-23.494-.167H6.36a6.11,6.11,0,0,0-4.467,1.963A7.009,7.009,0,0,0,0,189.36a6.6,6.6,0,0,0,6.292,6.86l23.494.167h.058a6.113,6.113,0,0,0,4.468-1.964,7.007,7.007,0,0,0,1.893-4.778A6.6,6.6,0,0,0,29.912,182.786Z" fill="#0010f7"/>
    <path id="Path_469" data-name="Path 469" d="M31.351,187.1l-.9-.939-2.436,2.326-2.393-2.371-.916.923,2.368,2.348-2.41,2.3.9.939L28,190.3l2.393,2.371.916-.924-2.368-2.346Z" fill="#fff"/>
    <path id="Path_470" data-name="Path 470" d="M321.821,176.178a3.058,3.058,0,0,0-2.752-3.278l-13.782-.017a3.058,3.058,0,0,0-2.761,3.271l-.026,20.932,19.3.024Z" fill="#0063f7"/>
    <path id="Path_471" data-name="Path 471" d="M372.365,197.173a3.868,3.868,0,0,0,.034-.485l.014-11.529a3.2,3.2,0,0,0-2.923-3.4l-13.8-.017a3.2,3.2,0,0,0-2.932,3.394l-.015,11.528a4.086,4.086,0,0,0,.033.486Z" fill="#0063f7"/>
    <path id="Path_472" data-name="Path 472" d="M376.642,202.518l-76.942-.1a1.579,1.579,0,0,1-1.573-1.576l0-2.19a1.579,1.579,0,0,1,1.576-1.573l76.942.1a1.579,1.579,0,0,1,1.573,1.577l0,2.19A1.581,1.581,0,0,1,376.642,202.518Z" fill="#0010f7"/>
    <path id="Path_473" data-name="Path 473" d="M347.279,197.142l.038-30.522a3.122,3.122,0,0,0-2.916-3.278l-14.183-.017a3.121,3.121,0,0,0-2.924,3.27l-.038,30.522Z" fill="#0063f7"/>
    <path id="Path_474" data-name="Path 474" d="M316.358,169.646l-6.971-.01-.157-2.532q-.132-2.559-.26-5.118l-.3-.119c-.268-.108-.536-.216-.806-.319a1.213,1.213,0,0,1-.8-1.18c0-.55,0-1.1,0-1.657,0-1.1-.005-2.209.022-3.313a5.8,5.8,0,0,1,4.436-5.392,5.847,5.847,0,0,1,7.114,4.4,5.54,5.54,0,0,1,.138,1.23c.006.956.005,1.912,0,2.868v1.857a1.231,1.231,0,0,1-.829,1.212c-.272.1-.543.211-.814.319l-.271.11c-.088,1.657-.359,6.608-.383,6.782Zm-5.1-2.008,3.285.005c.093-1.612.276-4.9.34-6.184a1.27,1.27,0,0,1,.851-1.168c.214-.082.432-.17.651-.257l.387-.156V158.5c0-.952,0-1.9,0-2.855a3.579,3.579,0,0,0-.085-.784,3.845,3.845,0,0,0-4.709-2.907,3.814,3.814,0,0,0-2.894,3.5c-.028,1.085-.025,2.171-.022,3.257q0,.58,0,1.163l.355.142.67.266a1.277,1.277,0,0,1,.859,1.181q.133,2.769.281,5.541Zm5.194-5.48-.006,0Zm-7.1-.018,0,0Zm-.409-.587v0Zm.113-1.177v0Z" fill="#0010f7"/>
    <path id="Path_475" data-name="Path 475" d="M312.934,149.125h-.005a3.7,3.7,0,0,1,.005-7.406h.01a3.7,3.7,0,0,1-.01,7.406Zm0-5.406a1.726,1.726,0,0,0-1.7,1.709,1.724,1.724,0,0,0,1.7,1.7h0a1.731,1.731,0,0,0,1.707-1.692,1.724,1.724,0,0,0-1.7-1.714Z" fill="#0010f7"/>
    <path id="Path_476" data-name="Path 476" d="M340.929,159.788l-6.98-.009-.157-2.533q-.132-2.559-.26-5.118l-.3-.119c-.268-.107-.537-.216-.806-.318a1.222,1.222,0,0,1-.8-1.173c0-.553,0-1.1,0-1.649,0-1.109-.005-2.219.024-3.33a5.79,5.79,0,0,1,4.434-5.39,5.845,5.845,0,0,1,7.115,4.4,5.544,5.544,0,0,1,.138,1.231c.006.956.005,1.912,0,2.868V150.5a1.231,1.231,0,0,1-.828,1.212c-.264.1-.526.2-.789.31l-.3.118c-.091,1.733-.36,6.613-.381,6.773Zm-5.107-2.007,3.286,0c.093-1.632.279-4.972.339-6.185a1.273,1.273,0,0,1,.845-1.166c.231-.088.457-.179.684-.269l.36-.144v-1.379c0-.951,0-1.9,0-2.855a3.525,3.525,0,0,0-.085-.784,3.846,3.846,0,0,0-4.711-2.907,3.813,3.813,0,0,0-2.891,3.5c-.029,1.092-.027,2.183-.024,3.274,0,.382,0,.764,0,1.146l.357.144.67.265a1.284,1.284,0,0,1,.859,1.176q.133,2.778.28,5.546Zm-1.9-5.5.005,0Z" fill="#0010f7"/>
    <path id="Path_477" data-name="Path 477" d="M337.495,139.267h-.005a3.7,3.7,0,0,1,.006-7.4h.01a3.7,3.7,0,0,1-.011,7.4Zm0-2h0a1.728,1.728,0,0,0,1.707-1.69,1.723,1.723,0,0,0-1.7-1.715h0a1.725,1.725,0,0,0-1.7,1.709A1.724,1.724,0,0,0,337.492,137.267Z" fill="#0010f7"/>
    <path id="Path_478" data-name="Path 478" d="M365.958,178.871l-6.1-.008-.157-2.537q-.133-2.558-.259-5.113l-.316-.125c-.264-.106-.526-.212-.792-.314a1.215,1.215,0,0,1-.8-1.172c0-.552,0-1.1,0-1.648,0-1.11-.005-2.22.024-3.33a5.792,5.792,0,0,1,4.434-5.391,5.846,5.846,0,0,1,7.116,4.4,5.6,5.6,0,0,1,.137,1.231c.006.956,0,1.912,0,2.867v1.857a1.232,1.232,0,0,1-.828,1.212c-.269.1-.538.209-.807.316l-.278.111q-.075,1.473-.157,2.943l-.19,3.531a1.925,1.925,0,0,1-.025.229l-.128.854Zm-4.225-2.006,3.293,0,.153-2.813c.061-1.124.123-2.248.179-3.372a1.27,1.27,0,0,1,.848-1.167c.22-.084.441-.173.661-.261l.379-.152v-1.379c0-.951,0-1.9,0-2.853a3.521,3.521,0,0,0-.085-.785,3.846,3.846,0,0,0-4.711-2.908,3.813,3.813,0,0,0-2.891,3.5c-.029,1.092-.027,2.183-.024,3.274,0,.383,0,.765,0,1.147l.34.136.687.273a1.283,1.283,0,0,1,.859,1.177q.133,2.772.28,5.539Zm5.19-5.48h0Zm-7.094-.018.005,0Z" fill="#0010f7"/>
    <path id="Path_479" data-name="Path 479" d="M363.406,158.351h0a3.7,3.7,0,0,1,0-7.4h.01a3.7,3.7,0,0,1-.01,7.4Zm0-5.4a1.726,1.726,0,0,0-1.7,1.709,1.724,1.724,0,0,0,1.7,1.7h0a1.729,1.729,0,0,0,1.707-1.69,1.724,1.724,0,0,0-1.7-1.715Z" fill="#0010f7"/>
    <path id="Path_480" data-name="Path 480" d="M344.951,87.173h-.006a5.158,5.158,0,0,1,0-10.316h.007a5.158,5.158,0,0,1,5.153,5.164h0a5.159,5.159,0,0,1-5.158,5.152Zm0-8.316a3.158,3.158,0,0,0,0,6.316h0a3.158,3.158,0,0,0,0-6.316Z" fill="#0010f7"/>
    <path id="Path_481" data-name="Path 481" d="M185.965,91.315h-.007A5.158,5.158,0,0,1,185.966,81h0a5.158,5.158,0,0,1-.006,10.316Zm0-8.316a3.158,3.158,0,0,0-.006,6.316h0a3.162,3.162,0,0,0,3.159-3.153h0A3.158,3.158,0,0,0,185.969,83Z" fill="#0010f7"/>
    <path id="Path_482" data-name="Path 482" d="M22.189,83.7h-.007a5.158,5.158,0,0,1,0-10.316h.007a5.158,5.158,0,0,1,0,10.316Zm0-8.316a3.158,3.158,0,0,0,0,6.316h0a3.158,3.158,0,0,0,0-6.316Z" fill="#0010f7"/>
    <path id="Path_483" data-name="Path 483" d="M323.237,111.514a1,1,0,0,1-.7-.29l-3.308-3.285a1,1,0,0,1-.005-1.414l2.324-2.343-2.341-2.323a1,1,0,0,1,0-1.415l3.288-3.308a1,1,0,0,1,1.414,0l2.34,2.324,2.327-2.339a1,1,0,0,1,1.414,0l3.307,3.285a1,1,0,0,1,0,1.415l-2.325,2.339,2.34,2.327a1,1,0,0,1,.005,1.414l-3.285,3.308a1,1,0,0,1-1.415,0l-2.34-2.324-2.326,2.339A1,1,0,0,1,323.237,111.514Zm-1.894-4.29,1.889,1.876,2.326-2.339a1,1,0,0,1,1.414-.005l2.34,2.324,1.876-1.888-2.341-2.328a1,1,0,0,1,0-1.414l2.326-2.338-1.889-1.876-2.327,2.339a1,1,0,0,1-1.414,0l-2.34-2.324-1.877,1.889,2.34,2.323a1,1,0,0,1,.005,1.414Z" fill="#0010f7"/>
    <path id="Path_484" data-name="Path 484" d="M114.074,23.947a1,1,0,0,1-.7-.29L109,19.319a1,1,0,0,1,0-1.414l3.295-3.319-3.317-3.293a1,1,0,0,1,0-1.415l4.34-4.367a1,1,0,0,1,1.414,0L118.041,8.8l3.3-3.314a1,1,0,0,1,1.414,0l4.366,4.337a1,1,0,0,1,0,1.415l-3.295,3.315,3.318,3.3a1,1,0,0,1,.005,1.414l-4.338,4.367a1,1,0,0,1-1.415,0l-3.317-3.295-3.3,3.315A1,1,0,0,1,114.074,23.947ZM111.121,18.6l2.949,2.929,3.3-3.315a1,1,0,0,1,1.415,0l3.316,3.295,2.929-2.948-3.319-3.3a1,1,0,0,1,0-1.414l3.3-3.314L122.051,7.6l-3.3,3.314a1,1,0,0,1-1.414,0l-3.316-3.294-2.931,2.948,3.317,3.293a1,1,0,0,1,0,1.414Z" fill="#0010f7"/>
    <path id="Path_485" data-name="Path 485" d="M140.308,125.469H140.3a5.943,5.943,0,0,1,.007-11.886h.007a5.943,5.943,0,0,1-.007,11.886Zm0-9.886a3.943,3.943,0,0,0-.005,7.886h.005a3.943,3.943,0,0,0,.005-7.886Zm4.943,3.949h0Z" fill="#0010f7"/>
    <path id="Path_486" data-name="Path 486" d="M32.473,135.091a.993.993,0,0,1-.705-.291L27.8,130.864a1,1,0,0,1,0-1.413l2.925-2.947-2.945-2.924a1,1,0,0,1,0-1.415l3.938-3.963a1,1,0,0,1,1.414-.005l2.944,2.925L39,118.178a1,1,0,0,1,1.414,0l3.963,3.937a1,1,0,0,1,0,1.414l-2.926,2.943L44.4,129.4a1,1,0,0,1,0,1.414l-3.937,3.963a1,1,0,0,1-1.414.005l-2.944-2.925L33.182,134.8A1,1,0,0,1,32.473,135.091Zm-2.549-4.941,2.544,2.527,2.927-2.943a1,1,0,0,1,1.414,0l2.944,2.925,2.527-2.544-2.945-2.929a1,1,0,0,1,0-1.414l2.926-2.942L39.713,120.3l-2.927,2.944a1,1,0,0,1-1.414.005l-2.944-2.925L29.9,122.865l2.945,2.924a1,1,0,0,1,0,1.414Z" fill="#0010f7"/>
    <path id="Path_487" data-name="Path 487" d="M252.705,234.758l-.073-.177.034-.315.1-78.967a5.424,5.424,0,0,0-5.4-5.416l-23.815-.03-7.165-.009-87.9-.109a5.426,5.426,0,0,0-5.416,5.4l-.1,79.46-11.611-.014,0,1.663c0,2.406,1.636,4.355,3.659,4.357l145.59.18c2.023,0,3.667-1.941,3.67-4.348l0-1.663Z" fill="#0010f7"/>
    <path id="Path_488" data-name="Path 488" d="M227.152,155.355l20.151.025-.093,74.713-118.775-.147.092-74.714,99.671.124" fill="#ebfafa"/>
    <path id="Path_489" data-name="Path 489" d="M260.607,241.785h0L115.014,241.6c-2.573,0-4.663-2.407-4.659-5.358l0-2.663,154.921.191-.005,2.664C265.27,239.386,263.177,241.785,260.607,241.785Zm-148.251-6.2v.664c0,1.848,1.191,3.354,2.661,3.356l145.589.181h0c1.468,0,2.665-1.5,2.667-3.35v-.663Z" fill="#fff"/>
    <path id="Path_490" data-name="Path 490" d="M204.289,212.762l-29.853-.24a5.351,5.351,0,0,1-4.569-8.063L185,178.725a5.351,5.351,0,0,1,9.268.075l14.719,25.973A5.352,5.352,0,0,1,204.289,212.762Z" fill="#fff"/>
    <path id="Path_491" data-name="Path 491" d="M188.623,202.97a1.466,1.466,0,1,1,1.459,1.531A1.467,1.467,0,0,1,188.623,202.97Z" fill="#0010f7"/>
    <path id="Path_492" data-name="Path 492" d="M188.752,192.53l-.089-2.688,2.981.012-.11,2.688-.441,6.186-1.952-.008Z" fill="#0010f7"/>
    <path id="Path_493" data-name="Path 493" d="M211.972,20.115a8.144,8.144,0,0,1,1.415-4.581A9.959,9.959,0,0,0,205.145,0h-.012a9.956,9.956,0,0,0-8.267,15.512,8.163,8.163,0,0,1,1.4,4.586v.29a2,2,0,0,0,.31,1.065,1.983,1.983,0,0,0-.445,1.244v3a1.982,1.982,0,0,0,.4,1.184,1.985,1.985,0,0,0-.177.816,6.507,6.507,0,0,0,6.5,6.5h.562a6.508,6.508,0,0,0,6.5-6.379c0-.04,0-.08,0-.121a2,2,0,0,0-.178-.818,1.981,1.981,0,0,0,.394-1.182v-3a1.984,1.984,0,0,0-.457-1.259,2,2,0,0,0,.3-1.033ZM205.391,14.7h-.524l-1.855-3.461,4.242.005Zm4.742,11h-10v-3h10Zm-4.719,6.5h-.562a4.513,4.513,0,0,1-4.5-4.5h9.562A4.513,4.513,0,0,1,205.414,32.2Zm4.558-12.084V20.4l-3.839,0V16.911a1.992,1.992,0,0,0,.755-.777l2.127-3.944a2,2,0,0,0-1.758-2.949l-4.243-.005h0a2,2,0,0,0-1.763,2.945l2.116,3.949a2,2,0,0,0,.768.785V20.4l-3.865,0V20.1a10.2,10.2,0,0,0-1.745-5.707A7.956,7.956,0,0,1,205.133,2h.01a7.957,7.957,0,0,1,6.589,12.41A10.15,10.15,0,0,0,209.972,20.113Z" fill="#0010f7"/>
    <path id="Path_494" data-name="Path 494" d="M107.159,58.826a22,22,0,1,1,2.969,32.823" fill="#0010f7"/>
    <path id="Path_495" data-name="Path 495" d="M138.731,71.055A15.6,15.6,0,0,0,120.712,58.33a15.7,15.7,0,0,0-2.542.659c-2.906,1.022-5.983,3.994-7.736,6.228,0,0,0,0,0,0l0,0a.838.838,0,0,0-.061.124.785.785,0,0,0-.076.158.767.767,0,0,0-.011.144.8.8,0,0,0-.009.162.813.813,0,0,0,.045.142.777.777,0,0,0,.051.149.789.789,0,0,0,.1.117.823.823,0,0,0,.1.122l0,0,0,0,2.735,2.092a.8.8,0,1,0,.972-1.271l-2.073-1.587c1.757-2.074,4.3-4.31,6.49-5.081a14.115,14.115,0,0,1,2.282-.593,13.955,13.955,0,0,1,10.689,2.554l-1.483,2.428a.8.8,0,1,0,1.365.834l1.359-2.224a13.906,13.906,0,0,1,4.241,7.829c.02.112.022.224.039.337l-3.33.574A.8.8,0,0,0,134,73.825a.821.821,0,0,0,.137-.012l3.2-.552a13.876,13.876,0,0,1-3.757,10,.8.8,0,0,0,1.17,1.092A15.492,15.492,0,0,0,138.731,71.055Z" fill="#fff"/>
    <path id="Path_496" data-name="Path 496" d="M116.983,86.164a14.027,14.027,0,0,1-3.487-2.527.8.8,0,1,0-1.127,1.137,15.668,15.668,0,0,0,3.883,2.814.8.8,0,0,0,.731-1.424Z" fill="#fff"/>
    <path id="Path_497" data-name="Path 497" d="M126.662,69.611l-2.234,3.163a3.071,3.071,0,1,0-1.06,5.955,3.029,3.029,0,0,0,.529-.046,3.058,3.058,0,0,0,1.838-4.987l2.234-3.162a.8.8,0,0,0-1.307-.924Zm-2.08,6.892a1.475,1.475,0,1,1,.249-1.1A1.467,1.467,0,0,1,124.582,76.5Z" fill="#fff"/>
    <path id="Path_498" data-name="Path 498" d="M120.834,85.154a1.138,1.138,0,1,0-1.139-1.138A1.139,1.139,0,0,0,120.834,85.154Z" fill="#fff"/>
    <path id="Path_499" data-name="Path 499" d="M128.066,83.908a1.138,1.138,0,1,0-1.138-1.138A1.138,1.138,0,0,0,128.066,83.908Z" fill="#fff"/>
    <path id="Path_500" data-name="Path 500" d="M108.454,60.45A29.8,29.8,0,1,1,78.854,48,29.692,29.692,0,0,1,108.454,60.45Z" fill="#59edff"/>
    <path id="Path_501" data-name="Path 501" d="M106.644,72.968A22.937,22.937,0,1,0,73.59,97.281a.8.8,0,0,0,.73-1.424A21.16,21.16,0,0,1,63.578,82.923l4.773-.822a.8.8,0,0,0-.271-1.576l-4.889.842c-.063-.294-.127-.588-.179-.886a21.236,21.236,0,0,1,2.549-14.266L69.3,68.7a.8.8,0,0,0,.887-1.332l-3.766-2.508a21.274,21.274,0,0,1,13.219-8.873l.727,4.227a.8.8,0,0,0,.787.664.818.818,0,0,0,.137-.012.8.8,0,0,0,.652-.924l-.727-4.227a21.284,21.284,0,0,1,15.8,4.218L94.6,63.883a.8.8,0,0,0,.266,1.1.79.79,0,0,0,.416.117.8.8,0,0,0,.684-.383l2.291-3.75a21.224,21.224,0,0,1,6.816,12.273c.056.326.1.652.14.979a.8.8,0,0,0-.352-.025l-5.035.867a.8.8,0,0,0,.135,1.588.821.821,0,0,0,.137-.012l5.034-.867a.765.765,0,0,0,.22-.085,21.174,21.174,0,0,1-5.723,15.753.8.8,0,1,0,1.17,1.092A22.779,22.779,0,0,0,106.644,72.968Z" fill="#fff"/>
    <path id="Path_502" data-name="Path 502" d="M86.466,73.425a4.165,4.165,0,0,0-2.338-.769l-1.033-6a.8.8,0,0,0-1.576.271l1.033,6a4.2,4.2,0,0,0,1.487,8.135,4.206,4.206,0,0,0,2.427-7.642Zm-.3,4.938A2.606,2.606,0,1,1,83.6,74.292a2.67,2.67,0,0,1,.448-.038,2.606,2.606,0,0,1,2.123,4.109Z" fill="#fff"/>
    <path id="Path_503" data-name="Path 503" d="M75.127,87.01a1.7,1.7,0,1,0-1.7-1.7A1.7,1.7,0,0,0,75.127,87.01Z" fill="#fff"/>
    <path id="Path_504" data-name="Path 504" d="M93.587,83.831a1.7,1.7,0,1,0-1.7-1.7A1.7,1.7,0,0,0,93.587,83.831Z" fill="#fff"/>
    <path id="Path_505" data-name="Path 505" d="M81.315,99.28a1.805,1.805,0,0,1-1.771-1.494l-1.1-6.421a1.8,1.8,0,0,1,1.467-2.079l11.455-1.972a1.8,1.8,0,0,1,2.079,1.467L94.547,95.2a1.8,1.8,0,0,1-1.468,2.079h0L81.624,99.253A1.729,1.729,0,0,1,81.315,99.28ZM91.657,88.888l-.022,0L80.18,90.862a.226.226,0,0,0-.163.23l1.1,6.421a.242.242,0,0,0,.23.163L92.807,95.7a.205.205,0,0,0,.164-.232l-1.105-6.419A.23.23,0,0,0,91.657,88.888Zm1.285,7.6h0Z" fill="#fff"/>
  </g>
</svg>
