<svg id="welcome-illustration-4" xmlns="http://www.w3.org/2000/svg" width="322" height="220" viewBox="0 0 322 220">
  <path id="Path_602" data-name="Path 602" d="M264,138.2c-.066,53.295-79.9,81.87-133.361,81.8S33.934,148.414,34,95.118,77.421,26.934,130.879,27,264.066,84.9,264,138.2Z" fill="#292929"/>
  <path id="Path_603" data-name="Path 603" d="M308.181,130.47a.923.923,0,0,1-.654-.269l-4.56-4.525a.931.931,0,0,1-.007-1.314l3.512-3.554-3.545-3.516a.932.932,0,0,1-.006-1.316l4.522-4.567a.927.927,0,0,1,1.313,0l3.545,3.517,3.514-3.549a.928.928,0,0,1,1.313-.006l4.561,4.526a.927.927,0,0,1,.275.655.937.937,0,0,1-.27.66l-3.514,3.548,3.546,3.521a.931.931,0,0,1,0,1.315l-4.518,4.567a.929.929,0,0,1-1.313.006l-3.546-3.517L308.84,130.2A.922.922,0,0,1,308.181,130.47Zm-3.248-5.461,3.242,3.217,3.514-3.548a.929.929,0,0,1,1.313-.007l3.545,3.517,3.212-3.246-3.546-3.522a.932.932,0,0,1-.005-1.315l3.514-3.548-3.242-3.215-3.514,3.548a.927.927,0,0,1-1.313.006l-3.546-3.517-3.213,3.245,3.545,3.517a.932.932,0,0,1,.007,1.315Z" fill="#0010f7"/>
  <path id="Path_604" data-name="Path 604" d="M82.809,69.988a.924.924,0,0,1-.653-.27L78.59,66.18a.929.929,0,0,1-.006-1.314l2.6-2.634-2.628-2.608a.93.93,0,0,1-.006-1.315l3.535-3.571a.928.928,0,0,1,1.313-.006l2.629,2.608,2.605-2.631a.926.926,0,0,1,1.313-.005l3.566,3.538a.93.93,0,0,1,.006,1.315l-2.605,2.631L93.543,64.8a.931.931,0,0,1,.006,1.315l-3.533,3.571a.928.928,0,0,1-1.313.005l-2.629-2.607-2.606,2.631A.924.924,0,0,1,82.809,69.988Zm-2.253-4.474L82.8,67.743l2.606-2.631a.926.926,0,0,1,1.313-.005l2.629,2.607,2.226-2.25-2.629-2.611a.93.93,0,0,1-.006-1.315l2.6-2.631L89.3,56.678l-2.606,2.63a.93.93,0,0,1-1.313.006l-2.629-2.607-2.228,2.249,2.628,2.608a.93.93,0,0,1,.006,1.314Z" fill="#0010f7"/>
  <path id="Path_605" data-name="Path 605" d="M299.761,73.946a17.319,17.319,0,1,1,17.294-17.319A17.325,17.325,0,0,1,299.761,73.946Zm0-32.778A15.459,15.459,0,1,0,315.2,56.627,15.465,15.465,0,0,0,299.761,41.168Zm0,25.61a10.03,10.03,0,0,1-3.93-.795.931.931,0,0,1-.341-1.466l11.454-13.236a.929.929,0,0,1,1.5.13,10.134,10.134,0,0,1-8.681,15.366ZM297.8,64.685a8.274,8.274,0,0,0,9.635-11.135Zm-5.93-2.393a.765.765,0,0,1-.08,0,.926.926,0,0,1-.715-.447,10.134,10.134,0,0,1,12.609-14.573.932.932,0,0,1,.341,1.467L292.576,61.971A.931.931,0,0,1,291.874,62.292Zm7.887-13.956a8.272,8.272,0,0,0-7.68,11.367l9.634-11.133A8.224,8.224,0,0,0,299.761,48.336Z" fill="#0010f7"/>
  <path id="Path_606" data-name="Path 606" d="M215.06,183l-119.209-.025,9.445-99.2,119.209.025Z" fill="#0010f7"/>
  <path id="Path_607" data-name="Path 607" d="M224.717,83.692l4.128,78.07L215.06,183" fill="#0063f7"/>
  <path id="Path_608" data-name="Path 608" d="M120.6,92.125c-4.853,0-8.8-4.521-8.8-10.078s3.948-10.077,8.8-10.077,8.8,4.521,8.8,10.077a1.393,1.393,0,1,1-2.786,0c0-4.018-2.7-7.288-6.015-7.288s-6.015,3.269-6.015,7.288,2.7,7.289,6.015,7.289a1.395,1.395,0,0,1,0,2.79Z" fill="#0063f7"/>
  <path id="Path_609" data-name="Path 609" d="M142.219,92.125c-4.853,0-8.8-4.521-8.8-10.078s3.948-10.077,8.8-10.077,8.8,4.521,8.8,10.077a1.393,1.393,0,1,1-2.786,0c0-4.018-2.7-7.288-6.015-7.288s-6.016,3.269-6.016,7.288,2.7,7.289,6.016,7.289a1.395,1.395,0,0,1,0,2.79Z" fill="#0063f7"/>
  <path id="Path_610" data-name="Path 610" d="M163.838,92.125c-4.853,0-8.8-4.521-8.8-10.078s3.947-10.077,8.8-10.077,8.8,4.521,8.8,10.077a1.393,1.393,0,1,1-2.786,0c0-4.018-2.7-7.288-6.016-7.288s-6.015,3.269-6.015,7.288,2.7,7.289,6.015,7.289a1.395,1.395,0,0,1,0,2.79Z" fill="#0063f7"/>
  <path id="Path_611" data-name="Path 611" d="M185.459,92.125c-4.853,0-8.8-4.521-8.8-10.078s3.949-10.077,8.8-10.077,8.8,4.521,8.8,10.077a1.393,1.393,0,1,1-2.786,0c0-4.018-2.7-7.288-6.015-7.288s-6.016,3.269-6.016,7.288,2.7,7.289,6.016,7.289a1.395,1.395,0,0,1,0,2.79Z" fill="#0063f7"/>
  <path id="Path_612" data-name="Path 612" d="M207.079,92.125c-4.853,0-8.8-4.521-8.8-10.078s3.948-10.077,8.8-10.077,8.8,4.521,8.8,10.077a1.393,1.393,0,1,1-2.785,0c0-4.018-2.7-7.288-6.016-7.288s-6.015,3.269-6.015,7.288,2.7,7.289,6.015,7.289a1.395,1.395,0,0,1,0,2.79Z" fill="#0063f7"/>
  <path id="Path_613" data-name="Path 613" d="M133.685,122.425l-17.686,0,1.4-14.717,17.686,0Z" fill="#1be7ff"/>
  <path id="Path_614" data-name="Path 614" d="M157.014,122.425l-17.686,0,1.4-14.717,17.687,0Z" fill="#fff"/>
  <path id="Path_615" data-name="Path 615" d="M180.343,122.425l-17.686,0,1.4-14.717,17.687,0Z" fill="#fff"/>
  <path id="Path_616" data-name="Path 616" d="M203.673,122.425l-17.686,0,1.4-14.717,17.686,0Z" fill="#fff"/>
  <path id="Path_617" data-name="Path 617" d="M131.564,142.6l-17.686,0,1.4-14.718,17.687,0Z" fill="#fff"/>
  <path id="Path_618" data-name="Path 618" d="M154.893,142.6l-17.686,0,1.4-14.718,17.687,0Z" fill="#1be7ff"/>
  <path id="Path_619" data-name="Path 619" d="M178.222,142.6l-17.686,0,1.4-14.718,17.687,0Z" fill="#fff"/>
  <path id="Path_620" data-name="Path 620" d="M201.552,142.6l-17.686,0,1.4-14.718,17.686,0Z" fill="#f02"/>
  <path id="Path_621" data-name="Path 621" d="M129.443,162.778l-17.686,0,1.4-14.717,17.687,0Z" fill="#f02"/>
  <path id="Path_622" data-name="Path 622" d="M152.773,162.778l-17.687,0,1.4-14.717,17.686,0Z" fill="#fff"/>
  <path id="Path_623" data-name="Path 623" d="M176.1,162.778l-17.686,0,1.4-14.717,17.686,0Z" fill="#fff"/>
  <path id="Path_624" data-name="Path 624" d="M199.431,162.778l-17.686,0,1.4-14.717,17.687,0Z" fill="#fff"/>
  <path id="Path_625" data-name="Path 625" d="M123.906,118.985l-2.285-2.968,1.177-.908,1.223,1.589,6.284-6.651,1.079,1.022Z" fill="#fff"/>
  <path id="Path_626" data-name="Path 626" d="M145.113,139.162l-2.284-2.969,1.177-.908,1.223,1.59,6.284-6.652,1.079,1.023Z" fill="#fff"/>
  <path id="Path_627" data-name="Path 627" d="M196.814,132.859l-.985-.986L193.5,134.2l-2.327-2.331-.985.986,2.328,2.331-2.328,2.331.985.986,2.327-2.331,2.328,2.331.985-.986-2.328-2.331Z" fill="#fff"/>
  <path id="Path_628" data-name="Path 628" d="M124.705,153.036l-.985-.987-2.327,2.332-2.327-2.332-.985.987,2.327,2.331-2.327,2.332.985.986,2.327-2.331,2.327,2.331.985-.986-2.327-2.332Z" fill="#fff"/>
  <path id="Path_629" data-name="Path 629" d="M51.857,144.033V106.071a1.116,1.116,0,0,0-1.115-1.116H9.7a1.116,1.116,0,0,0-1.115,1.116v37.274c0,.04,0,.078-.005.118A9.123,9.123,0,0,1,3.9,150.624a.035.035,0,0,0,.015.067h41.9a5.39,5.39,0,0,0,4.478-2.35,10.192,10.192,0,0,0,1.567-4.069A.76.76,0,0,0,51.857,144.033Z" fill="#dceaf7"/>
  <path id="Path_630" data-name="Path 630" d="M4.711,138.53c0,.041,0,.079-.005.119a9.121,9.121,0,0,1-4.687,7.16.035.035,0,0,0,.015.067h41.9a5.388,5.388,0,0,0,4.479-2.35,10.182,10.182,0,0,0,1.567-4.069.754.754,0,0,0,0-.238v-26.97H4.711Z" fill="#fff"/>
  <path id="Path_631" data-name="Path 631" d="M25.25,137.1H15.925v-1.965l3.348-3.39q1.487-1.525,1.943-2.115a4.65,4.65,0,0,0,.657-1.091,2.783,2.783,0,0,0,.2-1.042,1.522,1.522,0,0,0-.443-1.2,1.715,1.715,0,0,0-1.182-.393,3.4,3.4,0,0,0-1.505.356,7.762,7.762,0,0,0-1.524,1.015l-1.532-1.819a9.972,9.972,0,0,1,1.633-1.187,5.982,5.982,0,0,1,1.414-.535,7.23,7.23,0,0,1,1.715-.187,5.082,5.082,0,0,1,2.208.456,3.536,3.536,0,0,1,1.487,1.28,3.4,3.4,0,0,1,.529,1.882,4.613,4.613,0,0,1-.324,1.731,6.651,6.651,0,0,1-1,1.659,24.515,24.515,0,0,1-2.395,2.421L19.438,134.6v.128H25.25Z" fill="#0010f7"/>
  <path id="Path_632" data-name="Path 632" d="M36.217,134.335H34.611V137.1H31.856v-2.769H26.162V132.37l5.848-8.624h2.6v8.4h1.606Zm-4.361-2.192v-2.266q0-.567.045-1.645t.073-1.252H31.9a10.18,10.18,0,0,1-.812,1.462l-2.445,3.7Z" fill="#0010f7"/>
  <path id="Path_633" data-name="Path 633" d="M45.373,101.782H7.442a1.11,1.11,0,0,0-1.03,1.175v11.567H46.4V102.957A1.11,1.11,0,0,0,45.373,101.782Z" fill="#0010f7"/>
  <path id="Path_634" data-name="Path 634" d="M25.891,105.083a5.347,5.347,0,1,1,5.166-5.344.929.929,0,1,1-1.857,0,3.314,3.314,0,1,0-3.309,3.484.93.93,0,0,1,0,1.86Z" fill="#0063f7"/>
  <path id="Path_635" data-name="Path 635" d="M12.408,105.083a5.347,5.347,0,0,1,0-10.687,5.263,5.263,0,0,1,5.166,5.343.929.929,0,1,1-1.857,0,3.4,3.4,0,0,0-3.309-3.484,3.488,3.488,0,0,0,0,6.967.93.93,0,0,1,0,1.86Z" fill="#0063f7"/>
  <path id="Path_636" data-name="Path 636" d="M38.933,105.083A5.347,5.347,0,1,1,44.1,99.739a.929.929,0,1,1-1.857,0,3.313,3.313,0,1,0-3.309,3.484.93.93,0,0,1,0,1.86Z" fill="#0063f7"/>
  <path id="Path_637" data-name="Path 637" d="M232.1,46.231V10.924a1.037,1.037,0,0,0-1.037-1.038H192.9a1.038,1.038,0,0,0-1.037,1.038V45.591a1.013,1.013,0,0,1-.005.11,8.482,8.482,0,0,1-4.359,6.66.033.033,0,0,0,.015.062h38.968a5.013,5.013,0,0,0,4.166-2.186,9.476,9.476,0,0,0,1.457-3.785A.687.687,0,0,0,232.1,46.231Z" fill="#dceaf7"/>
  <path id="Path_638" data-name="Path 638" d="M227.63,41.754V6.446a1.037,1.037,0,0,0-1.037-1.038H188.426a1.037,1.037,0,0,0-1.037,1.038V41.113c0,.037,0,.073-.005.11a8.484,8.484,0,0,1-4.359,6.66.033.033,0,0,0,.014.062h38.969a5.012,5.012,0,0,0,4.165-2.186,9.476,9.476,0,0,0,1.457-3.785A.688.688,0,0,0,227.63,41.754Z" fill="#fff"/>
  <path id="Path_639" data-name="Path 639" d="M207.72,34.1a9.316,9.316,0,0,1-1.146,5.181,3.968,3.968,0,0,1-3.525,1.681,3.929,3.929,0,0,1-3.482-1.735A9.2,9.2,0,0,1,198.4,34.1a9.414,9.414,0,0,1,1.14-5.213,4.431,4.431,0,0,1,7,.078A9.205,9.205,0,0,1,207.72,34.1Zm-6.524,0a10.4,10.4,0,0,0,.424,3.523,1.484,1.484,0,0,0,2.851-.014,10.119,10.119,0,0,0,.438-3.509,10.064,10.064,0,0,0-.442-3.531,1.477,1.477,0,0,0-2.842,0A10.381,10.381,0,0,0,201.2,34.1Z" fill="#0010f7"/>
  <path id="Path_640" data-name="Path 640" d="M217.939,30.41a3.144,3.144,0,0,1-.757,2.129,3.932,3.932,0,0,1-2.126,1.206V33.8a4.244,4.244,0,0,1,2.445.983,2.754,2.754,0,0,1,.83,2.106,3.569,3.569,0,0,1-1.4,3,6.427,6.427,0,0,1-3.986,1.073,9.666,9.666,0,0,1-3.851-.722v-2.4a8.714,8.714,0,0,0,1.706.64,7.171,7.171,0,0,0,1.843.246,3.578,3.578,0,0,0,2.062-.475,1.745,1.745,0,0,0,.666-1.526,1.379,1.379,0,0,0-.766-1.334A5.676,5.676,0,0,0,212.163,35h-1.012V32.831h1.03a4.785,4.785,0,0,0,2.268-.407,1.469,1.469,0,0,0,.716-1.393q0-1.518-1.9-1.517a4.338,4.338,0,0,0-1.337.219,6.509,6.509,0,0,0-1.51.758l-1.305-1.946a7.24,7.24,0,0,1,4.352-1.316,5.614,5.614,0,0,1,3.271.841A2.7,2.7,0,0,1,217.939,30.41Z" fill="#0010f7"/>
  <path id="Path_641" data-name="Path 641" d="M225.385,5.074H190.041a1.092,1.092,0,0,0-.96,1.189V17.968h37.264V6.263A1.092,1.092,0,0,0,225.385,5.074Z" fill="#0010f7"/>
  <path id="Path_642" data-name="Path 642" d="M195.8,10.069a4.959,4.959,0,0,1-4.869-5.035,4.872,4.872,0,1,1,9.739,0,5.217,5.217,0,0,1-.093.983.929.929,0,1,1-1.824-.349,3.367,3.367,0,0,0,.06-.635,3.017,3.017,0,1,0-6.025,0A3.1,3.1,0,0,0,195.8,8.209a.93.93,0,0,1,0,1.86Z" fill="#0063f7"/>
  <path id="Path_643" data-name="Path 643" d="M207.51,10.069a4.96,4.96,0,0,1-4.87-5.035,4.872,4.872,0,1,1,9.739,0,.928.928,0,1,1-1.857,0,3.017,3.017,0,1,0-6.025,0,3.1,3.1,0,0,0,3.013,3.175.93.93,0,0,1,0,1.86Z" fill="#0063f7"/>
  <path id="Path_644" data-name="Path 644" d="M219.217,10.069a4.959,4.959,0,0,1-4.869-5.035,4.873,4.873,0,1,1,9.74,0,.928.928,0,1,1-1.857,0,3.017,3.017,0,1,0-6.026,0,3.1,3.1,0,0,0,3.012,3.175.93.93,0,0,1,0,1.86Z" fill="#0063f7"/>
</svg>
