<svg width="322" height="220" viewBox="0 0 322 220" fill="none" xmlns="http://www.w3.org/2000/svg">
<path d="M264 138.196C263.934 191.491 184.095 220.066 130.639 220C77.1815 219.934 33.9339 148.414 34.0001 95.1184C34.0663 41.8231 77.4212 26.9342 130.879 27.0002C184.335 27.0662 264.066 84.9005 264 138.196Z" fill="#EBFAFA"/>
<path d="M308.181 130.47C307.944 130.47 307.708 130.381 307.527 130.201L302.967 125.676C302.603 125.314 302.6 124.726 302.96 124.362L306.472 120.808L302.927 117.292C302.752 117.118 302.653 116.881 302.652 116.635C302.651 116.388 302.748 116.151 302.921 115.976L307.443 111.409C307.803 111.044 308.39 111.042 308.756 111.404L312.301 114.921L315.815 111.372C316.175 111.007 316.763 111.005 317.128 111.366L321.689 115.892C321.864 116.065 321.963 116.301 321.964 116.547C321.965 116.794 321.867 117.031 321.694 117.207L318.18 120.755L321.726 124.276C322.09 124.638 322.092 125.226 321.731 125.591L317.213 130.158C316.854 130.522 316.266 130.525 315.9 130.164L312.354 126.647L308.84 130.195C308.659 130.379 308.419 130.47 308.181 130.47ZM304.933 125.009L308.175 128.226L311.689 124.678C312.05 124.313 312.638 124.311 313.002 124.671L316.547 128.188L319.759 124.942L316.213 121.42C316.038 121.247 315.94 121.011 315.939 120.764C315.938 120.518 316.035 120.28 316.208 120.105L319.722 116.557L316.48 113.342L312.966 116.89C312.605 117.256 312.018 117.257 311.653 116.896L308.107 113.379L304.894 116.624L308.439 120.141C308.803 120.502 308.806 121.091 308.446 121.456L304.933 125.009Z" fill="#0010F7"/>
<path d="M82.809 69.9877C82.5727 69.9877 82.3365 69.8978 82.1556 69.718L78.5895 66.18C78.225 65.8194 78.2222 65.2301 78.5832 64.8659L81.1871 62.2315L78.5587 59.6234C78.3837 59.4499 78.2844 59.2138 78.2835 58.9677C78.2825 58.7207 78.3791 58.4837 78.5528 58.3084L82.088 54.7377C82.4485 54.3726 83.0366 54.3708 83.4007 54.7313L86.03 57.3394L88.6353 54.7086C88.9958 54.3436 89.5838 54.3408 89.9479 54.7032L93.5136 58.2412C93.6886 58.4146 93.7879 58.6508 93.7888 58.8969C93.7897 59.1439 93.6931 59.3809 93.5195 59.5561L90.9142 62.187L93.543 64.7978C93.9071 65.1592 93.9098 65.7477 93.5489 66.1128L90.0159 69.6835C89.6541 70.0476 89.0665 70.0504 88.7029 69.6889L86.074 67.0817L83.4682 69.7125C83.2869 69.896 83.0479 69.9877 82.809 69.9877ZM80.556 65.5134L82.8031 67.7428L85.4088 65.112C85.7693 64.747 86.3574 64.7442 86.7215 65.1066L89.3503 67.7138L91.5761 65.4635L88.9473 62.8526C88.7722 62.6792 88.6734 62.4431 88.6725 62.1961C88.6716 61.95 88.7682 61.7129 88.9418 61.5377L91.5467 58.9068L89.3005 56.6783L86.6947 59.3082C86.3329 59.6724 85.7457 59.6733 85.3821 59.3146L82.7532 56.7074L80.5256 58.9568L83.1536 61.5649C83.5181 61.9254 83.5208 62.5148 83.1599 62.879L80.556 65.5134Z" fill="#0010F7"/>
<path d="M299.761 73.9455C290.224 73.9455 282.467 66.1766 282.467 56.6268C282.467 47.0771 290.224 39.3081 299.761 39.3081C309.297 39.3081 317.055 47.0771 317.055 56.6268C317.055 66.1766 309.297 73.9455 299.761 73.9455ZM299.761 41.1679C291.248 41.1679 284.324 48.1023 284.324 56.6268C284.324 65.1513 291.248 72.0857 299.761 72.0857C308.273 72.0857 315.197 65.1513 315.197 56.6268C315.197 48.1023 308.273 41.1679 299.761 41.1679ZM299.761 66.7778C298.4 66.7778 297.078 66.5108 295.831 65.9832C295.557 65.8678 295.355 65.6281 295.288 65.3375C295.22 65.0478 295.295 64.7427 295.49 64.5175L306.944 51.2816C307.139 51.0573 307.432 50.9356 307.726 50.9647C308.023 50.9901 308.288 51.1563 308.442 51.4115C309.394 52.9953 309.897 54.7988 309.897 56.6268C309.897 62.2245 305.35 66.7778 299.761 66.7778ZM297.804 64.6846C298.44 64.8398 299.095 64.9179 299.761 64.9179C304.326 64.9179 308.04 61.1983 308.04 56.6268C308.04 55.5734 307.834 54.5291 307.439 53.5501L297.804 64.6846ZM291.874 62.2917C291.848 62.2917 291.82 62.2908 291.794 62.288C291.498 62.2626 291.232 62.0964 291.079 61.8412C290.127 60.2575 289.623 58.454 289.623 56.6268C289.623 51.0292 294.171 46.4759 299.761 46.4759C301.12 46.4759 302.441 46.7429 303.688 47.2687C303.962 47.3849 304.164 47.6247 304.231 47.9152C304.299 48.2049 304.224 48.5101 304.029 48.7353L292.576 61.9711C292.398 62.1754 292.142 62.2917 291.874 62.2917ZM299.761 48.3357C295.195 48.3357 291.48 52.0554 291.48 56.6268C291.48 57.6793 291.686 58.7237 292.081 59.7026L301.715 48.5691C301.079 48.4138 300.425 48.3357 299.761 48.3357Z" fill="#0010F7"/>
<path d="M215.06 183L95.8506 182.975L105.296 83.7783L224.505 83.8028L215.06 183Z" fill="#0010F7"/>
<path d="M224.717 83.6924L228.845 161.762L215.06 183" fill="#0063F7"/>
<path d="M120.599 92.1249C115.746 92.1249 111.798 87.6034 111.798 82.0466C111.798 76.4898 115.746 71.9692 120.599 71.9692C125.452 71.9692 129.4 76.4898 129.4 82.0466C129.4 82.8167 128.777 83.4415 128.007 83.4415C127.238 83.4415 126.614 82.8167 126.614 82.0466C126.614 78.0282 123.916 74.759 120.599 74.759C117.282 74.759 114.584 78.0282 114.584 82.0466C114.584 86.0659 117.282 89.3352 120.599 89.3352C121.368 89.3352 121.992 89.96 121.992 90.73C121.992 91.5001 121.368 92.1249 120.599 92.1249Z" fill="#0063F7"/>
<path d="M142.219 92.1249C137.366 92.1249 133.418 87.6034 133.418 82.0466C133.418 76.4898 137.366 71.9692 142.219 71.9692C147.072 71.9692 151.02 76.4898 151.02 82.0466C151.02 82.8167 150.397 83.4415 149.627 83.4415C148.858 83.4415 148.234 82.8167 148.234 82.0466C148.234 78.0282 145.536 74.759 142.219 74.759C138.902 74.759 136.203 78.0282 136.203 82.0466C136.203 86.0659 138.902 89.3352 142.219 89.3352C142.988 89.3352 143.612 89.96 143.612 90.73C143.612 91.5001 142.988 92.1249 142.219 92.1249Z" fill="#0063F7"/>
<path d="M163.838 92.1249C158.985 92.1249 155.038 87.6034 155.038 82.0466C155.038 76.4898 158.985 71.9692 163.838 71.9692C168.692 71.9692 172.64 76.4898 172.64 82.0466C172.64 82.8167 172.016 83.4415 171.247 83.4415C170.478 83.4415 169.854 82.8167 169.854 82.0466C169.854 78.0282 167.155 74.759 163.838 74.759C160.522 74.759 157.823 78.0282 157.823 82.0466C157.823 86.0659 160.522 89.3352 163.838 89.3352C164.607 89.3352 165.231 89.96 165.231 90.73C165.231 91.5001 164.607 92.1249 163.838 92.1249Z" fill="#0063F7"/>
<path d="M185.459 92.1249C180.606 92.1249 176.657 87.6034 176.657 82.0466C176.657 76.4898 180.606 71.9692 185.459 71.9692C190.312 71.9692 194.26 76.4898 194.26 82.0466C194.26 82.8167 193.636 83.4415 192.867 83.4415C192.098 83.4415 191.474 82.8167 191.474 82.0466C191.474 78.0282 188.775 74.759 185.459 74.759C182.142 74.759 179.443 78.0282 179.443 82.0466C179.443 86.0659 182.142 89.3352 185.459 89.3352C186.228 89.3352 186.852 89.96 186.852 90.73C186.852 91.5001 186.228 92.1249 185.459 92.1249Z" fill="#0063F7"/>
<path d="M207.079 92.1249C202.226 92.1249 198.278 87.6034 198.278 82.0466C198.278 76.4898 202.226 71.9692 207.079 71.9692C211.932 71.9692 215.88 76.4898 215.88 82.0466C215.88 82.8167 215.257 83.4415 214.488 83.4415C213.719 83.4415 213.095 82.8167 213.095 82.0466C213.095 78.0282 210.396 74.759 207.079 74.759C203.763 74.759 201.064 78.0282 201.064 82.0466C201.064 86.0659 203.763 89.3352 207.079 89.3352C207.848 89.3352 208.472 89.96 208.472 90.73C208.472 91.5001 207.848 92.1249 207.079 92.1249Z" fill="#0063F7"/>
<path d="M133.685 122.425L115.999 122.421L117.4 107.704L135.086 107.707L133.685 122.425Z" fill="#1BE7FF"/>
<path d="M157.014 122.425L139.328 122.421L140.729 107.704L158.416 107.707L157.014 122.425Z" fill="white"/>
<path d="M180.343 122.425L162.657 122.421L164.058 107.704L181.745 107.707L180.343 122.425Z" fill="white"/>
<path d="M203.673 122.425L185.987 122.421L187.388 107.704L205.074 107.707L203.673 122.425Z" fill="white"/>
<path d="M131.564 142.601L113.878 142.598L115.279 127.88L132.966 127.884L131.564 142.601Z" fill="white"/>
<path d="M154.893 142.601L137.207 142.598L138.608 127.88L156.295 127.884L154.893 142.601Z" fill="#1BE7FF"/>
<path d="M178.222 142.601L160.536 142.598L161.937 127.88L179.624 127.884L178.222 142.601Z" fill="white"/>
<path d="M201.552 142.601L183.866 142.598L185.267 127.88L202.953 127.884L201.552 142.601Z" fill="#FF0022"/>
<path d="M129.443 162.778L111.757 162.774L113.158 148.057L130.845 148.061L129.443 162.778Z" fill="#FF0022"/>
<path d="M152.773 162.778L135.086 162.774L136.488 148.057L154.174 148.061L152.773 162.778Z" fill="white"/>
<path d="M176.102 162.778L158.416 162.774L159.817 148.057L177.503 148.061L176.102 162.778Z" fill="white"/>
<path d="M199.431 162.778L181.745 162.774L183.146 148.057L200.833 148.061L199.431 162.778Z" fill="white"/>
<path d="M123.906 118.985L121.621 116.017L122.798 115.109L124.021 116.698L130.305 110.047L131.384 111.069L123.906 118.985Z" fill="white"/>
<path d="M145.113 139.162L142.829 136.193L144.006 135.285L145.229 136.875L151.513 130.223L152.592 131.246L145.113 139.162Z" fill="white"/>
<path d="M196.814 132.859L195.829 131.873L193.501 134.204L191.174 131.873L190.189 132.859L192.517 135.19L190.189 137.521L191.174 138.507L193.501 136.176L195.829 138.507L196.814 137.521L194.486 135.19L196.814 132.859Z" fill="white"/>
<path d="M124.705 153.036L123.72 152.049L121.393 154.381L119.066 152.049L118.081 153.036L120.408 155.367L118.081 157.699L119.066 158.685L121.393 156.354L123.72 158.685L124.705 157.699L122.378 155.367L124.705 153.036Z" fill="white"/>
<path d="M51.8568 144.033V106.071C51.8568 105.455 51.3577 104.955 50.742 104.955H9.70472C9.08904 104.955 8.58995 105.455 8.58995 106.071V143.345C8.58995 143.385 8.58842 143.423 8.58462 143.463C8.4049 145.347 7.52891 148.491 3.89787 150.624C3.86579 150.643 3.87594 150.691 3.91312 150.691L45.8116 150.691C47.5998 150.691 49.2895 149.825 50.29 148.341C50.9507 147.36 51.5641 146.03 51.8568 144.272C51.8703 144.19 51.8685 144.111 51.8568 144.033Z" fill="#DCEAF7"/>
<path d="M4.71139 138.53C4.71139 138.571 4.70969 138.609 4.7059 138.649C4.52617 140.533 3.65024 143.677 0.0192013 145.809C-0.0128776 145.828 -0.00267586 145.876 0.0343339 145.876H41.933C43.7212 145.876 45.4107 145.011 46.4115 143.526C47.0719 142.546 47.6855 141.216 47.9781 139.457C47.9917 139.376 47.9897 139.296 47.9781 139.219V112.249H4.71139V138.53Z" fill="white"/>
<path d="M25.2499 137.104H15.9254V135.139L19.2739 131.749C20.265 130.732 20.913 130.028 21.2172 129.634C21.5214 129.241 21.7404 128.878 21.8742 128.543C22.008 128.208 22.0751 127.861 22.0751 127.501C22.0751 126.966 21.9272 126.566 21.6325 126.304C21.3374 126.042 20.9433 125.911 20.4509 125.911C19.9336 125.911 19.4321 126.03 18.9456 126.267C18.4586 126.505 17.9508 126.843 17.4217 127.282L15.8892 125.463C16.5457 124.903 17.0902 124.507 17.5219 124.276C17.954 124.044 18.4255 123.866 18.9361 123.741C19.4471 123.616 20.0188 123.554 20.6513 123.554C21.4847 123.554 22.2206 123.706 22.8595 124.01C23.4983 124.316 23.9939 124.742 24.3467 125.29C24.6994 125.839 24.8758 126.465 24.8758 127.172C24.8758 127.787 24.7679 128.364 24.5521 128.903C24.3358 129.443 24.0016 129.995 23.5482 130.562C23.0952 131.128 22.2968 131.936 21.1533 132.983L19.438 134.6V134.728H25.2499V137.104Z" fill="#0010F7"/>
<path d="M36.2168 134.335H34.6112V137.104H31.8558V134.335H26.1624V132.37L32.0109 123.746H34.6112V132.143H36.2168V134.335ZM31.8558 132.143V129.877C31.8558 129.499 31.8708 128.951 31.9012 128.232C31.9316 127.513 31.9561 127.096 31.9742 126.98H31.9012C31.6763 127.479 31.4056 127.967 31.0891 128.442L28.6443 132.143H31.8558Z" fill="#0010F7"/>
<path d="M45.3729 101.782H7.442C6.87274 101.782 6.41162 102.308 6.41162 102.957V114.524H46.4032V102.957C46.4032 102.308 45.9419 101.782 45.3729 101.782Z" fill="#0010F7"/>
<path d="M25.8908 105.083C23.042 105.083 20.7241 102.685 20.7241 99.7394C20.7241 96.7934 23.042 94.396 25.8908 94.396C28.7395 94.396 31.0569 96.7934 31.0569 99.7394C31.0569 100.253 30.6412 100.669 30.1283 100.669C29.6155 100.669 29.1998 100.253 29.1998 99.7394C29.1998 97.8187 27.7153 96.2558 25.8908 96.2558C24.0658 96.2558 22.5813 97.8187 22.5813 99.7394C22.5813 101.66 24.0658 103.223 25.8908 103.223C26.4036 103.223 26.8193 103.639 26.8193 104.153C26.8193 104.667 26.4036 105.083 25.8908 105.083Z" fill="#0063F7"/>
<path d="M12.4084 105.083C9.55958 105.083 7.24219 102.685 7.24219 99.7394C7.24219 96.7934 9.55958 94.396 12.4084 94.396C15.2572 94.396 17.5745 96.7934 17.5745 99.7394C17.5745 100.253 17.1588 100.669 16.646 100.669C16.1331 100.669 15.7174 100.253 15.7174 99.7394C15.7174 97.8187 14.2329 96.2558 12.4084 96.2558C10.5838 96.2558 9.09936 97.8187 9.09936 99.7394C9.09936 101.66 10.5838 103.223 12.4084 103.223C12.9212 103.223 13.337 103.639 13.337 104.153C13.337 104.667 12.9212 105.083 12.4084 105.083Z" fill="#0063F7"/>
<path d="M38.933 105.083C36.0842 105.083 33.7668 102.685 33.7668 99.7394C33.7668 96.7934 36.0842 94.396 38.933 94.396C41.7818 94.396 44.0992 96.7934 44.0992 99.7394C44.0992 100.253 43.6834 100.669 43.1706 100.669C42.6578 100.669 42.242 100.253 42.242 99.7394C42.242 97.8187 40.7576 96.2558 38.933 96.2558C37.1085 96.2558 35.624 97.8187 35.624 99.7394C35.624 101.66 37.1085 103.223 38.933 103.223C39.4458 103.223 39.8616 103.639 39.8616 104.153C39.8616 104.667 39.4458 105.083 38.933 105.083Z" fill="#0063F7"/>
<path d="M232.102 46.2311V10.9235C232.102 10.3501 231.638 9.88525 231.065 9.88525H192.897C192.325 9.88525 191.86 10.3501 191.86 10.9235V45.5908C191.86 45.6282 191.859 45.6636 191.855 45.7009C191.688 47.4532 190.874 50.3773 187.496 52.3608C187.466 52.3783 187.476 52.423 187.511 52.423H226.479C228.143 52.423 229.714 51.6179 230.645 50.2373C231.259 49.3256 231.83 48.0883 232.102 46.4528C232.115 46.3768 232.113 46.3032 232.102 46.2311Z" fill="#DCEAF7"/>
<path d="M227.63 41.7535V6.44603C227.63 5.87259 227.166 5.40771 226.593 5.40771H188.426C187.853 5.40771 187.389 5.87259 187.389 6.44603V41.1133C187.389 41.1507 187.387 41.1861 187.384 41.2234C187.217 42.9757 186.402 45.8998 183.025 47.8832C182.995 47.9008 183.004 47.9455 183.039 47.9455L222.008 47.9455C223.671 47.9455 225.242 47.1404 226.173 45.7598C226.787 44.8481 227.358 43.6108 227.63 41.9753C227.643 41.8993 227.641 41.8257 227.63 41.7535Z" fill="white"/>
<path d="M207.72 34.1009C207.72 36.4339 207.338 38.1611 206.574 39.2817C205.812 40.4023 204.636 40.9626 203.049 40.9626C201.51 40.9626 200.349 40.3842 199.567 39.2272C198.786 38.0694 198.396 36.3612 198.396 34.1009C198.396 31.7434 198.776 30.0062 199.536 28.8883C200.296 27.7713 201.467 27.2119 203.049 27.2119C204.588 27.2119 205.75 27.7967 206.538 28.9664C207.326 30.1361 207.72 31.8479 207.72 34.1009ZM201.196 34.1009C201.196 35.7401 201.337 36.9142 201.62 37.6235C201.903 38.3327 202.379 38.6878 203.049 38.6878C203.705 38.6878 204.179 38.3282 204.471 37.6099C204.763 36.8906 204.909 35.7219 204.909 34.1009C204.909 32.4627 204.763 31.2857 204.467 30.5701C204.172 29.8545 203.699 29.4958 203.049 29.4958C202.386 29.4958 201.911 29.8545 201.625 30.5701C201.339 31.2857 201.196 32.4627 201.196 34.1009Z" fill="#0010F7"/>
<path d="M217.939 30.4102C217.939 31.2448 217.687 31.954 217.182 32.5388C216.676 33.1237 215.968 33.5251 215.056 33.7448V33.7993C216.132 33.9337 216.948 34.2606 217.501 34.7819C218.054 35.3022 218.331 36.0042 218.331 36.8878C218.331 38.1728 217.866 39.1735 216.935 39.8891C216.005 40.6047 214.675 40.9625 212.949 40.9625C211.5 40.9625 210.217 40.7219 209.098 40.2406V37.8377C209.615 38.1002 210.184 38.3127 210.804 38.4779C211.424 38.6423 212.039 38.724 212.647 38.724C213.578 38.724 214.265 38.566 214.709 38.2491C215.153 37.9321 215.375 37.4236 215.375 36.7234C215.375 36.0959 215.119 35.651 214.609 35.3894C214.097 35.1279 213.282 34.9962 212.163 34.9962H211.151V32.8313H212.181C213.216 32.8313 213.971 32.6959 214.449 32.4244C214.926 32.1538 215.165 31.6888 215.165 31.0314C215.165 30.0197 214.533 29.5148 213.268 29.5148C212.83 29.5148 212.384 29.5875 211.931 29.7337C211.478 29.8799 210.974 30.1323 210.421 30.4919L209.116 28.5458C210.332 27.6686 211.783 27.23 213.468 27.23C214.849 27.23 215.939 27.5106 216.739 28.0709C217.539 28.6312 217.939 29.4113 217.939 30.4102Z" fill="#0010F7"/>
<path d="M225.385 5.07373H190.041C189.51 5.07373 189.081 5.60597 189.081 6.26251V17.9682H226.345V6.26251C226.345 5.60597 225.916 5.07373 225.385 5.07373Z" fill="#0010F7"/>
<path d="M195.801 10.0692C193.116 10.0692 190.932 7.81072 190.932 5.03461C190.932 2.25849 193.116 0 195.801 0C198.486 0 200.671 2.25849 200.671 5.03461C200.671 5.36516 200.64 5.69572 200.578 6.0181C200.481 6.52301 199.995 6.8463 199.492 6.75731C198.988 6.66105 198.658 6.17339 198.754 5.66938C198.794 5.46142 198.814 5.24801 198.814 5.03461C198.814 3.28375 197.463 1.85983 195.801 1.85983C194.14 1.85983 192.789 3.28375 192.789 5.03461C192.789 6.78546 194.14 8.20939 195.801 8.20939C196.315 8.20939 196.73 8.6253 196.73 9.1393C196.73 9.65329 196.315 10.0692 195.801 10.0692Z" fill="#0063F7"/>
<path d="M207.51 10.0692C204.824 10.0692 202.64 7.81072 202.64 5.03461C202.64 2.25849 204.824 0 207.51 0C210.195 0 212.379 2.25849 212.379 5.03461C212.379 5.5486 211.964 5.96452 211.451 5.96452C210.937 5.96452 210.522 5.5486 210.522 5.03461C210.522 3.28375 209.171 1.85983 207.51 1.85983C205.848 1.85983 204.497 3.28375 204.497 5.03461C204.497 6.78546 205.848 8.20939 207.51 8.20939C208.023 8.20939 208.438 8.6253 208.438 9.1393C208.438 9.65329 208.023 10.0692 207.51 10.0692Z" fill="#0063F7"/>
<path d="M219.217 10.0692C216.532 10.0692 214.348 7.81072 214.348 5.03461C214.348 2.25849 216.532 0 219.217 0C221.903 0 224.088 2.25849 224.088 5.03461C224.088 5.5486 223.673 5.96452 223.159 5.96452C222.646 5.96452 222.231 5.5486 222.231 5.03461C222.231 3.28375 220.879 1.85983 219.217 1.85983C217.556 1.85983 216.205 3.28375 216.205 5.03461C216.205 6.78546 217.556 8.20939 219.217 8.20939C219.731 8.20939 220.146 8.6253 220.146 9.1393C220.146 9.65329 219.731 10.0692 219.217 10.0692Z" fill="#0063F7"/>
</svg>
