<svg xmlns="http://www.w3.org/2000/svg" xmlns:xlink="http://www.w3.org/1999/xlink" width="361" height="230" viewBox="0 0 361 230">
  <defs>
    <clipPath id="clip-path">
      <rect id="Rectangle_114" data-name="Rectangle 114" width="361" height="230" fill="#fff"/>
    </clipPath>
  </defs>
  <g id="welcome-illustration-3" clip-path="url(#clip-path)">
    <path id="Path_546" data-name="Path 546" d="M281.147,143.205c0,55.87-83.4,85.928-139.27,85.928S40.717,154.214,40.717,98.345s45.291-71.533,101.16-71.533S281.147,87.336,281.147,143.205Z" fill="#292929"/>
    <path id="Path_547" data-name="Path 547" d="M284.949,220.735a5.915,5.915,0,0,0,.169-1.385v-115a6.018,6.018,0,0,0-6-6h-176a6.018,6.018,0,0,0-6,6v115a5.931,5.931,0,0,0,.169,1.385H81.571v2.4c0,3.466,2.346,6.269,5.238,6.269H294.88c2.892,0,5.238-2.8,5.238-6.269v-2.4Z" fill="#0010f7"/>
    <path id="Path_548" data-name="Path 548" d="M229.836,106.425h47.379V220.349H106.158V106.425h47.155" fill="#ebfafa"/>
    <path id="Path_549" data-name="Path 549" d="M257.76,182.343H237.822a2.535,2.535,0,0,1-2.531-2.531v-3.938a2.535,2.535,0,0,1,2.531-2.531H257.76a2.535,2.535,0,0,1,2.531,2.531v3.938A2.535,2.535,0,0,1,257.76,182.343Zm-19.938-7a.538.538,0,0,0-.531.531v3.938a.538.538,0,0,0,.531.531H257.76a.538.538,0,0,0,.531-.531v-3.938a.538.538,0,0,0-.531-.531Z" fill="#fff"/>
    <path id="Path_550" data-name="Path 550" d="M227.916,182.343H126.666a2.378,2.378,0,0,1-2.375-2.375v-4.25a2.377,2.377,0,0,1,2.375-2.375h101.25a2.377,2.377,0,0,1,2.375,2.375v4.25A2.378,2.378,0,0,1,227.916,182.343Zm-101.25-7a.38.38,0,0,0-.375.375v4.25a.38.38,0,0,0,.375.375h101.25a.38.38,0,0,0,.375-.375v-4.25a.38.38,0,0,0-.375-.375Z" fill="#fff"/>
    <path id="Path_551" data-name="Path 551" d="M257.6,196.343H237.979a2.691,2.691,0,0,1-2.688-2.688V190.03a2.691,2.691,0,0,1,2.688-2.687H257.6a2.691,2.691,0,0,1,2.687,2.687v3.625A2.691,2.691,0,0,1,257.6,196.343Zm-19.625-7a.688.688,0,0,0-.688.687v3.625a.7.7,0,0,0,.688.688H257.6a.7.7,0,0,0,.687-.688V190.03a.688.688,0,0,0-.687-.687Z" fill="#fff"/>
    <path id="Path_552" data-name="Path 552" d="M227.666,196.343H126.916a2.629,2.629,0,0,1-2.625-2.625v-3.75a2.629,2.629,0,0,1,2.625-2.625h100.75a2.629,2.629,0,0,1,2.625,2.625v3.75A2.629,2.629,0,0,1,227.666,196.343Zm-100.75-7a.633.633,0,0,0-.625.625v3.75a.633.633,0,0,0,.625.625h100.75a.633.633,0,0,0,.625-.625v-3.75a.633.633,0,0,0-.625-.625Z" fill="#fff"/>
    <path id="Path_553" data-name="Path 553" d="M344.308,71.287a5.421,5.421,0,1,1,5.421-5.421A5.427,5.427,0,0,1,344.308,71.287Zm0-8.842a3.421,3.421,0,1,0,3.421,3.421A3.425,3.425,0,0,0,344.308,62.445Z" fill="#55b1f3"/>
    <path id="Path_554" data-name="Path 554" d="M136.006,63.518a5.421,5.421,0,1,1,5.421-5.422A5.429,5.429,0,0,1,136.006,63.518Zm0-8.843a3.421,3.421,0,1,0,3.421,3.421A3.426,3.426,0,0,0,136.006,54.675Z" fill="#fff"/>
    <path id="Path_555" data-name="Path 555" d="M283.265,61.609l-4.942-4.9,3.217-3.249-3.248-3.216,4.9-4.942,3.247,3.217,3.218-3.245,4.942,4.9L291.38,53.42l3.246,3.22-4.9,4.942-3.248-3.217ZM281.151,56.7l2.1,2.081,3.218-3.245,3.246,3.217,2.082-2.1-3.247-3.22,3.218-3.244-2.1-2.081-3.217,3.245L283.2,48.135l-2.083,2.1,3.247,3.216Z" fill="#55b1f3"/>
    <path id="Path_556" data-name="Path 556" d="M5.423,96.186a5.421,5.421,0,1,1,5.421-5.422A5.429,5.429,0,0,1,5.423,96.186Zm0-8.843a3.421,3.421,0,1,0,3.421,3.421A3.426,3.426,0,0,0,5.423,87.344Z" fill="#55b1f3"/>
    <path id="Path_557" data-name="Path 557" d="M74.373,110.7l-3.247-3.22,1.146-1.154,2.073-2.091-3.521-3.488-2.073,2.09-1.146,1.154-3.247-3.216L60.868,104.3l3.247,3.216L60.9,110.763l3.521,3.489,3.218-3.245,3.247,3.216Z" fill="#55b1f3"/>
    <path id="Path_558" data-name="Path 558" d="M85.119,47.575c-.8-4.507-3.636-6.635-10.272-7.269-4.753-.468-5.9-1.118-6.234-2.969-.233-1.306.253-3.045,2.972-3.53,3.236-.577,4.124,1.226,4.639,2.348l6.006-1.072c-.9-3.24-3.357-6.15-8.754-6.009l-.485-2.719-5.031.9.5,2.779C64.577,31.508,61.9,34.716,62.669,39c.71,3.978,3.268,6.243,10.781,7.024,4.125.42,5.407,1.239,5.777,3.314.3,1.693-.431,3.374-3.56,3.932a4.519,4.519,0,0,1-5.334-2.723l-6,1.071c1.058,4.028,4.4,6.5,9.421,6.377l.608,3.408,5.069-.9-.611-3.421C83.329,55.556,85.971,52.349,85.119,47.575Z" fill="#0010f7"/>
    <path id="Path_559" data-name="Path 559" d="M359.615,132.932a2.928,2.928,0,0,0-2-1.21l-19.862-2.642-.022.166a1.023,1.023,0,0,0-.14-.112,1,1,0,0,0-1.109.072l-14.429,11.043a.955.955,0,0,0-.269,1.258l-.191-.026L317.6,171.5a3.178,3.178,0,0,0,.56,2.284,2.913,2.913,0,0,0,2,1.212l13,1.73.264-1.982-13.005-1.731a.939.939,0,0,1-.639-.394,1.194,1.194,0,0,1-.2-.856l3.939-29.6,9.394,1.25a3.427,3.427,0,0,0,.451.03,3.374,3.374,0,0,0,3.334-2.929l1.25-9.394,19.4,2.582a.944.944,0,0,1,.64.4,1.182,1.182,0,0,1,.2.852l-2.09,15.715,1.982.263,2.091-15.714A3.175,3.175,0,0,0,359.615,132.932Zm-24.9,7.322a1.363,1.363,0,0,1-.527.909,1.382,1.382,0,0,1-1.012.27l-7.993-1.063,10.6-8.109Z" fill="#0010f7"/>
    <path id="Path_560" data-name="Path 560" d="M348.308,182.016a2.715,2.715,0,0,1-.473-.041,2.622,2.622,0,0,1-1.922-1.181l-4.579-6.956a2.691,2.691,0,0,1,2.784-4.119,2.666,2.666,0,0,1,1.711,1.161l.639.968.848-6.377a2.69,2.69,0,1,1,5.334.709l-.86,6.47.963-.851a2.688,2.688,0,0,1,4.468,2.177c0,.049-.009.12-.017.187v.008a2.69,2.69,0,0,1-.885,1.66l-6.241,5.519A2.663,2.663,0,0,1,348.308,182.016Zm-4.73-10.352a.692.692,0,0,0-.674.552.7.7,0,0,0,.1.523l4.579,6.956a.684.684,0,0,0,.515.3.741.741,0,0,0,.654-.143l6.24-5.518a.685.685,0,0,0,.227-.424.716.716,0,0,0-.166-.555.7.7,0,0,0-.977-.056l-4.977,4.4,1.568-11.78a.685.685,0,0,0-.137-.511.693.693,0,0,0-.458-.266.69.69,0,0,0-.774.6l-1.555,11.684-3.587-5.442a.675.675,0,0,0-.438-.3A.767.767,0,0,0,343.578,171.664Z" fill="#0010f7"/>
    <path id="Path_561" data-name="Path 561" d="M333.241,155.064l-1.221-.163-.372,2.8-1.461-.2.969-7.285,2.682.357c1.753.233,2.5,1.342,2.331,2.6C336.022,154.287,335.119,155.314,333.241,155.064Zm.1-1.188c.824.111,1.243-.249,1.329-.9.089-.668-.223-1.113-1.048-1.223l-1.159-.154-.281,2.118Z" fill="#0063f7"/>
    <path id="Path_562" data-name="Path 562" d="M343.4,155.566a3.542,3.542,0,0,1-4.325,3.121l-2.546-.339.968-7.285,2.547.339A3.552,3.552,0,0,1,343.4,155.566Zm-4.211,1.872a2.2,2.2,0,0,0,2.717-2.07,2.222,2.222,0,0,0-2.078-2.742l-1.033-.137-.64,4.811Z" fill="#0063f7"/>
    <path id="Path_563" data-name="Path 563" d="M344.977,152.058l4.5.6-.156,1.179-3.038-.4-.249,1.868,2.329.31-.155,1.159-2.328-.311-.409,3.08-1.461-.195Z" fill="#0063f7"/>
    <path id="Path_564" data-name="Path 564" d="M198.363,8.446A13.883,13.883,0,0,1,200.48,4.8a12.671,12.671,0,0,1,3.2-2.845A13.035,13.035,0,0,1,212.721.178a12.261,12.261,0,0,1,6.111,2.592,10.39,10.39,0,0,1,3.341,4.813l-4.394,2.125a6.831,6.831,0,0,0-.983-2.091,6.523,6.523,0,0,0-1.423-1.466,7.382,7.382,0,0,0-1.7-.932,8.7,8.7,0,0,0-1.8-.487,7.447,7.447,0,0,0-2.715.041,7.094,7.094,0,0,0-2.268.9,7.55,7.55,0,0,0-1.81,1.562,8.8,8.8,0,0,0-1.316,2.043l9.595,1.477-1.548,2.6-8.962-1.38-.064.415a9.555,9.555,0,0,0-.116,1.518l8.771,1.35-1.554,2.6L203.028,16.8a8.791,8.791,0,0,0,2.231,3.836,6.886,6.886,0,0,0,3.939,1.948,8.572,8.572,0,0,0,1.913.065,7.314,7.314,0,0,0,1.959-.426,7.184,7.184,0,0,0,1.828-1.007,5.916,5.916,0,0,0,1.484-1.669l3.861,3.087A8.08,8.08,0,0,1,218.015,25a11.8,11.8,0,0,1-2.957,1.522,13.9,13.9,0,0,1-3.352.712,14.059,14.059,0,0,1-3.361-.1,11.5,11.5,0,0,1-4.03-1.386,13.388,13.388,0,0,1-5.459-5.907,14.928,14.928,0,0,1-1.229-3.874l-3.9-.6,1.587-2.6,2.1.323a12.224,12.224,0,0,1,.144-1.667l.04-.265-2.626-.4,1.553-2.6Z" fill="#0010f7"/>
    <path id="Path_565" data-name="Path 565" d="M268.277,116.921a1.218,1.218,0,1,0-1.218-1.218A1.218,1.218,0,0,0,268.277,116.921Z" fill="#fff"/>
    <path id="Path_566" data-name="Path 566" d="M263.406,116.921a1.218,1.218,0,1,0-1.218-1.218A1.218,1.218,0,0,0,263.406,116.921Z" fill="#fff"/>
    <path id="Path_567" data-name="Path 567" d="M258.766,116.921a1.218,1.218,0,1,0-1.217-1.218A1.218,1.218,0,0,0,258.766,116.921Z" fill="#fff"/>
    <path id="Path_568" data-name="Path 568" d="M226.583,81.293l10.522-.037c.655,0,1.186-.709,1.186-1.584V76.5c0-4.367-2.656-7.919-5.921-7.919s-5.918,3.552-5.918,7.919v3.168" fill="#0063f7"/>
    <path id="Path_569" data-name="Path 569" d="M232.37,67.785a5.237,5.237,0,0,0-.734.055h-66.05a5.607,5.607,0,0,0-5.6,5.6v73.222H147.426a2.386,2.386,0,0,0-2.384,2.384v3.168c0,4.627,1.778,8.413,6.2,8.692a.85.85,0,0,0,.346.076h70.123a5.608,5.608,0,0,0,5.6-5.6V105.843a.829.829,0,0,0-.181-.5h-1.338a.829.829,0,0,0-.181.5v49.538a3.89,3.89,0,0,1-1.621,3.151,9.275,9.275,0,0,1-6.274-2.366,5.133,5.133,0,0,1-1.385-3.952v-3.168a2.386,2.386,0,0,0-2.384-2.384H161.684V73.44a3.906,3.906,0,0,1,3.9-3.9h62.76a9.752,9.752,0,0,0-2.694,6.965v3.168c0,.017.009.032.01.048V90.342h1.6V82.09l9.843-.035a2.188,2.188,0,0,0,1.986-2.384V76.5C239.091,71.7,236.076,67.785,232.37,67.785Zm-18.422,80.477a.784.784,0,0,1,.784.784v3.131a6.645,6.645,0,0,0,1.827,5.094,8.712,8.712,0,0,0,3.1,2.012h-68.07a.855.855,0,0,0-.16.032c-3.653-.182-4.784-3.292-4.784-7.1v-3.168a.784.784,0,0,1,.784-.784Zm23.543-68.59c0,.479-.253.784-.389.784l-9.84.035V79.037c0-.017-.009-.032-.01-.048V76.5c0-3.422,1.745-6.286,4.062-6.965h1.64a.837.837,0,0,0,.252-.051c2.427.558,4.285,3.487,4.285,7.016Z" fill="#0010f7"/>
    <path id="Path_570" data-name="Path 570" d="M225.662,90.342V79.72c0-.017-.01-.031-.01-.048V76.5a9.752,9.752,0,0,1,2.694-6.965h-62.76a3.906,3.906,0,0,0-3.9,3.9v73.222h52.264a2.386,2.386,0,0,1,2.384,2.384v3.168a5.133,5.133,0,0,0,1.385,3.952,9.277,9.277,0,0,0,6.274,2.366,3.89,3.89,0,0,0,1.621-3.151V105.843a.829.829,0,0,1,.181-.5h.587v-15Z" fill="#fff"/>
    <path id="Path_571" data-name="Path 571" d="M151.426,159.315a.855.855,0,0,1,.16-.032h68.07a8.712,8.712,0,0,1-3.1-2.012,6.645,6.645,0,0,1-1.827-5.094v-3.131a.784.784,0,0,0-.784-.784H147.426a.784.784,0,0,0-.784.784v3.168C146.642,156.023,147.773,159.133,151.426,159.315Z" fill="#fff"/>
    <path id="Path_572" data-name="Path 572" d="M213.291,83.6h-38a1,1,0,0,1,0-2h38a1,1,0,1,1,0,2Z" fill="#0010f7"/>
    <path id="Path_573" data-name="Path 573" d="M212.291,114.911h-37a1,1,0,0,1,0-2h37a1,1,0,0,1,0,2Z" fill="#0010f7"/>
    <path id="Path_574" data-name="Path 574" d="M212.291,122.245h-37a1,1,0,0,1,0-2h37a1,1,0,0,1,0,2Z" fill="#0010f7"/>
    <path id="Path_575" data-name="Path 575" d="M194.291,129.578h-19a1,1,0,0,1,0-2h19a1,1,0,1,1,0,2Z" fill="#0010f7"/>
    <path id="Path_576" data-name="Path 576" d="M194.291,136.911h-19a1,1,0,0,1,0-2h19a1,1,0,0,1,0,2Z" fill="#0010f7"/>
    <path id="Path_577" data-name="Path 577" d="M231.291,90.343h-45a2.006,2.006,0,0,0-2,2v11a2.006,2.006,0,0,0,2,2h45a2.006,2.006,0,0,0,2-2v-11A2.006,2.006,0,0,0,231.291,90.343Z" fill="#c903ff"/>
    <path id="Path_578" data-name="Path 578" d="M191.209,94.366h1.4v6.977h-1.4Z" fill="#fff"/>
    <path id="Path_579" data-name="Path 579" d="M197.867,98.284a1.245,1.245,0,1,0-2.478,0v3.059h-1.4V95.806h1.4V96.5a2.066,2.066,0,0,1,1.669-.77,2.13,2.13,0,0,1,2.209,2.369v3.248h-1.4Z" fill="#fff"/>
    <path id="Path_580" data-name="Path 580" d="M201.508,95.806l1.4,4.248,1.4-4.248H205.8l-2.049,5.537h-1.7l-2.039-5.537Z" fill="#fff"/>
    <path id="Path_581" data-name="Path 581" d="M209.048,101.433a2.859,2.859,0,1,1,2.889-2.859A2.769,2.769,0,0,1,209.048,101.433Zm0-1.219a1.474,1.474,0,0,0,1.449-1.64,1.434,1.434,0,1,0-2.839,0C207.658,99.674,208.3,100.214,209.048,100.214Z" fill="#fff"/>
    <path id="Path_582" data-name="Path 582" d="M212.819,94.326a.86.86,0,1,1,.86.82A.821.821,0,0,1,212.819,94.326Zm.15,1.479h1.4v5.537h-1.4Z" fill="#fff"/>
    <path id="Path_583" data-name="Path 583" d="M218.128,95.716a2.469,2.469,0,0,1,2.608,1.959h-1.508a1.09,1.09,0,0,0-1.11-.77c-.78,0-1.3.59-1.3,1.669s.52,1.659,1.3,1.659a1.057,1.057,0,0,0,1.11-.759h1.508a2.525,2.525,0,0,1-2.608,1.959,2.861,2.861,0,0,1,0-5.717Z" fill="#fff"/>
    <path id="Path_584" data-name="Path 584" d="M224.188,101.433a2.86,2.86,0,0,1,0-5.717,2.6,2.6,0,0,1,2.728,2.738,3.272,3.272,0,0,1-.04.54h-4.048a1.3,1.3,0,0,0,1.329,1.279,1.141,1.141,0,0,0,1.11-.67h1.509A2.573,2.573,0,0,1,224.188,101.433Zm-1.35-3.378h2.629a1.231,1.231,0,0,0-1.32-1.19A1.286,1.286,0,0,0,222.838,98.055Z" fill="#fff"/>
    <path id="Path_585" data-name="Path 585" d="M64.884,176.494,17.766,188.337a3.008,3.008,0,0,1-3.641-2.178L6.706,156.643A3.008,3.008,0,0,1,8.884,153L56,141.16a3.008,3.008,0,0,1,3.641,2.178l7.419,29.516A3.008,3.008,0,0,1,64.884,176.494Z" fill="#0010f7"/>
    <path id="Path_586" data-name="Path 586" d="M16.622,167.882a1.726,1.726,0,0,1-1.634-1.375L13.409,159.7a1.69,1.69,0,0,1,1.183-2.067l10.427-2.419a1.683,1.683,0,0,1,1.973,1.335l1.579,6.806a1.83,1.83,0,0,1-.138,1.231,1.578,1.578,0,0,1-1.046.838l-10.425,2.418A1.471,1.471,0,0,1,16.622,167.882Zm-1.208-8.387,1.465,6.314,9.687-2.248L25.1,157.247Zm11.208,4.312h0Z" fill="#fff"/>
    <path id="Path_587" data-name="Path 587" d="M57.92,163.824l-10.805,2.645.476,1.943L58.4,165.768Z" fill="#fff"/>
    <path id="Path_588" data-name="Path 588" d="M41.519,168.089l-8.265,2.029.477,1.943L42,170.032Z" fill="#fff"/>
    <path id="Path_589" data-name="Path 589" d="M29.059,171.146l-11.128,2.729.476,1.943,11.128-2.729Z" fill="#fff"/>
    <path id="Path_590" data-name="Path 590" d="M30.059,176.146l-11.128,2.729.476,1.943,11.128-2.729Z" fill="#fff"/>
    <path id="Path_591" data-name="Path 591" d="M34.756,159.632l-.09-.4c-.113.065-.224.122-.332.172a1.737,1.737,0,0,1-.342.115.8.8,0,0,1-.7-.126,1.53,1.53,0,0,1-.346-1.58.786.786,0,0,1,.568-.427,1.187,1.187,0,0,1,.35-.025,2.88,2.88,0,0,1,.332.052l.08-.426a1.842,1.842,0,0,0-.848,0,1.439,1.439,0,0,0-.683.338,1.186,1.186,0,0,0-.356.617,1.8,1.8,0,0,0,.012.815,1.627,1.627,0,0,0,.579,1.009,1.246,1.246,0,0,0,1.046.163A2.214,2.214,0,0,0,34.756,159.632Z" fill="#fff"/>
    <path id="Path_592" data-name="Path 592" d="M35.8,159.489l-.253-1.127a.661.661,0,0,1,.066-.5.6.6,0,0,1,.405-.28.928.928,0,0,1,.208-.022l-.051-.437a1.078,1.078,0,0,0-.232.031.692.692,0,0,0-.346.2.871.871,0,0,0-.211.369l-.023.005-.146-.366-.359.081.484,2.155Z" fill="#fff"/>
    <path id="Path_593" data-name="Path 593" d="M37.16,158.916a1.075,1.075,0,0,0,.852.118,2.189,2.189,0,0,0,.384-.122,1.43,1.43,0,0,0,.314-.19l-.084-.372a1.819,1.819,0,0,1-.327.2,1.588,1.588,0,0,1-.348.116.6.6,0,0,1-.488-.067.727.727,0,0,1-.278-.444l1.437-.323-.056-.248a1.016,1.016,0,0,0-.408-.657.91.91,0,0,0-.733-.108.933.933,0,0,0-.655.465,1.25,1.25,0,0,0-.077.889A1.136,1.136,0,0,0,37.16,158.916Zm.026-1.534a.467.467,0,0,1,.318-.216.449.449,0,0,1,.374.059.613.613,0,0,1,.22.375l-.979.22A.676.676,0,0,1,37.187,157.382Z" fill="#fff"/>
    <path id="Path_594" data-name="Path 594" d="M39.4,158.414a.771.771,0,0,0,.7.151.752.752,0,0,0,.573-.466l.022-.005.143.264.359-.081-.682-3.033-.46.1.176.785a2.8,2.8,0,0,0,.116.359l-.023.006a.761.761,0,0,0-.717-.169.778.778,0,0,0-.568.438,1.643,1.643,0,0,0,.367,1.647Zm.069-1.456a.43.43,0,0,1,.328-.279.506.506,0,0,1,.454.078.985.985,0,0,1,.263.549l.015.065a.857.857,0,0,1-.017.545.513.513,0,0,1-.376.252.437.437,0,0,1-.422-.1,1,1,0,0,1-.25-.517A1.033,1.033,0,0,1,39.472,156.958Z" fill="#fff"/>
    <path id="Path_595" data-name="Path 595" d="M41.825,155.872l-.458.1.483,2.155.458-.1Z" fill="#fff"/>
    <path id="Path_596" data-name="Path 596" d="M41.526,155.6a.258.258,0,0,0,.172-.111.253.253,0,0,0,.026-.2.24.24,0,0,0-.313-.2.269.269,0,0,0-.177.11.26.26,0,0,0-.026.2.253.253,0,0,0,.11.169A.268.268,0,0,0,41.526,155.6Z" fill="#fff"/>
    <path id="Path_597" data-name="Path 597" d="M43.692,157.369a.311.311,0,0,1-.235-.03.333.333,0,0,1-.138-.227l-.26-1.154.614-.138-.078-.346-.613.138-.109-.48-.282.063-.054.491-.278.239.046.2.294-.067.261,1.162a.606.606,0,0,0,.805.54,1.359,1.359,0,0,0,.243-.078,1,1,0,0,0,.184-.1l-.078-.346A1.133,1.133,0,0,1,43.692,157.369Z" fill="#fff"/>
    <path id="Path_598" data-name="Path 598" d="M47.092,156.538a1.727,1.727,0,0,1-.342.115.805.805,0,0,1-.7-.125,1.265,1.265,0,0,1-.4-.745,1.249,1.249,0,0,1,.054-.836.788.788,0,0,1,.568-.427,1.155,1.155,0,0,1,.35-.025,2.677,2.677,0,0,1,.332.052l.081-.425a1.826,1.826,0,0,0-.848,0,1.448,1.448,0,0,0-.684.339,1.185,1.185,0,0,0-.356.617,1.8,1.8,0,0,0,.012.814,1.626,1.626,0,0,0,.579,1.01,1.25,1.25,0,0,0,1.046.163,2.188,2.188,0,0,0,.732-.3l-.09-.4C47.311,156.43,47.2,156.489,47.092,156.538Z" fill="#fff"/>
    <path id="Path_599" data-name="Path 599" d="M48.631,156.648a1.031,1.031,0,0,0,.389-.163.893.893,0,0,0,.254-.337l.016,0,.159.279.327-.074L49.45,154.9a.723.723,0,0,0-.336-.517.966.966,0,0,0-.661-.04,1.954,1.954,0,0,0-.383.136,1.649,1.649,0,0,0-.353.227l.222.294a2.515,2.515,0,0,1,.267-.181,1.078,1.078,0,0,1,.307-.12.4.4,0,0,1,.322.036.443.443,0,0,1,.166.287l.026.114-.369.1a1.463,1.463,0,0,0-.714.354.587.587,0,0,0-.134.56.654.654,0,0,0,.287.444A.7.7,0,0,0,48.631,156.648Zm-.264-.937a.97.97,0,0,1,.446-.214l.274-.074.042.188a.514.514,0,0,1-.063.423.582.582,0,0,1-.37.23.375.375,0,0,1-.275-.021.3.3,0,0,1-.136-.2A.337.337,0,0,1,48.366,155.711Z" fill="#fff"/>
    <path id="Path_600" data-name="Path 600" d="M50.873,156.1l-.252-1.127a.658.658,0,0,1,.066-.5.6.6,0,0,1,.4-.28.93.93,0,0,1,.208-.022l-.051-.438a1.152,1.152,0,0,0-.232.032.683.683,0,0,0-.346.2.868.868,0,0,0-.211.369l-.023.005-.146-.366-.359.081.484,2.155Z" fill="#fff"/>
    <path id="Path_601" data-name="Path 601" d="M52.177,155.544a.769.769,0,0,0,.7.151.752.752,0,0,0,.574-.467l.021,0,.143.264.359-.08-.682-3.033-.459.1.176.785a2.7,2.7,0,0,0,.116.359l-.023.005a.761.761,0,0,0-.718-.168.777.777,0,0,0-.568.439,1.645,1.645,0,0,0,.367,1.646Zm.068-1.456a.431.431,0,0,1,.329-.279.5.5,0,0,1,.454.078.991.991,0,0,1,.262.549l.015.065a.854.854,0,0,1-.017.545.511.511,0,0,1-.375.251.437.437,0,0,1-.423-.1,1.006,1.006,0,0,1-.25-.518A1.036,1.036,0,0,1,52.245,154.088Z" fill="#fff"/>
  </g>
</svg>
