<svg width="361" height="230" viewBox="0 0 361 230" fill="none" xmlns="http://www.w3.org/2000/svg">
<g clip-path="url(#clip0_5551:117065)">
<path d="M281.147 143.205C281.147 199.075 197.744 229.133 141.877 229.133C86.0079 229.133 40.7168 154.214 40.7168 98.3452C40.7168 42.476 86.0079 26.812 141.877 26.812C197.744 26.812 281.147 87.3362 281.147 143.205Z" fill="#EBFAFA"/>
<path d="M284.949 220.735C285.056 220.29 285.118 219.827 285.118 219.35V104.35C285.118 101.05 282.418 98.3496 279.118 98.3496H103.118C99.8182 98.3496 97.1182 101.05 97.1182 104.35V219.35C97.1182 219.827 97.1807 220.29 97.2874 220.735H81.5713V223.13C81.5713 226.596 83.9177 229.399 86.8093 229.399H294.88C297.772 229.399 300.118 226.596 300.118 223.13V220.735H284.949Z" fill="#0010F7"/>
<path d="M229.836 106.425H277.215V220.349H106.158V106.425H153.313" fill="#EBFAFA"/>
<path d="M257.76 182.343H237.822C236.427 182.343 235.291 181.207 235.291 179.812V175.874C235.291 174.479 236.427 173.343 237.822 173.343H257.76C259.155 173.343 260.291 174.479 260.291 175.874V179.812C260.291 181.207 259.155 182.343 257.76 182.343ZM237.822 175.343C237.534 175.343 237.291 175.586 237.291 175.874V179.812C237.291 180.1 237.534 180.343 237.822 180.343H257.76C258.048 180.343 258.291 180.1 258.291 179.812V175.874C258.291 175.586 258.048 175.343 257.76 175.343H237.822Z" fill="white"/>
<path d="M227.916 182.343H126.666C125.356 182.343 124.291 181.277 124.291 179.968V175.718C124.291 174.408 125.356 173.343 126.666 173.343H227.916C229.226 173.343 230.291 174.408 230.291 175.718V179.968C230.291 181.277 229.226 182.343 227.916 182.343ZM126.666 175.343C126.463 175.343 126.291 175.515 126.291 175.718V179.968C126.291 180.171 126.463 180.343 126.666 180.343H227.916C228.119 180.343 228.291 180.171 228.291 179.968V175.718C228.291 175.515 228.119 175.343 227.916 175.343H126.666Z" fill="white"/>
<path d="M257.604 196.343H237.979C236.497 196.343 235.291 195.137 235.291 193.655V190.03C235.291 188.549 236.497 187.343 237.979 187.343H257.604C259.085 187.343 260.291 188.549 260.291 190.03V193.655C260.291 195.137 259.085 196.343 257.604 196.343ZM237.979 189.343C237.6 189.343 237.291 189.651 237.291 190.03V193.655C237.291 194.028 237.606 194.343 237.979 194.343H257.604C257.976 194.343 258.291 194.028 258.291 193.655V190.03C258.291 189.651 257.982 189.343 257.604 189.343H237.979Z" fill="white"/>
<path d="M227.666 196.343H126.916C125.469 196.343 124.291 195.165 124.291 193.718V189.968C124.291 188.521 125.469 187.343 126.916 187.343H227.666C229.113 187.343 230.291 188.521 230.291 189.968V193.718C230.291 195.165 229.113 196.343 227.666 196.343ZM126.916 189.343C126.577 189.343 126.291 189.629 126.291 189.968V193.718C126.291 194.057 126.577 194.343 126.916 194.343H227.666C228.005 194.343 228.291 194.057 228.291 193.718V189.968C228.291 189.629 228.005 189.343 227.666 189.343H126.916Z" fill="white"/>
<path d="M344.308 71.2871C341.317 71.2871 338.885 68.8555 338.885 65.8662C338.885 62.877 341.317 60.4453 344.308 60.4453C347.297 60.4453 349.729 62.877 349.729 65.8662C349.729 68.8555 347.297 71.2871 344.308 71.2871ZM344.308 62.4453C342.42 62.4453 340.885 63.9795 340.885 65.8662C340.885 67.7529 342.42 69.2871 344.308 69.2871C346.194 69.2871 347.729 67.7529 347.729 65.8662C347.729 63.9795 346.194 62.4453 344.308 62.4453Z" fill="#55B1F3"/>
<path d="M136.006 63.5176C133.016 63.5176 130.583 61.085 130.583 58.0957C130.583 55.1064 133.016 52.6748 136.006 52.6748C138.995 52.6748 141.427 55.1064 141.427 58.0957C141.427 61.085 138.995 63.5176 136.006 63.5176ZM136.006 54.6748C134.119 54.6748 132.583 56.209 132.583 58.0957C132.583 59.9824 134.119 61.5176 136.006 61.5176C137.892 61.5176 139.427 59.9824 139.427 58.0957C139.427 56.209 137.892 54.6748 136.006 54.6748Z" fill="white"/>
<path d="M283.265 61.6094L278.323 56.7139L281.54 53.4648L278.292 50.249L283.191 45.3066L286.438 48.5234L289.656 45.2783L294.598 50.1738L291.38 53.4199L294.626 56.6396L289.73 61.5811L286.482 58.3643L283.265 61.6094ZM281.151 56.7002L283.252 58.7812L286.47 55.5361L289.716 58.7529L291.798 56.6514L288.551 53.4316L291.769 50.1875L289.668 48.1064L286.451 51.3516L283.204 48.1348L281.121 50.2354L284.368 53.4512L281.151 56.7002Z" fill="#55B1F3"/>
<path d="M5.42334 96.1864C2.43311 96.1864 0 93.7538 0 90.7645C0 87.7753 2.43311 85.3438 5.42334 85.3438C8.4126 85.3438 10.8442 87.7753 10.8442 90.7645C10.8442 93.7538 8.4126 96.1864 5.42334 96.1864ZM5.42334 87.3438C3.53564 87.3438 2 88.8778 2 90.7645C2 92.6513 3.53564 94.1864 5.42334 94.1864C7.30957 94.1864 8.84424 92.6513 8.84424 90.7645C8.84424 88.8778 7.30957 87.3438 5.42334 87.3438Z" fill="#55B1F3"/>
<path d="M74.3734 110.702L71.1266 107.482L72.2723 106.328L74.3448 104.237L70.8237 100.749L68.7512 102.839L67.6057 103.993L64.3588 100.777L60.8682 104.298L64.115 107.514L60.8987 110.763L64.4198 114.252L67.6378 111.007L70.8846 114.223L74.3734 110.702Z" fill="#55B1F3"/>
<path d="M85.1187 47.5749C84.3143 43.0674 81.4829 40.9395 74.8462 40.3063C70.0928 39.838 68.9425 39.1884 68.6122 37.3373C68.3791 36.0312 68.8656 34.2927 71.5844 33.8075C74.82 33.23 75.7083 35.0334 76.2229 36.1554L82.2286 35.0836C81.3268 31.8435 78.8714 28.9331 73.4746 29.0745L72.9893 26.3555L67.9579 27.2534L68.4539 30.0323C64.5771 31.5081 61.9039 34.7164 62.6687 39.0018C63.3786 42.9795 65.9368 45.2453 73.4496 46.0262C77.5749 46.4457 78.8561 47.265 79.2265 49.3403C79.5286 51.0334 78.7953 52.7144 75.6663 53.2728C73.1375 53.7241 71.2085 52.647 70.3321 50.5499L64.3314 51.6208C65.3898 55.6492 68.7343 58.1245 73.7528 57.9974L74.361 61.4052L79.4296 60.5006L78.819 57.0794C83.3292 55.5565 85.9707 52.3488 85.1187 47.5749Z" fill="#0010F7"/>
<path d="M359.615 132.932C359.13 132.259 358.42 131.83 357.615 131.722L337.753 129.08L337.731 129.246C337.686 129.208 337.644 129.165 337.591 129.134C337.242 128.932 336.804 128.96 336.482 129.206L322.053 140.249C321.732 140.495 321.59 140.91 321.694 141.3C321.714 141.374 321.749 141.441 321.784 141.507L321.593 141.481L317.599 171.504C317.49 172.322 317.689 173.134 318.159 173.788C318.642 174.463 319.353 174.893 320.16 175L333.164 176.73L333.428 174.748L320.423 173.017C320.169 172.983 319.942 172.843 319.784 172.623C319.612 172.383 319.54 172.079 319.581 171.767L323.52 142.166L332.914 143.416C333.065 143.436 333.215 143.446 333.365 143.446C334.101 143.446 334.813 143.206 335.407 142.75C336.122 142.202 336.581 141.409 336.699 140.517L337.949 131.123L357.352 133.705C357.605 133.739 357.833 133.88 357.992 134.101C358.165 134.341 358.237 134.643 358.196 134.953L356.106 150.668L358.088 150.931L360.179 135.217C360.288 134.399 360.087 133.588 359.615 132.932ZM334.717 140.254C334.669 140.617 334.482 140.939 334.19 141.163C333.899 141.385 333.538 141.477 333.178 141.433L325.185 140.37L335.78 132.261L334.717 140.254Z" fill="#0010F7"/>
<path d="M348.308 182.016C348.151 182.016 347.994 182.003 347.835 181.975C347.089 181.909 346.36 181.474 345.913 180.794L341.334 173.838C340.944 173.244 340.805 172.528 340.943 171.822C341.09 171.111 341.5 170.507 342.099 170.109C342.699 169.715 343.416 169.578 344.118 169.719C344.83 169.866 345.436 170.277 345.829 170.88L346.468 171.848L347.316 165.471C347.512 164.001 348.87 162.965 350.337 163.158C351.049 163.253 351.683 163.619 352.12 164.19C352.557 164.761 352.745 165.469 352.65 166.18L351.79 172.65L352.753 171.799C353.867 170.818 355.569 170.922 356.551 172.028C357.027 172.567 357.265 173.259 357.221 173.976C357.22 174.025 357.212 174.096 357.204 174.163L357.203 174.171C357.117 174.813 356.803 175.403 356.318 175.831L350.077 181.35C349.585 181.784 348.959 182.016 348.308 182.016ZM343.578 171.664C343.445 171.664 343.316 171.702 343.201 171.778C343.045 171.881 342.941 172.034 342.904 172.216C342.868 172.398 342.902 172.583 343.005 172.739L347.584 179.695C347.696 179.865 347.883 179.974 348.099 179.994C348.389 180.045 348.6 179.986 348.753 179.851L354.993 174.333C355.119 174.221 355.197 174.075 355.22 173.909C355.236 173.667 355.177 173.494 355.054 173.354C354.802 173.072 354.363 173.046 354.077 173.298L349.1 177.697L350.668 165.917C350.692 165.734 350.644 165.553 350.531 165.406C350.419 165.26 350.256 165.165 350.073 165.14C349.892 165.116 349.71 165.164 349.564 165.276C349.418 165.388 349.323 165.552 349.299 165.735L347.744 177.419L344.157 171.977C344.054 171.818 343.903 171.717 343.719 171.678C343.671 171.669 343.624 171.664 343.578 171.664Z" fill="#0010F7"/>
<path d="M333.241 155.064L332.02 154.901L331.648 157.699L330.187 157.504L331.156 150.219L333.838 150.576C335.591 150.809 336.337 151.918 336.169 153.181C336.022 154.287 335.119 155.314 333.241 155.064ZM333.336 153.876C334.16 153.987 334.579 153.627 334.665 152.981C334.754 152.313 334.442 151.868 333.617 151.758L332.458 151.604L332.177 153.722L333.336 153.876Z" fill="#0063F7"/>
<path d="M343.4 155.566C343.107 157.768 341.403 158.997 339.075 158.687L336.529 158.348L337.497 151.063L340.044 151.402C342.371 151.711 343.694 153.353 343.4 155.566ZM339.189 157.438C340.722 157.642 341.705 156.88 341.906 155.368C342.108 153.854 341.362 152.831 339.828 152.626L338.795 152.489L338.155 157.3L339.189 157.438Z" fill="#0063F7"/>
<path d="M344.977 152.058L349.475 152.657L349.319 153.836L346.281 153.432L346.032 155.3L348.361 155.61L348.206 156.769L345.878 156.458L345.469 159.538L344.008 159.343L344.977 152.058Z" fill="#0063F7"/>
<path d="M198.363 8.44551C198.873 7.14167 199.575 5.92744 200.48 4.79847C201.384 3.67195 202.448 2.72199 203.68 1.95381C204.913 1.18202 206.288 0.628428 207.813 0.28657C209.337 -0.0552267 210.976 -0.0909322 212.721 0.177622C215.17 0.554637 217.205 1.41737 218.832 2.7693C220.449 4.11976 221.571 5.7237 222.173 7.58253L217.779 9.70753C217.544 8.90357 217.22 8.20728 216.796 7.61701C216.371 7.02668 215.902 6.53993 215.373 6.15052C214.844 5.76246 214.278 5.45228 213.677 5.21845C213.07 4.98518 212.472 4.82325 211.873 4.73103C210.895 4.58045 209.99 4.59223 209.158 4.7718C208.326 4.95039 207.568 5.25074 206.89 5.67134C206.208 6.08998 205.607 6.61323 205.08 7.23359C204.543 7.85621 204.109 8.53749 203.764 9.27699L213.359 10.7541L211.811 13.3525L202.849 11.9727L202.785 12.3875C202.704 12.9123 202.666 13.4178 202.669 13.9052L211.44 15.2553L209.886 17.8557L203.028 16.7999C203.46 18.2988 204.205 19.5776 205.259 20.6363C206.313 21.6928 207.626 22.3425 209.198 22.5846C209.797 22.6768 210.436 22.6979 211.111 22.6498C211.776 22.5989 212.436 22.4564 213.07 22.2239C213.71 21.9888 214.316 21.6516 214.898 21.2165C215.475 20.7826 215.968 20.2245 216.382 19.5474L220.243 22.6343C219.663 23.569 218.923 24.3566 218.015 24.9981C217.112 25.6402 216.126 26.1461 215.058 26.5199C213.985 26.8908 212.874 27.1295 211.706 27.2316C210.542 27.3333 209.414 27.2996 208.345 27.135C206.869 26.9078 205.527 26.4472 204.315 25.7492C203.103 25.0487 202.041 24.2032 201.12 23.2029C200.2 22.2038 199.445 21.0831 198.856 19.842C198.267 18.5996 197.858 17.3075 197.627 15.9683L193.731 15.3685L195.318 12.7733L197.417 13.0965C197.426 12.5618 197.472 12.0036 197.561 11.4299L197.601 11.1649L194.975 10.7605L196.528 8.16285L198.363 8.44551Z" fill="#0010F7"/>
<path d="M268.277 116.921C268.95 116.921 269.495 116.376 269.495 115.703C269.495 115.031 268.95 114.485 268.277 114.485C267.605 114.485 267.059 115.031 267.059 115.703C267.059 116.376 267.605 116.921 268.277 116.921Z" fill="white"/>
<path d="M263.406 116.921C264.078 116.921 264.624 116.376 264.624 115.703C264.624 115.031 264.078 114.485 263.406 114.485C262.733 114.485 262.188 115.031 262.188 115.703C262.188 116.376 262.733 116.921 263.406 116.921Z" fill="white"/>
<path d="M258.766 116.921C259.439 116.921 259.984 116.376 259.984 115.703C259.984 115.031 259.439 114.485 258.766 114.485C258.094 114.485 257.549 115.031 257.549 115.703C257.549 116.376 258.094 116.921 258.766 116.921Z" fill="white"/>
<path d="M226.583 81.2927L237.105 81.2555C237.76 81.2555 238.291 80.5463 238.291 79.672V76.5042C238.291 72.137 235.635 68.585 232.37 68.585C229.106 68.585 226.452 72.137 226.452 76.5042V79.672" fill="#0063F7"/>
<path d="M232.37 67.7852C232.122 67.7852 231.877 67.8057 231.636 67.8398H165.586C162.497 67.8398 159.984 70.3516 159.984 73.4404V146.662H147.426C146.111 146.662 145.042 147.731 145.042 149.046V152.214C145.042 156.841 146.82 160.627 151.24 160.906C151.346 160.953 151.462 160.982 151.586 160.982H221.709C224.798 160.982 227.312 158.47 227.312 155.381V105.843C227.312 105.652 227.237 105.484 227.131 105.343H225.793C225.687 105.484 225.612 105.652 225.612 105.843V155.381C225.612 156.678 224.969 157.822 223.991 158.532C221.944 158.476 219.311 157.838 217.717 156.166C216.725 155.126 216.258 153.809 216.332 152.214V149.046C216.332 147.731 215.263 146.662 213.948 146.662H161.684V73.4404C161.684 71.2891 163.435 69.5391 165.586 69.5391H228.346C226.714 71.1311 225.652 73.6562 225.652 76.5039V79.6719C225.652 79.689 225.661 79.7034 225.662 79.7202V90.3425H227.262V82.0903L237.105 82.0557C238.219 82.0557 239.091 81.0088 239.091 79.6719V76.5039C239.091 71.6963 236.076 67.7852 232.37 67.7852ZM213.948 148.262C214.381 148.262 214.732 148.613 214.732 149.046L214.733 152.177C214.639 154.188 215.253 155.901 216.56 157.271C217.364 158.114 218.431 158.795 219.656 159.283H151.586C151.529 159.283 151.48 159.305 151.426 159.315C147.773 159.133 146.642 156.023 146.642 152.214V149.046C146.642 148.613 146.993 148.262 147.426 148.262H213.948ZM237.491 79.6719C237.491 80.1504 237.238 80.4561 237.102 80.4561L227.262 80.4907V79.0371C227.262 79.02 227.253 79.0056 227.252 78.9888V76.5039C227.252 73.082 228.997 70.2183 231.314 69.5391H232.954C233.043 69.5391 233.125 69.5137 233.206 69.4883C235.633 70.0459 237.491 72.9749 237.491 76.5039V79.6719Z" fill="#0010F7"/>
<path d="M225.662 90.3425V79.7202C225.661 79.7034 225.652 79.689 225.652 79.6719V76.5039C225.652 73.6562 226.714 71.1311 228.346 69.5391H165.586C163.435 69.5391 161.684 71.2891 161.684 73.4404V146.662H213.948C215.263 146.662 216.332 147.731 216.332 149.046V152.214C216.258 153.809 216.725 155.126 217.717 156.166C219.312 157.838 221.944 158.476 223.991 158.532C224.969 157.822 225.612 156.678 225.612 155.381V105.843C225.612 105.652 225.687 105.484 225.793 105.343H226.38V90.3425H225.662Z" fill="white"/>
<path d="M151.426 159.315C151.48 159.305 151.529 159.283 151.586 159.283H219.656C218.431 158.795 217.364 158.114 216.56 157.271C215.253 155.901 214.639 154.188 214.733 152.177L214.732 149.046C214.732 148.613 214.381 148.262 213.948 148.262H147.426C146.993 148.262 146.642 148.613 146.642 149.046V152.214C146.642 156.023 147.773 159.133 151.426 159.315Z" fill="white"/>
<path d="M213.291 83.5977H175.291C174.739 83.5977 174.291 83.1504 174.291 82.5977C174.291 82.0449 174.739 81.5977 175.291 81.5977H213.291C213.843 81.5977 214.291 82.0449 214.291 82.5977C214.291 83.1504 213.843 83.5977 213.291 83.5977Z" fill="#0010F7"/>
<path d="M212.291 114.911H175.291C174.739 114.911 174.291 114.464 174.291 113.911C174.291 113.358 174.739 112.911 175.291 112.911H212.291C212.843 112.911 213.291 113.358 213.291 113.911C213.291 114.464 212.843 114.911 212.291 114.911Z" fill="#0010F7"/>
<path d="M212.291 122.245H175.291C174.739 122.245 174.291 121.798 174.291 121.245C174.291 120.692 174.739 120.245 175.291 120.245H212.291C212.843 120.245 213.291 120.692 213.291 121.245C213.291 121.798 212.843 122.245 212.291 122.245Z" fill="#0010F7"/>
<path d="M194.291 129.578H175.291C174.739 129.578 174.291 129.131 174.291 128.578C174.291 128.025 174.739 127.578 175.291 127.578H194.291C194.843 127.578 195.291 128.025 195.291 128.578C195.291 129.131 194.843 129.578 194.291 129.578Z" fill="#0010F7"/>
<path d="M194.291 136.911H175.291C174.739 136.911 174.291 136.464 174.291 135.911C174.291 135.358 174.739 134.911 175.291 134.911H194.291C194.843 134.911 195.291 135.358 195.291 135.911C195.291 136.464 194.843 136.911 194.291 136.911Z" fill="#0010F7"/>
<path d="M231.291 90.3428H227.262H225.662H186.291C185.191 90.3428 184.291 91.2429 184.291 92.3428V103.343C184.291 104.443 185.191 105.343 186.291 105.343H225.793H227.131H231.291C232.391 105.343 233.291 104.443 233.291 103.343V92.3428C233.291 91.2429 232.391 90.3428 231.291 90.3428Z" fill="#C903FF"/>
<path d="M191.209 94.3662H192.608V101.343H191.209V94.3662Z" fill="white"/>
<path d="M197.867 98.2842C197.867 97.3945 197.378 96.915 196.638 96.915C195.878 96.915 195.389 97.3945 195.389 98.2842V101.343H193.989V95.8057H195.389V96.4951C195.748 96.0254 196.348 95.7256 197.058 95.7256C198.347 95.7256 199.267 96.5654 199.267 98.0947V101.343H197.867V98.2842Z" fill="white"/>
<path d="M201.508 95.8057L202.907 100.054L204.307 95.8057H205.796L203.747 101.343H202.048L200.009 95.8057H201.508Z" fill="white"/>
<path d="M209.048 101.433C207.448 101.433 206.239 100.313 206.239 98.5742C206.239 96.8252 207.488 95.7158 209.088 95.7158C210.687 95.7158 211.937 96.8252 211.937 98.5742C211.937 100.313 210.657 101.433 209.048 101.433ZM209.048 100.214C209.787 100.214 210.497 99.6738 210.497 98.5742C210.497 97.4648 209.808 96.9355 209.067 96.9355C208.328 96.9355 207.658 97.4648 207.658 98.5742C207.658 99.6738 208.298 100.214 209.048 100.214Z" fill="white"/>
<path d="M212.819 94.3262C212.819 93.8672 213.179 93.5068 213.679 93.5068C214.168 93.5068 214.538 93.8672 214.538 94.3262C214.538 94.7861 214.168 95.1465 213.679 95.1465C213.179 95.1465 212.819 94.7861 212.819 94.3262ZM212.969 95.8057H214.368V101.343H212.969V95.8057Z" fill="white"/>
<path d="M218.128 95.7158C219.507 95.7158 220.437 96.4355 220.736 97.6748H219.228C219.067 97.2051 218.697 96.9053 218.118 96.9053C217.338 96.9053 216.818 97.4951 216.818 98.5742C216.818 99.6533 217.338 100.233 218.118 100.233C218.697 100.233 219.058 99.9736 219.228 99.4736H220.736C220.437 100.653 219.507 101.433 218.128 101.433C216.528 101.433 215.39 100.313 215.39 98.5742C215.39 96.835 216.528 95.7158 218.128 95.7158Z" fill="white"/>
<path d="M224.188 101.433C222.578 101.433 221.409 100.313 221.409 98.5742C221.409 96.8252 222.548 95.7158 224.188 95.7158C225.786 95.7158 226.916 96.8057 226.916 98.4541C226.916 98.6338 226.906 98.8145 226.876 98.9941H222.828C222.898 99.8135 223.458 100.273 224.157 100.273C224.757 100.273 225.087 99.9736 225.267 99.6035H226.776C226.477 100.623 225.557 101.433 224.188 101.433ZM222.838 98.0547H225.467C225.446 97.3252 224.867 96.8652 224.147 96.8652C223.478 96.8652 222.948 97.2949 222.838 98.0547Z" fill="white"/>
<path d="M64.8837 176.494L17.7658 188.337C16.1656 188.74 14.5272 187.759 14.125 186.159L6.70624 156.643C6.30402 155.043 7.28421 153.405 8.88443 153.003L56.0024 141.16C57.6026 140.757 59.241 141.738 59.6432 143.338L67.062 172.854C67.4641 174.454 66.4839 176.092 64.8837 176.494Z" fill="#0010F7"/>
<path d="M16.6217 167.882C15.8707 167.882 15.1769 167.322 14.9879 166.507L13.4088 159.7C13.192 158.762 13.7228 157.836 14.5919 157.633L25.0187 155.214C25.8917 155.007 26.7741 155.61 26.9918 156.549L28.5709 163.355C28.6686 163.776 28.6198 164.214 28.4332 164.586C28.2184 165.013 27.8371 165.319 27.3874 165.424L16.9621 167.842C16.8483 167.869 16.7345 167.882 16.6217 167.882ZM15.4142 159.495L16.879 165.809L26.5656 163.561L25.1007 157.247L15.4142 159.495ZM26.6227 163.807C26.6227 163.807 26.6227 163.807 26.6227 163.808V163.807Z" fill="white"/>
<path d="M57.9197 163.824L47.1143 166.469L47.5899 168.412L58.3953 165.768L57.9197 163.824Z" fill="white"/>
<path d="M41.5189 168.089L33.2542 170.118L33.7309 172.061L41.9957 170.032L41.5189 168.089Z" fill="white"/>
<path d="M29.0588 171.146L17.9312 173.875L18.4077 175.818L29.5353 173.089L29.0588 171.146Z" fill="white"/>
<path d="M30.0588 176.146L18.9312 178.875L19.4077 180.818L30.5353 178.089L30.0588 176.146Z" fill="white"/>
<path d="M34.7564 159.632L34.6666 159.232C34.5531 159.297 34.4423 159.354 34.3344 159.404C34.2269 159.453 34.1129 159.492 33.9921 159.519C33.7123 159.582 33.4788 159.54 33.2911 159.393C33.1035 159.247 32.9701 158.999 32.8913 158.649C32.8163 158.315 32.8346 158.037 32.9449 157.813C33.0557 157.588 33.2451 157.446 33.513 157.386C33.6312 157.36 33.7476 157.352 33.8626 157.361C33.9772 157.372 34.0881 157.39 34.1947 157.413L34.2749 156.987C34.0008 156.921 33.7178 156.921 33.4265 156.987C33.1501 157.048 32.922 157.16 32.7437 157.325C32.5647 157.489 32.446 157.695 32.3877 157.942C32.329 158.189 32.3329 158.46 32.3994 158.757C32.5052 159.227 32.698 159.563 32.9785 159.766C33.2587 159.968 33.6075 160.023 34.0243 159.929C34.3079 159.865 34.5517 159.766 34.7564 159.632Z" fill="white"/>
<path d="M35.7993 159.489L35.5464 158.362C35.5033 158.172 35.5254 158.003 35.6122 157.859C35.699 157.713 35.834 157.621 36.0173 157.579C36.0875 157.564 36.1566 157.556 36.2254 157.557L36.1742 157.12C36.1117 157.12 36.0341 157.13 35.9418 157.151C35.8091 157.181 35.6939 157.248 35.5958 157.348C35.4977 157.449 35.4271 157.572 35.3847 157.717L35.3617 157.722L35.2155 157.356L34.8569 157.437L35.3412 159.592L35.7993 159.489Z" fill="white"/>
<path d="M37.1605 158.916C37.394 159.069 37.6774 159.108 38.0129 159.034C38.1597 159 38.288 158.96 38.3972 158.912C38.5068 158.864 38.6114 158.801 38.7113 158.722L38.6274 158.35C38.5141 158.435 38.4048 158.501 38.3007 158.549C38.1965 158.599 38.0805 158.637 37.9529 158.665C37.7594 158.709 37.5966 158.687 37.4647 158.598C37.3331 158.509 37.2405 158.362 37.1869 158.154L38.6235 157.831L38.5678 157.583C38.4998 157.281 38.3638 157.062 38.1598 156.926C37.9558 156.79 37.7119 156.754 37.427 156.818C37.1208 156.887 36.9023 157.042 36.772 157.283C36.6417 157.524 36.6161 157.82 36.6952 158.172C36.7725 158.516 36.9274 158.764 37.1605 158.916ZM37.1866 157.382C37.2534 157.27 37.3595 157.198 37.505 157.166C37.6508 157.133 37.7757 157.152 37.879 157.225C37.9832 157.299 38.0562 157.423 38.0989 157.6L37.1199 157.82C37.0976 157.64 37.1194 157.494 37.1866 157.382Z" fill="white"/>
<path d="M39.4031 158.414C39.5979 158.575 39.8291 158.625 40.0982 158.565C40.3815 158.501 40.5725 158.346 40.6714 158.099L40.693 158.094L40.8361 158.358L41.1954 158.277L40.5135 155.244L40.0533 155.348L40.2297 156.133C40.2498 156.223 40.2888 156.343 40.3454 156.492L40.322 156.498C40.1268 156.321 39.8878 156.266 39.6046 156.329C39.3341 156.39 39.1446 156.536 39.0362 156.767C38.9281 156.998 38.9132 157.291 38.9927 157.644C39.0717 157.997 39.2087 158.253 39.4031 158.414ZM39.4716 156.958C39.529 156.808 39.6387 156.715 39.7995 156.679C39.9883 156.637 40.1391 156.663 40.2532 156.757C40.3673 156.851 40.455 157.034 40.5159 157.306L40.5308 157.371C40.5813 157.609 40.5757 157.79 40.5135 157.916C40.4518 158.041 40.3267 158.125 40.1379 158.168C39.9691 158.206 39.8283 158.171 39.7158 158.064C39.603 157.958 39.52 157.786 39.4661 157.547C39.412 157.304 39.4138 157.108 39.4716 156.958Z" fill="white"/>
<path d="M41.8245 155.872L41.3669 155.975L41.8497 158.13L42.3072 158.028L41.8245 155.872Z" fill="white"/>
<path d="M41.5263 155.603C41.6062 155.585 41.6639 155.548 41.6986 155.492C41.734 155.439 41.742 155.371 41.725 155.293C41.7064 155.212 41.6701 155.154 41.6155 155.12C41.5608 155.085 41.4926 155.077 41.4118 155.095C41.3285 155.114 41.2699 155.151 41.2353 155.205C41.1998 155.259 41.1918 155.328 41.2096 155.409C41.2274 155.487 41.2637 155.544 41.3192 155.578C41.3739 155.613 41.4429 155.621 41.5263 155.603Z" fill="white"/>
<path d="M43.6917 157.369C43.6024 157.389 43.5242 157.379 43.457 157.339C43.3898 157.298 43.344 157.223 43.3195 157.112L43.0594 155.958L43.6736 155.82L43.5955 155.474L42.9823 155.612L42.8737 155.132L42.5914 155.195L42.5374 155.686L42.2598 155.925L42.3059 156.128L42.6002 156.061L42.8608 157.223C42.9633 157.681 43.2323 157.861 43.6661 157.763C43.7511 157.744 43.833 157.718 43.9092 157.685C43.9854 157.651 44.0472 157.62 44.093 157.586L44.015 157.24C43.9118 157.3 43.804 157.344 43.6917 157.369Z" fill="white"/>
<path d="M47.0925 156.538C46.9854 156.587 46.871 156.626 46.7502 156.653C46.4704 156.715 46.2369 156.674 46.0488 156.528C45.8616 156.381 45.7282 156.133 45.6494 155.783C45.5752 155.45 45.5923 155.171 45.703 154.947C45.8138 154.723 46.0032 154.58 46.2711 154.52C46.3893 154.493 46.5061 154.486 46.6207 154.495C46.7353 154.506 46.8462 154.523 46.9528 154.547L47.0334 154.122C46.7585 154.054 46.4763 154.055 46.1855 154.12C45.9082 154.182 45.6801 154.294 45.5018 154.459C45.3228 154.623 45.2041 154.829 45.1458 155.076C45.0875 155.323 45.091 155.593 45.1579 155.89C45.2633 156.361 45.4565 156.697 45.7366 156.9C46.0176 157.102 46.3656 157.156 46.7824 157.063C47.0664 156.999 47.3102 156.9 47.5145 156.765L47.4247 156.366C47.3112 156.43 47.2004 156.489 47.0925 156.538Z" fill="white"/>
<path d="M48.6305 156.648C48.7955 156.61 48.9256 156.556 49.0199 156.485C49.115 156.414 49.1995 156.302 49.2735 156.148L49.2897 156.144L49.4483 156.423L49.7758 156.349L49.4497 154.897C49.3926 154.641 49.2796 154.469 49.1134 154.38C48.9472 154.293 48.7263 154.279 48.4524 154.34C48.3291 154.369 48.2018 154.414 48.0698 154.476C47.9378 154.54 47.8198 154.615 47.7166 154.703L47.9381 154.997C48.0221 154.931 48.1109 154.872 48.2047 154.816C48.2993 154.761 48.401 154.721 48.5116 154.696C48.6468 154.666 48.7546 154.677 48.834 154.732C48.9135 154.785 48.9688 154.88 49 155.019L49.026 155.133L48.6565 155.229C48.3202 155.315 48.0826 155.433 47.9428 155.583C47.8039 155.734 47.7585 155.92 47.8091 156.143C47.8558 156.352 47.9518 156.5 48.096 156.587C48.2403 156.675 48.4188 156.695 48.6305 156.648ZM48.3663 155.711C48.45 155.624 48.5984 155.554 48.8121 155.497L49.0863 155.423L49.1287 155.611C49.1667 155.778 49.1454 155.919 49.0659 156.034C48.9854 156.151 48.8623 156.226 48.6956 156.264C48.5816 156.29 48.4897 156.283 48.4208 156.243C48.352 156.204 48.3068 156.135 48.2852 156.04C48.2555 155.907 48.2826 155.796 48.3663 155.711Z" fill="white"/>
<path d="M50.8731 156.103L50.6206 154.976C50.5775 154.785 50.5995 154.617 50.6868 154.473C50.7732 154.327 50.9087 154.234 51.0915 154.193C51.1621 154.178 51.2308 154.17 51.2992 154.171L51.2484 153.733C51.1859 153.734 51.1079 153.744 51.016 153.765C50.8834 153.795 50.7682 153.861 50.6704 153.962C50.5719 154.063 50.5013 154.186 50.4589 154.331L50.4359 154.336L50.2901 153.97L49.9312 154.051L50.4155 156.206L50.8731 156.103Z" fill="white"/>
<path d="M52.1766 155.544C52.3718 155.705 52.6034 155.756 52.8722 155.695C53.1554 155.632 53.3469 155.475 53.4457 155.228L53.4669 155.224L53.61 155.488L53.9689 155.408L53.287 152.375L52.8277 152.478L53.0037 153.263C53.0237 153.353 53.0622 153.473 53.1193 153.622L53.0963 153.627C52.9007 153.451 52.6617 153.395 52.3785 153.459C52.108 153.52 51.9185 153.666 51.8101 153.898C51.7016 154.128 51.6867 154.421 51.767 154.774C51.8457 155.127 51.9822 155.383 52.1766 155.544ZM52.2451 154.088C52.3029 153.938 52.4122 153.845 52.5738 153.809C52.7618 153.766 52.913 153.792 53.0275 153.887C53.1412 153.982 53.2285 154.164 53.2893 154.436L53.3042 154.501C53.3552 154.738 53.3496 154.921 53.2874 155.046C53.2253 155.171 53.1002 155.255 52.9123 155.297C52.743 155.335 52.6022 155.301 52.4898 155.194C52.3773 155.088 52.2939 154.915 52.2397 154.676C52.1863 154.434 52.1873 154.238 52.2451 154.088Z" fill="white"/>
</g>
<defs>
<clipPath id="clip0_5551:117065">
<rect width="361" height="230" fill="white"/>
</clipPath>
</defs>
</svg>
