<svg width="379" height="242" viewBox="0 0 379 242" fill="none" xmlns="http://www.w3.org/2000/svg">
<g clip-path="url(#clip0_5551:116962)">
<path d="M282.913 142.86C282.853 190.765 211.307 216.451 163.403 216.391C115.498 216.332 76.742 152.044 76.8013 104.139C76.8607 56.2332 115.713 42.85 163.618 42.9094C211.522 42.9687 282.972 94.9543 282.913 142.86Z" fill="#EBFAFA"/>
<path d="M51.4612 204.037L30.0159 203.872C29.9974 203.872 29.9788 203.872 29.9612 203.872C26.4827 203.872 23.6331 206.884 23.5989 210.614C23.5657 214.365 26.388 217.441 29.8919 217.473L51.3362 217.638C51.3548 217.638 51.3733 217.638 51.3909 217.638C54.8704 217.638 57.72 214.625 57.7542 210.896C57.7874 207.145 54.9651 204.069 51.4612 204.037Z" fill="#0010F7"/>
<path d="M52.9006 208.354L52.0022 207.415L49.5664 209.741L47.1731 207.37L46.2571 208.293L48.6252 210.641L46.2151 212.943L47.1135 213.882L49.5488 211.556L51.9417 213.927L52.8577 213.003L50.49 210.657L52.9006 208.354Z" fill="white"/>
<path d="M50.1878 164.018C48.9983 162.713 47.4046 161.987 45.7005 161.971L24.2552 161.806C22.511 161.814 20.9446 162.487 19.7317 163.769C18.5276 165.042 17.8548 166.738 17.8382 168.547C17.805 172.297 20.6272 175.375 24.1311 175.408L45.5755 175.573C45.594 175.573 45.6126 175.573 45.6311 175.573C47.3147 175.573 48.9007 174.876 50.0999 173.609C51.304 172.336 51.9759 170.64 51.9925 168.831C52.0091 167.021 51.3685 165.312 50.1878 164.018Z" fill="#0010F7"/>
<path d="M47.1399 166.289L46.2415 165.349L43.8057 167.676L41.4124 165.304L40.4963 166.228L42.8645 168.575L40.4543 170.877L41.3528 171.817L43.7881 169.49L46.1809 171.862L47.0969 170.938L44.7292 168.591L47.1399 166.289Z" fill="white"/>
<path d="M74.3597 185.16C73.1702 183.855 71.5765 183.129 69.8724 183.113L52.5257 182.953C50.7923 182.927 49.2142 183.635 48.0013 184.917C46.7972 186.189 46.1253 187.886 46.1087 189.695C46.0921 191.505 46.7327 193.214 47.9134 194.507C49.1029 195.812 50.6966 196.539 52.3997 196.554L69.7464 196.715C69.7659 196.715 69.7845 196.715 69.804 196.715C71.4866 196.715 73.0716 196.018 74.2718 194.751C75.4749 193.479 76.1478 191.782 76.1644 189.972C76.181 188.163 75.5404 186.454 74.3597 185.16Z" fill="#0010F7"/>
<path d="M71.3108 187.43L70.4124 186.491L67.9763 188.818L65.5823 186.446L64.6682 187.37L67.0361 189.716L64.6252 192.019L65.5237 192.958L67.9597 190.631L70.3538 193.003L71.2678 192.08L68.8999 189.733L71.3108 187.43Z" fill="white"/>
<path d="M29.9115 182.786L6.41732 182.619C6.39779 182.619 6.37923 182.619 6.3597 182.619C4.67708 182.619 3.0931 183.314 1.8929 184.582C0.689778 185.854 0.0169264 187.55 0.000324918 189.36C-0.0348314 193.11 2.78743 196.187 6.29232 196.22L29.7865 196.387C29.806 196.387 29.8245 196.387 29.8441 196.387C31.5267 196.387 33.1117 195.691 34.3118 194.423C35.515 193.152 36.1878 191.455 36.2044 189.645C36.2376 185.894 33.4154 182.818 29.9115 182.786Z" fill="#0010F7"/>
<path d="M31.3508 187.103L30.4524 186.164L28.0166 188.49L25.6233 186.119L24.7073 187.042L27.0754 189.39L24.6653 191.692L25.5637 192.631L27.999 190.305L30.3918 192.676L31.3079 191.752L28.9402 189.406L31.3508 187.103Z" fill="white"/>
<path d="M321.821 176.178C321.823 174.377 320.585 172.902 319.069 172.9L305.287 172.883C303.771 172.881 302.528 174.353 302.526 176.154L302.5 197.086L321.795 197.11L321.821 176.178Z" fill="#0063F7"/>
<path d="M372.365 197.173C372.385 197.014 372.399 196.853 372.399 196.688L372.413 185.159C372.416 183.291 371.1 181.76 369.49 181.758L355.687 181.741C354.076 181.739 352.757 183.266 352.755 185.135L352.74 196.663C352.74 196.828 352.754 196.99 352.773 197.149L372.365 197.173Z" fill="#0063F7"/>
<path d="M376.642 202.518L299.7 202.422C298.834 202.421 298.126 201.712 298.127 200.846L298.13 198.656C298.131 197.79 298.84 197.082 299.706 197.083L376.648 197.178C377.515 197.179 378.222 197.889 378.221 198.755L378.219 200.945C378.217 201.811 377.508 202.519 376.642 202.518Z" fill="#0010F7"/>
<path d="M347.279 197.142L347.317 166.62C347.319 164.819 346.007 163.344 344.401 163.342L330.218 163.325C328.612 163.323 327.296 164.795 327.294 166.595L327.256 197.117L347.279 197.142Z" fill="#0063F7"/>
<path d="M316.358 169.646L309.387 169.636L309.23 167.104C309.142 165.398 309.053 163.692 308.97 161.986L308.67 161.867C308.402 161.759 308.134 161.651 307.864 161.548C307.357 161.353 307.057 160.912 307.061 160.368C307.064 159.818 307.062 159.265 307.061 158.711C307.058 157.607 307.056 156.502 307.083 155.398C307.15 152.863 309.015 150.595 311.519 150.006C313.078 149.639 314.673 149.887 316.001 150.707C317.331 151.528 318.266 152.84 318.633 154.403C318.722 154.78 318.768 155.194 318.771 155.633C318.777 156.589 318.776 157.545 318.774 158.501V160.358C318.774 160.932 318.472 161.373 317.945 161.57C317.673 161.672 317.402 161.781 317.131 161.889C317.041 161.925 316.95 161.962 316.86 161.999C316.772 163.656 316.501 168.607 316.477 168.781L316.358 169.646ZM311.26 167.638L314.545 167.643C314.638 166.031 314.821 162.741 314.885 161.459C314.912 160.911 315.223 160.485 315.736 160.291C315.95 160.209 316.168 160.121 316.387 160.034C316.516 159.982 316.645 159.93 316.774 159.878V158.5C316.776 157.548 316.777 156.597 316.771 155.645C316.769 155.356 316.74 155.092 316.686 154.861C316.442 153.819 315.825 152.949 314.951 152.409C314.076 151.87 313.018 151.707 311.977 151.954C310.369 152.332 309.125 153.834 309.083 155.45C309.055 156.535 309.058 157.621 309.061 158.707C309.062 159.094 309.063 159.482 309.062 159.87C309.181 159.917 309.299 159.964 309.417 160.012L310.087 160.278C310.801 160.557 310.932 161.138 310.946 161.459C311.035 163.305 311.131 165.152 311.227 167L311.26 167.638ZM316.454 162.158C316.452 162.158 316.45 162.159 316.448 162.16C316.45 162.159 316.452 162.158 316.454 162.158ZM309.357 162.14C309.358 162.141 309.36 162.141 309.361 162.142L309.357 162.14ZM308.948 161.553C308.948 161.554 308.948 161.555 308.948 161.556C308.948 161.555 308.948 161.554 308.948 161.553ZM309.061 160.376C309.061 160.378 309.061 160.379 309.061 160.38C309.061 160.379 309.061 160.378 309.061 160.376Z" fill="#0010F7"/>
<path d="M312.934 149.125C312.932 149.125 312.93 149.125 312.929 149.125C310.89 149.123 309.231 147.465 309.23 145.43C309.229 144.444 309.617 143.512 310.324 142.807C311.028 142.105 311.953 141.719 312.934 141.719C312.937 141.719 312.94 141.719 312.944 141.719C313.93 141.722 314.86 142.114 315.562 142.822C316.264 143.53 316.647 144.461 316.641 145.446C316.627 147.475 314.965 149.125 312.934 149.125ZM312.934 143.719C312.488 143.719 312.063 143.898 311.738 144.222C311.409 144.549 311.23 144.978 311.23 145.428C311.231 146.347 312.009 147.124 312.931 147.125C312.932 147.125 312.933 147.125 312.934 147.125C313.853 147.125 314.635 146.35 314.641 145.433C314.644 144.985 314.466 144.557 314.142 144.23C313.817 143.902 313.389 143.72 312.938 143.719C312.937 143.719 312.935 143.719 312.934 143.719Z" fill="#0010F7"/>
<path d="M340.929 159.788L333.949 159.779L333.792 157.246C333.704 155.54 333.615 153.834 333.532 152.128L333.233 152.009C332.965 151.902 332.696 151.793 332.427 151.691C331.92 151.491 331.622 151.055 331.622 150.518C331.625 149.965 331.623 149.417 331.622 148.869C331.619 147.76 331.617 146.65 331.646 145.539C331.711 143.005 333.576 140.738 336.08 140.149C337.64 139.782 339.234 140.029 340.564 140.849C341.894 141.67 342.828 142.983 343.195 144.545C343.284 144.922 343.33 145.336 343.333 145.776C343.339 146.732 343.338 147.688 343.336 148.644V150.5C343.336 151.074 343.034 151.515 342.508 151.712C342.244 151.811 341.982 151.916 341.719 152.022C341.62 152.061 341.522 152.101 341.422 152.14C341.331 153.873 341.062 158.753 341.041 158.913L340.929 159.788ZM335.822 157.781L339.108 157.785C339.201 156.153 339.387 152.813 339.447 151.6C339.475 151.055 339.782 150.63 340.292 150.434C340.523 150.346 340.749 150.255 340.976 150.165C341.096 150.116 341.216 150.069 341.336 150.021V148.642C341.338 147.691 341.339 146.74 341.333 145.787C341.331 145.498 341.303 145.235 341.248 145.003C341.004 143.961 340.388 143.091 339.513 142.551C338.64 142.012 337.586 141.85 336.537 142.096C334.931 142.474 333.687 143.977 333.646 145.591C333.617 146.683 333.619 147.774 333.622 148.865C333.623 149.247 333.624 149.629 333.623 150.011C333.742 150.059 333.86 150.107 333.98 150.155L334.65 150.42C335.359 150.698 335.492 151.276 335.509 151.596C335.598 153.448 335.693 155.294 335.789 157.142L335.822 157.781ZM333.919 152.282C333.92 152.283 333.922 152.283 333.924 152.284L333.919 152.282Z" fill="#0010F7"/>
<path d="M337.495 139.267C337.493 139.267 337.491 139.267 337.49 139.267C335.452 139.264 333.793 137.607 333.792 135.573C333.791 134.587 334.179 133.656 334.885 132.951C335.588 132.249 336.515 131.862 337.496 131.862C337.499 131.862 337.502 131.862 337.506 131.862C338.491 131.865 339.421 132.255 340.123 132.964C340.825 133.671 341.208 134.604 341.202 135.588C341.191 137.618 339.528 139.267 337.495 139.267ZM337.492 137.267C337.493 137.267 337.494 137.267 337.495 137.267C338.415 137.267 339.197 136.494 339.202 135.577C339.205 135.127 339.028 134.7 338.703 134.372C338.378 134.044 337.951 133.863 337.5 133.862C337.499 133.862 337.497 133.862 337.496 133.862C337.049 133.862 336.624 134.041 336.298 134.366C335.972 134.692 335.791 135.12 335.792 135.571C335.793 136.489 336.572 137.266 337.492 137.267Z" fill="#0010F7"/>
<path d="M365.958 178.871L359.859 178.863L359.702 176.326C359.613 174.621 359.526 172.917 359.443 171.213L359.127 171.088C358.863 170.982 358.601 170.876 358.335 170.774C357.832 170.581 357.532 170.143 357.532 169.602C357.535 169.05 357.533 168.502 357.532 167.954C357.529 166.844 357.527 165.734 357.556 164.624C357.621 162.09 359.486 159.822 361.99 159.233C363.55 158.866 365.146 159.113 366.474 159.933C367.804 160.755 368.738 162.067 369.106 163.63C369.194 164.007 369.24 164.421 369.243 164.861C369.249 165.817 369.248 166.773 369.246 167.728V169.585C369.246 170.159 368.944 170.599 368.418 170.797C368.149 170.898 367.88 171.006 367.611 171.113C367.519 171.15 367.426 171.187 367.333 171.224C367.283 172.206 367.23 173.186 367.176 174.167L366.986 177.698C366.983 177.773 366.974 177.845 366.961 177.927L366.833 178.781L365.958 178.871ZM361.733 176.865L365.026 176.87L365.179 174.057C365.24 172.933 365.302 171.809 365.358 170.685C365.385 170.138 365.694 169.713 366.206 169.518C366.426 169.434 366.647 169.345 366.867 169.257C366.993 169.206 367.119 169.156 367.246 169.105V167.726C367.248 166.775 367.249 165.824 367.243 164.873C367.241 164.583 367.213 164.319 367.158 164.088C366.914 163.046 366.298 162.175 365.423 161.635C364.55 161.096 363.496 160.933 362.447 161.18C360.841 161.558 359.597 163.061 359.556 164.675C359.527 165.767 359.529 166.858 359.532 167.949C359.533 168.332 359.534 168.714 359.533 169.096C359.647 169.141 359.76 169.186 359.873 169.232L360.56 169.505C361.269 169.782 361.402 170.361 361.419 170.682C361.508 172.53 361.604 174.376 361.699 176.221L361.733 176.865ZM366.923 171.385C366.922 171.385 366.921 171.386 366.92 171.386C366.921 171.386 366.922 171.385 366.923 171.385ZM359.829 171.367C359.831 171.368 359.832 171.368 359.834 171.369L359.829 171.367Z" fill="#0010F7"/>
<path d="M363.406 158.351H363.402C361.363 158.349 359.703 156.692 359.702 154.657C359.701 153.671 360.089 152.74 360.795 152.035C361.498 151.333 362.426 150.946 363.406 150.946C363.409 150.946 363.412 150.946 363.416 150.946C364.402 150.949 365.331 151.339 366.033 152.048C366.736 152.755 367.118 153.688 367.113 154.672C367.101 156.702 365.438 158.351 363.406 158.351ZM363.406 152.946C362.959 152.946 362.534 153.125 362.209 153.45C361.882 153.777 361.701 154.205 361.702 154.655C361.703 155.574 362.482 156.35 363.404 156.351H363.406C364.325 156.351 365.107 155.578 365.113 154.661C365.115 154.211 364.938 153.784 364.614 153.457C364.288 153.128 363.861 152.947 363.41 152.946H363.406Z" fill="#0010F7"/>
<path d="M344.951 87.1733C344.948 87.1733 344.947 87.1733 344.945 87.1733C343.567 87.1714 342.272 86.6333 341.298 85.6587C340.323 84.6831 339.788 83.3872 339.79 82.0093C339.792 80.6313 340.33 79.3364 341.307 78.3628C342.281 77.3921 343.574 76.8569 344.949 76.8569C344.952 76.8569 344.954 76.8569 344.956 76.8569C346.334 76.8589 347.629 77.397 348.603 78.3726C349.575 79.3481 350.111 80.644 350.109 82.021L349.109 82.02L350.109 82.021C350.107 83.3989 349.569 84.6938 348.593 85.6675C347.619 86.6382 346.326 87.1733 344.951 87.1733ZM344.949 78.8569C344.108 78.8569 343.316 79.1841 342.719 79.7798C342.121 80.3755 341.791 81.1675 341.79 82.0112C341.789 82.855 342.117 83.6479 342.713 84.2456C343.31 84.8423 344.103 85.1724 344.947 85.1733C344.948 85.1733 344.949 85.1733 344.951 85.1733C345.793 85.1733 346.584 84.8462 347.181 84.2515C347.778 83.6558 348.108 82.8628 348.109 82.019C348.11 81.1753 347.782 80.3823 347.187 79.7847C346.591 79.188 345.798 78.8579 344.954 78.8569C344.952 78.8569 344.951 78.8569 344.949 78.8569Z" fill="#0010F7"/>
<path d="M185.965 91.3149C185.962 91.3149 185.96 91.3149 185.958 91.3149C183.113 91.311 180.801 88.9946 180.805 86.1509C180.809 83.3091 183.123 80.9985 185.966 80.9985C185.968 80.9985 185.969 80.9985 185.971 80.9985C187.349 81.0005 188.644 81.5386 189.617 82.5142C190.59 83.4897 191.125 84.7856 191.123 86.1636C191.119 89.0054 188.806 91.3149 185.965 91.3149ZM185.966 82.9985C184.225 82.9985 182.807 84.4126 182.805 86.1528C182.803 87.894 184.218 89.313 185.96 89.3149C185.962 89.3149 185.963 89.3149 185.964 89.3149C187.704 89.3149 189.121 87.9009 189.123 86.1616L190.123 86.1626L189.123 86.1616C189.124 85.3179 188.797 84.5239 188.201 83.9263C187.606 83.3296 186.813 82.9995 185.969 82.9985C185.968 82.9985 185.967 82.9985 185.966 82.9985Z" fill="#0010F7"/>
<path d="M22.1887 83.6997C22.1858 83.6997 22.1819 83.6997 22.1819 83.6997C20.804 83.6978 19.509 83.1597 18.5354 82.1841C17.5608 81.2085 17.0256 79.9126 17.0276 78.5356C17.0295 77.1577 17.5676 75.8628 18.5442 74.8892C19.5178 73.9185 20.8118 73.3833 22.1868 73.3833C22.1897 73.3833 22.1936 73.3833 22.1936 73.3833C23.5715 73.3853 24.8665 73.9233 25.8401 74.8989C26.8127 75.8745 27.3479 77.1704 27.346 78.5474C27.344 79.9253 26.8059 81.2202 25.8303 82.1938C24.8567 83.1646 23.5637 83.6997 22.1887 83.6997ZM22.1868 75.3833C21.345 75.3833 20.553 75.7104 19.9563 76.3062C19.3586 76.9019 19.0286 77.6938 19.0276 78.5376C19.0266 79.3813 19.3547 80.1743 19.9504 80.772C20.5471 81.3687 21.3401 81.6987 22.1838 81.6997H22.1887C23.0305 81.6997 23.8215 81.3726 24.4182 80.7778C25.0149 80.1821 25.345 79.3892 25.346 78.5454C25.3469 77.7017 25.0198 76.9087 24.4241 76.311C23.8284 75.7144 23.0354 75.3843 22.1917 75.3833H22.1868Z" fill="#0010F7"/>
<path d="M323.237 111.514C322.982 111.514 322.727 111.417 322.532 111.224L319.224 107.939C318.832 107.549 318.83 106.916 319.219 106.525L321.543 104.182L319.202 101.859C319.015 101.671 318.908 101.417 318.907 101.152C318.907 100.887 319.011 100.632 319.198 100.444L322.486 97.1361C322.875 96.7455 323.508 96.7435 323.9 97.1312L326.24 99.4555L328.567 97.1166C328.956 96.726 329.589 96.724 329.981 97.1117L333.288 100.397C333.476 100.584 333.582 100.838 333.583 101.104C333.584 101.369 333.48 101.623 333.292 101.812L330.967 104.151L333.307 106.478C333.698 106.867 333.7 107.5 333.312 107.892L330.027 111.2C329.636 111.591 329.004 111.593 328.612 111.204L326.272 108.88L323.946 111.219C323.75 111.415 323.493 111.514 323.237 111.514ZM321.343 107.224L323.232 109.1L325.558 106.761C325.948 106.37 326.58 106.369 326.972 106.756L329.312 109.08L331.188 107.192L328.847 104.864C328.658 104.677 328.553 104.422 328.552 104.158C328.551 103.892 328.657 103.637 328.843 103.45L331.169 101.112L329.28 99.2357L326.953 101.575C326.565 101.966 325.932 101.968 325.539 101.579L323.199 99.2553L321.322 101.144L323.662 103.467C324.054 103.857 324.056 104.49 323.667 104.881L321.343 107.224Z" fill="#0010F7"/>
<path d="M114.074 23.9467C113.82 23.9467 113.565 23.85 113.369 23.6566L109.002 19.3187C108.611 18.9291 108.609 18.2963 108.997 17.9047L112.292 14.5853L108.975 11.2924C108.787 11.1049 108.681 10.851 108.68 10.5853C108.679 10.3207 108.783 10.0658 108.971 9.87733L113.311 5.51014C113.7 5.11951 114.333 5.11756 114.725 5.50525L118.041 8.7992L121.338 5.48475C121.729 5.09412 122.362 5.09217 122.752 5.47986L127.118 9.81678C127.306 10.0043 127.412 10.2582 127.413 10.5238C127.414 10.7885 127.31 11.0433 127.122 11.2318L123.827 14.5472L127.145 17.8451C127.536 18.2338 127.538 18.8666 127.15 19.2592L122.812 23.6263C122.421 24.018 121.789 24.0199 121.397 23.6312L118.08 20.3363L114.783 23.6517C114.588 23.848 114.331 23.9467 114.074 23.9467ZM111.121 18.6039L114.07 21.5326L117.366 18.2172C117.756 17.8275 118.389 17.8246 118.781 18.2123L122.097 21.5072L125.026 18.559L121.707 15.2601C121.519 15.0736 121.413 14.8187 121.412 14.5541C121.411 14.2885 121.517 14.0336 121.703 13.8461L124.999 10.5316L122.051 7.60389L118.755 10.9183C118.366 11.3099 117.734 11.3129 117.341 10.9232L114.025 7.62928L111.094 10.5775L114.411 13.8705C114.803 14.2601 114.805 14.893 114.416 15.2846L111.121 18.6039Z" fill="#0010F7"/>
<path d="M140.308 125.469C140.305 125.469 140.303 125.469 140.301 125.469C137.023 125.464 134.359 122.795 134.363 119.519C134.367 116.244 137.033 113.583 140.308 113.583C140.311 113.583 140.313 113.583 140.315 113.583C143.592 113.587 146.255 116.256 146.251 119.533C146.246 122.808 143.58 125.469 140.308 125.469ZM140.308 115.583C138.135 115.583 136.365 117.348 136.363 119.521C136.361 121.695 138.128 123.466 140.303 123.469C140.305 123.469 140.307 123.469 140.308 123.469C142.48 123.469 144.248 121.704 144.251 119.531C144.253 117.357 142.487 115.585 140.313 115.583C140.311 115.583 140.309 115.583 140.308 115.583ZM145.251 119.532H145.261H145.251Z" fill="#0010F7"/>
<path d="M32.4729 135.091C32.218 135.091 31.9631 134.995 31.7678 134.8L27.8049 130.864C27.4133 130.475 27.4114 129.842 27.8001 129.451L30.7249 126.504L27.7795 123.58C27.592 123.392 27.4856 123.138 27.4846 122.873C27.4836 122.608 27.5881 122.353 27.7756 122.165L31.7141 118.202C32.1038 117.811 32.7366 117.809 33.1282 118.197L36.0725 121.122L38.9993 118.178C39.3889 117.788 40.0217 117.785 40.4133 118.174L44.3762 122.111C44.5637 122.297 44.6702 122.551 44.6712 122.817C44.6721 123.082 44.5676 123.337 44.3801 123.525L41.4544 126.468L44.3997 129.396C44.7913 129.785 44.7932 130.419 44.4036 130.81L40.467 134.773C40.0784 135.165 39.4456 135.167 39.053 134.778L36.1086 131.853L33.1819 134.797C32.9866 134.993 32.7297 135.091 32.4729 135.091ZM29.9241 130.15L32.468 132.677L35.3948 129.734C35.7844 129.343 36.4172 129.341 36.8088 129.729L39.7532 132.654L42.2805 130.11L39.3352 127.181C39.1467 126.995 39.0413 126.74 39.0403 126.475C39.0393 126.21 39.1438 125.955 39.3313 125.767L42.2571 122.825L39.7131 120.297L36.7864 123.241C36.3977 123.632 35.7649 123.635 35.3723 123.246L32.428 120.321L29.8987 122.865L32.844 125.789C33.2356 126.178 33.2376 126.811 32.8489 127.203L29.9241 130.15Z" fill="#0010F7"/>
<path d="M252.705 234.758L252.632 234.581L252.666 234.266L252.764 155.299C252.768 152.323 250.337 149.886 247.362 149.883L223.547 149.853L216.382 149.844L128.482 149.735C125.507 149.732 123.07 152.163 123.066 155.138L122.968 234.598L111.357 234.584L111.355 236.247C111.352 238.653 112.991 240.602 115.014 240.604L260.604 240.784C262.627 240.787 264.271 238.843 264.274 236.436L264.276 234.773L252.705 234.758Z" fill="#0010F7"/>
<path d="M227.152 155.355L247.303 155.38L247.21 230.093L128.435 229.946L128.527 155.232L228.198 155.356" fill="#EBFAFA"/>
<path d="M260.607 241.785C260.606 241.785 260.604 241.785 260.603 241.785L115.014 241.604C112.441 241.6 110.351 239.197 110.355 236.246L110.358 233.583L265.279 233.774L265.274 236.438C265.27 239.386 263.177 241.785 260.607 241.785ZM112.356 235.584L112.355 236.248C112.353 238.096 113.546 239.602 115.016 239.604L260.605 239.785C260.606 239.785 260.607 239.785 260.607 239.785C262.075 239.785 263.272 238.283 263.274 236.435L263.275 235.772L112.356 235.584Z" fill="white"/>
<path d="M204.289 212.762L174.436 212.522C170.317 212.489 167.779 208.009 169.867 204.459L185.001 178.725C187.089 175.175 192.238 175.216 194.269 178.8L208.988 204.773C211.018 208.357 208.408 212.795 204.289 212.762Z" fill="white"/>
<path d="M188.623 202.97C188.627 202.105 189.253 201.441 190.095 201.445C190.936 201.448 191.557 202.117 191.553 202.982C191.55 203.84 190.923 204.504 190.082 204.501C189.24 204.497 188.62 203.828 188.623 202.97Z" fill="#0010F7"/>
<path d="M188.752 192.53L188.663 189.842L191.644 189.854L191.534 192.542L191.093 198.728L189.141 198.72L188.752 192.53Z" fill="#0010F7"/>
<path d="M211.972 20.1147C211.974 18.4786 212.463 16.8942 213.387 15.5336C214.502 13.8855 215.093 11.9639 215.095 9.97449C215.099 7.31372 214.065 4.81055 212.186 2.92651C210.306 1.0426 207.806 0.0032959 205.145 0C205.145 0 205.134 0 205.133 0C199.646 0 195.178 4.4635 195.171 9.94995C195.168 11.9413 195.755 13.8646 196.866 15.5125C197.785 16.8763 198.271 18.4624 198.269 20.0985L198.268 20.3882C198.267 20.7688 198.379 21.1362 198.578 21.4534C198.304 21.7958 198.133 22.2244 198.133 22.6973V25.6973C198.133 26.1423 198.283 26.5493 198.529 26.8816C198.417 27.1311 198.352 27.406 198.352 27.6973C198.352 31.2814 201.268 34.1973 204.852 34.1973H205.414C208.958 34.1973 211.848 31.3467 211.913 27.8182C211.916 27.7782 211.917 27.7378 211.917 27.6973C211.917 27.4052 211.851 27.1296 211.739 26.8794C211.984 26.5476 212.133 26.1414 212.133 25.6973V22.6973C212.133 22.2175 211.957 21.783 211.676 21.4385C211.864 21.1287 211.971 20.7737 211.972 20.4053V20.1147ZM205.391 14.6978H204.867L203.012 11.2363L207.254 11.2416L205.391 14.6978ZM210.133 25.6973H209.919H209.914H200.352H200.133V22.6973H210.133V25.6973ZM205.414 32.1973H204.852C202.377 32.1973 200.352 30.1724 200.352 27.6973H209.914C209.914 30.1724 207.889 32.1973 205.414 32.1973ZM209.972 20.113V20.4036L206.133 20.3988V16.9109C206.446 16.7288 206.71 16.4646 206.888 16.1343L209.015 12.1908C209.349 11.5714 209.333 10.822 208.972 10.2175C208.612 9.61304 207.961 9.24243 207.257 9.24158L203.014 9.23633C203.013 9.23633 203.012 9.23633 203.012 9.23633C202.309 9.23633 201.658 9.6051 201.296 10.208C200.935 10.8115 200.917 11.5608 201.249 12.181L203.365 16.1298C203.545 16.4653 203.815 16.7317 204.133 16.9148V20.3964L200.268 20.3916L200.269 20.101C200.271 18.0687 199.66 16.0786 198.524 14.394C197.668 13.1251 197.169 11.5978 197.171 9.95251C197.176 5.55811 200.74 2 205.133 2C205.136 2 205.14 2 205.143 2C209.54 2.00537 213.101 5.57458 213.095 9.97217C213.093 11.6176 212.59 13.1436 211.732 14.4104C210.586 16.0992 209.975 18.0715 209.972 20.113Z" fill="#0010F7"/>
<path d="M107.159 58.8261C108.386 57.5254 109.775 56.3692 111.302 55.3918C113.709 53.8506 116.457 52.7543 119.452 52.2387C131.445 50.1736 142.84 58.2065 144.901 70.1805C146.963 82.1545 138.911 93.5354 126.918 95.6005C120.772 96.6587 114.784 95.0655 110.128 91.6491" fill="#0010F7"/>
<path d="M138.731 71.0553C138.023 66.9488 135.761 63.3638 132.357 60.9605C128.953 58.5562 124.816 57.6207 120.712 58.3297C119.848 58.4781 118.992 58.6998 118.17 58.9888C115.264 60.0113 112.187 62.983 110.434 65.2164C110.432 65.2178 110.432 65.2198 110.431 65.2213C110.43 65.2225 110.429 65.223 110.428 65.2242C110.399 65.2623 110.389 65.307 110.367 65.3481C110.34 65.4006 110.305 65.4503 110.291 65.5059C110.278 65.5532 110.284 65.6014 110.28 65.6495C110.276 65.7037 110.264 65.7574 110.271 65.8114C110.277 65.8607 110.301 65.9056 110.316 65.9532C110.333 66.0034 110.34 66.0557 110.367 66.1022C110.391 66.1461 110.433 66.1796 110.466 66.2188C110.501 66.2596 110.526 66.3061 110.569 66.3404C110.571 66.3416 110.573 66.3416 110.574 66.3428C110.575 66.3438 110.576 66.3453 110.577 66.3463L113.312 68.4381C113.457 68.5484 113.628 68.6021 113.797 68.6021C114.038 68.6021 114.275 68.4947 114.434 68.2887C114.702 67.9371 114.635 67.4351 114.284 67.1666L112.211 65.58C113.968 63.5062 116.507 61.2702 118.701 60.4986C119.439 60.2388 120.207 60.0396 120.983 59.9058C124.898 59.2336 128.709 60.2694 131.672 62.4598L130.189 64.8883C129.958 65.2652 130.077 65.7574 130.454 65.9879C130.584 66.0679 130.729 66.1051 130.87 66.1051C131.14 66.1051 131.403 65.9693 131.554 65.7222L132.913 63.4979C135.067 65.5103 136.617 68.203 137.154 71.3267C137.174 71.439 137.176 71.5509 137.193 71.6632L133.863 72.2369C133.428 72.3121 133.136 72.7252 133.211 73.1607C133.277 73.5504 133.616 73.8248 133.998 73.8248C134.043 73.8248 134.089 73.8209 134.135 73.8131L137.339 73.2608C137.465 76.9464 136.153 80.5118 133.582 83.2642C133.28 83.5875 133.298 84.0933 133.621 84.3951C133.775 84.5387 133.972 84.6099 134.167 84.6099C134.381 84.6099 134.594 84.525 134.752 84.356C138.115 80.7545 139.565 75.9068 138.731 71.0553Z" fill="white"/>
<path d="M116.983 86.1636C115.695 85.5044 114.523 84.6538 113.496 83.6362C113.182 83.3267 112.675 83.3296 112.364 83.6411C112.054 83.9556 112.056 84.4614 112.369 84.773C113.513 85.9058 114.819 86.853 116.252 87.5874C116.369 87.647 116.494 87.6753 116.616 87.6753C116.907 87.6753 117.188 87.5171 117.329 87.2407C117.53 86.8472 117.375 86.3648 116.983 86.1636Z" fill="white"/>
<path d="M126.662 69.6109L124.428 72.774C123.157 72.3106 121.681 72.7186 120.862 73.8775C119.884 75.2623 120.215 77.1861 121.601 78.1646C122.125 78.5357 122.738 78.7291 123.368 78.7291C123.544 78.7291 123.721 78.7144 123.897 78.6832C124.707 78.5435 125.415 78.0973 125.889 77.4264C126.363 76.7555 126.547 75.9391 126.407 75.1295C126.314 74.5914 126.075 74.106 125.735 73.6964L127.969 70.5348C128.224 70.1734 128.138 69.6744 127.777 69.4195C127.416 69.1637 126.918 69.2506 126.662 69.6109ZM124.582 76.5025C124.354 76.8258 124.015 77.0396 123.626 77.107C123.237 77.1744 122.846 77.0855 122.524 76.858C121.858 76.3883 121.699 75.4644 122.169 74.8004C122.457 74.3932 122.914 74.1754 123.378 74.1754C123.672 74.1754 123.969 74.2633 124.226 74.4449C124.55 74.6725 124.764 75.0123 124.831 75.401C124.897 75.7896 124.81 76.1812 124.582 76.5025Z" fill="white"/>
<path d="M120.834 85.1536C121.462 85.1536 121.972 84.6439 121.972 84.0153C121.972 83.3866 121.462 82.877 120.834 82.877C120.205 82.877 119.695 83.3866 119.695 84.0153C119.695 84.6439 120.205 85.1536 120.834 85.1536Z" fill="white"/>
<path d="M128.066 83.9084C128.695 83.9084 129.204 83.3988 129.204 82.7701C129.204 82.1415 128.695 81.6318 128.066 81.6318C127.437 81.6318 126.928 82.1415 126.928 82.7701C126.928 83.3988 127.437 83.9084 128.066 83.9084Z" fill="white"/>
<path d="M108.454 60.4504C110.834 63.8991 112.521 67.9072 113.279 72.3081C116.071 88.5273 105.187 103.94 88.9676 106.732C72.7483 109.525 57.3361 98.6405 54.5434 82.4212C51.7508 66.2019 62.6352 50.7898 78.8545 47.997C90.6728 45.9621 102.063 51.1891 108.454 60.4504Z" fill="#59EDFF"/>
<path d="M106.644 72.9683C104.498 60.5044 92.6116 52.1099 80.1487 54.2564C67.6848 56.4029 59.2903 68.2886 61.4358 80.7525C62.6721 87.9292 67.1018 93.9536 73.5901 97.2808C73.7073 97.3404 73.8323 97.3687 73.9543 97.3687C74.2454 97.3687 74.5256 97.2105 74.6672 96.9341C74.8684 96.5406 74.7131 96.0591 74.3206 95.857C69.0356 93.147 65.2192 88.5142 63.5784 82.9234L68.3518 82.1011C68.7874 82.0269 69.0793 81.6128 69.0041 81.1773C68.9299 80.7417 68.5168 80.4527 68.0803 80.5249L63.1909 81.3672C63.1277 81.073 63.0635 80.7793 63.012 80.481C62.1335 75.3794 63.1555 70.3824 65.5615 66.2149L69.2952 68.7017C69.4319 68.7925 69.5852 68.8355 69.7375 68.8355C69.9963 68.8355 70.2502 68.7105 70.4045 68.479C70.6497 68.1118 70.55 67.6148 70.1819 67.3697L66.416 64.8614C69.4204 60.4505 74.0588 57.1631 79.6355 55.9883L80.3625 60.2154C80.429 60.605 80.7678 60.8794 81.1497 60.8794C81.1946 60.8794 81.2405 60.8755 81.2864 60.8677C81.7219 60.7935 82.0139 60.3794 81.9387 59.9439L81.2117 55.7168C87.0212 54.9373 92.6467 56.5962 97.0081 59.9351L94.5959 63.8833C94.3655 64.2603 94.4846 64.7525 94.8616 64.9829C94.9915 65.063 95.136 65.1001 95.2776 65.1001C95.5471 65.1001 95.8108 64.9644 95.9612 64.7173L98.2522 60.9668C101.725 64.0655 104.219 68.3079 105.068 73.2398C105.124 73.5659 105.166 73.8921 105.208 74.2183C105.096 74.1866 104.978 74.1726 104.856 74.1929L99.8215 75.0601C99.386 75.1343 99.094 75.5484 99.1692 75.9839C99.2356 76.3736 99.5745 76.648 99.9563 76.648C100.001 76.648 100.047 76.6441 100.093 76.6363L105.127 75.7691C105.208 75.7554 105.278 75.7193 105.347 75.6841C105.681 81.4807 103.66 87.1143 99.6243 91.437C99.3225 91.7603 99.3401 92.2661 99.6633 92.5679C99.9866 92.8687 100.492 92.8531 100.794 92.5288C105.74 87.231 107.872 80.1021 106.644 72.9683Z" fill="white"/>
<path d="M86.4662 73.4251C85.7703 72.9339 84.9622 72.6707 84.1278 72.6561L83.0951 66.6556C83.0218 66.2201 82.6097 65.929 82.1712 66.0033C81.7357 66.0775 81.4437 66.4915 81.5189 66.9271L82.5521 72.9315C80.7069 73.63 79.5487 75.5592 79.8958 77.5745C80.2474 79.6195 82.0306 81.0667 84.0394 81.0667C84.2757 81.0667 84.514 81.0472 84.7542 81.0052C85.8617 80.8148 86.8275 80.2044 87.4759 79.2865C88.1244 78.3685 88.3763 77.2542 88.1849 76.1468C87.9945 75.0394 87.3841 74.0736 86.4662 73.4251ZM86.1693 78.3636C85.7679 78.932 85.1683 79.3109 84.4828 79.429C83.0745 79.6742 81.7171 78.7191 81.472 77.3031C81.2288 75.887 82.182 74.5365 83.598 74.2923C83.7474 74.2669 83.8968 74.2542 84.0462 74.2542C84.5794 74.2542 85.099 74.4183 85.5433 74.7318C86.1117 75.1331 86.4906 75.7327 86.6087 76.4183C86.7269 77.1038 86.5706 77.7952 86.1693 78.3636Z" fill="white"/>
<path d="M75.1272 87.0098C76.0676 87.0098 76.83 86.2473 76.83 85.3069C76.83 84.3664 76.0676 83.604 75.1272 83.604C74.1867 83.604 73.4243 84.3664 73.4243 85.3069C73.4243 86.2473 74.1867 87.0098 75.1272 87.0098Z" fill="white"/>
<path d="M93.5866 83.8315C94.5271 83.8315 95.2895 83.0691 95.2895 82.1287C95.2895 81.1882 94.5271 80.4258 93.5866 80.4258C92.6462 80.4258 91.8838 81.1882 91.8838 82.1287C91.8838 83.0691 92.6462 83.8315 93.5866 83.8315Z" fill="white"/>
<path d="M81.3155 99.2799C80.9484 99.2799 80.589 99.1657 80.2814 98.9489C79.8878 98.6715 79.6261 98.2585 79.545 97.7858L78.4405 91.3649C78.3585 90.8922 78.4669 90.4157 78.7443 90.0221C79.0216 89.6286 79.4347 89.3669 79.9073 89.2858L91.3624 87.3141C91.8331 87.2301 92.3116 87.3405 92.7052 87.6178C93.0987 87.8952 93.3605 88.3083 93.4415 88.7809L94.547 95.2018C94.715 96.1794 94.0558 97.112 93.0792 97.2809C93.0782 97.2809 93.0782 97.2809 93.0782 97.2809L81.6241 99.2526C81.5216 99.2712 81.4181 99.2799 81.3155 99.2799ZM91.6573 88.8883C91.6495 88.8883 91.6417 88.8893 91.6349 88.8903L80.1798 90.862C80.088 90.8786 80.0011 90.9997 80.0167 91.0924L81.1212 97.5133C81.1378 97.6061 81.2726 97.6881 81.3517 97.6764L92.8068 95.7047C92.9132 95.6862 92.9884 95.5797 92.9708 95.4723L91.8653 89.0534C91.8507 88.9684 91.7462 88.8883 91.6573 88.8883ZM92.9425 96.4928H92.9523H92.9425Z" fill="white"/>
</g>
<defs>
<clipPath id="clip0_5551:116962">
<rect width="379" height="242" fill="white"/>
</clipPath>
</defs>
</svg>
