<svg width="359" height="220" viewBox="0 0 359 220" fill="none" xmlns="http://www.w3.org/2000/svg">
<path d="M264 138.196C263.934 191.491 184.095 220.066 130.639 220C77.1815 219.934 33.9339 148.414 34.0001 95.1184C34.0663 41.8231 77.4212 26.9342 130.879 27.0002C184.335 27.0662 264.066 84.9005 264 138.196Z" fill="#EBFAFA"/>
<path d="M332.685 61.1465C329.658 61.1465 327.195 58.6855 327.195 55.6602C327.195 52.6348 329.658 50.1738 332.685 50.1738C335.71 50.1738 338.171 52.6348 338.171 55.6602C338.171 58.6855 335.71 61.1465 332.685 61.1465ZM332.685 52.1738C330.761 52.1738 329.195 53.7373 329.195 55.6602C329.195 57.583 330.761 59.1465 332.685 59.1465C334.607 59.1465 336.171 57.583 336.171 55.6602C336.171 53.7373 334.607 52.1738 332.685 52.1738Z" fill="#0010F7"/>
<path d="M179.43 12.7109C176.021 12.7109 173.248 9.93848 173.248 6.53125C173.248 3.12402 176.021 0.351562 179.43 0.351562C182.837 0.351562 185.61 3.12402 185.61 6.53125C185.61 9.93848 182.837 12.7109 179.43 12.7109ZM179.43 2.35156C177.124 2.35156 175.248 4.22656 175.248 6.53125C175.248 8.83594 177.124 10.7109 179.43 10.7109C181.735 10.7109 183.61 8.83594 183.61 6.53125C183.61 4.22656 181.735 2.35156 179.43 2.35156Z" fill="#0010F7"/>
<path d="M304.806 102.321C304.551 102.321 304.297 102.224 304.102 102.031L299.043 97.0192C298.651 96.6305 298.648 95.9977 299.036 95.6061L302.953 91.65L298.999 87.734C298.811 87.5465 298.704 87.2926 298.703 87.028C298.702 86.7623 298.807 86.5075 298.993 86.319L304.008 81.2604C304.396 80.8688 305.029 80.8649 305.422 81.2545L309.376 85.1715L313.295 81.2194C313.685 80.8268 314.317 80.8258 314.709 81.2135L319.767 86.2252C319.955 86.4117 320.062 86.6657 320.063 86.9303C320.063 87.1959 319.959 87.4508 319.772 87.6393L315.854 91.5905L319.808 95.5123C320.2 95.901 320.202 96.5338 319.813 96.9264L314.802 101.984C314.413 102.377 313.78 102.379 313.388 101.99L309.434 98.0739L305.516 102.025C305.32 102.222 305.063 102.321 304.806 102.321ZM301.161 96.3024L304.8 99.9069L308.718 95.9557C309.105 95.5631 309.738 95.5621 310.132 95.9489L314.085 99.8659L317.689 96.2282L313.735 92.3063C313.547 92.1198 313.44 91.8659 313.439 91.6002C313.438 91.3346 313.543 91.0797 313.729 90.8912L317.648 86.941L314.011 83.3375L310.092 87.2887C309.703 87.6813 309.07 87.6832 308.678 87.2946L304.725 83.3785L301.117 87.0162L305.071 90.9332C305.463 91.3209 305.467 91.9547 305.078 92.3463L301.161 96.3024Z" fill="#0010F7"/>
<path d="M5.95508 62.6094C2.92871 62.6094 0.466797 60.1484 0.466797 57.123C0.466797 54.0977 2.92871 51.6357 5.95508 51.6357C8.98047 51.6357 11.4419 54.0977 11.4419 57.123C11.4419 60.1484 8.98047 62.6094 5.95508 62.6094ZM5.95508 53.6357C4.03174 53.6357 2.4668 55.2002 2.4668 57.123C2.4668 59.0459 4.03174 60.6094 5.95508 60.6094C7.87793 60.6094 9.44189 59.0459 9.44189 57.123C9.44189 55.2002 7.87793 53.6357 5.95508 53.6357Z" fill="#0010F7"/>
<path d="M46.1773 88.5964C45.9229 88.5964 45.6685 88.4998 45.4736 88.3064L40.6719 83.5486C40.2793 83.1599 40.2764 82.5271 40.665 82.1345L44.3477 78.4158L40.6304 74.7322C40.4419 74.5457 40.335 74.2918 40.334 74.0271C40.333 73.7615 40.437 73.5066 40.624 73.3181L45.3843 68.5164C45.772 68.1228 46.4053 68.1209 46.7979 68.5105L50.5151 72.1931L54.2002 68.4773C54.5884 68.0837 55.2217 68.0818 55.6138 68.4714L60.4155 73.2293C60.604 73.4158 60.7109 73.6697 60.7119 73.9343C60.7129 74.2 60.6089 74.4548 60.4219 74.6433L56.7378 78.3582L60.4551 82.0457C60.8472 82.4343 60.8501 83.0671 60.4614 83.4597L55.7036 88.2615C55.3135 88.6531 54.6807 88.6541 54.2896 88.2683L50.5718 84.5857L46.8872 88.3005C46.6919 88.4978 46.4346 88.5964 46.1773 88.5964ZM42.7896 82.8318L46.1709 86.1824L49.8555 82.4675C50.2437 82.074 50.877 82.073 51.269 82.4607L54.9863 86.1433L58.3369 82.7615L54.6191 79.074C54.4307 78.8875 54.3242 78.6336 54.3232 78.3679C54.3223 78.1023 54.4268 77.8474 54.6133 77.6599L58.2974 73.9451L54.9165 70.5955L51.2315 74.3113C50.8428 74.7029 50.2095 74.7058 49.8179 74.3171L46.1006 70.6345L42.7485 74.0154L46.4653 77.699C46.8579 78.0877 46.8608 78.7205 46.4722 79.1121L42.7896 82.8318Z" fill="#0010F7"/>
<path d="M58.5197 23.816C57.5987 19.782 54.9509 17.9835 48.9325 17.6986C44.6215 17.4813 43.555 16.9447 43.1768 15.288C42.9099 14.119 43.274 12.5287 45.7073 11.9731C48.6031 11.3121 49.4829 12.9016 49.9959 13.8922L55.3709 12.6652C54.4168 9.7793 52.0746 7.25818 47.209 7.61914L46.6535 5.18555L42.1505 6.21362L42.7182 8.70068C39.2825 10.2004 37.008 13.212 37.8836 17.0475C38.6963 20.6073 41.1035 22.5421 47.9191 22.9224C51.661 23.1228 52.853 23.807 53.277 25.6643C53.6229 27.1797 53.0336 28.7288 50.2332 29.368C47.97 29.8848 46.1821 28.9958 45.3004 27.1406L39.9299 28.3667C41.0593 31.9574 44.1854 34.0472 48.7101 33.7157L49.4064 36.7656L53.9426 35.73L53.2437 32.6681C57.2492 31.0985 59.495 28.0886 58.5197 23.816Z" fill="#0010F7"/>
<path d="M240.488 18.8378C241.031 17.4494 241.779 16.1563 242.742 14.954C243.705 13.7543 244.838 12.7426 246.15 11.9245C247.463 11.1026 248.928 10.513 250.551 10.149C252.175 9.78497 253.92 9.74688 255.778 10.0329C258.386 10.4345 260.554 11.3532 262.287 12.793C264.009 14.2311 265.203 15.9393 265.844 17.9189L261.165 20.1819C260.915 19.3257 260.569 18.5843 260.118 17.9556C259.666 17.327 259.166 16.8085 258.602 16.3939C258.039 15.9805 257.437 15.6502 256.796 15.4012C256.15 15.1528 255.513 14.9803 254.875 14.8821C253.834 14.7219 252.87 14.7343 251.984 14.9255C251.098 15.1158 250.291 15.4356 249.569 15.8835C248.842 16.3294 248.203 16.8865 247.641 17.5473C247.069 18.2103 246.607 18.9358 246.24 19.7233L256.458 21.2964L254.809 24.0637L245.265 22.5943L245.197 23.0359C245.111 23.5949 245.07 24.1332 245.074 24.6522L254.414 26.09L252.76 28.8593L245.456 27.7349C245.916 29.3314 246.709 30.6931 247.831 31.8206C248.954 32.9457 250.352 33.6376 252.026 33.8954C252.664 33.9936 253.345 34.016 254.063 33.9649C254.772 33.9107 255.474 33.7588 256.15 33.5114C256.831 33.261 257.477 32.9019 258.097 32.4385C258.711 31.9764 259.236 31.382 259.677 30.6609L263.789 33.9483C263.171 34.9438 262.384 35.7826 261.417 36.4658C260.454 37.1496 259.405 37.6883 258.267 38.0864C257.125 38.4814 255.942 38.7355 254.697 38.8444C253.458 38.9526 252.256 38.9167 251.118 38.7415C249.546 38.4994 248.117 38.009 246.826 37.2656C245.535 36.5196 244.404 35.6192 243.424 34.5539C242.444 33.4899 241.64 32.2964 241.013 30.9747C240.386 29.6517 239.95 28.2756 239.704 26.8494L235.555 26.2106L237.245 23.4468L239.48 23.7911C239.489 23.2216 239.539 22.6271 239.633 22.0162L239.677 21.7339L236.88 21.3033L238.533 18.5369L240.488 18.8378Z" fill="#0010F7"/>
<path d="M52.9623 143.506C52.9623 156.833 42.1619 167.636 28.8347 167.636C15.5078 167.636 4.70703 156.833 4.70703 143.506C4.70703 130.182 15.5078 119.378 28.8347 119.378C42.1619 119.378 52.9623 130.182 52.9623 143.506Z" fill="#0010F7"/>
<path d="M36.8047 136.405C37.1598 136.405 37.5149 136.541 37.7859 136.812L38.2702 137.296C38.8123 137.838 38.8123 138.716 38.2704 139.259L29.3873 148.141L29.4084 148.163L26.9612 150.609L26.9404 150.588L26.9196 150.609L24.4732 148.162L24.4935 148.141L19.399 143.047C18.8571 142.505 18.857 141.626 19.3988 141.084L19.883 140.6C20.154 140.329 20.5092 140.193 20.8646 140.193C21.2197 140.193 21.5749 140.329 21.8458 140.6L25.9591 144.713C26.2301 144.984 26.5852 145.12 26.9404 145.12C27.2955 145.12 27.6507 144.984 27.9217 144.713L35.8235 136.812C36.0945 136.541 36.4496 136.405 36.8047 136.405ZM36.8047 134.405C35.8999 134.405 35.0492 134.758 34.4094 135.397L26.9404 142.866L23.2601 139.186C22.6202 138.546 21.7695 138.194 20.8646 138.194C19.9594 138.194 19.1086 138.546 18.4686 139.186L17.9843 139.67C16.6638 140.992 16.6642 143.141 17.985 144.461L21.6902 148.167L23.0588 149.576L25.5052 152.023L26.9194 153.438L26.9546 153.403L28.3751 152.023L30.8224 149.577L32.233 148.167L32.2118 148.145L39.6845 140.673C41.0055 139.351 41.0052 137.202 39.6843 135.881L39.1997 135.397C38.5599 134.757 37.7093 134.405 36.8047 134.405Z" fill="#FCFDFF"/>
<path d="M358.466 137.03C355.502 131.967 352.573 126.882 349.626 121.808C348.998 120.727 348.342 119.663 347.943 118.997C346.314 120.434 344.72 121.865 343.099 123.265C339.211 126.622 334.884 129.156 329.675 129.635C327.287 129.855 324.853 129.601 322.44 129.517C313.907 129.223 307.12 132.524 302.016 139.354C301.577 139.942 301.527 140.401 301.9 141.055C302.939 142.88 303.892 144.754 304.889 146.603C307.164 150.823 309.445 155.04 311.783 159.368C314.975 155.405 317.545 153.693 322.554 153.106C326.232 152.675 329.982 152.811 333.701 152.783C344.61 152.702 352.649 147.636 358.477 138.657C358.854 138.077 358.811 137.62 358.466 137.03Z" fill="#0010F7"/>
<path d="M327.198 140.546C327.103 139.997 327.092 139.438 327.168 138.867C327.244 138.297 327.411 137.754 327.673 137.238C327.934 136.721 328.289 136.249 328.738 135.819C329.188 135.389 329.739 135.039 330.389 134.771C331.301 134.395 332.173 134.27 333.006 134.396C333.835 134.523 334.548 134.839 335.136 135.349L334.076 136.978C333.83 136.752 333.576 136.582 333.31 136.468C333.044 136.354 332.783 136.285 332.523 136.261C332.263 136.238 332.006 136.248 331.753 136.293C331.498 136.338 331.261 136.406 331.038 136.498C330.673 136.648 330.367 136.838 330.121 137.071C329.874 137.303 329.677 137.561 329.533 137.844C329.386 138.128 329.289 138.43 329.238 138.75C329.182 139.073 329.175 139.394 329.21 139.717L332.785 138.245L332.792 139.449L329.453 140.825L329.517 140.979C329.597 141.175 329.688 141.355 329.79 141.52L333.057 140.174L333.063 141.381L330.508 142.433C330.964 142.855 331.481 143.138 332.058 143.282C332.635 143.425 333.217 143.376 333.802 143.134C334.026 143.043 334.248 142.918 334.468 142.763C334.684 142.608 334.88 142.424 335.048 142.214C335.218 142.002 335.355 141.762 335.464 141.494C335.571 141.228 335.624 140.936 335.626 140.62L337.578 140.877C337.572 141.315 337.483 141.736 337.305 142.141C337.129 142.546 336.898 142.922 336.61 143.269C336.321 143.616 335.991 143.927 335.614 144.202C335.239 144.476 334.847 144.697 334.449 144.861C333.899 145.088 333.347 145.207 332.79 145.219C332.232 145.23 331.696 145.16 331.176 145.009C330.657 144.858 330.169 144.631 329.712 144.329C329.256 144.027 328.85 143.671 328.496 143.262L327.044 143.86L327.051 142.649L327.833 142.326C327.726 142.142 327.626 141.943 327.538 141.729L327.498 141.63L326.519 142.033L326.514 140.828L327.198 140.546Z" fill="white"/>
<path d="M140.778 39.7026L136.396 22.8721C136.341 22.6584 136.251 22.4644 136.149 22.2803L127.092 33.5908L140.778 39.7026Z" fill="#0063F7"/>
<path d="M105.127 30.2715C105.119 30.51 105.132 30.7522 105.196 30.9949L109.619 47.9854L118.884 36.4148L105.127 30.2715Z" fill="#0063F7"/>
<path d="M112.715 49.8621L139.032 43.01C140.38 42.6589 141.189 41.2812 140.838 39.9324L140.778 39.7026L127.091 33.5908L125.126 36.0452C124.203 37.5986 122.241 38.1375 120.747 37.2471L118.884 36.4153L109.619 47.9858L109.637 48.0559C109.989 49.4045 111.366 50.2131 112.715 49.8621Z" fill="#0010F7"/>
<path d="M133.318 21.0659L107.002 27.9177C105.896 28.2056 105.165 29.1855 105.127 30.2717L118.884 36.415L120.747 37.2468C122.241 38.1372 124.203 37.5984 125.126 36.0449L127.091 33.5906L136.148 22.28C135.601 21.3022 134.453 20.7703 133.318 21.0659Z" fill="#55B1F3"/>
<path d="M273.142 196.154V78.7119C273.142 74.3145 269.545 70.7168 265.148 70.7168H229.95H219.359H203.139H89.4424C85.0452 70.7168 81.4475 74.3145 81.4475 78.7119V196.154H63.2051V198.612C63.2051 202.169 65.6316 205.045 68.6219 205.045H283.804C286.794 205.045 289.221 202.169 289.221 198.612V196.154H273.142Z" fill="#0010F7"/>
<path d="M236.289 78.8408H266.071V195.131H90.5195V78.8408H237.834" fill="#EBFAFA"/>
<path d="M257.552 87.177C258.235 87.177 258.788 86.6236 258.788 85.941C258.788 85.2584 258.235 84.7051 257.552 84.7051C256.87 84.7051 256.316 85.2584 256.316 85.941C256.316 86.6236 256.87 87.177 257.552 87.177Z" fill="white"/>
<path d="M252.609 87.177C253.292 87.177 253.845 86.6236 253.845 85.941C253.845 85.2584 253.292 84.7051 252.609 84.7051C251.926 84.7051 251.373 85.2584 251.373 85.941C251.373 86.6236 251.926 87.177 252.609 87.177Z" fill="white"/>
<path d="M247.9 87.177C248.583 87.177 249.136 86.6236 249.136 85.941C249.136 85.2584 248.583 84.7051 247.9 84.7051C247.217 84.7051 246.664 85.2584 246.664 85.941C246.664 86.6236 247.217 87.177 247.9 87.177Z" fill="white"/>
<path d="M184.213 201.131H168.213C167.663 201.131 167.213 200.681 167.213 200.131C167.213 199.581 167.663 199.131 168.213 199.131H184.213C184.763 199.131 185.213 199.581 185.213 200.131C185.213 200.681 184.763 201.131 184.213 201.131Z" fill="#EBFAFA"/>
<path d="M208.345 165.58L143.216 160.541C141.111 160.379 139.522 158.523 139.685 156.419L142.796 116.215C142.958 114.11 144.814 112.522 146.918 112.684L212.047 117.723C214.152 117.886 215.741 119.741 215.578 121.846L212.468 162.049C212.305 164.154 210.45 165.743 208.345 165.58Z" fill="white"/>
<path d="M217.405 148.895L208.749 117.626L206.208 108.445C205.877 107.249 204.627 106.541 203.431 106.873L143.956 123.336L140.664 124.247C139.468 124.578 138.76 125.828 139.091 127.024L142.43 139.083L150.288 167.474C150.619 168.67 151.869 169.378 153.065 169.047L215.046 151.89L215.832 151.672C217.028 151.341 217.736 150.091 217.405 148.895Z" fill="#0010F7"/>
<path d="M163.308 127.373C163.677 127.373 164.031 127.677 164.145 128.12L166.366 136.754C166.497 137.263 166.26 137.765 165.837 137.874L152.613 141.276C152.558 141.29 152.502 141.297 152.446 141.297C152.077 141.297 151.722 140.993 151.608 140.55L149.387 131.916C149.256 131.407 149.493 130.905 149.918 130.796L163.142 127.394C163.197 127.38 163.252 127.373 163.308 127.373ZM163.308 126.373H163.308C163.168 126.373 163.028 126.391 162.892 126.426L149.668 129.827C148.712 130.073 148.151 131.122 148.418 132.164L150.64 140.799C150.867 141.681 151.61 142.297 152.446 142.297C152.587 142.297 152.727 142.279 152.862 142.244L166.086 138.842C166.577 138.716 166.988 138.369 167.214 137.891C167.413 137.469 167.456 136.976 167.334 136.504L165.114 127.871C164.887 126.989 164.145 126.373 163.308 126.373Z" fill="white"/>
<path d="M190.916 142.282L190.625 141.325L195.552 139.829L206.527 136.858L206.789 137.823L195.828 140.79L190.916 142.282Z" fill="white"/>
<path d="M184.463 142.828L173.984 145.67L174.246 146.635L184.725 143.792L184.463 142.828Z" fill="white"/>
<path d="M168.663 147.103L154.555 150.93L154.816 151.895L168.924 148.068L168.663 147.103Z" fill="white"/>
<path d="M170.092 153.456L155.98 157.27L156.241 158.234L170.352 154.421L170.092 153.456Z" fill="white"/>
<path d="M175.442 132.541L175.324 132.082C175.195 132.161 175.069 132.231 174.946 132.293C174.823 132.353 174.693 132.402 174.554 132.438C174.233 132.52 173.962 132.48 173.739 132.317C173.517 132.155 173.354 131.873 173.251 131.472C173.152 131.088 173.163 130.766 173.283 130.503C173.403 130.239 173.617 130.068 173.924 129.989C174.06 129.954 174.194 129.941 174.328 129.947C174.461 129.956 174.589 129.973 174.713 129.996L174.791 129.501C174.472 129.433 174.145 129.444 173.81 129.53C173.493 129.611 173.233 129.749 173.033 129.946C172.832 130.141 172.702 130.385 172.643 130.672C172.584 130.959 172.598 131.272 172.686 131.613C172.825 132.153 173.06 132.535 173.391 132.76C173.722 132.983 174.128 133.034 174.606 132.911C174.932 132.827 175.21 132.703 175.442 132.541Z" fill="white"/>
<path d="M176.643 132.339L176.311 131.045C176.254 130.826 176.273 130.631 176.369 130.461C176.464 130.289 176.617 130.178 176.827 130.123C176.908 130.103 176.987 130.091 177.067 130.09L176.992 129.586C176.92 129.589 176.831 129.604 176.725 129.631C176.572 129.67 176.441 129.751 176.332 129.871C176.222 129.991 176.145 130.136 176.101 130.305L176.074 130.312L175.892 129.894L175.48 130L176.117 132.475L176.643 132.339Z" fill="white"/>
<path d="M178.197 131.628C178.472 131.797 178.801 131.832 179.187 131.734C179.355 131.69 179.502 131.639 179.626 131.579C179.751 131.52 179.87 131.444 179.983 131.349L179.873 130.921C179.745 131.024 179.621 131.104 179.502 131.163C179.383 131.225 179.251 131.273 179.104 131.31C178.882 131.367 178.693 131.348 178.537 131.249C178.382 131.152 178.27 130.985 178.2 130.746L179.85 130.322L179.776 130.037C179.687 129.69 179.522 129.442 179.281 129.291C179.041 129.142 178.757 129.109 178.43 129.193C178.079 129.283 177.832 129.471 177.689 129.754C177.547 130.037 177.528 130.38 177.632 130.784C177.734 131.179 177.922 131.46 178.197 131.628ZM178.172 129.854C178.246 129.722 178.366 129.635 178.533 129.592C178.7 129.549 178.845 129.567 178.967 129.648C179.09 129.729 179.179 129.87 179.235 130.074L178.111 130.363C178.079 130.156 178.099 129.986 178.172 129.854Z" fill="white"/>
<path d="M180.771 130.967C181.002 131.146 181.271 131.196 181.58 131.117C181.905 131.033 182.121 130.847 182.226 130.558L182.251 130.551L182.426 130.852L182.838 130.745L181.942 127.263L181.414 127.399L181.645 128.301C181.672 128.404 181.721 128.541 181.792 128.712L181.765 128.719C181.533 128.521 181.255 128.466 180.93 128.549C180.619 128.629 180.405 128.805 180.288 129.076C180.171 129.347 180.165 129.687 180.269 130.092C180.373 130.497 180.541 130.788 180.771 130.967ZM180.798 129.281C180.859 129.105 180.983 128.994 181.167 128.947C181.384 128.892 181.56 128.916 181.695 129.021C181.83 129.126 181.938 129.334 182.018 129.646L182.038 129.721C182.104 129.994 182.104 130.204 182.037 130.352C181.97 130.498 181.829 130.601 181.612 130.656C181.418 130.706 181.254 130.671 181.12 130.552C180.986 130.433 180.884 130.236 180.813 129.962C180.742 129.684 180.737 129.457 180.798 129.281Z" fill="white"/>
<path d="M183.48 127.942L182.955 128.077L183.59 130.552L184.115 130.417L183.48 127.942Z" fill="white"/>
<path d="M183.125 127.641C183.217 127.618 183.282 127.573 183.32 127.508C183.359 127.444 183.366 127.366 183.344 127.276C183.319 127.183 183.275 127.117 183.211 127.08C183.146 127.042 183.067 127.035 182.974 127.058C182.879 127.083 182.812 127.128 182.774 127.192C182.735 127.256 182.728 127.336 182.752 127.429C182.775 127.518 182.819 127.583 182.885 127.62C182.949 127.659 183.029 127.666 183.125 127.641Z" fill="white"/>
<path d="M185.691 129.606C185.589 129.633 185.498 129.624 185.419 129.58C185.34 129.535 185.284 129.45 185.252 129.323L184.91 127.998L185.615 127.816L185.513 127.419L184.809 127.601L184.666 127.05L184.342 127.133L184.297 127.702L183.984 127.988L184.045 128.221L184.383 128.134L184.726 129.468C184.86 129.993 185.178 130.191 185.676 130.063C185.773 130.038 185.867 130.005 185.954 129.964C186.041 129.923 186.111 129.884 186.163 129.843L186.061 129.446C185.943 129.519 185.82 129.573 185.691 129.606Z" fill="white"/>
<path d="M189.594 128.524C189.472 128.585 189.341 128.633 189.202 128.67C188.881 128.752 188.61 128.712 188.387 128.55C188.165 128.386 188.002 128.105 187.899 127.703C187.801 127.32 187.811 126.997 187.931 126.734C188.051 126.471 188.265 126.3 188.573 126.22C188.708 126.185 188.843 126.173 188.976 126.179C189.109 126.187 189.238 126.204 189.362 126.227L189.44 125.733C189.119 125.665 188.793 125.675 188.459 125.761C188.141 125.842 187.881 125.98 187.681 126.177C187.48 126.374 187.35 126.616 187.291 126.903C187.233 127.191 187.246 127.504 187.334 127.844C187.473 128.384 187.708 128.766 188.039 128.991C188.371 129.215 188.776 129.265 189.254 129.142C189.58 129.058 189.859 128.935 190.09 128.772L189.972 128.313C189.843 128.392 189.717 128.464 189.594 128.524Z" fill="white"/>
<path d="M191.376 128.597C191.565 128.548 191.714 128.481 191.82 128.395C191.928 128.31 192.021 128.177 192.102 127.997L192.12 127.992L192.313 128.308L192.689 128.211L192.261 126.544C192.186 126.25 192.049 126.055 191.854 125.959C191.658 125.864 191.402 125.855 191.088 125.936C190.946 125.973 190.801 126.03 190.65 126.107C190.5 126.185 190.366 126.276 190.25 126.381L190.517 126.713C190.611 126.634 190.712 126.563 190.818 126.495C190.926 126.428 191.042 126.378 191.169 126.345C191.324 126.305 191.449 126.315 191.543 126.376C191.637 126.433 191.704 126.542 191.745 126.701L191.779 126.833L191.355 126.956C190.97 127.068 190.699 127.212 190.543 127.391C190.388 127.571 190.342 127.787 190.408 128.043C190.47 128.283 190.586 128.451 190.756 128.546C190.926 128.643 191.133 128.66 191.376 128.597ZM191.037 127.524C191.131 127.42 191.3 127.334 191.545 127.26L191.859 127.166L191.915 127.38C191.965 127.573 191.945 127.737 191.857 127.873C191.769 128.01 191.629 128.102 191.438 128.151C191.307 128.185 191.2 128.18 191.119 128.137C191.038 128.094 190.983 128.016 190.955 127.907C190.916 127.754 190.943 127.626 191.037 127.524Z" fill="white"/>
<path d="M193.949 127.887L193.617 126.593C193.561 126.374 193.58 126.179 193.676 126.009C193.771 125.837 193.924 125.725 194.134 125.671C194.215 125.65 194.294 125.639 194.373 125.638L194.299 125.134C194.227 125.137 194.137 125.151 194.031 125.179C193.879 125.218 193.748 125.298 193.639 125.419C193.528 125.539 193.451 125.684 193.407 125.853L193.381 125.859L193.199 125.441L192.787 125.548L193.424 128.022L193.949 127.887Z" fill="white"/>
<path d="M195.437 127.194C195.668 127.373 195.938 127.424 196.246 127.344C196.572 127.261 196.787 127.073 196.893 126.784L196.917 126.778L197.092 127.078L197.504 126.973L196.608 123.49L196.08 123.626L196.312 124.527C196.338 124.631 196.387 124.769 196.458 124.938L196.432 124.945C196.199 124.749 195.921 124.692 195.596 124.776C195.285 124.856 195.072 125.032 194.954 125.304C194.837 125.574 194.83 125.913 194.936 126.318C195.039 126.724 195.206 127.015 195.437 127.194ZM195.464 125.509C195.526 125.333 195.649 125.222 195.834 125.174C196.05 125.118 196.226 125.143 196.362 125.248C196.496 125.354 196.604 125.562 196.684 125.874L196.703 125.948C196.771 126.221 196.771 126.432 196.703 126.579C196.636 126.726 196.494 126.827 196.279 126.883C196.084 126.933 195.92 126.898 195.786 126.778C195.653 126.66 195.55 126.463 195.479 126.188C195.408 125.91 195.403 125.684 195.464 125.509Z" fill="white"/>
</svg>
