<svg width="24" height="25" viewBox="0 0 24 25" fill="none" xmlns="http://www.w3.org/2000/svg">
<g clip-path="url(#clip0_215_47970)">
<path d="M12 24.5C18.6274 24.5 24 19.1274 24 12.5C24 5.87258 18.6274 0.5 12 0.5C5.37258 0.5 0 5.87258 0 12.5C0 19.1274 5.37258 24.5 12 24.5Z" fill="#F0F3F5"/>
<path d="M2.48069 5.19531C1.53808 6.4217 0.827312 7.83522 0.413452 9.3708H6.65617L2.48069 5.19531Z" fill="#0010F7"/>
<path d="M23.5866 9.37076C23.1728 7.83522 22.4619 6.4217 21.5194 5.19531L17.344 9.37076H23.5866Z" fill="#0010F7"/>
<path d="M0.413452 15.6328C0.827358 17.1683 1.53812 18.5819 2.48069 19.8082L6.65603 15.6328H0.413452Z" fill="#0010F7"/>
<path d="M19.3076 2.98134C18.0812 2.03873 16.6678 1.32797 15.1322 0.914062V7.15673L19.3076 2.98134Z" fill="#0010F7"/>
<path d="M4.69446 22.0191C5.92085 22.9617 7.33436 23.6725 8.8699 24.0864V17.8438L4.69446 22.0191Z" fill="#0010F7"/>
<path d="M8.86985 0.914062C7.33432 1.32797 5.9208 2.03873 4.69446 2.9813L8.86985 7.15669V0.914062Z" fill="#0010F7"/>
<path d="M15.1322 24.0864C16.6677 23.6725 18.0812 22.9617 19.3076 22.0191L15.1322 17.8438V24.0864Z" fill="#0010F7"/>
<path d="M17.344 15.6328L21.5194 19.8082C22.4619 18.5819 23.1728 17.1683 23.5866 15.6328H17.344Z" fill="#0010F7"/>
<path d="M23.8984 10.9348H13.5653H13.5653V0.601578C13.0529 0.534875 12.5305 0.5 12 0.5C11.4694 0.5 10.9471 0.534875 10.4348 0.601578V10.9347V10.9347H0.101578C0.034875 11.4471 0 11.9695 0 12.5C0 13.0306 0.034875 13.5529 0.101578 14.0652H10.4347H10.4347V24.3984C10.9471 24.4651 11.4694 24.5 12 24.5C12.5305 24.5 13.0529 24.4652 13.5652 24.3984V14.0653V14.0653H23.8984C23.9651 13.5529 24 13.0306 24 12.5C24 11.9695 23.9651 11.4471 23.8984 10.9348Z" fill="#FF0022"/>
<path d="M15.1289 15.6329L20.4837 20.9877C20.73 20.7415 20.9649 20.4841 21.1891 20.2173L16.6046 15.6328H15.1289V15.6329Z" fill="#FF0022"/>
<path d="M8.8695 15.6328H8.86941L3.51465 20.9876C3.76084 21.2339 4.01823 21.4688 4.28504 21.693L8.8695 17.1084V15.6328Z" fill="#FF0022"/>
<path d="M8.86939 9.37058V9.37049L3.51458 4.01562C3.2683 4.26181 3.03336 4.5192 2.8092 4.78602L7.39372 9.37054H8.86939V9.37058Z" fill="#FF0022"/>
<path d="M15.1289 9.36883L20.4838 4.01392C20.2376 3.76764 19.9802 3.5327 19.7134 3.30859L15.1289 7.89311V9.36883Z" fill="#FF0022"/>
</g>
<defs>
<clipPath id="clip0_215_47970">
<rect width="24" height="24" fill="white" transform="translate(0 0.5)"/>
</clipPath>
</defs>
</svg>
