<svg xmlns="http://www.w3.org/2000/svg" xmlns:xlink="http://www.w3.org/1999/xlink" width="626" zoomAndPan="magnify" viewBox="0 0 469.5 312.749995" height="417" preserveAspectRatio="xMidYMid meet" version="1.0"><defs><clipPath id="936132fa59"><path d="M 66.503906 257 L 403.253906 257 L 403.253906 258 L 66.503906 258 Z M 66.503906 257 " clip-rule="nonzero"/></clipPath></defs><g clip-path="url(#936132fa59)"><path fill="#ebebeb" d="M 66.503906 257.585938 L 403.253906 257.585938 L 403.253906 257.757812 L 66.503906 257.757812 Z M 66.503906 257.585938 " fill-opacity="1" fill-rule="nonzero"/></g><path fill="#ebebeb" d="M 261.960938 262.175781 L 279.105469 262.175781 L 279.105469 262.34375 L 261.960938 262.34375 Z M 261.960938 262.175781 " fill-opacity="1" fill-rule="nonzero"/><path fill="#ebebeb" d="M 332.609375 265.816406 L 373.242188 265.816406 L 373.242188 265.988281 L 332.609375 265.988281 Z M 332.609375 265.816406 " fill-opacity="1" fill-rule="nonzero"/><path fill="#ebebeb" d="M 216.332031 262.253906 L 258.308594 262.253906 L 258.308594 262.421875 L 216.332031 262.421875 Z M 216.332031 262.253906 " fill-opacity="1" fill-rule="nonzero"/><path fill="#ebebeb" d="M 180.324219 267.292969 L 189.105469 267.292969 L 189.105469 267.460938 L 180.324219 267.460938 Z M 180.324219 267.292969 " fill-opacity="1" fill-rule="nonzero"/><path fill="#ebebeb" d="M 197.640625 267.292969 L 237.632812 267.292969 L 237.632812 267.460938 L 197.640625 267.460938 Z M 197.640625 267.292969 " fill-opacity="1" fill-rule="nonzero"/><path fill="#ebebeb" d="M 101.835938 264.449219 L 127.730469 264.449219 L 127.730469 264.621094 L 101.835938 264.621094 Z M 101.835938 264.449219 " fill-opacity="1" fill-rule="nonzero"/><path fill="#ebebeb" d="M 226.121094 227.550781 L 96.078125 227.550781 C 95.566406 227.550781 95.078125 227.449219 94.605469 227.253906 C 94.136719 227.058594 93.722656 226.78125 93.363281 226.421875 C 93 226.058594 92.722656 225.644531 92.53125 225.175781 C 92.335938 224.703125 92.238281 224.214844 92.238281 223.703125 L 92.238281 40.894531 C 92.242188 40.390625 92.34375 39.902344 92.539062 39.4375 C 92.734375 38.96875 93.015625 38.558594 93.375 38.199219 C 93.734375 37.84375 94.148438 37.570312 94.613281 37.375 C 95.082031 37.183594 95.570312 37.085938 96.078125 37.082031 L 226.121094 37.082031 C 226.632812 37.082031 227.125 37.179688 227.59375 37.375 C 228.066406 37.570312 228.480469 37.851562 228.84375 38.210938 C 229.203125 38.570312 229.480469 38.988281 229.675781 39.457031 C 229.871094 39.929688 229.96875 40.417969 229.96875 40.929688 L 229.96875 223.703125 C 229.96875 224.214844 229.871094 224.703125 229.675781 225.175781 C 229.480469 225.648438 229.203125 226.0625 228.84375 226.421875 C 228.480469 226.785156 228.066406 227.0625 227.59375 227.257812 C 227.125 227.453125 226.632812 227.550781 226.121094 227.550781 Z M 96.078125 37.21875 C 95.589844 37.21875 95.121094 37.3125 94.671875 37.5 C 94.222656 37.6875 93.824219 37.953125 93.480469 38.296875 C 93.136719 38.644531 92.871094 39.039062 92.683594 39.492188 C 92.5 39.941406 92.40625 40.410156 92.40625 40.894531 L 92.40625 223.703125 C 92.40625 224.191406 92.5 224.660156 92.683594 225.109375 C 92.871094 225.558594 93.136719 225.957031 93.480469 226.300781 C 93.824219 226.648438 94.222656 226.914062 94.671875 227.097656 C 95.121094 227.285156 95.589844 227.378906 96.078125 227.382812 L 226.121094 227.382812 C 226.609375 227.378906 227.078125 227.285156 227.527344 227.101562 C 227.980469 226.914062 228.375 226.648438 228.722656 226.300781 C 229.066406 225.957031 229.332031 225.558594 229.519531 225.109375 C 229.707031 224.660156 229.800781 224.191406 229.800781 223.703125 L 229.800781 40.894531 C 229.800781 40.410156 229.707031 39.941406 229.519531 39.488281 C 229.332031 39.039062 229.066406 38.640625 228.722656 38.296875 C 228.375 37.953125 227.980469 37.6875 227.527344 37.5 C 227.078125 37.3125 226.609375 37.21875 226.121094 37.21875 Z M 96.078125 37.21875 " fill-opacity="1" fill-rule="nonzero"/><path fill="#ebebeb" d="M 371.808594 227.550781 L 241.753906 227.550781 C 241.246094 227.550781 240.753906 227.449219 240.285156 227.253906 C 239.8125 227.058594 239.398438 226.78125 239.039062 226.421875 C 238.675781 226.0625 238.398438 225.644531 238.203125 225.175781 C 238.007812 224.703125 237.910156 224.214844 237.910156 223.703125 L 237.910156 40.894531 C 237.914062 40.390625 238.015625 39.902344 238.214844 39.4375 C 238.410156 38.96875 238.6875 38.558594 239.050781 38.199219 C 239.410156 37.84375 239.824219 37.570312 240.292969 37.375 C 240.761719 37.183594 241.246094 37.085938 241.753906 37.082031 L 371.808594 37.082031 C 372.3125 37.085938 372.800781 37.183594 373.265625 37.378906 C 373.734375 37.570312 374.148438 37.847656 374.507812 38.203125 C 374.863281 38.558594 375.140625 38.972656 375.339844 39.4375 C 375.535156 39.902344 375.636719 40.390625 375.640625 40.894531 L 375.640625 223.703125 C 375.640625 224.210938 375.542969 224.703125 375.347656 225.171875 C 375.152344 225.644531 374.878906 226.058594 374.519531 226.417969 C 374.160156 226.777344 373.746094 227.058594 373.273438 227.253906 C 372.804688 227.449219 372.316406 227.546875 371.808594 227.550781 Z M 241.753906 37.21875 C 241.265625 37.21875 240.796875 37.3125 240.347656 37.5 C 239.898438 37.6875 239.5 37.953125 239.15625 38.296875 C 238.8125 38.640625 238.546875 39.039062 238.359375 39.488281 C 238.171875 39.941406 238.078125 40.410156 238.078125 40.894531 L 238.078125 223.703125 C 238.078125 224.191406 238.171875 224.660156 238.359375 225.109375 C 238.546875 225.558594 238.8125 225.957031 239.15625 226.300781 C 239.5 226.648438 239.898438 226.914062 240.347656 227.101562 C 240.796875 227.285156 241.265625 227.378906 241.753906 227.382812 L 371.808594 227.382812 C 372.296875 227.378906 372.761719 227.285156 373.214844 227.101562 C 373.664062 226.914062 374.0625 226.648438 374.40625 226.300781 C 374.75 225.957031 375.015625 225.558594 375.203125 225.109375 C 375.390625 224.660156 375.484375 224.191406 375.484375 223.703125 L 375.484375 40.894531 C 375.484375 40.410156 375.390625 39.941406 375.203125 39.488281 C 375.015625 39.039062 374.75 38.640625 374.40625 38.296875 C 374.0625 37.953125 373.664062 37.6875 373.214844 37.5 C 372.761719 37.3125 372.292969 37.21875 371.808594 37.21875 Z M 241.753906 37.21875 " fill-opacity="1" fill-rule="nonzero"/><path fill="#e6e6e6" d="M 198.480469 199.175781 L 153.761719 199.175781 L 151.046875 167.859375 L 195.769531 167.859375 Z M 198.480469 199.175781 " fill-opacity="1" fill-rule="nonzero"/><path fill="#f0f0f0" d="M 200.800781 199.175781 L 156.078125 199.175781 L 153.363281 167.859375 L 198.085938 167.859375 Z M 200.800781 199.175781 " fill-opacity="1" fill-rule="nonzero"/><path fill="#ffffff" d="M 162.195312 192.445312 L 160.699219 174.578125 L 191.96875 174.578125 L 193.464844 192.445312 Z M 162.195312 192.445312 " fill-opacity="1" fill-rule="nonzero"/><path fill="#e6e6e6" d="M 203.292969 199.175781 L 208.539062 199.175781 L 208.539062 257.585938 L 203.292969 257.585938 Z M 203.292969 199.175781 " fill-opacity="1" fill-rule="nonzero"/><path fill="#f0f0f0" d="M 206.550781 199.175781 L 210.195312 199.175781 L 210.195312 257.585938 L 206.550781 257.585938 Z M 206.550781 199.175781 " fill-opacity="1" fill-rule="nonzero"/><path fill="#f0f0f0" d="M 210.195312 205.621094 L 159.40625 205.621094 L 159.40625 199.175781 L 210.195312 199.175781 Z M 210.195312 205.621094 " fill-opacity="1" fill-rule="nonzero"/><path fill="#e6e6e6" d="M 155.949219 205.621094 L 161.199219 205.621094 L 161.199219 257.585938 L 155.949219 257.585938 Z M 155.949219 205.621094 " fill-opacity="1" fill-rule="nonzero"/><path fill="#f0f0f0" d="M 159.210938 205.621094 L 162.855469 205.621094 L 162.855469 257.585938 L 159.210938 257.585938 Z M 159.210938 205.621094 " fill-opacity="1" fill-rule="nonzero"/><path fill="#e6e6e6" d="M 118.605469 205.621094 L 123.851562 205.621094 L 123.851562 257.585938 L 118.605469 257.585938 Z M 118.605469 205.621094 " fill-opacity="1" fill-rule="nonzero"/><path fill="#f0f0f0" d="M 121.863281 205.621094 L 125.507812 205.621094 L 125.507812 257.585938 L 121.863281 257.585938 Z M 121.863281 205.621094 " fill-opacity="1" fill-rule="nonzero"/><path fill="#e6e6e6" d="M 170.085938 205.621094 L 175.335938 205.621094 L 175.335938 257.585938 L 170.085938 257.585938 Z M 170.085938 205.621094 " fill-opacity="1" fill-rule="nonzero"/><path fill="#f0f0f0" d="M 173.339844 205.621094 L 176.984375 205.621094 L 176.984375 257.585938 L 173.339844 257.585938 Z M 173.339844 205.621094 " fill-opacity="1" fill-rule="nonzero"/><path fill="#e6e6e6" d="M 118.605469 199.175781 L 159.40625 199.175781 L 159.40625 205.621094 L 118.605469 205.621094 Z M 118.605469 199.175781 " fill-opacity="1" fill-rule="nonzero"/><path fill="#e0e0e0" d="M 153.726562 53.523438 L 311.550781 53.523438 L 311.550781 141.390625 L 153.726562 141.390625 Z M 153.726562 53.523438 " fill-opacity="1" fill-rule="nonzero"/><path fill="#f5f5f5" d="M 154.523438 53.523438 L 320.21875 53.523438 L 320.21875 141.390625 L 154.523438 141.390625 Z M 154.523438 53.523438 " fill-opacity="1" fill-rule="nonzero"/><path fill="#ffffff" d="M 317.511719 56.230469 L 317.511719 138.679688 L 157.230469 138.679688 L 157.230469 56.230469 Z M 317.511719 56.230469 " fill-opacity="1" fill-rule="nonzero"/><path fill="#f5f5f5" d="M 222.128906 138.679688 L 252.390625 56.230469 L 202.449219 56.230469 L 172.1875 138.679688 Z M 222.128906 138.679688 " fill-opacity="1" fill-rule="nonzero"/><path fill="#f5f5f5" d="M 270.195312 138.679688 L 300.457031 56.230469 L 262.78125 56.230469 L 232.519531 138.679688 Z M 270.195312 138.679688 " fill-opacity="1" fill-rule="nonzero"/><path fill="#e6e6e6" d="M 348.152344 173.667969 L 361.570312 173.667969 L 361.570312 257.585938 L 348.152344 257.585938 Z M 348.152344 173.667969 " fill-opacity="1" fill-rule="nonzero"/><path fill="#fafafa" d="M 358.042969 257.585938 L 361.570312 257.585938 L 361.570312 251.128906 L 354.34375 251.128906 Z M 358.042969 257.585938 " fill-opacity="1" fill-rule="nonzero"/><path fill="#e6e6e6" d="M 224.460938 173.667969 L 237.875 173.667969 L 237.875 257.585938 L 224.460938 257.585938 Z M 224.460938 173.667969 " fill-opacity="1" fill-rule="nonzero"/><path fill="#fafafa" d="M 234.796875 173.667969 L 361.570312 173.667969 L 361.570312 255.84375 L 234.796875 255.84375 Z M 234.796875 173.667969 " fill-opacity="1" fill-rule="nonzero"/><path fill="#e6e6e6" d="M 359.171875 200.183594 L 237.203125 200.183594 L 237.203125 176.976562 L 359.171875 176.976562 Z M 237.875 199.511719 L 358.5 199.511719 L 358.5 177.648438 L 237.875 177.648438 Z M 237.875 199.511719 " fill-opacity="1" fill-rule="nonzero"/><path fill="#e6e6e6" d="M 337.703125 188.246094 L 261.035156 188.246094 C 257.480469 188.246094 254.054688 185.375 251.609375 180.363281 L 251.378906 179.886719 L 347.351562 179.886719 L 347.125 180.363281 C 344.660156 185.375 341.292969 188.246094 337.703125 188.246094 Z M 252.484375 180.539062 C 254.761719 185.003906 257.871094 187.550781 261.035156 187.550781 L 337.703125 187.550781 C 340.878906 187.550781 343.980469 185.003906 346.253906 180.539062 Z M 252.484375 180.539062 " fill-opacity="1" fill-rule="nonzero"/><path fill="#fafafa" d="M 238.328125 257.585938 L 234.796875 257.585938 L 234.796875 251.128906 L 242.023438 251.128906 Z M 238.328125 257.585938 " fill-opacity="1" fill-rule="nonzero"/><path fill="#e6e6e6" d="M 359.171875 226.335938 L 237.203125 226.335938 L 237.203125 203.15625 L 359.171875 203.15625 Z M 237.875 225.664062 L 358.5 225.664062 L 358.5 203.828125 L 237.875 203.828125 Z M 237.875 225.664062 " fill-opacity="1" fill-rule="nonzero"/><path fill="#e6e6e6" d="M 337.703125 214.421875 L 261.035156 214.421875 C 257.480469 214.421875 254.054688 211.546875 251.609375 206.542969 L 251.378906 206.058594 L 347.351562 206.058594 L 347.125 206.542969 C 344.660156 211.519531 341.292969 214.421875 337.703125 214.421875 Z M 252.484375 206.730469 C 254.761719 211.195312 257.871094 213.75 261.035156 213.75 L 337.703125 213.75 C 340.878906 213.75 343.980469 211.195312 346.253906 206.730469 Z M 252.484375 206.730469 " fill-opacity="1" fill-rule="nonzero"/><path fill="#e6e6e6" d="M 359.171875 252.535156 L 237.203125 252.535156 L 237.203125 229.328125 L 359.171875 229.328125 Z M 237.875 251.863281 L 358.5 251.863281 L 358.5 230 L 237.875 230 Z M 237.875 251.863281 " fill-opacity="1" fill-rule="nonzero"/><path fill="#e6e6e6" d="M 337.703125 240.59375 L 261.035156 240.59375 C 257.480469 240.59375 254.054688 237.726562 251.609375 232.722656 L 251.378906 232.238281 L 347.351562 232.238281 L 347.125 232.722656 C 344.660156 237.726562 341.292969 240.59375 337.703125 240.59375 Z M 252.484375 232.910156 C 254.761719 237.375 257.871094 239.921875 261.035156 239.921875 L 337.703125 239.921875 C 340.878906 239.921875 343.980469 237.375 346.253906 232.910156 Z M 252.484375 232.910156 " fill-opacity="1" fill-rule="nonzero"/><path fill="#e6e6e6" d="M 147.984375 184.769531 L 147.984375 186.398438 L 146.945312 186.398438 L 146.085938 199.175781 L 133.394531 199.175781 L 132.539062 186.398438 L 131.496094 186.398438 L 131.496094 184.769531 Z M 147.984375 184.769531 " fill-opacity="1" fill-rule="nonzero"/><path fill="#e6e6e6" d="M 143.808594 153.066406 C 142.769531 145.457031 132.5 143.289062 119.46875 143.003906 C 107.066406 142.742188 103.09375 138.359375 103.09375 138.359375 C 103.09375 138.359375 103.136719 156.117188 121.003906 162.558594 C 137.96875 168.660156 144.851562 160.691406 143.808594 153.066406 Z M 143.808594 153.066406 " fill-opacity="1" fill-rule="nonzero"/><path fill="#e6e6e6" d="M 137.476562 170.316406 C 137.691406 167.191406 142.691406 161.4375 154.710938 164.050781 C 163.398438 165.945312 166.632812 161.4375 166.632812 161.4375 C 166.632812 161.4375 165.824219 174.15625 152.757812 177.972656 C 140.347656 181.605469 137.09375 175.824219 137.476562 170.316406 Z M 137.476562 170.316406 " fill-opacity="1" fill-rule="nonzero"/><path fill="#e6e6e6" d="M 140.21875 189.5625 C 140.363281 189.566406 140.480469 189.511719 140.574219 189.402344 C 141.445312 188.371094 140.730469 185.90625 139.746094 182.492188 C 138.480469 178.113281 136.902344 172.660156 138.238281 168.707031 C 138.976562 166.617188 139.839844 164.578125 140.824219 162.589844 C 142.710938 158.605469 144.339844 155.183594 142.980469 151.558594 C 142.933594 151.4375 142.851562 151.351562 142.734375 151.296875 C 142.617188 151.242188 142.5 151.238281 142.378906 151.285156 C 142.257812 151.332031 142.171875 151.414062 142.117188 151.53125 C 142.066406 151.648438 142.0625 151.769531 142.109375 151.890625 C 143.328125 155.113281 141.855469 158.238281 139.980469 162.199219 C 138.984375 164.21875 138.109375 166.289062 137.355469 168.410156 C 135.933594 172.640625 137.550781 178.25 138.851562 182.75 C 139.617188 185.441406 140.414062 188.136719 139.867188 188.808594 C 139.777344 188.910156 139.734375 189.023438 139.746094 189.160156 C 139.757812 189.292969 139.816406 189.402344 139.921875 189.484375 C 140.011719 189.546875 140.109375 189.574219 140.21875 189.5625 Z M 140.21875 189.5625 " fill-opacity="1" fill-rule="nonzero"/><path fill="#f5f5f5" d="M 365.464844 280.378906 C 365.464844 280.503906 365.410156 280.628906 365.304688 280.753906 C 365.199219 280.878906 365.042969 281.003906 364.835938 281.125 C 364.625 281.25 364.363281 281.375 364.050781 281.496094 C 363.734375 281.621094 363.371094 281.742188 362.953125 281.867188 C 362.539062 281.988281 362.070312 282.109375 361.550781 282.230469 C 361.03125 282.351562 360.460938 282.472656 359.839844 282.59375 C 359.21875 282.710938 358.550781 282.828125 357.828125 282.949219 C 357.109375 283.066406 356.339844 283.179688 355.523438 283.296875 C 354.707031 283.410156 353.839844 283.527344 352.925781 283.640625 C 352.011719 283.75 351.050781 283.863281 350.042969 283.972656 C 349.035156 284.082031 347.984375 284.191406 346.882812 284.296875 C 345.785156 284.40625 344.644531 284.511719 343.457031 284.613281 C 342.269531 284.71875 341.039062 284.820312 339.765625 284.921875 C 338.492188 285.019531 337.175781 285.121094 335.820312 285.214844 C 334.464844 285.3125 333.070312 285.40625 331.636719 285.5 C 330.199219 285.589844 328.726562 285.683594 327.214844 285.769531 C 325.703125 285.859375 324.15625 285.945312 322.574219 286.027344 C 320.992188 286.113281 319.371094 286.195312 317.71875 286.273438 C 316.070312 286.351562 314.382812 286.429688 312.667969 286.503906 C 310.949219 286.578125 309.203125 286.648438 307.425781 286.71875 C 305.652344 286.789062 303.84375 286.855469 302.011719 286.917969 C 300.179688 286.984375 298.320312 287.042969 296.4375 287.101562 C 294.550781 287.160156 292.640625 287.21875 290.710938 287.269531 C 288.777344 287.324219 286.824219 287.375 284.851562 287.421875 C 282.875 287.46875 280.882812 287.515625 278.871094 287.558594 C 276.859375 287.597656 274.832031 287.636719 272.785156 287.675781 C 270.738281 287.710938 268.679688 287.746094 266.609375 287.773438 C 264.535156 287.804688 262.449219 287.832031 260.355469 287.855469 C 258.257812 287.882812 256.152344 287.902344 254.039062 287.921875 C 251.925781 287.9375 249.804688 287.953125 247.679688 287.964844 C 245.550781 287.980469 243.421875 287.988281 241.285156 287.992188 C 239.152344 288 237.015625 288.003906 234.878906 288.003906 C 232.742188 288.003906 230.605469 288 228.472656 287.992188 C 226.335938 287.988281 224.207031 287.980469 222.078125 287.964844 C 219.953125 287.953125 217.832031 287.9375 215.71875 287.921875 C 213.601562 287.902344 211.5 287.882812 209.402344 287.855469 C 207.304688 287.832031 205.222656 287.804688 203.148438 287.773438 C 201.074219 287.746094 199.015625 287.710938 196.972656 287.675781 C 194.925781 287.636719 192.898438 287.597656 190.886719 287.558594 C 188.875 287.515625 186.878906 287.46875 184.90625 287.421875 C 182.929688 287.375 180.976562 287.324219 179.046875 287.269531 C 177.113281 287.21875 175.207031 287.160156 173.320312 287.101562 C 171.4375 287.042969 169.578125 286.984375 167.746094 286.917969 C 165.910156 286.855469 164.105469 286.789062 162.328125 286.71875 C 160.550781 286.648438 158.804688 286.578125 157.089844 286.503906 C 155.371094 286.429688 153.6875 286.351562 152.035156 286.273438 C 150.382812 286.195312 148.765625 286.113281 147.183594 286.027344 C 145.597656 285.945312 144.050781 285.859375 142.539062 285.769531 C 141.03125 285.683594 139.554688 285.589844 138.121094 285.5 C 136.6875 285.40625 135.289062 285.3125 133.933594 285.214844 C 132.578125 285.121094 131.265625 285.019531 129.992188 284.921875 C 128.71875 284.820312 127.488281 284.71875 126.300781 284.613281 C 125.113281 284.511719 123.96875 284.40625 122.871094 284.296875 C 121.773438 284.191406 120.71875 284.082031 119.710938 283.972656 C 118.707031 283.863281 117.746094 283.75 116.832031 283.640625 C 115.917969 283.527344 115.050781 283.410156 114.234375 283.296875 C 113.414062 283.179688 112.648438 283.066406 111.925781 282.949219 C 111.207031 282.828125 110.535156 282.710938 109.917969 282.59375 C 109.296875 282.472656 108.726562 282.351562 108.207031 282.230469 C 107.6875 282.109375 107.21875 281.988281 106.800781 281.867188 C 106.386719 281.742188 106.019531 281.621094 105.707031 281.496094 C 105.394531 281.375 105.132812 281.25 104.921875 281.125 C 104.710938 281.003906 104.554688 280.878906 104.449219 280.753906 C 104.347656 280.628906 104.292969 280.503906 104.292969 280.378906 C 104.292969 280.253906 104.347656 280.128906 104.449219 280.003906 C 104.554688 279.878906 104.710938 279.757812 104.921875 279.632812 C 105.132812 279.507812 105.394531 279.382812 105.707031 279.261719 C 106.019531 279.136719 106.386719 279.015625 106.800781 278.890625 C 107.21875 278.769531 107.6875 278.648438 108.207031 278.527344 C 108.726562 278.40625 109.296875 278.285156 109.917969 278.164062 C 110.535156 278.046875 111.207031 277.929688 111.925781 277.8125 C 112.648438 277.691406 113.414062 277.578125 114.234375 277.460938 C 115.050781 277.347656 115.917969 277.230469 116.832031 277.121094 C 117.746094 277.007812 118.707031 276.894531 119.710938 276.785156 C 120.71875 276.675781 121.773438 276.566406 122.871094 276.460938 C 123.96875 276.351562 125.113281 276.246094 126.300781 276.144531 C 127.488281 276.039062 128.71875 275.9375 129.992188 275.835938 C 131.265625 275.738281 132.578125 275.640625 133.933594 275.542969 C 135.289062 275.445312 136.6875 275.351562 138.121094 275.257812 C 139.554688 275.167969 141.03125 275.078125 142.539062 274.988281 C 144.050781 274.898438 145.597656 274.8125 147.183594 274.730469 C 148.765625 274.644531 150.382812 274.566406 152.035156 274.484375 C 153.6875 274.40625 155.371094 274.328125 157.089844 274.253906 C 158.804688 274.179688 160.550781 274.109375 162.328125 274.039062 C 164.105469 273.96875 165.910156 273.902344 167.746094 273.839844 C 169.578125 273.777344 171.4375 273.714844 173.320312 273.65625 C 175.207031 273.597656 177.113281 273.539062 179.046875 273.488281 C 180.976562 273.433594 182.929688 273.382812 184.90625 273.335938 C 186.878906 273.289062 188.875 273.242188 190.886719 273.199219 C 192.898438 273.160156 194.925781 273.121094 196.972656 273.082031 C 199.015625 273.046875 201.074219 273.015625 203.148438 272.984375 C 205.222656 272.953125 207.304688 272.925781 209.402344 272.902344 C 211.5 272.878906 213.601562 272.855469 215.71875 272.835938 C 217.832031 272.820312 219.953125 272.804688 222.078125 272.792969 C 224.207031 272.78125 226.335938 272.769531 228.472656 272.765625 C 230.605469 272.757812 232.742188 272.753906 234.878906 272.753906 C 237.015625 272.753906 239.152344 272.757812 241.285156 272.765625 C 243.421875 272.769531 245.550781 272.78125 247.679688 272.792969 C 249.804688 272.804688 251.925781 272.820312 254.039062 272.835938 C 256.152344 272.855469 258.257812 272.878906 260.355469 272.902344 C 262.449219 272.925781 264.535156 272.953125 266.609375 272.984375 C 268.679688 273.015625 270.738281 273.046875 272.785156 273.082031 C 274.832031 273.121094 276.859375 273.160156 278.871094 273.199219 C 280.882812 273.242188 282.875 273.289062 284.851562 273.335938 C 286.824219 273.382812 288.777344 273.433594 290.710938 273.488281 C 292.640625 273.539062 294.550781 273.597656 296.4375 273.65625 C 298.320312 273.714844 300.179688 273.777344 302.011719 273.839844 C 303.84375 273.902344 305.652344 273.96875 307.425781 274.039062 C 309.203125 274.109375 310.949219 274.179688 312.667969 274.253906 C 314.382812 274.328125 316.070312 274.40625 317.71875 274.484375 C 319.371094 274.566406 320.992188 274.644531 322.574219 274.730469 C 324.15625 274.8125 325.703125 274.898438 327.214844 274.988281 C 328.726562 275.078125 330.199219 275.167969 331.636719 275.257812 C 333.070312 275.351562 334.464844 275.445312 335.820312 275.542969 C 337.175781 275.640625 338.492188 275.738281 339.765625 275.835938 C 341.039062 275.9375 342.269531 276.039062 343.457031 276.144531 C 344.644531 276.246094 345.785156 276.351562 346.882812 276.460938 C 347.984375 276.566406 349.035156 276.675781 350.042969 276.785156 C 351.050781 276.894531 352.011719 277.007812 352.925781 277.121094 C 353.839844 277.230469 354.707031 277.347656 355.523438 277.460938 C 356.339844 277.578125 357.109375 277.691406 357.828125 277.8125 C 358.550781 277.929688 359.21875 278.046875 359.839844 278.164062 C 360.460938 278.285156 361.03125 278.40625 361.550781 278.527344 C 362.070312 278.648438 362.539062 278.769531 362.953125 278.890625 C 363.371094 279.015625 363.734375 279.136719 364.050781 279.261719 C 364.363281 279.382812 364.625 279.507812 364.835938 279.632812 C 365.042969 279.757812 365.199219 279.878906 365.304688 280.003906 C 365.410156 280.128906 365.464844 280.253906 365.464844 280.378906 Z M 365.464844 280.378906 " fill-opacity="1" fill-rule="nonzero"/><path fill="#407bff" d="M 234.851562 243.207031 L 139.214844 243.207031 L 133.980469 89.402344 L 229.617188 89.402344 Z M 234.851562 243.207031 " fill-opacity="1" fill-rule="nonzero"/><path fill="#407bff" d="M 239.625 238.433594 L 143.988281 238.433594 L 138.75 84.625 L 234.386719 84.625 Z M 239.625 238.433594 " fill-opacity="1" fill-rule="nonzero"/><path fill="#ffffff" d="M 239.625 238.433594 L 143.988281 238.433594 L 138.75 84.625 L 234.386719 84.625 Z M 239.625 238.433594 " fill-opacity="0.298" fill-rule="nonzero"/><path fill="#407bff" d="M 206.609375 109.875 C 207.25 110.5 207.855469 111.160156 208.433594 111.84375 C 209.007812 112.53125 209.550781 113.242188 210.058594 113.976562 C 210.570312 114.714844 211.039062 115.472656 211.476562 116.253906 C 211.910156 117.035156 212.308594 117.832031 212.667969 118.648438 C 213.023438 119.46875 213.34375 120.296875 213.621094 121.144531 C 213.898438 121.988281 214.132812 122.84375 214.328125 123.710938 C 214.519531 124.574219 214.671875 125.445312 214.78125 126.324219 C 214.890625 127.203125 214.957031 128.082031 214.976562 128.960938 C 215 129.84375 214.980469 130.722656 214.914062 131.597656 C 214.851562 132.472656 214.746094 133.34375 214.59375 134.207031 C 214.445312 135.070312 214.253906 135.921875 214.019531 136.761719 C 213.785156 137.601562 213.507812 138.429688 213.191406 139.238281 C 212.875 140.050781 212.519531 140.84375 212.125 141.617188 C 211.730469 142.390625 211.296875 143.140625 210.824219 143.871094 C 210.355469 144.597656 209.847656 145.300781 209.304688 145.976562 C 208.765625 146.652344 208.191406 147.300781 207.582031 147.917969 C 206.976562 148.535156 206.339844 149.121094 205.671875 149.675781 C 205.003906 150.226562 204.3125 150.746094 203.589844 151.230469 C 202.871094 151.710938 202.128906 152.15625 201.359375 152.566406 C 200.59375 152.976562 199.808594 153.34375 199.003906 153.675781 C 198.195312 154.003906 197.375 154.296875 196.539062 154.542969 C 195.703125 154.792969 194.851562 155 193.992188 155.164062 C 193.132812 155.328125 192.265625 155.449219 191.390625 155.527344 C 190.515625 155.609375 189.636719 155.644531 188.757812 155.636719 C 187.875 155.628906 186.996094 155.578125 186.117188 155.484375 C 185.238281 155.390625 184.363281 155.253906 183.492188 155.074219 C 182.625 154.894531 181.765625 154.675781 180.914062 154.410156 C 180.066406 154.148438 179.230469 153.84375 178.40625 153.5 C 177.582031 153.15625 176.777344 152.773438 175.992188 152.351562 C 175.203125 151.929688 174.4375 151.472656 173.691406 150.976562 C 172.945312 150.480469 172.226562 149.949219 171.53125 149.386719 C 170.832031 148.820312 170.167969 148.222656 169.527344 147.59375 C 168.886719 146.96875 168.28125 146.308594 167.703125 145.625 C 167.128906 144.9375 166.585938 144.226562 166.078125 143.492188 C 165.566406 142.753906 165.097656 141.996094 164.660156 141.214844 C 164.226562 140.433594 163.828125 139.636719 163.472656 138.820312 C 163.113281 138 162.796875 137.171875 162.519531 136.324219 C 162.242188 135.480469 162.003906 134.625 161.8125 133.757812 C 161.617188 132.894531 161.464844 132.023438 161.355469 131.144531 C 161.246094 130.265625 161.183594 129.386719 161.160156 128.507812 C 161.136719 127.625 161.15625 126.746094 161.222656 125.871094 C 161.285156 124.996094 161.390625 124.125 161.542969 123.261719 C 161.691406 122.398438 161.882812 121.546875 162.117188 120.707031 C 162.351562 119.867188 162.628906 119.039062 162.945312 118.230469 C 163.261719 117.417969 163.617188 116.625 164.011719 115.851562 C 164.40625 115.078125 164.839844 114.328125 165.3125 113.597656 C 165.78125 112.871094 166.289062 112.167969 166.832031 111.492188 C 167.371094 110.816406 167.945312 110.167969 168.554688 109.550781 C 169.160156 108.933594 169.796875 108.347656 170.464844 107.792969 C 171.132812 107.242188 171.828125 106.722656 172.546875 106.238281 C 173.265625 105.757812 174.011719 105.3125 174.777344 104.902344 C 175.542969 104.492188 176.328125 104.125 177.136719 103.792969 C 177.941406 103.464844 178.761719 103.175781 179.597656 102.925781 C 180.4375 102.675781 181.285156 102.46875 182.144531 102.304688 C 183.003906 102.140625 183.871094 102.019531 184.746094 101.941406 C 185.621094 101.859375 186.5 101.824219 187.378906 101.832031 C 188.261719 101.839844 189.140625 101.890625 190.019531 101.984375 C 190.902344 102.078125 191.773438 102.214844 192.644531 102.394531 C 193.511719 102.574219 194.371094 102.792969 195.222656 103.058594 C 196.070312 103.320312 196.90625 103.625 197.730469 103.96875 C 198.554688 104.3125 199.359375 104.695312 200.148438 105.117188 C 200.933594 105.539062 201.699219 105.996094 202.445312 106.492188 C 203.191406 106.988281 203.914062 107.519531 204.609375 108.082031 C 205.304688 108.648438 205.96875 109.246094 206.609375 109.875 Z M 206.609375 109.875 " fill-opacity="1" fill-rule="nonzero"/><path fill="#ffffff" d="M 210.273438 128.742188 C 210.414062 132.464844 209.640625 135.992188 207.953125 139.316406 C 207.503906 140.191406 207 141.03125 206.4375 141.839844 C 205.875 142.644531 205.257812 143.410156 204.589844 144.132812 C 203.921875 144.851562 203.207031 145.523438 202.445312 146.144531 C 201.683594 146.769531 200.878906 147.335938 200.039062 147.84375 C 199.199219 148.355469 198.328125 148.808594 197.425781 149.195312 C 196.523438 149.585938 195.597656 149.914062 194.648438 150.175781 C 193.699219 150.433594 192.738281 150.628906 191.761719 150.757812 C 190.789062 150.886719 189.808594 150.945312 188.824219 150.9375 C 186.800781 150.929688 184.8125 150.65625 182.863281 150.121094 C 180.910156 149.589844 179.0625 148.8125 177.3125 147.792969 C 175.566406 146.769531 173.980469 145.542969 172.558594 144.105469 C 171.132812 142.667969 169.917969 141.070312 168.914062 139.316406 C 167.015625 136.046875 166 132.519531 165.871094 128.742188 C 165.839844 128.019531 165.847656 127.300781 165.886719 126.582031 C 165.929688 125.863281 166.007812 125.148438 166.121094 124.4375 C 166.238281 123.726562 166.386719 123.023438 166.574219 122.328125 C 166.757812 121.628906 166.980469 120.945312 167.234375 120.273438 C 167.488281 119.597656 167.777344 118.941406 168.101562 118.296875 C 168.421875 117.652344 168.777344 117.023438 169.164062 116.417969 C 169.546875 115.808594 169.964844 115.222656 170.40625 114.65625 C 170.851562 114.089844 171.324219 113.546875 171.824219 113.027344 C 172.328125 112.507812 172.851562 112.019531 173.402344 111.550781 C 173.953125 111.085938 174.523438 110.652344 175.117188 110.246094 C 175.710938 109.835938 176.324219 109.460938 176.957031 109.117188 C 177.589844 108.773438 178.238281 108.460938 178.902344 108.179688 C 179.566406 107.902344 180.242188 107.65625 180.929688 107.445312 C 181.621094 107.234375 182.316406 107.058594 183.023438 106.921875 C 183.730469 106.78125 184.441406 106.675781 185.160156 106.609375 C 185.875 106.542969 186.59375 106.511719 187.316406 106.515625 C 188.050781 106.519531 188.785156 106.558594 189.515625 106.636719 C 190.246094 106.710938 190.972656 106.820312 191.695312 106.964844 C 192.414062 107.109375 193.128906 107.289062 193.832031 107.5 C 194.535156 107.710938 195.230469 107.957031 195.910156 108.234375 C 196.589844 108.515625 197.257812 108.824219 197.90625 109.164062 C 198.558594 109.507812 199.191406 109.878906 199.808594 110.28125 C 200.421875 110.683594 201.019531 111.113281 201.59375 111.574219 C 202.167969 112.03125 202.71875 112.515625 203.246094 113.027344 C 203.777344 113.539062 204.277344 114.074219 204.757812 114.636719 C 205.234375 115.195312 205.683594 115.777344 206.105469 116.378906 C 206.527344 116.980469 206.917969 117.601562 207.28125 118.242188 C 207.644531 118.878906 207.976562 119.535156 208.277344 120.207031 C 208.578125 120.878906 208.84375 121.5625 209.078125 122.257812 C 209.316406 122.957031 209.515625 123.664062 209.683594 124.378906 C 209.851562 125.09375 209.984375 125.816406 210.082031 126.546875 C 210.183594 127.273438 210.246094 128.003906 210.273438 128.742188 Z M 210.273438 128.742188 " fill-opacity="1" fill-rule="nonzero"/><path fill="#407bff" d="M 207.9375 139.316406 C 207.492188 140.191406 206.988281 141.03125 206.425781 141.839844 C 205.863281 142.644531 205.246094 143.410156 204.578125 144.132812 C 203.90625 144.851562 203.191406 145.523438 202.429688 146.144531 C 201.667969 146.769531 200.867188 147.335938 200.027344 147.84375 C 199.1875 148.355469 198.3125 148.808594 197.410156 149.195312 C 196.507812 149.585938 195.582031 149.914062 194.632812 150.175781 C 193.6875 150.433594 192.722656 150.628906 191.75 150.757812 C 190.773438 150.886719 189.792969 150.945312 188.8125 150.9375 C 186.789062 150.929688 184.800781 150.65625 182.847656 150.121094 C 180.898438 149.589844 179.046875 148.8125 177.300781 147.792969 C 175.554688 146.769531 173.96875 145.542969 172.542969 144.105469 C 171.121094 142.667969 169.90625 141.070312 168.902344 139.316406 C 171.75 137.371094 174.820312 135.898438 178.117188 134.886719 C 181.414062 133.878906 184.785156 133.378906 188.230469 133.394531 C 191.734375 133.402344 195.164062 133.910156 198.515625 134.917969 C 201.871094 135.925781 205.011719 137.390625 207.9375 139.316406 Z M 207.9375 139.316406 " fill-opacity="0.6" fill-rule="nonzero"/><path fill="#407bff" d="M 194.628906 114.199219 C 195.101562 114.660156 195.523438 115.164062 195.898438 115.707031 C 196.273438 116.25 196.59375 116.824219 196.855469 117.425781 C 197.121094 118.027344 197.324219 118.648438 197.46875 119.285156 C 197.609375 119.921875 197.691406 120.566406 197.707031 121.214844 C 197.722656 121.867188 197.675781 122.507812 197.566406 123.144531 C 197.457031 123.78125 197.285156 124.398438 197.050781 124.996094 C 196.816406 125.59375 196.527344 126.160156 196.179688 126.699219 C 195.832031 127.234375 195.4375 127.730469 194.988281 128.1875 C 194.539062 128.640625 194.050781 129.046875 193.519531 129.402344 C 192.988281 129.761719 192.425781 130.058594 191.832031 130.304688 C 191.238281 130.546875 190.625 130.730469 189.992188 130.851562 C 189.355469 130.972656 188.714844 131.03125 188.066406 131.023438 C 187.414062 131.019531 186.769531 130.949219 186.128906 130.820312 C 185.488281 130.6875 184.867188 130.492188 184.257812 130.238281 C 183.652344 129.984375 183.074219 129.675781 182.527344 129.3125 C 181.976562 128.945312 181.464844 128.53125 180.996094 128.066406 C 180.523438 127.605469 180.101562 127.101562 179.726562 126.558594 C 179.351562 126.015625 179.03125 125.441406 178.769531 124.839844 C 178.503906 124.238281 178.300781 123.617188 178.15625 122.980469 C 178.015625 122.34375 177.933594 121.699219 177.917969 121.050781 C 177.902344 120.398438 177.949219 119.757812 178.058594 119.121094 C 178.167969 118.484375 178.339844 117.867188 178.574219 117.269531 C 178.808594 116.671875 179.097656 116.105469 179.445312 115.566406 C 179.792969 115.03125 180.1875 114.535156 180.636719 114.078125 C 181.085938 113.625 181.574219 113.21875 182.105469 112.863281 C 182.636719 112.503906 183.199219 112.207031 183.792969 111.960938 C 184.386719 111.71875 185 111.535156 185.632812 111.414062 C 186.269531 111.292969 186.910156 111.234375 187.558594 111.242188 C 188.210938 111.246094 188.855469 111.316406 189.496094 111.449219 C 190.136719 111.578125 190.757812 111.773438 191.367188 112.027344 C 191.972656 112.28125 192.550781 112.589844 193.097656 112.953125 C 193.648438 113.320312 194.160156 113.734375 194.628906 114.199219 Z M 194.628906 114.199219 " fill-opacity="0.6" fill-rule="nonzero"/><path fill="#ffffff" d="M 220.410156 182.734375 L 159.40625 182.734375 L 158.996094 170.613281 L 220 170.613281 Z M 220.410156 182.734375 " fill-opacity="1" fill-rule="nonzero"/><path fill="#ffffff" d="M 221.152344 204.402344 L 160.140625 204.402344 L 159.730469 192.277344 L 220.742188 192.277344 Z M 221.152344 204.402344 " fill-opacity="1" fill-rule="nonzero"/><path fill="#407bff" d="M 197.605469 193.949219 L 182.90625 195.96875 C 182.761719 195.984375 182.628906 196.03125 182.507812 196.101562 C 182.382812 196.171875 182.277344 196.265625 182.195312 196.382812 C 182.109375 196.496094 182.050781 196.625 182.019531 196.761719 C 181.988281 196.902344 181.988281 197.042969 182.015625 197.183594 L 183.949219 207.035156 C 184.015625 207.335938 184.171875 207.574219 184.421875 207.75 C 184.671875 207.925781 184.949219 207.996094 185.253906 207.957031 L 199.957031 205.9375 C 200.097656 205.917969 200.230469 205.875 200.351562 205.800781 C 200.476562 205.730469 200.578125 205.632812 200.664062 205.519531 C 200.746094 205.402344 200.804688 205.277344 200.835938 205.136719 C 200.863281 204.996094 200.867188 204.859375 200.839844 204.71875 L 198.914062 194.863281 C 198.847656 194.566406 198.691406 194.328125 198.4375 194.152344 C 198.1875 193.976562 197.910156 193.910156 197.605469 193.949219 Z M 193.382812 203.929688 L 190.691406 204.285156 L 190.425781 201.109375 C 189.828125 200.847656 189.460938 200.398438 189.328125 199.761719 C 189.28125 199.527344 189.277344 199.296875 189.328125 199.066406 C 189.375 198.832031 189.46875 198.621094 189.609375 198.425781 C 189.746094 198.234375 189.917969 198.078125 190.125 197.960938 C 190.328125 197.839844 190.546875 197.765625 190.785156 197.742188 C 191.023438 197.710938 191.261719 197.722656 191.492188 197.78125 C 191.726562 197.839844 191.945312 197.9375 192.140625 198.078125 C 192.335938 198.214844 192.503906 198.386719 192.636719 198.585938 C 192.769531 198.789062 192.863281 199.007812 192.914062 199.242188 C 192.972656 199.53125 192.953125 199.816406 192.859375 200.097656 C 192.765625 200.378906 192.609375 200.617188 192.386719 200.8125 Z M 193.382812 203.929688 " fill-opacity="1" fill-rule="nonzero"/><path fill="#407bff" d="M 196.152344 193.417969 C 195.882812 193.449219 195.636719 193.390625 195.414062 193.234375 C 195.191406 193.078125 195.050781 192.867188 194.992188 192.601562 L 194.804688 191.640625 C 194.671875 190.980469 194.425781 190.367188 194.066406 189.800781 C 193.710938 189.234375 193.265625 188.746094 192.730469 188.339844 C 192.199219 187.933594 191.609375 187.632812 190.96875 187.441406 C 190.324219 187.25 189.667969 187.175781 189 187.21875 C 188.660156 187.238281 188.328125 187.292969 188.003906 187.386719 C 187.679688 187.476562 187.367188 187.601562 187.066406 187.757812 C 186.765625 187.917969 186.488281 188.105469 186.230469 188.320312 C 185.972656 188.539062 185.738281 188.785156 185.53125 189.050781 C 185.324219 189.320312 185.148438 189.605469 185.003906 189.910156 C 184.859375 190.21875 184.75 190.535156 184.675781 190.863281 C 184.597656 191.195312 184.558594 191.527344 184.554688 191.867188 C 184.550781 192.203125 184.582031 192.539062 184.648438 192.871094 L 184.863281 193.984375 C 184.890625 194.105469 184.890625 194.230469 184.863281 194.355469 C 184.835938 194.480469 184.785156 194.59375 184.707031 194.695312 C 184.632812 194.796875 184.539062 194.882812 184.429688 194.945312 C 184.320312 195.007812 184.203125 195.046875 184.078125 195.058594 C 183.804688 195.097656 183.558594 195.039062 183.335938 194.882812 C 183.113281 194.722656 182.972656 194.511719 182.917969 194.246094 L 182.734375 193.308594 C 182.644531 192.871094 182.597656 192.429688 182.59375 191.980469 C 182.589844 191.535156 182.632812 191.09375 182.71875 190.652344 C 182.804688 190.214844 182.933594 189.789062 183.105469 189.375 C 183.277344 188.964844 183.492188 188.574219 183.742188 188.203125 C 183.996094 187.832031 184.28125 187.492188 184.601562 187.179688 C 184.921875 186.871094 185.269531 186.59375 185.648438 186.351562 C 186.023438 186.109375 186.417969 185.910156 186.835938 185.75 C 187.253906 185.585938 187.683594 185.46875 188.125 185.394531 C 188.597656 185.316406 189.074219 185.28125 189.554688 185.292969 C 190.035156 185.304688 190.507812 185.363281 190.980469 185.464844 C 191.449219 185.566406 191.902344 185.710938 192.34375 185.902344 C 192.785156 186.089844 193.207031 186.320312 193.601562 186.589844 C 194 186.859375 194.371094 187.164062 194.710938 187.503906 C 195.046875 187.84375 195.351562 188.210938 195.621094 188.609375 C 195.890625 189.007812 196.121094 189.425781 196.308594 189.867188 C 196.496094 190.308594 196.644531 190.765625 196.746094 191.234375 L 196.960938 192.339844 C 196.984375 192.464844 196.984375 192.589844 196.957031 192.714844 C 196.925781 192.84375 196.875 192.957031 196.796875 193.058594 C 196.71875 193.160156 196.625 193.246094 196.511719 193.308594 C 196.402344 193.371094 196.28125 193.40625 196.152344 193.417969 Z M 196.152344 193.417969 " fill-opacity="1" fill-rule="nonzero"/><path fill="#407bff" d="M 211.082031 221.378906 L 171.367188 221.378906 L 171.105469 213.488281 L 210.8125 213.488281 Z M 211.082031 221.378906 " fill-opacity="1" fill-rule="nonzero"/><path fill="#263238" d="M 191.921875 176.671875 C 191.933594 176.964844 191.890625 177.246094 191.785156 177.519531 C 191.679688 177.789062 191.527344 178.03125 191.328125 178.242188 C 191.125 178.449219 190.886719 178.609375 190.621094 178.722656 C 190.351562 178.835938 190.070312 178.890625 189.78125 178.890625 C 189.484375 178.886719 189.199219 178.828125 188.921875 178.71875 C 188.648438 178.605469 188.402344 178.445312 188.191406 178.238281 C 187.976562 178.035156 187.808594 177.796875 187.6875 177.523438 C 187.566406 177.253906 187.496094 176.96875 187.484375 176.671875 C 187.472656 176.382812 187.519531 176.101562 187.621094 175.828125 C 187.726562 175.558594 187.878906 175.316406 188.082031 175.105469 C 188.28125 174.898438 188.519531 174.738281 188.785156 174.625 C 189.054688 174.511719 189.335938 174.457031 189.625 174.457031 C 189.921875 174.460938 190.210938 174.515625 190.484375 174.628906 C 190.761719 174.738281 191.003906 174.898438 191.21875 175.105469 C 191.433594 175.3125 191.601562 175.550781 191.722656 175.820312 C 191.84375 176.09375 191.910156 176.375 191.921875 176.671875 Z M 191.921875 176.671875 " fill-opacity="1" fill-rule="nonzero"/><path fill="#263238" d="M 182.34375 176.671875 C 182.359375 176.964844 182.3125 177.246094 182.210938 177.519531 C 182.105469 177.792969 181.953125 178.03125 181.75 178.242188 C 181.546875 178.453125 181.3125 178.613281 181.042969 178.726562 C 180.773438 178.835938 180.496094 178.890625 180.203125 178.890625 C 179.90625 178.886719 179.621094 178.828125 179.347656 178.71875 C 179.074219 178.605469 178.828125 178.445312 178.617188 178.238281 C 178.402344 178.035156 178.234375 177.792969 178.113281 177.523438 C 177.992188 177.253906 177.925781 176.96875 177.914062 176.671875 C 177.902344 176.382812 177.949219 176.101562 178.050781 175.828125 C 178.15625 175.558594 178.308594 175.316406 178.511719 175.105469 C 178.710938 174.898438 178.949219 174.738281 179.214844 174.625 C 179.484375 174.511719 179.765625 174.457031 180.054688 174.457031 C 180.351562 174.460938 180.636719 174.515625 180.914062 174.628906 C 181.1875 174.738281 181.433594 174.898438 181.644531 175.105469 C 181.859375 175.3125 182.027344 175.550781 182.148438 175.820312 C 182.269531 176.09375 182.335938 176.378906 182.34375 176.671875 Z M 182.34375 176.671875 " fill-opacity="1" fill-rule="nonzero"/><path fill="#263238" d="M 172.828125 176.671875 C 172.839844 176.964844 172.796875 177.246094 172.691406 177.519531 C 172.585938 177.789062 172.433594 178.03125 172.234375 178.242188 C 172.03125 178.449219 171.792969 178.609375 171.527344 178.722656 C 171.257812 178.835938 170.976562 178.890625 170.6875 178.890625 C 170.390625 178.886719 170.105469 178.832031 169.828125 178.71875 C 169.554688 178.605469 169.308594 178.449219 169.097656 178.242188 C 168.882812 178.035156 168.714844 177.796875 168.59375 177.523438 C 168.472656 177.253906 168.410156 176.96875 168.398438 176.671875 C 168.386719 176.382812 168.429688 176.101562 168.535156 175.828125 C 168.636719 175.558594 168.789062 175.316406 168.992188 175.105469 C 169.195312 174.898438 169.429688 174.738281 169.699219 174.625 C 169.96875 174.511719 170.246094 174.457031 170.539062 174.457031 C 170.835938 174.460938 171.121094 174.515625 171.394531 174.628906 C 171.671875 174.738281 171.914062 174.898438 172.128906 175.105469 C 172.34375 175.3125 172.507812 175.550781 172.628906 175.820312 C 172.75 176.09375 172.816406 176.375 172.828125 176.671875 Z M 172.828125 176.671875 " fill-opacity="1" fill-rule="nonzero"/><path fill="#263238" d="M 201.464844 176.671875 C 201.476562 176.964844 201.433594 177.246094 201.328125 177.519531 C 201.226562 177.789062 201.070312 178.03125 200.871094 178.242188 C 200.667969 178.449219 200.433594 178.609375 200.164062 178.722656 C 199.894531 178.835938 199.617188 178.890625 199.324219 178.890625 C 199.027344 178.886719 198.742188 178.832031 198.464844 178.71875 C 198.191406 178.605469 197.949219 178.449219 197.734375 178.242188 C 197.519531 178.035156 197.355469 177.796875 197.234375 177.523438 C 197.113281 177.253906 197.046875 176.96875 197.035156 176.671875 C 197.023438 176.382812 197.070312 176.101562 197.175781 175.832031 C 197.28125 175.5625 197.433594 175.324219 197.636719 175.117188 C 197.839844 174.90625 198.078125 174.75 198.34375 174.636719 C 198.613281 174.527344 198.894531 174.472656 199.183594 174.476562 C 199.476562 174.480469 199.761719 174.535156 200.035156 174.648438 C 200.308594 174.757812 200.550781 174.917969 200.761719 175.121094 C 200.972656 175.324219 201.140625 175.5625 201.261719 175.828125 C 201.382812 176.097656 201.453125 176.378906 201.464844 176.671875 Z M 201.464844 176.671875 " fill-opacity="1" fill-rule="nonzero"/><path fill="#263238" d="M 211.007812 176.671875 C 211.023438 176.964844 210.976562 177.246094 210.875 177.519531 C 210.769531 177.792969 210.617188 178.03125 210.414062 178.242188 C 210.214844 178.453125 209.976562 178.613281 209.707031 178.726562 C 209.4375 178.835938 209.160156 178.890625 208.867188 178.890625 C 208.570312 178.886719 208.285156 178.828125 208.011719 178.71875 C 207.738281 178.605469 207.492188 178.445312 207.28125 178.238281 C 207.066406 178.035156 206.898438 177.792969 206.777344 177.523438 C 206.65625 177.253906 206.589844 176.96875 206.578125 176.671875 C 206.566406 176.382812 206.613281 176.101562 206.714844 175.828125 C 206.820312 175.558594 206.972656 175.316406 207.175781 175.105469 C 207.375 174.898438 207.613281 174.738281 207.878906 174.625 C 208.148438 174.511719 208.429688 174.457031 208.71875 174.457031 C 209.015625 174.460938 209.300781 174.515625 209.578125 174.628906 C 209.851562 174.738281 210.097656 174.898438 210.308594 175.105469 C 210.523438 175.3125 210.691406 175.550781 210.8125 175.820312 C 210.933594 176.09375 211 176.378906 211.007812 176.671875 Z M 211.007812 176.671875 " fill-opacity="1" fill-rule="nonzero"/><path fill="#ff8b7b" d="M 291.390625 117.417969 C 292.289062 118.859375 293.035156 120.234375 293.804688 121.667969 C 294.570312 123.101562 295.265625 124.542969 295.945312 126.019531 C 297.335938 129.011719 298.480469 132.09375 299.378906 135.265625 C 299.5 135.664062 299.589844 136.089844 299.6875 136.5 L 299.835938 137.125 L 299.910156 137.433594 L 300 137.949219 C 300.152344 139.121094 300.082031 140.277344 299.789062 141.421875 C 299.324219 143.191406 298.621094 144.867188 297.6875 146.441406 C 296.019531 149.300781 294.027344 151.910156 291.707031 154.273438 L 288.871094 152.132812 C 290.296875 149.511719 291.5625 146.820312 292.664062 144.050781 C 293.15625 142.824219 293.5 141.5625 293.695312 140.257812 C 293.757812 139.855469 293.738281 139.460938 293.640625 139.066406 L 293.371094 138.242188 C 293.265625 137.90625 293.164062 137.570312 293.035156 137.226562 C 292.011719 134.445312 290.828125 131.734375 289.484375 129.089844 C 288.140625 126.398438 286.691406 123.703125 285.242188 121.128906 Z M 291.390625 117.417969 " fill-opacity="1" fill-rule="nonzero"/><path fill="#ff8b7b" d="M 289.59375 151.195312 L 286.496094 152.832031 L 290.050781 156.992188 C 290.050781 156.992188 292.273438 155.492188 292.375 153.203125 Z M 289.59375 151.195312 " fill-opacity="1" fill-rule="nonzero"/><path fill="#ff8b7b" d="M 282.339844 155.398438 L 286.144531 158.421875 L 290.050781 156.992188 L 286.496094 152.832031 Z M 282.339844 155.398438 " fill-opacity="1" fill-rule="nonzero"/><path fill="#263238" d="M 269.328125 95.382812 C 269.253906 95.757812 268.992188 96.023438 268.75 95.976562 C 268.507812 95.925781 268.363281 95.578125 268.4375 95.207031 C 268.511719 94.835938 268.777344 94.535156 269.023438 94.613281 C 269.273438 94.695312 269.402344 95.003906 269.328125 95.382812 Z M 269.328125 95.382812 " fill-opacity="1" fill-rule="nonzero"/><path fill="#ff5652" d="M 269.023438 96.027344 C 268.34375 97.089844 267.53125 98.035156 266.585938 98.871094 C 267.058594 99.359375 267.632812 99.585938 268.3125 99.542969 Z M 269.023438 96.027344 " fill-opacity="1" fill-rule="nonzero"/><path fill="#ff8b7b" d="M 267.8125 109.242188 L 267.8125 104.824219 L 273.660156 105.5 C 273.660156 105.5 273.5625 109.296875 270.289062 110.414062 Z M 267.8125 109.242188 " fill-opacity="1" fill-rule="nonzero"/><path fill="#ff8b7b" d="M 269.496094 101.644531 L 273.609375 102.832031 L 273.683594 105.53125 L 267.839844 104.824219 Z M 269.496094 101.644531 " fill-opacity="1" fill-rule="nonzero"/><path fill="#000000" d="M 273.609375 102.832031 L 269.496094 101.644531 L 268.695312 103.179688 C 268.714844 103.785156 268.820312 104.375 269.007812 104.953125 C 269.191406 105.53125 269.453125 106.070312 269.785156 106.574219 C 270.121094 107.078125 270.519531 107.527344 270.980469 107.921875 C 271.4375 108.316406 271.945312 108.636719 272.492188 108.890625 C 273.214844 107.886719 273.613281 106.761719 273.683594 105.523438 Z M 273.609375 102.832031 " fill-opacity="0.2" fill-rule="nonzero"/><path fill="#263238" d="M 271.121094 93.582031 C 271.214844 93.582031 271.28125 93.535156 271.324219 93.449219 C 271.363281 93.359375 271.351562 93.28125 271.289062 93.207031 C 271.046875 92.9375 270.757812 92.734375 270.421875 92.605469 C 270.082031 92.472656 269.734375 92.425781 269.375 92.464844 C 269.230469 92.492188 269.167969 92.574219 269.191406 92.722656 C 269.21875 92.867188 269.304688 92.929688 269.449219 92.910156 C 270.054688 92.851562 270.558594 93.050781 270.957031 93.511719 C 271 93.558594 271.054688 93.582031 271.121094 93.582031 Z M 271.121094 93.582031 " fill-opacity="1" fill-rule="nonzero"/><path fill="#ff8b7b" d="M 279.726562 102.199219 C 279.054688 105.667969 278.636719 110.46875 281.074219 112.777344 C 281.074219 112.777344 280.128906 116.292969 273.664062 116.292969 C 266.585938 116.292969 270.265625 113.210938 270.265625 113.210938 C 273.207031 112.292969 273.179688 108.945312 272.507812 106.253906 Z M 279.726562 102.199219 " fill-opacity="1" fill-rule="nonzero"/><path fill="#407bff" d="M 282.386719 115.09375 C 283.019531 114.207031 282.992188 111.382812 282.320312 110.886719 C 281.234375 110.085938 276.582031 109.894531 270.324219 111.335938 C 271 114.070312 269.550781 115.5 269.550781 115.5 Z M 282.386719 115.09375 " fill-opacity="1" fill-rule="nonzero"/><path fill="#407bff" d="M 303.441406 274.992188 C 303.035156 275.132812 302.640625 275.109375 302.253906 274.921875 C 302.097656 274.777344 302.0625 274.601562 302.148438 274.40625 C 302.191406 274.25 302.289062 274.140625 302.4375 274.074219 C 303.078125 273.765625 304.546875 274.363281 304.613281 274.390625 C 304.65625 274.410156 304.679688 274.445312 304.679688 274.492188 C 304.679688 274.539062 304.660156 274.574219 304.621094 274.601562 C 304.238281 274.769531 303.847656 274.898438 303.441406 274.992188 Z M 302.667969 274.230469 C 302.621094 274.242188 302.578125 274.257812 302.539062 274.277344 C 302.449219 274.308594 302.390625 274.375 302.363281 274.464844 C 302.300781 274.667969 302.363281 274.734375 302.402344 274.753906 C 302.660156 274.972656 303.601562 274.753906 304.269531 274.507812 C 303.753906 274.292969 303.222656 274.203125 302.667969 274.230469 Z M 302.667969 274.230469 " fill-opacity="1" fill-rule="nonzero"/><path fill="#407bff" d="M 304.59375 274.605469 L 304.539062 274.605469 C 304 274.453125 302.855469 273.636719 302.839844 273.105469 C 302.839844 272.90625 302.9375 272.785156 303.128906 272.742188 C 303.300781 272.679688 303.464844 272.691406 303.621094 272.78125 C 304.253906 273.105469 304.660156 274.410156 304.671875 274.472656 C 304.695312 274.507812 304.695312 274.542969 304.671875 274.582031 C 304.652344 274.601562 304.625 274.613281 304.59375 274.605469 Z M 303.246094 272.929688 L 303.191406 272.929688 C 303.058594 272.976562 303.058594 273.042969 303.058594 273.078125 C 303.058594 273.394531 303.824219 274.035156 304.402344 274.289062 C 304.261719 273.914062 303.953125 273.164062 303.542969 272.945312 C 303.445312 272.902344 303.351562 272.894531 303.253906 272.929688 Z M 303.246094 272.929688 " fill-opacity="1" fill-rule="nonzero"/><path fill="#407bff" d="M 268.460938 275.785156 C 267.851562 275.785156 267.265625 275.699219 267.070312 275.429688 C 266.957031 275.265625 266.957031 275.101562 267.070312 274.9375 C 267.152344 274.796875 267.273438 274.710938 267.429688 274.675781 C 268.214844 274.460938 269.875 275.402344 269.941406 275.441406 C 269.988281 275.464844 270.007812 275.503906 269.996094 275.558594 C 269.988281 275.609375 269.960938 275.640625 269.90625 275.652344 C 269.429688 275.738281 268.945312 275.785156 268.460938 275.785156 Z M 267.710938 274.863281 C 267.640625 274.851562 267.566406 274.851562 267.496094 274.863281 C 267.398438 274.882812 267.324219 274.933594 267.273438 275.019531 C 267.191406 275.160156 267.226562 275.226562 267.273438 275.265625 C 267.496094 275.578125 268.6875 275.582031 269.570312 275.457031 C 268.988281 275.136719 268.371094 274.941406 267.710938 274.863281 Z M 267.710938 274.863281 " fill-opacity="1" fill-rule="nonzero"/><path fill="#407bff" d="M 269.898438 275.652344 L 269.851562 275.652344 C 269.28125 275.394531 268.148438 274.371094 268.238281 273.832031 C 268.238281 273.703125 268.34375 273.550781 268.65625 273.523438 C 268.886719 273.496094 269.09375 273.558594 269.273438 273.710938 C 269.714844 274.242188 269.964844 274.847656 270.015625 275.535156 C 270.015625 275.578125 270 275.609375 269.96875 275.636719 C 269.945312 275.648438 269.925781 275.652344 269.898438 275.652344 Z M 268.742188 273.730469 L 268.675781 273.730469 C 268.472656 273.730469 268.460938 273.824219 268.460938 273.851562 C 268.40625 274.175781 269.171875 274.984375 269.757812 275.335938 C 269.707031 274.78125 269.496094 274.292969 269.132812 273.875 C 269.019531 273.777344 268.886719 273.726562 268.734375 273.730469 Z M 268.742188 273.730469 " fill-opacity="1" fill-rule="nonzero"/><path fill="#ff8b7b" d="M 275.101562 275.542969 L 270.363281 275.542969 L 269.894531 264.570312 L 274.628906 264.570312 Z M 275.101562 275.542969 " fill-opacity="1" fill-rule="nonzero"/><path fill="#ff8b7b" d="M 309.871094 273.347656 L 305.246094 274.351562 L 300.589844 264.132812 L 305.226562 263.128906 Z M 309.871094 273.347656 " fill-opacity="1" fill-rule="nonzero"/><path fill="#263238" d="M 304.792969 273.886719 L 310 272.761719 C 310.214844 272.714844 310.367188 272.792969 310.457031 272.992188 L 312.261719 276.910156 C 312.3125 277.007812 312.335938 277.109375 312.335938 277.21875 C 312.335938 277.324219 312.3125 277.425781 312.261719 277.523438 C 312.210938 277.617188 312.144531 277.699219 312.054688 277.761719 C 311.96875 277.824219 311.871094 277.863281 311.765625 277.878906 C 309.945312 278.238281 309.039062 278.324219 306.753906 278.816406 C 305.347656 279.125 302.167969 279.902344 300.222656 280.320312 C 298.273438 280.734375 297.609375 278.871094 298.367188 278.527344 C 301.769531 276.972656 303.183594 275.605469 304.105469 274.332031 C 304.28125 274.097656 304.507812 273.949219 304.792969 273.886719 Z M 304.792969 273.886719 " fill-opacity="1" fill-rule="nonzero"/><path fill="#263238" d="M 270.398438 274.992188 L 275.570312 274.992188 C 275.789062 274.992188 275.925781 275.101562 275.976562 275.3125 L 276.910156 279.523438 C 276.9375 279.625 276.941406 279.730469 276.921875 279.835938 C 276.898438 279.941406 276.855469 280.035156 276.789062 280.117188 C 276.722656 280.203125 276.640625 280.265625 276.542969 280.3125 C 276.445312 280.355469 276.34375 280.375 276.238281 280.371094 C 274.371094 280.339844 271.679688 280.230469 269.335938 280.230469 C 266.585938 280.230469 264.222656 280.378906 261.003906 280.378906 C 259.058594 280.378906 258.519531 278.414062 259.332031 278.230469 C 263.039062 277.421875 266.066406 277.335938 269.265625 275.363281 C 269.609375 275.132812 269.988281 275.007812 270.398438 274.992188 Z M 270.398438 274.992188 " fill-opacity="1" fill-rule="nonzero"/><path fill="#407bff" d="M 289.546875 113.863281 C 293.984375 114.878906 297.628906 126.214844 297.628906 126.214844 L 288.757812 132.996094 C 286.417969 130.492188 284.84375 127.574219 284.042969 124.242188 C 282.472656 118.300781 285.007812 112.8125 289.546875 113.863281 Z M 289.546875 113.863281 " fill-opacity="1" fill-rule="nonzero"/><path fill="#000000" d="M 289.546875 113.863281 C 293.984375 114.878906 297.628906 126.214844 297.628906 126.214844 L 288.757812 132.996094 C 286.417969 130.492188 284.84375 127.574219 284.042969 124.242188 C 282.472656 118.300781 285.007812 112.8125 289.546875 113.863281 Z M 289.546875 113.863281 " fill-opacity="0.4" fill-rule="nonzero"/><path fill="#ff8b7b" d="M 266.195312 127.378906 C 265.089844 128.570312 263.988281 129.636719 262.828125 130.746094 C 262.257812 131.285156 261.675781 131.824219 261.085938 132.34375 L 260.1875 133.132812 L 259.964844 133.328125 L 259.582031 133.636719 C 259.183594 133.953125 258.75 134.210938 258.28125 134.40625 C 257.757812 134.628906 257.210938 134.738281 256.640625 134.742188 C 256.152344 134.742188 255.679688 134.660156 255.226562 134.492188 C 254.71875 134.300781 254.269531 134.015625 253.878906 133.636719 C 253.375 133.148438 253.027344 132.566406 252.828125 131.890625 C 252.722656 131.566406 252.660156 131.230469 252.632812 130.890625 C 252.597656 130.488281 252.597656 130.089844 252.632812 129.691406 C 252.664062 129.367188 252.707031 129.085938 252.757812 128.820312 C 252.945312 127.902344 253.203125 127.003906 253.539062 126.128906 C 253.84375 125.296875 254.191406 124.484375 254.585938 123.6875 C 255.015625 122.835938 255.425781 122.207031 255.835938 121.492188 C 257.507812 118.753906 259.40625 116.183594 261.527344 113.777344 C 263.628906 111.382812 265.929688 109.199219 268.433594 107.230469 L 270.910156 109.78125 C 269.171875 112.113281 267.460938 114.609375 265.878906 117.070312 C 264.304688 119.515625 262.867188 122.039062 261.570312 124.644531 C 261.28125 125.277344 260.894531 125.992188 260.714844 126.503906 C 260.472656 127.097656 260.265625 127.707031 260.085938 128.324219 C 259.917969 128.878906 259.789062 129.445312 259.703125 130.019531 C 259.699219 130.109375 259.699219 130.199219 259.703125 130.289062 C 259.703125 130.34375 259.703125 130.371094 259.703125 130.230469 C 259.691406 130.078125 259.664062 129.929688 259.617188 129.785156 C 259.46875 129.300781 259.210938 128.882812 258.839844 128.53125 C 258.515625 128.234375 258.144531 128.007812 257.730469 127.859375 C 257.367188 127.71875 256.988281 127.652344 256.597656 127.648438 C 256.222656 127.644531 255.863281 127.714844 255.515625 127.859375 C 255.398438 127.90625 255.285156 127.960938 255.175781 128.027344 L 255.433594 127.789062 L 256.25 127.050781 L 257.859375 125.542969 C 258.921875 124.539062 259.992188 123.46875 261.003906 122.46875 Z M 266.195312 127.378906 " fill-opacity="1" fill-rule="nonzero"/><path fill="#000000" d="M 285.742188 122.1875 C 288.152344 124.570312 288.941406 128.921875 289.109375 132.695312 L 288.71875 132.996094 C 286.375 130.492188 284.804688 127.574219 284.003906 124.242188 C 283.914062 123.890625 283.835938 123.566406 283.773438 123.183594 Z M 285.742188 122.1875 " fill-opacity="0.2" fill-rule="nonzero"/><path fill="#407bff" d="M 261.488281 118.578125 C 260.519531 123.695312 259.914062 134.210938 262.722656 155.019531 L 288.085938 155.019531 C 288.261719 151.132812 285.816406 132.15625 289.566406 113.828125 C 286.761719 113.289062 283.933594 112.933594 281.082031 112.757812 C 277.488281 112.550781 273.894531 112.550781 270.304688 112.757812 C 269.117188 112.867188 267.945312 113.042969 266.9375 113.222656 C 266.265625 113.339844 265.625 113.554688 265.019531 113.867188 C 264.414062 114.179688 263.867188 114.574219 263.378906 115.054688 C 262.894531 115.53125 262.488281 116.070312 262.167969 116.671875 C 261.84375 117.273438 261.617188 117.90625 261.488281 118.578125 Z M 261.488281 118.578125 " fill-opacity="1" fill-rule="nonzero"/><path fill="#000000" d="M 261.488281 118.578125 C 260.519531 123.695312 259.914062 134.210938 262.722656 155.019531 L 288.085938 155.019531 C 288.261719 151.132812 285.816406 132.15625 289.566406 113.828125 C 286.761719 113.289062 283.933594 112.933594 281.082031 112.757812 C 277.488281 112.550781 273.894531 112.550781 270.304688 112.757812 C 269.117188 112.867188 267.945312 113.042969 266.9375 113.222656 C 266.265625 113.339844 265.625 113.554688 265.019531 113.867188 C 264.414062 114.179688 263.867188 114.574219 263.378906 115.054688 C 262.894531 115.53125 262.488281 116.070312 262.167969 116.671875 C 261.84375 117.273438 261.617188 117.90625 261.488281 118.578125 Z M 261.488281 118.578125 " fill-opacity="0.4" fill-rule="nonzero"/><path fill="#000000" d="M 265.367188 126.167969 L 260.789062 125.070312 C 260.644531 127.84375 260.632812 131.28125 260.835938 135.53125 C 262.941406 133.132812 265.636719 129.386719 265.367188 126.167969 Z M 265.367188 126.167969 " fill-opacity="0.2" fill-rule="nonzero"/><path fill="#000000" d="M 269.894531 264.570312 L 270.136719 270.230469 L 274.878906 270.230469 L 274.636719 264.570312 Z M 269.894531 264.570312 " fill-opacity="0.2" fill-rule="nonzero"/><path fill="#000000" d="M 305.226562 263.128906 L 300.589844 264.132812 L 302.988281 269.402344 L 307.621094 268.398438 Z M 305.226562 263.128906 " fill-opacity="0.2" fill-rule="nonzero"/><path fill="#ff8b7b" d="M 281.976562 97.132812 C 280.765625 101.671875 280.277344 104.394531 277.476562 106.28125 C 273.269531 109.148438 268.015625 105.863281 267.878906 101.066406 C 267.730469 96.734375 269.746094 90.035156 274.613281 89.117188 C 274.882812 89.070312 275.148438 89.035156 275.421875 89.019531 C 275.691406 89.003906 275.960938 89.003906 276.230469 89.023438 C 276.503906 89.042969 276.769531 89.078125 277.035156 89.128906 C 277.300781 89.183594 277.5625 89.25 277.820312 89.335938 C 278.078125 89.421875 278.328125 89.523438 278.574219 89.640625 C 278.816406 89.757812 279.054688 89.890625 279.28125 90.039062 C 279.507812 90.183594 279.726562 90.347656 279.933594 90.519531 C 280.140625 90.695312 280.335938 90.882812 280.519531 91.082031 C 280.703125 91.28125 280.871094 91.492188 281.03125 91.714844 C 281.1875 91.9375 281.328125 92.164062 281.457031 92.40625 C 281.582031 92.644531 281.695312 92.890625 281.792969 93.144531 C 281.886719 93.398438 281.96875 93.65625 282.03125 93.917969 C 282.09375 94.183594 282.140625 94.449219 282.171875 94.71875 C 282.199219 94.988281 282.210938 95.257812 282.207031 95.53125 C 282.203125 95.800781 282.183594 96.070312 282.144531 96.339844 C 282.105469 96.605469 282.046875 96.871094 281.976562 97.132812 Z M 281.976562 97.132812 " fill-opacity="1" fill-rule="nonzero"/><path fill="#263238" d="M 271.347656 97.300781 C 271.121094 96.695312 270.074219 92 271.058594 90.78125 C 272.042969 89.5625 283.253906 90.445312 284.914062 92.074219 C 287.667969 94.769531 285.753906 97.195312 282.742188 100.3125 C 280.480469 102.65625 280.394531 105.296875 279.25 105.699219 C 277.226562 106.375 274.144531 105.742188 273.523438 103.605469 C 272.902344 101.46875 271.347656 97.300781 271.347656 97.300781 Z M 271.347656 97.300781 " fill-opacity="1" fill-rule="nonzero"/><path fill="#263238" d="M 283.550781 86.734375 C 279.59375 85.050781 272.164062 86.917969 268.148438 85.945312 C 268.136719 86.316406 268.15625 86.683594 268.210938 87.050781 C 268.265625 87.417969 268.351562 87.777344 268.46875 88.128906 C 268.585938 88.480469 268.734375 88.816406 268.914062 89.140625 C 269.089844 89.464844 269.296875 89.769531 269.53125 90.058594 C 269.765625 90.347656 270.023438 90.609375 270.304688 90.851562 C 270.585938 91.09375 270.882812 91.304688 271.203125 91.492188 C 271.523438 91.679688 271.859375 91.835938 272.207031 91.964844 C 272.554688 92.09375 272.910156 92.1875 273.273438 92.25 C 276.613281 92.886719 279.980469 93.199219 283.378906 93.1875 C 287.78125 92.984375 286.917969 88.167969 283.550781 86.734375 Z M 283.550781 86.734375 " fill-opacity="1" fill-rule="nonzero"/><path fill="#263238" d="M 284.171875 92.214844 C 285.648438 92.363281 287.046875 92.09375 288.367188 91.414062 C 289.109375 93.207031 285.035156 93.699219 284.171875 92.214844 Z M 284.171875 92.214844 " fill-opacity="1" fill-rule="nonzero"/><path fill="#ff8b7b" d="M 273.503906 97.488281 C 273.410156 98.691406 272.960938 99.738281 272.15625 100.636719 C 271.121094 101.773438 270.042969 101.058594 269.859375 99.679688 C 269.699219 98.425781 270.035156 96.3125 271.300781 95.707031 C 272.566406 95.097656 273.589844 96.082031 273.503906 97.488281 Z M 273.503906 97.488281 " fill-opacity="1" fill-rule="nonzero"/><path fill="#407bff" d="M 271.710938 155.039062 C 271.710938 155.039062 277.101562 191.242188 280.042969 204.804688 C 283.269531 219.65625 300.605469 268.789062 300.605469 268.789062 L 309.085938 266.949219 C 309.085938 266.949219 296.960938 226.902344 294.265625 206.140625 C 292.179688 190.191406 288.078125 155.027344 288.078125 155.027344 Z M 271.710938 155.039062 " fill-opacity="1" fill-rule="nonzero"/><path fill="#263238" d="M 298.570312 265.964844 C 298.539062 265.964844 300.152344 269.039062 300.152344 269.039062 L 309.691406 266.96875 L 308.890625 264.101562 Z M 298.570312 265.964844 " fill-opacity="1" fill-rule="nonzero"/><path fill="#000000" d="M 275.113281 167.9375 C 281.328125 169.15625 280.667969 192.339844 279.921875 204.265625 C 278.128906 195.835938 275.503906 179.617188 273.710938 168.105469 C 274.160156 167.886719 274.625 167.828125 275.113281 167.9375 Z M 275.113281 167.9375 " fill-opacity="0.298" fill-rule="nonzero"/><path fill="#407bff" d="M 262.722656 155.039062 C 262.722656 155.039062 262.046875 190.460938 262.585938 204.878906 C 263.125 219.90625 268.371094 269.105469 268.371094 269.105469 L 276.398438 269.105469 C 276.398438 269.105469 276.6875 220.78125 277.074219 206.023438 C 277.464844 189.941406 279.402344 155.015625 279.402344 155.015625 Z M 262.722656 155.039062 " fill-opacity="1" fill-rule="nonzero"/><path fill="#263238" d="M 266.828125 265.9375 C 266.789062 265.9375 267.28125 269.265625 267.28125 269.265625 L 277.039062 269.265625 L 277.308594 266.296875 Z M 266.828125 265.9375 " fill-opacity="1" fill-rule="nonzero"/><path fill="#407bff" d="M 271.414062 120.152344 C 273.683594 126.277344 260.34375 133.488281 260.34375 133.488281 L 254.566406 126.082031 C 254.566406 126.082031 258.449219 118.390625 263.164062 114.925781 C 268.992188 110.65625 269.683594 115.492188 271.414062 120.152344 Z M 271.414062 120.152344 " fill-opacity="1" fill-rule="nonzero"/><path fill="#000000" d="M 271.414062 120.152344 C 273.683594 126.277344 260.34375 133.488281 260.34375 133.488281 L 254.566406 126.082031 C 254.566406 126.082031 258.449219 118.390625 263.164062 114.925781 C 268.992188 110.65625 269.683594 115.492188 271.414062 120.152344 Z M 271.414062 120.152344 " fill-opacity="0.4" fill-rule="nonzero"/><path fill="#407bff" d="M 348 58.183594 C 348 58.691406 347.960938 59.199219 347.882812 59.703125 C 347.804688 60.207031 347.6875 60.710938 347.53125 61.207031 C 347.378906 61.703125 347.183594 62.195312 346.953125 62.679688 C 346.722656 63.167969 346.453125 63.644531 346.148438 64.113281 C 345.84375 64.582031 345.503906 65.039062 345.128906 65.488281 C 344.753906 65.933594 344.34375 66.367188 343.902344 66.789062 C 343.460938 67.210938 342.988281 67.621094 342.480469 68.011719 C 341.976562 68.402344 341.441406 68.78125 340.878906 69.136719 C 340.316406 69.496094 339.726562 69.835938 339.113281 70.160156 C 338.496094 70.480469 337.859375 70.78125 337.195312 71.066406 C 336.535156 71.347656 335.851562 71.605469 335.152344 71.847656 C 334.449219 72.085938 333.730469 72.300781 332.996094 72.496094 C 332.257812 72.691406 331.511719 72.859375 330.75 73.007812 C 329.988281 73.15625 329.214844 73.277344 328.433594 73.378906 C 327.652344 73.476562 326.867188 73.550781 326.074219 73.601562 C 325.28125 73.648438 324.488281 73.675781 323.691406 73.675781 C 322.898438 73.675781 322.101562 73.648438 321.308594 73.601562 C 320.519531 73.550781 319.730469 73.476562 318.949219 73.378906 C 318.171875 73.277344 317.398438 73.15625 316.636719 73.007812 C 315.875 72.859375 315.125 72.691406 314.390625 72.496094 C 313.65625 72.300781 312.9375 72.085938 312.234375 71.847656 C 311.53125 71.605469 310.851562 71.347656 310.1875 71.066406 C 309.527344 70.78125 308.886719 70.480469 308.273438 70.160156 C 307.65625 69.835938 307.066406 69.496094 306.503906 69.136719 C 305.941406 68.78125 305.410156 68.402344 304.902344 68.011719 C 304.398438 67.621094 303.925781 67.210938 303.484375 66.789062 C 303.039062 66.367188 302.632812 65.933594 302.257812 65.488281 C 301.882812 65.039062 301.539062 64.582031 301.234375 64.113281 C 300.933594 63.644531 300.664062 63.167969 300.433594 62.679688 C 300.203125 62.195312 300.007812 61.703125 299.851562 61.207031 C 299.699219 60.710938 299.582031 60.207031 299.503906 59.703125 C 299.425781 59.199219 299.386719 58.691406 299.386719 58.183594 C 299.386719 57.675781 299.425781 57.171875 299.503906 56.667969 C 299.582031 56.160156 299.699219 55.660156 299.851562 55.164062 C 300.007812 54.664062 300.203125 54.171875 300.433594 53.6875 C 300.664062 53.203125 300.933594 52.726562 301.234375 52.257812 C 301.539062 51.789062 301.882812 51.328125 302.257812 50.882812 C 302.632812 50.433594 303.039062 50 303.484375 49.578125 C 303.925781 49.15625 304.398438 48.75 304.902344 48.359375 C 305.410156 47.964844 305.941406 47.589844 306.503906 47.230469 C 307.066406 46.871094 307.65625 46.53125 308.273438 46.210938 C 308.886719 45.886719 309.527344 45.585938 310.1875 45.304688 C 310.851562 45.023438 311.53125 44.761719 312.234375 44.523438 C 312.9375 44.285156 313.65625 44.066406 314.390625 43.875 C 315.125 43.679688 315.875 43.507812 316.636719 43.359375 C 317.398438 43.214844 318.171875 43.089844 318.949219 42.992188 C 319.730469 42.894531 320.519531 42.820312 321.308594 42.769531 C 322.101562 42.71875 322.898438 42.695312 323.691406 42.695312 C 324.488281 42.695312 325.28125 42.71875 326.074219 42.769531 C 326.867188 42.820312 327.652344 42.894531 328.433594 42.992188 C 329.214844 43.089844 329.988281 43.214844 330.75 43.359375 C 331.511719 43.507812 332.257812 43.679688 332.996094 43.875 C 333.730469 44.066406 334.449219 44.285156 335.152344 44.523438 C 335.851562 44.761719 336.535156 45.023438 337.195312 45.304688 C 337.859375 45.585938 338.496094 45.886719 339.113281 46.210938 C 339.726562 46.53125 340.316406 46.871094 340.878906 47.230469 C 341.441406 47.589844 341.976562 47.964844 342.480469 48.359375 C 342.988281 48.75 343.460938 49.15625 343.902344 49.578125 C 344.34375 50 344.753906 50.433594 345.128906 50.882812 C 345.503906 51.328125 345.84375 51.789062 346.148438 52.257812 C 346.453125 52.726562 346.722656 53.203125 346.953125 53.6875 C 347.183594 54.171875 347.378906 54.664062 347.53125 55.164062 C 347.6875 55.660156 347.804688 56.160156 347.882812 56.667969 C 347.960938 57.171875 348 57.675781 348 58.183594 Z M 348 58.183594 " fill-opacity="1" fill-rule="nonzero"/><path fill="#ffffff" d="M 314.921875 65.984375 C 314.527344 65.984375 314.132812 65.945312 313.742188 65.875 C 313.351562 65.804688 312.96875 65.703125 312.597656 65.566406 C 312.222656 65.429688 311.863281 65.261719 311.519531 65.058594 C 311.179688 64.859375 310.855469 64.632812 310.550781 64.375 C 310.246094 64.121094 309.96875 63.839844 309.714844 63.535156 C 309.460938 63.226562 309.234375 62.902344 309.035156 62.558594 C 308.839844 62.214844 308.671875 61.855469 308.539062 61.480469 C 308.40625 61.105469 308.304688 60.726562 308.234375 60.332031 C 308.167969 59.910156 308.144531 59.484375 308.15625 59.054688 C 308.167969 58.625 308.222656 58.203125 308.316406 57.785156 C 308.40625 57.367188 308.539062 56.960938 308.707031 56.566406 C 308.875 56.171875 309.078125 55.796875 309.316406 55.4375 C 309.554688 55.082031 309.824219 54.75 310.125 54.445312 C 310.425781 54.140625 310.75 53.863281 311.101562 53.617188 C 311.453125 53.375 311.824219 53.164062 312.214844 52.988281 C 312.609375 52.8125 313.011719 52.675781 313.429688 52.574219 C 314.117188 52.414062 314.816406 52.367188 315.523438 52.425781 C 316.226562 52.484375 316.90625 52.652344 317.5625 52.925781 C 318.214844 53.199219 318.8125 53.566406 319.351562 54.023438 C 319.886719 54.484375 320.34375 55.015625 320.714844 55.617188 L 336.320312 52.398438 C 336.621094 52.332031 336.921875 52.324219 337.226562 52.375 C 337.527344 52.421875 337.8125 52.523438 338.078125 52.679688 C 338.34375 52.835938 338.570312 53.03125 338.757812 53.273438 C 338.949219 53.515625 339.085938 53.78125 339.175781 54.078125 C 339.257812 54.386719 339.277344 54.703125 339.230469 55.023438 C 339.179688 55.34375 339.070312 55.640625 338.902344 55.914062 C 338.730469 56.1875 338.515625 56.417969 338.25 56.605469 C 337.984375 56.789062 337.695312 56.914062 337.378906 56.980469 L 336.972656 57.058594 C 336.84375 57.082031 336.75 57.152344 336.691406 57.269531 C 336.636719 57.386719 336.636719 57.503906 336.691406 57.617188 L 336.96875 58.332031 C 337.0625 58.570312 337.070312 58.8125 336.992188 59.058594 C 336.914062 59.300781 336.765625 59.496094 336.550781 59.632812 C 336.195312 59.851562 335.996094 60.167969 335.949219 60.582031 C 335.929688 60.808594 335.84375 61.011719 335.695312 61.183594 C 335.542969 61.355469 335.359375 61.46875 335.136719 61.519531 L 334.820312 61.585938 C 334.59375 61.628906 334.378906 61.597656 334.171875 61.5 C 333.964844 61.398438 333.808594 61.25 333.699219 61.046875 C 333.558594 60.804688 333.359375 60.628906 333.101562 60.515625 C 332.84375 60.402344 332.578125 60.375 332.304688 60.433594 C 332.03125 60.488281 331.796875 60.621094 331.609375 60.828125 C 331.417969 61.03125 331.304688 61.273438 331.269531 61.550781 C 331.25 61.777344 331.167969 61.976562 331.015625 62.148438 C 330.867188 62.320312 330.683594 62.429688 330.460938 62.480469 L 330.144531 62.550781 C 329.917969 62.589844 329.703125 62.558594 329.5 62.460938 C 329.292969 62.363281 329.136719 62.210938 329.027344 62.011719 C 328.8125 61.65625 328.5 61.445312 328.089844 61.378906 C 327.824219 61.34375 327.597656 61.226562 327.417969 61.027344 C 327.238281 60.824219 327.148438 60.589844 327.148438 60.320312 L 327.148438 59.550781 C 327.140625 59.425781 327.089844 59.320312 326.988281 59.242188 C 326.886719 59.164062 326.773438 59.136719 326.648438 59.160156 L 321.671875 60.183594 C 321.570312 60.875 321.367188 61.53125 321.0625 62.160156 C 320.757812 62.785156 320.367188 63.351562 319.886719 63.859375 C 319.410156 64.363281 318.863281 64.789062 318.257812 65.125 C 317.648438 65.464844 317 65.703125 316.316406 65.84375 C 315.859375 65.9375 315.394531 65.984375 314.921875 65.984375 Z M 313.578125 53.1875 C 313.199219 53.277344 312.832031 53.398438 312.476562 53.554688 C 312.121094 53.714844 311.78125 53.902344 311.464844 54.125 C 311.144531 54.34375 310.847656 54.59375 310.574219 54.871094 C 310.300781 55.144531 310.054688 55.445312 309.839844 55.769531 C 309.621094 56.089844 309.4375 56.429688 309.285156 56.789062 C 309.132812 57.144531 309.011719 57.515625 308.929688 57.894531 C 308.847656 58.273438 308.796875 58.65625 308.789062 59.046875 C 308.777344 59.433594 308.800781 59.820312 308.863281 60.207031 C 308.996094 60.925781 309.25 61.601562 309.621094 62.230469 C 309.996094 62.859375 310.46875 63.40625 311.039062 63.867188 C 311.609375 64.328125 312.238281 64.675781 312.933594 64.910156 C 313.628906 65.144531 314.339844 65.25 315.074219 65.230469 C 315.804688 65.207031 316.511719 65.058594 317.191406 64.785156 C 317.871094 64.511719 318.480469 64.128906 319.023438 63.636719 C 319.566406 63.144531 320.007812 62.570312 320.34375 61.921875 C 320.679688 61.269531 320.894531 60.582031 320.984375 59.855469 L 320.984375 59.613281 L 326.472656 58.5 C 326.632812 58.460938 326.792969 58.460938 326.953125 58.492188 C 327.113281 58.527344 327.261719 58.59375 327.390625 58.691406 C 327.523438 58.792969 327.625 58.914062 327.699219 59.058594 C 327.773438 59.207031 327.816406 59.359375 327.820312 59.523438 L 327.820312 60.292969 C 327.824219 60.507812 327.933594 60.636719 328.144531 60.675781 C 328.773438 60.765625 329.25 61.089844 329.566406 61.640625 C 329.648438 61.804688 329.78125 61.878906 329.964844 61.855469 L 330.273438 61.789062 C 330.453125 61.742188 330.546875 61.625 330.554688 61.4375 C 330.597656 61.007812 330.765625 60.632812 331.054688 60.308594 C 331.34375 59.988281 331.699219 59.78125 332.121094 59.695312 C 332.546875 59.605469 332.953125 59.648438 333.347656 59.828125 C 333.742188 60.003906 334.046875 60.28125 334.261719 60.65625 C 334.339844 60.820312 334.46875 60.894531 334.652344 60.871094 L 334.972656 60.804688 C 335.152344 60.753906 335.242188 60.636719 335.25 60.453125 C 335.320312 59.820312 335.628906 59.339844 336.171875 59.007812 C 336.347656 58.882812 336.394531 58.71875 336.3125 58.523438 L 336.039062 57.808594 C 335.980469 57.660156 335.957031 57.503906 335.96875 57.34375 C 335.976562 57.1875 336.019531 57.035156 336.097656 56.894531 C 336.175781 56.753906 336.277344 56.636719 336.40625 56.542969 C 336.535156 56.449219 336.675781 56.382812 336.832031 56.351562 L 337.242188 56.265625 C 337.46875 56.21875 337.675781 56.128906 337.863281 55.996094 C 338.050781 55.863281 338.203125 55.699219 338.328125 55.503906 C 338.449219 55.308594 338.527344 55.097656 338.5625 54.871094 C 338.597656 54.644531 338.585938 54.421875 338.53125 54.199219 C 338.464844 53.984375 338.363281 53.792969 338.222656 53.621094 C 338.085938 53.445312 337.917969 53.304688 337.726562 53.195312 C 337.535156 53.082031 337.328125 53.011719 337.109375 52.980469 C 336.890625 52.945312 336.671875 52.957031 336.457031 53.003906 L 320.414062 56.339844 L 320.292969 56.128906 C 319.96875 55.558594 319.5625 55.050781 319.078125 54.605469 C 318.589844 54.164062 318.042969 53.8125 317.441406 53.546875 C 316.839844 53.285156 316.210938 53.121094 315.554688 53.0625 C 314.898438 53.003906 314.25 53.050781 313.609375 53.199219 Z M 314.921875 63.476562 C 314.070312 63.488281 313.28125 63.261719 312.558594 62.804688 C 312.28125 62.625 312.03125 62.414062 311.800781 62.171875 C 311.574219 61.933594 311.375 61.667969 311.207031 61.382812 C 311.039062 61.097656 310.90625 60.796875 310.808594 60.480469 C 310.710938 60.164062 310.648438 59.84375 310.625 59.511719 C 310.597656 59.183594 310.613281 58.851562 310.664062 58.527344 C 310.714844 58.199219 310.804688 57.882812 310.929688 57.574219 C 311.050781 57.269531 311.210938 56.980469 311.402344 56.707031 C 311.589844 56.4375 311.8125 56.191406 312.058594 55.972656 C 312.304688 55.75 312.574219 55.5625 312.867188 55.402344 C 313.15625 55.246094 313.460938 55.121094 313.78125 55.035156 C 314.101562 54.945312 314.425781 54.894531 314.753906 54.882812 C 315.085938 54.867188 315.414062 54.894531 315.738281 54.957031 C 316.066406 55.019531 316.378906 55.117188 316.683594 55.25 C 316.984375 55.386719 317.269531 55.550781 317.53125 55.753906 C 317.796875 55.953125 318.035156 56.179688 318.246094 56.433594 C 318.457031 56.6875 318.640625 56.964844 318.789062 57.257812 C 318.9375 57.554688 319.050781 57.863281 319.125 58.1875 C 319.203125 58.507812 319.242188 58.835938 319.246094 59.164062 C 319.25 59.496094 319.214844 59.824219 319.140625 60.148438 C 319.066406 60.46875 318.957031 60.78125 318.8125 61.078125 C 318.667969 61.375 318.492188 61.65625 318.285156 61.910156 C 318.078125 62.167969 317.839844 62.398438 317.582031 62.601562 C 317.320312 62.808594 317.039062 62.976562 316.738281 63.117188 C 316.4375 63.253906 316.125 63.359375 315.800781 63.425781 C 315.511719 63.476562 315.222656 63.5 314.929688 63.492188 Z M 314.921875 55.523438 C 314.671875 55.527344 314.421875 55.550781 314.175781 55.597656 C 313.703125 55.699219 313.265625 55.886719 312.867188 56.164062 C 312.46875 56.4375 312.136719 56.777344 311.875 57.183594 C 311.609375 57.589844 311.4375 58.03125 311.347656 58.507812 C 311.257812 58.984375 311.265625 59.457031 311.367188 59.933594 C 311.46875 60.40625 311.65625 60.839844 311.929688 61.242188 C 312.203125 61.640625 312.542969 61.972656 312.949219 62.234375 C 313.355469 62.5 313.796875 62.675781 314.273438 62.761719 C 314.75 62.851562 315.226562 62.84375 315.699219 62.746094 C 316.050781 62.671875 316.382812 62.546875 316.699219 62.375 C 317.015625 62.203125 317.300781 61.988281 317.550781 61.734375 C 317.804688 61.476562 318.015625 61.1875 318.183594 60.871094 C 318.347656 60.550781 318.464844 60.214844 318.535156 59.863281 C 318.601562 59.507812 318.617188 59.152344 318.578125 58.796875 C 318.542969 58.4375 318.453125 58.09375 318.3125 57.761719 C 318.171875 57.429688 317.988281 57.125 317.757812 56.851562 C 317.53125 56.574219 317.265625 56.335938 316.964844 56.136719 C 316.355469 55.730469 315.683594 55.53125 314.949219 55.539062 Z M 314.921875 55.523438 " fill-opacity="1" fill-rule="nonzero"/><path fill="#407bff" d="M 311.898438 77.667969 C 311.898438 78.003906 311.847656 78.335938 311.746094 78.664062 C 311.644531 78.992188 311.492188 79.308594 311.292969 79.617188 C 311.089844 79.925781 310.84375 80.21875 310.554688 80.496094 C 310.261719 80.777344 309.929688 81.03125 309.558594 81.269531 C 309.1875 81.503906 308.785156 81.71875 308.351562 81.902344 C 307.914062 82.089844 307.453125 82.246094 306.96875 82.375 C 306.484375 82.5 305.984375 82.597656 305.46875 82.664062 C 304.957031 82.726562 304.4375 82.761719 303.910156 82.761719 C 303.386719 82.761719 302.867188 82.726562 302.355469 82.664062 C 301.839844 82.597656 301.339844 82.5 300.855469 82.375 C 300.371094 82.246094 299.910156 82.089844 299.472656 81.902344 C 299.039062 81.71875 298.632812 81.503906 298.265625 81.269531 C 297.894531 81.03125 297.5625 80.777344 297.269531 80.496094 C 296.980469 80.21875 296.734375 79.925781 296.53125 79.617188 C 296.332031 79.308594 296.179688 78.992188 296.078125 78.664062 C 295.976562 78.335938 295.925781 78.003906 295.925781 77.667969 C 295.925781 77.335938 295.976562 77.003906 296.078125 76.675781 C 296.179688 76.347656 296.332031 76.03125 296.53125 75.71875 C 296.734375 75.410156 296.980469 75.117188 297.269531 74.839844 C 297.5625 74.5625 297.894531 74.304688 298.265625 74.070312 C 298.632812 73.832031 299.039062 73.621094 299.472656 73.433594 C 299.910156 73.25 300.371094 73.09375 300.855469 72.964844 C 301.339844 72.835938 301.839844 72.742188 302.355469 72.675781 C 302.867188 72.609375 303.386719 72.578125 303.910156 72.578125 C 304.4375 72.578125 304.957031 72.609375 305.46875 72.675781 C 305.984375 72.742188 306.484375 72.835938 306.96875 72.964844 C 307.453125 73.09375 307.914062 73.25 308.351562 73.433594 C 308.785156 73.621094 309.1875 73.832031 309.558594 74.070312 C 309.929688 74.304688 310.261719 74.5625 310.554688 74.839844 C 310.84375 75.117188 311.089844 75.410156 311.292969 75.71875 C 311.492188 76.03125 311.644531 76.347656 311.746094 76.675781 C 311.847656 77.003906 311.898438 77.335938 311.898438 77.667969 Z M 311.898438 77.667969 " fill-opacity="0.6" fill-rule="nonzero"/><path fill="#407bff" d="M 294.484375 82.761719 C 294.484375 83.039062 294.398438 83.304688 294.234375 83.558594 C 294.066406 83.816406 293.828125 84.042969 293.523438 84.238281 C 293.214844 84.433594 292.859375 84.582031 292.457031 84.691406 C 292.054688 84.796875 291.636719 84.847656 291.203125 84.847656 C 290.769531 84.847656 290.351562 84.796875 289.949219 84.691406 C 289.546875 84.582031 289.191406 84.433594 288.882812 84.238281 C 288.578125 84.042969 288.339844 83.816406 288.171875 83.558594 C 288.007812 83.304688 287.921875 83.039062 287.921875 82.761719 C 287.921875 82.484375 288.007812 82.21875 288.171875 81.960938 C 288.339844 81.707031 288.578125 81.480469 288.882812 81.285156 C 289.191406 81.089844 289.546875 80.9375 289.949219 80.832031 C 290.351562 80.726562 290.769531 80.671875 291.203125 80.671875 C 291.636719 80.671875 292.054688 80.726562 292.457031 80.832031 C 292.859375 80.9375 293.214844 81.089844 293.523438 81.285156 C 293.828125 81.480469 294.066406 81.707031 294.234375 81.960938 C 294.398438 82.21875 294.484375 82.484375 294.484375 82.761719 Z M 294.484375 82.761719 " fill-opacity="0.298" fill-rule="nonzero"/></svg>