<svg width="185" height="88" viewBox="0 0 185 88" fill="none" xmlns="http://www.w3.org/2000/svg">
<path d="M169 28H43V38H169V28Z" fill="#F5F5F5"/>
<path d="M138 46H43V56H138V46Z" fill="#F5F5F5"/>
<mask id="mask0_75:18945" style="mask-type:alpha" maskUnits="userSpaceOnUse" x="0" y="0" width="32" height="32">
<path d="M16 32C24.8366 32 32 24.8366 32 16C32 7.16344 24.8366 0 16 0C7.16344 0 0 7.16344 0 16C0 24.8366 7.16344 32 16 32Z" fill="white"/>
</mask>
<g mask="url(#mask0_75:18945)">
<path d="M16 32C24.8366 32 32 24.8366 32 16C32 7.16344 24.8366 0 16 0C7.16344 0 0 7.16344 0 16C0 24.8366 7.16344 32 16 32Z" fill="#0010F7"/>
<g opacity="0.65">
<g opacity="0.65">
<path d="M15.7795 16.9993C18.7011 16.9993 21.0695 14.6867 21.0695 11.8349C21.0695 8.98252 18.7011 6.6709 15.7795 6.6709C12.8581 6.6709 10.4893 8.98252 10.4895 11.8349C10.4895 14.6867 12.8581 16.9993 15.7795 16.9993H15.7795ZM13.7956 18.7211C10.0216 18.7211 6.96191 21.7075 6.96191 25.3914V31.4927C6.96191 32.9985 10.0216 32.9999 13.7956 32.9999H18.2045C21.978 32.9999 25.0376 32.9443 25.0376 31.4927V25.3915C25.0376 21.7075 21.9783 18.7211 18.2045 18.7211H13.7956Z" fill="white"/>
</g>
</g>
</g>
<path d="M43.84 14V5.36H44.722V9.254H49.498V5.36H50.374V14H49.498V10.1H44.722V14H43.84ZM53.9088 14.18C53.4208 14.18 53.0108 14.092 52.6788 13.916C52.3508 13.74 52.1048 13.506 51.9408 13.214C51.7768 12.922 51.6948 12.604 51.6948 12.26C51.6948 11.908 51.7648 11.608 51.9048 11.36C52.0488 11.108 52.2428 10.902 52.4868 10.742C52.7348 10.582 53.0208 10.46 53.3448 10.376C53.6728 10.296 54.0348 10.226 54.4308 10.166C54.8308 10.102 55.2208 10.048 55.6008 10.004C55.9848 9.956 56.3208 9.91 56.6088 9.866L56.2968 10.058C56.3088 9.418 56.1848 8.944 55.9248 8.636C55.6648 8.328 55.2128 8.174 54.5688 8.174C54.1248 8.174 53.7488 8.274 53.4408 8.474C53.1368 8.674 52.9228 8.99 52.7988 9.422L51.9408 9.17C52.0888 8.59 52.3868 8.14 52.8348 7.82C53.2828 7.5 53.8648 7.34 54.5808 7.34C55.1728 7.34 55.6748 7.452 56.0868 7.676C56.5028 7.896 56.7968 8.216 56.9688 8.636C57.0488 8.824 57.1008 9.034 57.1248 9.266C57.1488 9.498 57.1608 9.734 57.1608 9.974V14H56.3748V12.374L56.6028 12.47C56.3828 13.026 56.0408 13.45 55.5768 13.742C55.1128 14.034 54.5568 14.18 53.9088 14.18ZM54.0108 13.418C54.4228 13.418 54.7828 13.344 55.0908 13.196C55.3988 13.048 55.6468 12.846 55.8348 12.59C56.0228 12.33 56.1448 12.038 56.2008 11.714C56.2488 11.506 56.2748 11.278 56.2788 11.03C56.2828 10.778 56.2848 10.59 56.2848 10.466L56.6208 10.64C56.3208 10.68 55.9948 10.72 55.6428 10.76C55.2948 10.8 54.9508 10.846 54.6108 10.898C54.2748 10.95 53.9708 11.012 53.6988 11.084C53.5148 11.136 53.3368 11.21 53.1648 11.306C52.9928 11.398 52.8508 11.522 52.7388 11.678C52.6308 11.834 52.5768 12.028 52.5768 12.26C52.5768 12.448 52.6228 12.63 52.7148 12.806C52.8108 12.982 52.9628 13.128 53.1708 13.244C53.3828 13.36 53.6628 13.418 54.0108 13.418ZM63.4028 14V10.694C63.4028 10.334 63.3688 10.004 63.3008 9.704C63.2328 9.4 63.1228 9.136 62.9708 8.912C62.8228 8.684 62.6288 8.508 62.3888 8.384C62.1528 8.26 61.8648 8.198 61.5248 8.198C61.2128 8.198 60.9368 8.252 60.6968 8.36C60.4608 8.468 60.2608 8.624 60.0968 8.828C59.9368 9.028 59.8148 9.272 59.7308 9.56C59.6468 9.848 59.6048 10.176 59.6048 10.544L58.9808 10.406C58.9808 9.742 59.0968 9.184 59.3288 8.732C59.5608 8.28 59.8808 7.938 60.2888 7.706C60.6968 7.474 61.1648 7.358 61.6928 7.358C62.0808 7.358 62.4188 7.418 62.7068 7.538C62.9988 7.658 63.2448 7.82 63.4448 8.024C63.6488 8.228 63.8128 8.462 63.9368 8.726C64.0608 8.986 64.1508 9.264 64.2068 9.56C64.2628 9.852 64.2908 10.144 64.2908 10.436V14H63.4028ZM58.7168 14V7.52H59.5148V9.116H59.6048V14H58.7168ZM71.2502 14.18C70.6462 14.18 70.1022 14.08 69.6182 13.88C69.1382 13.676 68.7402 13.388 68.4242 13.016C68.1122 12.644 67.9082 12.202 67.8122 11.69L68.7122 11.54C68.8562 12.1 69.1602 12.54 69.6242 12.86C70.0882 13.176 70.6422 13.334 71.2862 13.334C71.7102 13.334 72.0902 13.268 72.4262 13.136C72.7622 13 73.0262 12.808 73.2182 12.56C73.4102 12.312 73.5062 12.018 73.5062 11.678C73.5062 11.454 73.4662 11.264 73.3862 11.108C73.3062 10.948 73.2002 10.816 73.0682 10.712C72.9362 10.608 72.7922 10.522 72.6362 10.454C72.4802 10.382 72.3282 10.324 72.1802 10.28L69.9902 9.626C69.7262 9.55 69.4822 9.454 69.2582 9.338C69.0342 9.218 68.8382 9.076 68.6702 8.912C68.5062 8.744 68.3782 8.548 68.2862 8.324C68.1942 8.1 68.1482 7.844 68.1482 7.556C68.1482 7.068 68.2762 6.646 68.5322 6.29C68.7882 5.934 69.1382 5.66 69.5822 5.468C70.0262 5.276 70.5322 5.182 71.1002 5.186C71.6762 5.186 72.1902 5.288 72.6422 5.492C73.0982 5.696 73.4742 5.988 73.7702 6.368C74.0662 6.744 74.2622 7.19 74.3582 7.706L73.4342 7.874C73.3742 7.498 73.2362 7.172 73.0202 6.896C72.8042 6.62 72.5282 6.408 72.1922 6.26C71.8602 6.108 71.4942 6.03 71.0942 6.026C70.7062 6.026 70.3602 6.092 70.0562 6.224C69.7562 6.352 69.5182 6.528 69.3422 6.752C69.1662 6.976 69.0782 7.232 69.0782 7.52C69.0782 7.812 69.1582 8.046 69.3182 8.222C69.4822 8.398 69.6822 8.536 69.9182 8.636C70.1582 8.736 70.3902 8.818 70.6142 8.882L72.3062 9.38C72.4822 9.428 72.6882 9.498 72.9242 9.59C73.1642 9.678 73.3962 9.806 73.6202 9.974C73.8482 10.138 74.0362 10.354 74.1842 10.622C74.3322 10.89 74.4062 11.23 74.4062 11.642C74.4062 12.042 74.3262 12.4 74.1662 12.716C74.0102 13.032 73.7882 13.298 73.5002 13.514C73.2162 13.73 72.8822 13.894 72.4982 14.006C72.1182 14.122 71.7022 14.18 71.2502 14.18ZM78.3507 14.18C77.7067 14.18 77.1567 14.034 76.7007 13.742C76.2447 13.45 75.8947 13.046 75.6507 12.53C75.4067 12.014 75.2847 11.422 75.2847 10.754C75.2847 10.074 75.4087 9.478 75.6567 8.966C75.9047 8.454 76.2567 8.056 76.7127 7.772C77.1727 7.484 77.7187 7.34 78.3507 7.34C78.9987 7.34 79.5507 7.486 80.0067 7.778C80.4667 8.066 80.8167 8.468 81.0567 8.984C81.3007 9.496 81.4227 10.086 81.4227 10.754C81.4227 11.434 81.3007 12.032 81.0567 12.548C80.8127 13.06 80.4607 13.46 80.0007 13.748C79.5407 14.036 78.9907 14.18 78.3507 14.18ZM78.3507 13.334C79.0707 13.334 79.6067 13.096 79.9587 12.62C80.3107 12.14 80.4867 11.518 80.4867 10.754C80.4867 9.97 80.3087 9.346 79.9527 8.882C79.6007 8.418 79.0667 8.186 78.3507 8.186C77.8667 8.186 77.4667 8.296 77.1507 8.516C76.8387 8.732 76.6047 9.034 76.4487 9.422C76.2967 9.806 76.2207 10.25 76.2207 10.754C76.2207 11.534 76.4007 12.16 76.7607 12.632C77.1207 13.1 77.6507 13.334 78.3507 13.334ZM82.8663 14V5.18H83.7483V14H82.8663ZM88.253 14.18C87.609 14.18 87.059 14.034 86.603 13.742C86.147 13.45 85.797 13.046 85.553 12.53C85.309 12.014 85.187 11.422 85.187 10.754C85.187 10.074 85.311 9.478 85.559 8.966C85.807 8.454 86.159 8.056 86.615 7.772C87.075 7.484 87.621 7.34 88.253 7.34C88.901 7.34 89.453 7.486 89.909 7.778C90.369 8.066 90.719 8.468 90.959 8.984C91.203 9.496 91.325 10.086 91.325 10.754C91.325 11.434 91.203 12.032 90.959 12.548C90.715 13.06 90.363 13.46 89.903 13.748C89.443 14.036 88.893 14.18 88.253 14.18ZM88.253 13.334C88.973 13.334 89.509 13.096 89.861 12.62C90.213 12.14 90.389 11.518 90.389 10.754C90.389 9.97 90.211 9.346 89.855 8.882C89.503 8.418 88.969 8.186 88.253 8.186C87.769 8.186 87.369 8.296 87.053 8.516C86.741 8.732 86.507 9.034 86.351 9.422C86.199 9.806 86.123 10.25 86.123 10.754C86.123 11.534 86.303 12.16 86.663 12.632C87.023 13.1 87.553 13.334 88.253 13.334Z" fill="black" fill-opacity="0.65"/>
<path d="M68.6 73.264C67.568 73.264 66.8 73.708 66.284 74.62C65.828 75.388 65.6 76.42 65.6 77.716C65.6 79.012 65.828 80.044 66.284 80.812C66.8 81.712 67.568 82.168 68.6 82.168C69.62 82.168 70.388 81.712 70.916 80.812C71.372 80.044 71.6 79.012 71.6 77.716C71.6 76.42 71.372 75.388 70.916 74.62C70.388 73.708 69.62 73.264 68.6 73.264ZM68.6 74.104C69.368 74.104 69.92 74.512 70.256 75.34C70.496 75.916 70.628 76.708 70.628 77.716C70.628 78.712 70.496 79.504 70.256 80.092C69.92 80.908 69.368 81.328 68.6 81.328C67.832 81.328 67.28 80.908 66.944 80.092C66.704 79.504 66.584 78.712 66.584 77.716C66.584 76.708 66.704 75.916 66.944 75.34C67.28 74.512 67.832 74.104 68.6 74.104Z" fill="black" fill-opacity="0.45"/>
<path d="M114.66 82.18C114.128 82.18 113.648 82.056 113.22 81.808C112.796 81.56 112.46 81.224 112.212 80.8C111.964 80.372 111.84 79.892 111.84 79.36V76C111.84 75.468 111.964 74.99 112.212 74.566C112.46 74.138 112.796 73.8 113.22 73.552C113.648 73.304 114.128 73.18 114.66 73.18C115.192 73.18 115.67 73.304 116.094 73.552C116.522 73.8 116.86 74.138 117.108 74.566C117.356 74.99 117.48 75.468 117.48 76V79.36C117.48 79.892 117.356 80.372 117.108 80.8C116.86 81.224 116.522 81.56 116.094 81.808C115.67 82.056 115.192 82.18 114.66 82.18ZM114.66 81.328C115.016 81.328 115.34 81.242 115.632 81.07C115.924 80.894 116.156 80.66 116.328 80.368C116.5 80.076 116.586 79.754 116.586 79.402V75.958C116.586 75.602 116.5 75.278 116.328 74.986C116.156 74.694 115.924 74.462 115.632 74.29C115.34 74.114 115.016 74.026 114.66 74.026C114.304 74.026 113.98 74.114 113.688 74.29C113.396 74.462 113.164 74.694 112.992 74.986C112.82 75.278 112.734 75.602 112.734 75.958V79.402C112.734 79.754 112.82 80.076 112.992 80.368C113.164 80.66 113.396 80.894 113.688 81.07C113.98 81.242 114.304 81.328 114.66 81.328ZM121.567 82V73.36H124.903C124.987 73.36 125.081 73.364 125.185 73.372C125.293 73.376 125.401 73.388 125.509 73.408C125.961 73.476 126.343 73.634 126.655 73.882C126.971 74.126 127.209 74.434 127.369 74.806C127.533 75.178 127.615 75.59 127.615 76.042C127.615 76.694 127.443 77.26 127.099 77.74C126.755 78.22 126.263 78.522 125.623 78.646L125.317 78.718H122.449V82H121.567ZM126.799 82L125.095 78.484L125.941 78.16L127.813 82H126.799ZM122.449 77.878H124.879C124.951 77.878 125.035 77.874 125.131 77.866C125.227 77.858 125.321 77.844 125.413 77.824C125.709 77.76 125.951 77.638 126.139 77.458C126.331 77.278 126.473 77.064 126.565 76.816C126.661 76.568 126.709 76.31 126.709 76.042C126.709 75.774 126.661 75.516 126.565 75.268C126.473 75.016 126.331 74.8 126.139 74.62C125.951 74.44 125.709 74.318 125.413 74.254C125.321 74.234 125.227 74.222 125.131 74.218C125.035 74.21 124.951 74.206 124.879 74.206H122.449V77.878ZM131.879 82.18C131.247 82.18 130.699 82.04 130.235 81.76C129.775 81.48 129.417 81.086 129.161 80.578C128.905 80.07 128.777 79.474 128.777 78.79C128.777 78.082 128.903 77.47 129.155 76.954C129.407 76.438 129.761 76.04 130.217 75.76C130.677 75.48 131.219 75.34 131.843 75.34C132.483 75.34 133.029 75.488 133.481 75.784C133.933 76.076 134.275 76.496 134.507 77.044C134.739 77.592 134.845 78.246 134.825 79.006H133.925V78.694C133.909 77.854 133.727 77.22 133.379 76.792C133.035 76.364 132.531 76.15 131.867 76.15C131.171 76.15 130.637 76.376 130.265 76.828C129.897 77.28 129.713 77.924 129.713 78.76C129.713 79.576 129.897 80.21 130.265 80.662C130.637 81.11 131.163 81.334 131.843 81.334C132.307 81.334 132.711 81.228 133.055 81.016C133.403 80.8 133.677 80.49 133.877 80.086L134.699 80.404C134.443 80.968 134.065 81.406 133.565 81.718C133.069 82.026 132.507 82.18 131.879 82.18ZM129.401 79.006V78.268H134.351V79.006H129.401ZM138.891 82.18C138.295 82.18 137.791 82.03 137.379 81.73C136.967 81.426 136.655 81.016 136.443 80.5C136.231 79.98 136.125 79.398 136.125 78.754C136.125 78.098 136.231 77.514 136.443 77.002C136.659 76.486 136.975 76.08 137.391 75.784C137.807 75.488 138.319 75.34 138.927 75.34C139.519 75.34 140.027 75.49 140.451 75.79C140.875 76.09 141.199 76.498 141.423 77.014C141.651 77.53 141.765 78.11 141.765 78.754C141.765 79.402 141.651 79.984 141.423 80.5C141.195 81.016 140.867 81.426 140.439 81.73C140.011 82.03 139.495 82.18 138.891 82.18ZM135.975 84.88V75.52H136.767V80.398H136.863V84.88H135.975ZM138.801 81.358C139.253 81.358 139.629 81.244 139.929 81.016C140.229 80.788 140.453 80.478 140.601 80.086C140.753 79.69 140.829 79.246 140.829 78.754C140.829 78.266 140.755 77.826 140.607 77.434C140.459 77.042 140.233 76.732 139.929 76.504C139.629 76.276 139.247 76.162 138.783 76.162C138.331 76.162 137.955 76.272 137.655 76.492C137.359 76.712 137.137 77.018 136.989 77.41C136.841 77.798 136.767 78.246 136.767 78.754C136.767 79.254 136.841 79.702 136.989 80.098C137.137 80.49 137.361 80.798 137.661 81.022C137.961 81.246 138.341 81.358 138.801 81.358ZM143.202 82V73.18H144.084V82H143.202ZM146.807 84.88L148.061 81.478L148.079 82.486L145.241 75.52H146.177L148.505 81.346H148.121L150.269 75.52H151.169L147.689 84.88H146.807ZM158.141 82C157.777 82.076 157.417 82.106 157.061 82.09C156.709 82.074 156.393 81.998 156.113 81.862C155.837 81.726 155.627 81.514 155.483 81.226C155.367 80.986 155.303 80.744 155.291 80.5C155.283 80.252 155.279 79.97 155.279 79.654V73.72H156.155V79.618C156.155 79.89 156.157 80.118 156.161 80.302C156.169 80.482 156.211 80.642 156.287 80.782C156.431 81.05 156.659 81.21 156.971 81.262C157.287 81.314 157.677 81.302 158.141 81.226V82ZM153.893 76.276V75.52H158.141V76.276H153.893ZM161.89 82.18C161.246 82.18 160.696 82.034 160.24 81.742C159.784 81.45 159.434 81.046 159.19 80.53C158.946 80.014 158.824 79.422 158.824 78.754C158.824 78.074 158.948 77.478 159.196 76.966C159.444 76.454 159.796 76.056 160.252 75.772C160.712 75.484 161.258 75.34 161.89 75.34C162.538 75.34 163.09 75.486 163.546 75.778C164.006 76.066 164.356 76.468 164.596 76.984C164.84 77.496 164.962 78.086 164.962 78.754C164.962 79.434 164.84 80.032 164.596 80.548C164.352 81.06 164 81.46 163.54 81.748C163.08 82.036 162.53 82.18 161.89 82.18ZM161.89 81.334C162.61 81.334 163.146 81.096 163.498 80.62C163.85 80.14 164.026 79.518 164.026 78.754C164.026 77.97 163.848 77.346 163.492 76.882C163.14 76.418 162.606 76.186 161.89 76.186C161.406 76.186 161.006 76.296 160.69 76.516C160.378 76.732 160.144 77.034 159.988 77.422C159.836 77.806 159.76 78.25 159.76 78.754C159.76 79.534 159.94 80.16 160.3 80.632C160.66 81.1 161.19 81.334 161.89 81.334Z" fill="black" fill-opacity="0.45"/>
<path d="M105.162 14.174C104.734 14.174 104.34 14.098 103.98 13.946C103.62 13.794 103.31 13.578 103.05 13.298C102.79 13.014 102.6 12.676 102.48 12.284L103.32 12.032C103.464 12.46 103.7 12.784 104.028 13.004C104.36 13.224 104.734 13.33 105.15 13.322C105.534 13.314 105.864 13.228 106.14 13.064C106.42 12.9 106.634 12.672 106.782 12.38C106.93 12.088 107.004 11.75 107.004 11.366C107.004 10.778 106.832 10.306 106.488 9.95C106.148 9.59 105.698 9.41 105.138 9.41C104.982 9.41 104.818 9.432 104.646 9.476C104.474 9.516 104.314 9.574 104.166 9.65L103.722 8.948L107.082 5.846L107.226 6.206H102.822V5.36H107.814V6.218L104.886 9.014L104.874 8.666C105.474 8.59 106.002 8.658 106.458 8.87C106.914 9.082 107.27 9.406 107.526 9.842C107.786 10.274 107.916 10.782 107.916 11.366C107.916 11.918 107.796 12.406 107.556 12.83C107.32 13.25 106.994 13.58 106.578 13.82C106.162 14.056 105.69 14.174 105.162 14.174ZM114.293 14.174C113.533 14.174 112.907 14.01 112.415 13.682C111.927 13.354 111.627 12.898 111.515 12.314L112.415 12.164C112.511 12.532 112.729 12.826 113.069 13.046C113.413 13.262 113.837 13.37 114.341 13.37C114.833 13.37 115.221 13.268 115.505 13.064C115.789 12.856 115.931 12.574 115.931 12.218C115.931 12.018 115.885 11.856 115.793 11.732C115.705 11.604 115.523 11.486 115.247 11.378C114.971 11.27 114.559 11.142 114.011 10.994C113.423 10.834 112.963 10.674 112.631 10.514C112.299 10.354 112.063 10.17 111.923 9.962C111.783 9.75 111.713 9.492 111.713 9.188C111.713 8.82 111.817 8.498 112.025 8.222C112.233 7.942 112.521 7.726 112.889 7.574C113.257 7.418 113.685 7.34 114.173 7.34C114.661 7.34 115.097 7.42 115.481 7.58C115.869 7.736 116.181 7.956 116.417 8.24C116.653 8.524 116.793 8.854 116.837 9.23L115.937 9.392C115.877 9.012 115.687 8.712 115.367 8.492C115.051 8.268 114.649 8.152 114.161 8.144C113.701 8.132 113.327 8.22 113.039 8.408C112.751 8.592 112.607 8.838 112.607 9.146C112.607 9.318 112.659 9.466 112.763 9.59C112.867 9.71 113.055 9.824 113.327 9.932C113.603 10.04 113.995 10.158 114.503 10.286C115.099 10.438 115.567 10.598 115.907 10.766C116.247 10.934 116.489 11.132 116.633 11.36C116.777 11.588 116.849 11.87 116.849 12.206C116.849 12.818 116.621 13.3 116.165 13.652C115.713 14 115.089 14.174 114.293 14.174ZM120.922 14.18C120.29 14.18 119.742 14.04 119.278 13.76C118.818 13.48 118.46 13.086 118.204 12.578C117.948 12.07 117.82 11.474 117.82 10.79C117.82 10.082 117.946 9.47 118.198 8.954C118.45 8.438 118.804 8.04 119.26 7.76C119.72 7.48 120.262 7.34 120.886 7.34C121.526 7.34 122.072 7.488 122.524 7.784C122.976 8.076 123.318 8.496 123.55 9.044C123.782 9.592 123.888 10.246 123.868 11.006H122.968V10.694C122.952 9.854 122.77 9.22 122.422 8.792C122.078 8.364 121.574 8.15 120.91 8.15C120.214 8.15 119.68 8.376 119.308 8.828C118.94 9.28 118.756 9.924 118.756 10.76C118.756 11.576 118.94 12.21 119.308 12.662C119.68 13.11 120.206 13.334 120.886 13.334C121.35 13.334 121.754 13.228 122.098 13.016C122.446 12.8 122.72 12.49 122.92 12.086L123.742 12.404C123.486 12.968 123.108 13.406 122.608 13.718C122.112 14.026 121.55 14.18 120.922 14.18ZM118.444 11.006V10.268H123.394V11.006H118.444ZM127.887 14.18C127.235 14.18 126.683 14.034 126.231 13.742C125.779 13.45 125.435 13.048 125.199 12.536C124.967 12.02 124.847 11.428 124.839 10.76C124.847 10.08 124.971 9.484 125.211 8.972C125.451 8.456 125.797 8.056 126.249 7.772C126.701 7.484 127.249 7.34 127.893 7.34C128.549 7.34 129.119 7.5 129.603 7.82C130.091 8.14 130.425 8.578 130.605 9.134L129.741 9.41C129.589 9.022 129.347 8.722 129.015 8.51C128.687 8.294 128.311 8.186 127.887 8.186C127.411 8.186 127.017 8.296 126.705 8.516C126.393 8.732 126.161 9.034 126.009 9.422C125.857 9.81 125.779 10.256 125.775 10.76C125.783 11.536 125.963 12.16 126.315 12.632C126.667 13.1 127.191 13.334 127.887 13.334C128.327 13.334 128.701 13.234 129.009 13.034C129.321 12.83 129.557 12.534 129.717 12.146L130.605 12.41C130.365 12.986 130.013 13.426 129.549 13.73C129.085 14.03 128.531 14.18 127.887 14.18ZM134.374 14.18C133.73 14.18 133.18 14.034 132.724 13.742C132.268 13.45 131.918 13.046 131.674 12.53C131.43 12.014 131.308 11.422 131.308 10.754C131.308 10.074 131.432 9.478 131.68 8.966C131.928 8.454 132.28 8.056 132.736 7.772C133.196 7.484 133.742 7.34 134.374 7.34C135.022 7.34 135.574 7.486 136.03 7.778C136.49 8.066 136.84 8.468 137.08 8.984C137.324 9.496 137.446 10.086 137.446 10.754C137.446 11.434 137.324 12.032 137.08 12.548C136.836 13.06 136.484 13.46 136.024 13.748C135.564 14.036 135.014 14.18 134.374 14.18ZM134.374 13.334C135.094 13.334 135.63 13.096 135.982 12.62C136.334 12.14 136.51 11.518 136.51 10.754C136.51 9.97 136.332 9.346 135.976 8.882C135.624 8.418 135.09 8.186 134.374 8.186C133.89 8.186 133.49 8.296 133.174 8.516C132.862 8.732 132.628 9.034 132.472 9.422C132.32 9.806 132.244 10.25 132.244 10.754C132.244 11.534 132.424 12.16 132.784 12.632C133.144 13.1 133.674 13.334 134.374 13.334ZM143.45 14V10.694C143.45 10.334 143.416 10.004 143.348 9.704C143.28 9.4 143.17 9.136 143.018 8.912C142.87 8.684 142.676 8.508 142.436 8.384C142.2 8.26 141.912 8.198 141.572 8.198C141.26 8.198 140.984 8.252 140.744 8.36C140.508 8.468 140.308 8.624 140.144 8.828C139.984 9.028 139.862 9.272 139.778 9.56C139.694 9.848 139.652 10.176 139.652 10.544L139.028 10.406C139.028 9.742 139.144 9.184 139.376 8.732C139.608 8.28 139.928 7.938 140.336 7.706C140.744 7.474 141.212 7.358 141.74 7.358C142.128 7.358 142.466 7.418 142.754 7.538C143.046 7.658 143.292 7.82 143.492 8.024C143.696 8.228 143.86 8.462 143.984 8.726C144.108 8.986 144.198 9.264 144.254 9.56C144.31 9.852 144.338 10.144 144.338 10.436V14H143.45ZM138.764 14V7.52H139.562V9.116H139.652V14H138.764ZM148.362 14.18C147.758 14.18 147.242 14.03 146.814 13.73C146.386 13.426 146.058 13.016 145.83 12.5C145.602 11.984 145.488 11.402 145.488 10.754C145.488 10.11 145.6 9.53 145.824 9.014C146.052 8.498 146.378 8.09 146.802 7.79C147.226 7.49 147.734 7.34 148.326 7.34C148.934 7.34 149.446 7.488 149.862 7.784C150.278 8.08 150.592 8.486 150.804 9.002C151.02 9.514 151.128 10.098 151.128 10.754C151.128 11.398 151.022 11.98 150.81 12.5C150.598 13.016 150.286 13.426 149.874 13.73C149.462 14.03 148.958 14.18 148.362 14.18ZM148.452 13.358C148.912 13.358 149.292 13.246 149.592 13.022C149.892 12.798 150.116 12.49 150.264 12.098C150.412 11.702 150.486 11.254 150.486 10.754C150.486 10.246 150.412 9.798 150.264 9.41C150.116 9.018 149.892 8.712 149.592 8.492C149.296 8.272 148.922 8.162 148.47 8.162C148.006 8.162 147.622 8.276 147.318 8.504C147.014 8.732 146.788 9.042 146.64 9.434C146.496 9.826 146.424 10.266 146.424 10.754C146.424 11.246 146.498 11.69 146.646 12.086C146.798 12.478 147.024 12.788 147.324 13.016C147.624 13.244 148 13.358 148.452 13.358ZM150.486 14V9.122H150.39V5.36H151.278V14H150.486ZM155.379 14.174C154.619 14.174 153.993 14.01 153.501 13.682C153.013 13.354 152.713 12.898 152.601 12.314L153.501 12.164C153.597 12.532 153.815 12.826 154.155 13.046C154.499 13.262 154.923 13.37 155.427 13.37C155.919 13.37 156.307 13.268 156.591 13.064C156.875 12.856 157.017 12.574 157.017 12.218C157.017 12.018 156.971 11.856 156.879 11.732C156.791 11.604 156.609 11.486 156.333 11.378C156.057 11.27 155.645 11.142 155.097 10.994C154.509 10.834 154.049 10.674 153.717 10.514C153.385 10.354 153.149 10.17 153.009 9.962C152.869 9.75 152.799 9.492 152.799 9.188C152.799 8.82 152.903 8.498 153.111 8.222C153.319 7.942 153.607 7.726 153.975 7.574C154.343 7.418 154.771 7.34 155.259 7.34C155.747 7.34 156.183 7.42 156.567 7.58C156.955 7.736 157.267 7.956 157.503 8.24C157.739 8.524 157.879 8.854 157.923 9.23L157.023 9.392C156.963 9.012 156.773 8.712 156.453 8.492C156.137 8.268 155.735 8.152 155.247 8.144C154.787 8.132 154.413 8.22 154.125 8.408C153.837 8.592 153.693 8.838 153.693 9.146C153.693 9.318 153.745 9.466 153.849 9.59C153.953 9.71 154.141 9.824 154.413 9.932C154.689 10.04 155.081 10.158 155.589 10.286C156.185 10.438 156.653 10.598 156.993 10.766C157.333 10.934 157.575 11.132 157.719 11.36C157.863 11.588 157.935 11.87 157.935 12.206C157.935 12.818 157.707 13.3 157.251 13.652C156.799 14 156.175 14.174 155.379 14.174ZM163.522 14.18C163.034 14.18 162.624 14.092 162.292 13.916C161.964 13.74 161.718 13.506 161.554 13.214C161.39 12.922 161.308 12.604 161.308 12.26C161.308 11.908 161.378 11.608 161.518 11.36C161.662 11.108 161.856 10.902 162.1 10.742C162.348 10.582 162.634 10.46 162.958 10.376C163.286 10.296 163.648 10.226 164.044 10.166C164.444 10.102 164.834 10.048 165.214 10.004C165.598 9.956 165.934 9.91 166.222 9.866L165.91 10.058C165.922 9.418 165.798 8.944 165.538 8.636C165.278 8.328 164.826 8.174 164.182 8.174C163.738 8.174 163.362 8.274 163.054 8.474C162.75 8.674 162.536 8.99 162.412 9.422L161.554 9.17C161.702 8.59 162 8.14 162.448 7.82C162.896 7.5 163.478 7.34 164.194 7.34C164.786 7.34 165.288 7.452 165.7 7.676C166.116 7.896 166.41 8.216 166.582 8.636C166.662 8.824 166.714 9.034 166.738 9.266C166.762 9.498 166.774 9.734 166.774 9.974V14H165.988V12.374L166.216 12.47C165.996 13.026 165.654 13.45 165.19 13.742C164.726 14.034 164.17 14.18 163.522 14.18ZM163.624 13.418C164.036 13.418 164.396 13.344 164.704 13.196C165.012 13.048 165.26 12.846 165.448 12.59C165.636 12.33 165.758 12.038 165.814 11.714C165.862 11.506 165.888 11.278 165.892 11.03C165.896 10.778 165.898 10.59 165.898 10.466L166.234 10.64C165.934 10.68 165.608 10.72 165.256 10.76C164.908 10.8 164.564 10.846 164.224 10.898C163.888 10.95 163.584 11.012 163.312 11.084C163.128 11.136 162.95 11.21 162.778 11.306C162.606 11.398 162.464 11.522 162.352 11.678C162.244 11.834 162.19 12.028 162.19 12.26C162.19 12.448 162.236 12.63 162.328 12.806C162.424 12.982 162.576 13.128 162.784 13.244C162.996 13.36 163.276 13.418 163.624 13.418ZM170.91 17.06C170.578 17.06 170.25 17.01 169.926 16.91C169.606 16.814 169.31 16.66 169.038 16.448C168.766 16.24 168.538 15.968 168.354 15.632L169.152 15.188C169.332 15.548 169.584 15.806 169.908 15.962C170.236 16.122 170.57 16.202 170.91 16.202C171.378 16.202 171.756 16.114 172.044 15.938C172.336 15.766 172.548 15.51 172.68 15.17C172.812 14.83 172.876 14.406 172.872 13.898V12.17H172.974V7.52H173.76V13.91C173.76 14.094 173.754 14.27 173.742 14.438C173.734 14.61 173.716 14.778 173.688 14.942C173.612 15.426 173.454 15.824 173.214 16.136C172.978 16.448 172.666 16.68 172.278 16.832C171.894 16.984 171.438 17.06 170.91 17.06ZM170.85 14.18C170.246 14.18 169.73 14.03 169.302 13.73C168.874 13.426 168.546 13.016 168.318 12.5C168.09 11.984 167.976 11.402 167.976 10.754C167.976 10.11 168.088 9.53 168.312 9.014C168.54 8.498 168.866 8.09 169.29 7.79C169.714 7.49 170.222 7.34 170.814 7.34C171.422 7.34 171.934 7.488 172.35 7.784C172.766 8.08 173.08 8.486 173.292 9.002C173.508 9.514 173.616 10.098 173.616 10.754C173.616 11.398 173.51 11.98 173.298 12.5C173.086 13.016 172.774 13.426 172.362 13.73C171.95 14.03 171.446 14.18 170.85 14.18ZM170.94 13.358C171.4 13.358 171.78 13.246 172.08 13.022C172.38 12.798 172.604 12.49 172.752 12.098C172.9 11.702 172.974 11.254 172.974 10.754C172.974 10.246 172.9 9.798 172.752 9.41C172.604 9.018 172.38 8.712 172.08 8.492C171.784 8.272 171.41 8.162 170.958 8.162C170.494 8.162 170.11 8.276 169.806 8.504C169.502 8.732 169.276 9.042 169.128 9.434C168.984 9.826 168.912 10.266 168.912 10.754C168.912 11.246 168.986 11.69 169.134 12.086C169.286 12.478 169.512 12.788 169.812 13.016C170.112 13.244 170.488 13.358 170.94 13.358ZM178.144 14.18C177.5 14.18 176.95 14.034 176.494 13.742C176.038 13.45 175.688 13.046 175.444 12.53C175.2 12.014 175.078 11.422 175.078 10.754C175.078 10.074 175.202 9.478 175.45 8.966C175.698 8.454 176.05 8.056 176.506 7.772C176.966 7.484 177.512 7.34 178.144 7.34C178.792 7.34 179.344 7.486 179.8 7.778C180.26 8.066 180.61 8.468 180.85 8.984C181.094 9.496 181.216 10.086 181.216 10.754C181.216 11.434 181.094 12.032 180.85 12.548C180.606 13.06 180.254 13.46 179.794 13.748C179.334 14.036 178.784 14.18 178.144 14.18ZM178.144 13.334C178.864 13.334 179.4 13.096 179.752 12.62C180.104 12.14 180.28 11.518 180.28 10.754C180.28 9.97 180.102 9.346 179.746 8.882C179.394 8.418 178.86 8.186 178.144 8.186C177.66 8.186 177.26 8.296 176.944 8.516C176.632 8.732 176.398 9.034 176.242 9.422C176.09 9.806 176.014 10.25 176.014 10.754C176.014 11.534 176.194 12.16 176.554 12.632C176.914 13.1 177.444 13.334 178.144 13.334Z" fill="black" fill-opacity="0.25"/>
<g opacity="0.45">
<path opacity="0.45" d="M55.1119 78.2966C55.3416 77.9931 55.4688 77.6212 55.4688 77.2343C55.4688 76.6204 55.1256 76.0394 54.5732 75.7153C54.431 75.6319 54.2691 75.588 54.1043 75.5882H50.8258L50.9078 73.9079C50.927 73.5019 50.7834 73.1163 50.5045 72.8224C50.2242 72.5284 49.8469 72.3657 49.4395 72.3657C48.7285 72.3657 48.0996 72.8442 47.9109 73.5292L46.7365 77.7812H44.9688C44.7268 77.7812 44.5312 77.9767 44.5312 78.2187V83.1952C44.5312 83.4372 44.7268 83.6327 44.9688 83.6327H53.1896C53.3154 83.6327 53.4385 83.6081 53.552 83.5589C54.2027 83.2813 54.6225 82.6456 54.6225 81.9401C54.6225 81.7679 54.5979 81.5983 54.5486 81.4343C54.7783 81.1308 54.9055 80.7589 54.9055 80.372C54.9055 80.1997 54.8809 80.0302 54.8316 79.8661C55.0613 79.5626 55.1885 79.1907 55.1885 78.8038C55.1857 78.6315 55.1611 78.4606 55.1119 78.2966ZM45.5156 82.6483V78.7655H46.623V82.6483H45.5156ZM54.2164 77.8222L53.917 78.0819L54.107 78.4292C54.1699 78.544 54.2014 78.6698 54.2014 78.8024C54.2014 79.028 54.1029 79.2427 53.9334 79.3903L53.634 79.6501L53.824 79.9974C53.8869 80.1122 53.9184 80.238 53.9184 80.3706C53.9184 80.5962 53.8199 80.8108 53.6504 80.9585L53.351 81.2183L53.541 81.5655C53.6039 81.6804 53.6354 81.8062 53.6354 81.9388C53.6354 82.245 53.4549 82.5212 53.176 82.647H47.498V78.7218L48.8584 73.7931C48.9295 73.5347 49.166 73.3528 49.4354 73.3515C49.5393 73.3515 49.6418 73.3815 49.7238 73.4431C49.8592 73.5442 49.9316 73.6974 49.9234 73.8601L49.7922 76.5726H54.0906C54.334 76.7216 54.4844 76.9731 54.4844 77.2343C54.4844 77.4599 54.3859 77.6731 54.2164 77.8222Z" fill="black"/>
</g>
<g opacity="0.45">
<path opacity="0.45" d="M101.112 77.7034C101.161 77.5394 101.186 77.3698 101.186 77.1976C101.186 76.8106 101.059 76.4388 100.829 76.1353C100.878 75.9712 100.903 75.8017 100.903 75.6294C100.903 75.2425 100.776 74.8706 100.546 74.5671C100.595 74.403 100.62 74.2335 100.62 74.0612C100.62 73.3558 100.2 72.72 99.5492 72.4425C99.4357 72.3933 99.3141 72.3687 99.1869 72.3687H90.9688C90.7268 72.3687 90.5312 72.5642 90.5312 72.8062V77.7827C90.5312 78.0247 90.7268 78.2202 90.9688 78.2202H92.7365L93.9096 82.4694C94.0982 83.1544 94.7271 83.6329 95.4381 83.6329C95.8441 83.6329 96.2229 83.4716 96.5031 83.1763C96.7834 82.8823 96.927 82.4968 96.9064 82.0907L96.8244 80.4104H100.104C100.27 80.4104 100.431 80.3667 100.573 80.2833C101.126 79.962 101.469 79.3796 101.469 78.7657C101.469 78.3788 101.342 78.0069 101.112 77.7034ZM91.5156 77.2345V73.3517H92.623V77.2345H91.5156ZM100.091 79.4274H95.7922L95.9234 82.1399C95.9316 82.3026 95.8592 82.4558 95.7238 82.5569C95.6404 82.6185 95.5379 82.6499 95.4354 82.6486C95.1674 82.6472 94.9309 82.4653 94.8584 82.2069L93.498 77.2782V73.3517H99.1773C99.4562 73.4774 99.6367 73.7536 99.6367 74.0599C99.6367 74.1925 99.6053 74.3183 99.5424 74.4331L99.3523 74.7804L99.6518 75.0401C99.8227 75.1878 99.9197 75.4024 99.9197 75.628C99.9197 75.7606 99.8883 75.8864 99.8254 76.0013L99.6354 76.3485L99.9348 76.6083C100.106 76.756 100.203 76.9706 100.203 77.1962C100.203 77.3288 100.171 77.4546 100.108 77.5694L99.917 77.9181L100.216 78.1778C100.387 78.3255 100.484 78.5401 100.484 78.7657C100.484 79.0269 100.334 79.2784 100.091 79.4274Z" fill="black"/>
</g>
</svg>
