<svg width="150" height="40" viewBox="0 0 150 40" fill="none" xmlns="http://www.w3.org/2000/svg">
<path d="M148 0H2C0.89543 0 0 0.89543 0 2V38C0 39.1046 0.89543 40 2 40H148C149.105 40 150 39.1046 150 38V2C150 0.89543 149.105 0 148 0Z" fill="black"/>
<path d="M148 0H2C0.89543 0 0 0.89543 0 2V38C0 39.1046 0.89543 40 2 40H148C149.105 40 150 39.1046 150 38V2C150 0.89543 149.105 0 148 0Z" fill="white"/>
<path d="M24 13C20.1344 13 17 16.1344 17 20C17 23.8656 20.1344 27 24 27C27.8656 27 31 23.8656 31 20C31 16.1344 27.8656 13 24 13ZM27.0234 17.7141L23.7328 22.2766C23.5344 22.5531 23.1234 22.5531 22.925 22.2766L20.9766 19.5766C20.9172 19.4938 20.9766 19.3781 21.0781 19.3781H21.8109C21.9703 19.3781 22.1219 19.4547 22.2156 19.5859L23.3281 21.1297L25.7844 17.7234C25.8781 17.5938 26.0281 17.5156 26.1891 17.5156H26.9219C27.0234 17.5156 27.0828 17.6313 27.0234 17.7141Z" fill="#00F7BF"/>
<path d="M121 17H41V23H121V17Z" fill="#EBEBEB"/>
</svg>
