<svg width="158" height="19" viewBox="0 0 158 19" fill="none" xmlns="http://www.w3.org/2000/svg">
<path d="M141.689 15.203C141.19 15.203 140.73 15.1143 140.31 14.937C139.89 14.7597 139.528 14.5077 139.225 14.181C138.922 13.8497 138.7 13.4553 138.56 12.998L139.54 12.704C139.708 13.2033 139.983 13.5813 140.366 13.838C140.753 14.0947 141.19 14.2183 141.675 14.209C142.123 14.1997 142.508 14.0993 142.83 13.908C143.157 13.7167 143.406 13.4507 143.579 13.11C143.752 12.7693 143.838 12.375 143.838 11.927C143.838 11.241 143.637 10.6903 143.236 10.275C142.839 9.855 142.314 9.645 141.661 9.645C141.479 9.645 141.288 9.67067 141.087 9.722C140.886 9.76867 140.7 9.83633 140.527 9.925L140.009 9.106L143.929 5.487L144.097 5.907H138.959V4.92H144.783V5.921L141.367 9.183L141.353 8.777C142.053 8.68833 142.669 8.76767 143.201 9.015C143.733 9.26233 144.148 9.64033 144.447 10.149C144.75 10.653 144.902 11.2457 144.902 11.927C144.902 12.571 144.762 13.1403 144.482 13.635C144.207 14.125 143.826 14.51 143.341 14.79C142.856 15.0653 142.305 15.203 141.689 15.203ZM146.914 15V13.803H148.111V15H146.914ZM153.248 15.21C152.725 15.21 152.242 15.1027 151.799 14.888C151.356 14.6733 150.978 14.377 150.665 13.999C150.352 13.621 150.128 13.187 149.993 12.697L150.98 12.431C151.069 12.795 151.23 13.11 151.463 13.376C151.696 13.6373 151.969 13.8403 152.282 13.985C152.599 14.1297 152.931 14.202 153.276 14.202C153.724 14.202 154.125 14.0947 154.48 13.88C154.839 13.6607 155.124 13.3713 155.334 13.012C155.544 12.6527 155.649 12.2583 155.649 11.829C155.649 11.3857 155.539 10.9867 155.32 10.632C155.101 10.2727 154.811 9.988 154.452 9.778C154.093 9.568 153.701 9.463 153.276 9.463C152.8 9.463 152.389 9.568 152.044 9.778C151.699 9.98333 151.423 10.2423 151.218 10.555L150.28 10.163L150.588 4.92H155.971V5.907H151.043L151.554 5.424L151.281 9.897L151.022 9.554C151.311 9.22267 151.661 8.96367 152.072 8.777C152.483 8.59033 152.914 8.497 153.367 8.497C153.988 8.497 154.548 8.64633 155.047 8.945C155.546 9.239 155.943 9.638 156.237 10.142C156.531 10.646 156.678 11.2083 156.678 11.829C156.678 12.445 156.522 13.0097 156.209 13.523C155.896 14.0317 155.481 14.44 154.963 14.748C154.445 15.056 153.873 15.21 153.248 15.21Z" fill="black" fill-opacity="0.65"/>
<path fill-rule="evenodd" clip-rule="evenodd" d="M118.389 11.7304C118.18 11.9341 118.084 12.2277 118.134 12.5153L118.917 17.0846C118.979 17.4466 118.918 17.7061 118.621 17.9224C118.453 18.0445 118.253 18.1068 118.053 18.1068C117.899 18.1068 117.745 18.0701 117.604 17.9958L113.413 15.7368C113.154 15.601 112.846 15.601 112.587 15.7368L108.572 17.9958C108.247 18.1672 107.853 18.1382 107.555 17.9224C107.258 17.7061 107.021 17.4471 107.083 17.0846L108.043 12.4205C108.093 12.1328 107.997 11.8393 107.788 11.6356L104.292 8.88576C104.028 8.62943 103.934 8.24564 104.047 7.89615C104.161 7.54663 104.463 7.29223 104.827 7.23912L109.374 6.44111C109.663 6.39911 109.912 6.21778 110.041 5.95618L112.135 1.53828C112.297 1.20859 112.633 1.00002 113 1.00002C113.368 1.00002 113.703 1.20857 113.866 1.53828L115.877 5.95608C116.007 6.21776 116.256 6.39917 116.545 6.44115L121.174 7.23912C121.537 7.29175 121.84 7.54663 121.953 7.89615C122.066 8.24564 121.971 8.62941 121.708 8.88574L118.389 11.7304Z" fill="white"/>
<path fill-rule="evenodd" clip-rule="evenodd" d="M92.3887 11.7304C92.1797 11.9341 92.0843 12.2277 92.1337 12.5153L92.9175 17.0846C92.9788 17.4466 92.9176 17.7061 92.6207 17.9224C92.4527 18.0445 92.2528 18.1068 92.053 18.1068C91.8995 18.1068 91.7455 18.0701 91.604 17.9958L87.4126 15.7368C87.1543 15.601 86.8457 15.601 86.5873 15.7368L82.5719 17.9958C82.2465 18.1672 81.8526 18.1382 81.5547 17.9224C81.2578 17.7061 81.0207 17.4471 81.083 17.0846L82.0432 12.4205C82.0925 12.1328 81.9972 11.8393 81.7882 11.6356L78.2922 8.88576C78.0282 8.62943 77.934 8.24564 78.047 7.89615C78.1609 7.54663 78.4627 7.29223 78.8266 7.23912L83.3739 6.44111C83.6626 6.39911 83.9122 6.21778 84.0414 5.95618L86.1349 1.53828C86.2971 1.20859 86.6326 1.00002 87.0004 1.00002C87.3683 1.00002 87.7028 1.20857 87.866 1.53828L89.8774 5.95608C90.0065 6.21776 90.2562 6.39917 90.545 6.44115L95.1743 7.23912C95.5373 7.29175 95.84 7.54663 95.9529 7.89615C96.0664 8.24564 95.9708 8.62941 95.7082 8.88574L92.3887 11.7304Z" fill="white"/>
<path fill-rule="evenodd" clip-rule="evenodd" d="M86.9782 3.11642C86.9716 4.52677 86.9666 6.44388 86.9858 8.33739C87.0177 11.4808 86.9858 14.5239 86.9858 15.4515L82.517 17.7739C82.1955 17.9432 81.8063 17.9145 81.512 17.7014C81.2187 17.4877 80.9844 17.2318 81.046 16.8736L81.9946 12.2655C82.0434 11.9813 81.9492 11.6913 81.7427 11.49L78.2887 8.77324C78.0278 8.51998 77.9348 8.1408 78.0464 7.79551C78.159 7.45019 78.4571 7.19884 78.8167 7.14637L83.3093 6.35794C83.5946 6.31645 83.8412 6.1373 83.9688 5.87884L86.0372 1.514C86.1974 1.18826 86.6224 0.999985 86.9858 0.999985C86.9893 1.24049 86.9832 2.02737 86.9782 3.11642Z" fill="#FFC700"/>
<path fill-rule="evenodd" clip-rule="evenodd" d="M66.3887 11.7304C66.1797 11.9341 66.0843 12.2277 66.1337 12.5153L66.9175 17.0846C66.9788 17.4466 66.9176 17.7061 66.6207 17.9224C66.4527 18.0445 66.2528 18.1068 66.053 18.1068C65.8995 18.1068 65.7455 18.0701 65.604 17.9958L61.4126 15.7368C61.1543 15.601 60.8457 15.601 60.5873 15.7368L56.5719 17.9958C56.2465 18.1672 55.8526 18.1382 55.5547 17.9224C55.2578 17.7061 55.0207 17.4471 55.083 17.0846L56.0432 12.4205C56.0925 12.1328 55.9972 11.8393 55.7882 11.6356L52.2922 8.88576C52.0282 8.62943 51.934 8.24564 52.047 7.89615C52.1609 7.54663 52.4627 7.29223 52.8266 7.23912L57.3739 6.44111C57.6626 6.39911 57.9122 6.21778 58.0414 5.95618L60.1349 1.53828C60.2971 1.20859 60.6326 1.00002 61.0004 1.00002C61.3683 1.00002 61.7028 1.20857 61.866 1.53828L63.8774 5.95608C64.0065 6.21776 64.2562 6.39917 64.545 6.44115L69.1743 7.23912C69.5373 7.29175 69.84 7.54663 69.9529 7.89615C70.0664 8.24564 69.9708 8.62941 69.7082 8.88574L66.3887 11.7304Z" fill="#FFC700"/>
<path fill-rule="evenodd" clip-rule="evenodd" d="M40.3887 11.7304C40.1797 11.9341 40.0843 12.2277 40.1337 12.5153L40.9175 17.0846C40.9788 17.4466 40.9176 17.7061 40.6207 17.9224C40.4527 18.0445 40.2528 18.1068 40.053 18.1068C39.8995 18.1068 39.7455 18.0701 39.604 17.9958L35.4126 15.7368C35.1543 15.601 34.8457 15.601 34.5873 15.7368L30.5719 17.9958C30.2465 18.1672 29.8526 18.1382 29.5547 17.9224C29.2578 17.7061 29.0207 17.4471 29.083 17.0846L30.0432 12.4205C30.0925 12.1328 29.9972 11.8393 29.7882 11.6356L26.2922 8.88576C26.0282 8.62943 25.934 8.24564 26.047 7.89615C26.1609 7.54663 26.4627 7.29223 26.8266 7.23912L31.3739 6.44111C31.6626 6.39911 31.9122 6.21778 32.0414 5.95618L34.1349 1.53828C34.2971 1.20859 34.6326 1.00002 35.0004 1.00002C35.3683 1.00002 35.7028 1.20857 35.866 1.53828L37.8774 5.95608C38.0065 6.21776 38.2562 6.39917 38.545 6.44115L43.1743 7.23912C43.5373 7.29175 43.84 7.54663 43.9529 7.89615C44.0664 8.24564 43.9708 8.62941 43.7082 8.88574L40.3887 11.7304Z" fill="#FFC700"/>
<path fill-rule="evenodd" clip-rule="evenodd" d="M14.3887 11.7304C14.1797 11.9341 14.0843 12.2277 14.1337 12.5153L14.9175 17.0846C14.9788 17.4466 14.9176 17.7061 14.6207 17.9224C14.4527 18.0445 14.2528 18.1068 14.053 18.1068C13.8995 18.1068 13.7455 18.0701 13.604 17.9958L9.41262 15.7368C9.15429 15.601 8.84567 15.601 8.58735 15.7368L4.57189 17.9958C4.24652 18.1672 3.85261 18.1382 3.55473 17.9224C3.25784 17.7061 3.0207 17.4471 3.083 17.0846L4.04318 12.4205C4.09253 12.1328 3.99716 11.8393 3.78816 11.6356L0.292231 8.88576C0.0281704 8.62943 -0.0659716 8.24564 0.0469988 7.89615C0.160915 7.54663 0.462652 7.29223 0.826627 7.23912L5.37387 6.44111C5.66261 6.39911 5.9122 6.21778 6.04139 5.95618L8.13488 1.53828C8.2971 1.20859 8.63261 1.00002 9.00044 1.00002C9.36828 1.00002 9.70283 1.20857 9.86601 1.53828L11.8774 5.95608C12.0065 6.21776 12.2562 6.39917 12.545 6.44115L17.1743 7.23912C17.5373 7.29175 17.84 7.54663 17.9529 7.89615C18.0664 8.24564 17.9708 8.62941 17.7082 8.88574L14.3887 11.7304Z" fill="#FFC700"/>
</svg>
