<svg width="137" height="117" viewBox="0 0 137 117" fill="none" xmlns="http://www.w3.org/2000/svg">
<path fill-rule="evenodd" clip-rule="evenodd" d="M68.3727 2.79688C57.562 2.79688 48.7964 11.5625 48.7964 22.3731C48.7964 33.1838 57.562 41.9494 68.3727 41.9494C79.1833 41.9494 87.9489 33.1838 87.9489 22.3731C87.9489 11.5625 79.1833 2.79688 68.3727 2.79688ZM76.828 15.9803L67.6254 28.7398C67.0705 29.5132 65.9213 29.5132 65.3663 28.7398L59.9173 21.189C59.7512 20.9574 59.9173 20.634 60.2013 20.634H62.2507C62.6964 20.634 63.1203 20.8481 63.3825 21.2152L66.4937 25.5324L73.3629 16.0065C73.625 15.6438 74.0445 15.4253 74.4946 15.4253H76.544C76.828 15.4253 76.9941 15.7487 76.828 15.9803Z" fill="#00F7BF"/>
<path d="M64.9831 102H35.0169C34.4553 102 34 102.455 34 103.017V115.288C34 115.85 34.4553 116.305 35.0169 116.305H64.9831C65.5447 116.305 66 115.85 66 115.288V103.017C66 102.455 65.5447 102 64.9831 102Z" fill="#0010F7"/>
<path d="M101.644 102H71.6781C71.1164 102 70.6611 102.455 70.6611 103.017V115.288C70.6611 115.85 71.1164 116.305 71.6781 116.305H101.644C102.206 116.305 102.661 115.85 102.661 115.288V103.017C102.661 102.455 102.206 102 101.644 102Z" stroke="black" stroke-opacity="0.1"/>
<path d="M96.9492 53H40V65.2034H96.9492V53Z" fill="#EBEBEB"/>
<path d="M136.271 73H0V81.1356H136.271V73Z" fill="#F5F5F5"/>
<path d="M120.763 85H15V93.1356H120.763V85Z" fill="#F5F5F5"/>
</svg>
