<svg width="168" height="104" viewBox="0 0 168 104" fill="none" xmlns="http://www.w3.org/2000/svg">
<path d="M4.73423 2.97503C4.73423 2.56247 4.39979 2.22803 3.98723 2.22803C3.57468 2.22803 3.24023 2.56247 3.24023 2.97503V101.252C3.24023 101.665 3.57468 101.999 3.98723 101.999C4.39979 101.999 4.73423 101.665 4.73423 101.252V2.97503Z" fill="white"/>
<path d="M14.8851 102.54V99.3231H17.1981C17.6131 99.3231 17.9181 99.3691 18.1121 99.4611C18.4521 99.6271 18.6351 99.9561 18.6581 100.446L18.7201 101.697C18.7331 101.99 18.7501 102.187 18.7701 102.289C18.7857 102.376 18.8133 102.46 18.8521 102.539H20.0981V102.371C19.9421 102.303 19.8331 102.15 19.7711 101.911C19.7254 101.701 19.7016 101.488 19.7001 101.273L19.6641 100.267C19.6471 99.8321 19.5641 99.5171 19.4171 99.3231C19.2681 99.1291 19.0481 98.9731 18.7551 98.8531C19.0709 98.6954 19.3395 98.4575 19.5341 98.1631C19.7191 97.8781 19.8121 97.5101 19.8121 97.0611C19.8121 96.2001 19.4601 95.6091 18.7551 95.2891C18.3851 95.1231 17.9131 95.0391 17.3411 95.0391H13.8701V102.539H14.8861L14.8851 102.54ZM17.2341 98.4751H14.8851V95.9121H17.3671C17.7141 95.9121 17.9911 95.9631 18.1991 96.0651C18.5871 96.2591 18.7811 96.6241 18.7811 97.1581C18.7811 97.6551 18.6421 97.9981 18.3651 98.1891C18.0871 98.3801 17.7101 98.4751 17.2341 98.4751ZM23.3101 102.733C23.5891 102.733 23.8391 102.706 24.0601 102.652C24.4721 102.556 24.8181 102.372 25.0971 102.1C25.2787 101.924 25.4309 101.719 25.5481 101.495C25.6692 101.288 25.75 101.061 25.7861 100.824H24.8821C24.8169 101.061 24.6982 101.279 24.5351 101.462C24.2491 101.779 23.8661 101.937 23.3861 101.937C22.8721 101.937 22.4931 101.769 22.2481 101.434C22.0031 101.099 21.8721 100.654 21.8551 100.099H25.8621C25.8621 99.5471 25.8351 99.1461 25.7811 98.8941C25.7287 98.5498 25.6032 98.2208 25.4131 97.9291C25.2231 97.6391 24.9451 97.4041 24.5811 97.2221C24.2318 97.0436 23.8454 96.9501 23.4531 96.9491C22.6831 96.9491 22.0601 97.2231 21.5831 97.7711C21.1071 98.3191 20.8691 99.0311 20.8691 99.9101C20.8691 100.802 21.1061 101.495 21.5791 101.99C21.7987 102.229 22.0664 102.419 22.3646 102.547C22.6628 102.675 22.9847 102.738 23.3091 102.733H23.3101ZM24.9181 99.3691H21.8801C21.8971 98.8991 22.0491 98.5121 22.3341 98.2071C22.4684 98.0597 22.6326 97.9426 22.8157 97.8638C22.9989 97.785 23.1968 97.7462 23.3961 97.7501C23.9861 97.7501 24.4061 97.9721 24.6581 98.4141C24.7941 98.6521 24.8801 98.9711 24.9181 99.3691ZM27.9351 102.539V95.0391H27.0161V102.539H27.9361H27.9351ZM31.4481 102.733C31.7281 102.733 31.9781 102.706 32.1981 102.652C32.6101 102.556 32.9561 102.372 33.2351 102.1C33.4021 101.944 33.5521 101.742 33.6871 101.495C33.8211 101.249 33.9011 101.025 33.9241 100.824H33.0211C32.9556 101.061 32.8365 101.279 32.6731 101.462C32.3881 101.779 32.0051 101.937 31.5251 101.937C31.0111 101.937 30.6311 101.769 30.3861 101.434C30.1411 101.099 30.0101 100.654 29.9931 100.099H34.0011C34.0011 99.5471 33.9741 99.1461 33.9191 98.8941C33.867 98.5499 33.7419 98.2209 33.5521 97.9291C33.3611 97.6391 33.0841 97.4041 32.7191 97.2221C32.3698 97.0436 31.9834 96.9501 31.5911 96.9491C30.8211 96.9491 30.1991 97.2231 29.7221 97.7711C29.2461 98.3191 29.0081 99.0311 29.0081 99.9101C29.0081 100.802 29.2441 101.495 29.7181 101.99C30.1901 102.486 30.7681 102.733 31.4481 102.733ZM33.0561 99.3691H30.0181C30.0361 98.8991 30.1871 98.5121 30.4731 98.2071C30.6074 98.0597 30.7716 97.9426 30.9547 97.8638C31.1379 97.785 31.3358 97.7462 31.5351 97.7501C32.1241 97.7501 32.5451 97.9721 32.7961 98.4141C32.9321 98.6521 33.0191 98.9711 33.0561 99.3691ZM36.6001 102.723C37.0221 102.723 37.4081 102.633 37.7591 102.453C38.1091 102.273 38.3791 102.059 38.5651 101.814C38.5828 101.992 38.6369 102.164 38.7241 102.32C38.8671 102.545 39.0961 102.657 39.4131 102.657C39.5431 102.657 39.6441 102.652 39.7191 102.642C39.8297 102.624 39.9389 102.598 40.0461 102.565V101.885C39.9466 101.903 39.8461 101.913 39.7451 101.917C39.6191 101.917 39.5361 101.887 39.4971 101.83C39.4548 101.761 39.4342 101.681 39.4381 101.6V98.4501C39.4381 97.9321 39.2391 97.5511 38.8411 97.3061C38.4391 97.0611 37.9171 96.9381 37.2741 96.9381C36.7191 96.9381 36.2311 97.0701 35.8111 97.3341C35.3911 97.5981 35.1711 98.0671 35.1551 98.7411H36.0131C36.0471 98.4581 36.1201 98.2461 36.2331 98.1031C36.4331 97.8431 36.7731 97.7151 37.2531 97.7151C37.6691 97.7151 37.9881 97.7851 38.2111 97.9261C38.4341 98.0681 38.5451 98.2951 38.5451 98.6081C38.5451 98.7611 38.5251 98.8781 38.4841 98.9601C38.4121 99.1101 38.2711 99.1991 38.0601 99.2261L36.5951 99.4101C36.0811 99.4741 35.6651 99.6461 35.3491 99.9251C35.0321 100.205 34.8741 100.598 34.8741 101.105C34.8741 101.568 35.0341 101.953 35.3561 102.261C35.6781 102.569 36.0931 102.723 36.6001 102.723ZM36.8141 101.943C36.5646 101.948 36.321 101.866 36.1241 101.713C36.0292 101.639 35.9534 101.543 35.903 101.434C35.8525 101.324 35.8289 101.204 35.8341 101.084C35.8341 100.734 35.9751 100.478 36.2581 100.318C36.4241 100.223 36.6751 100.153 37.0081 100.109L37.5651 100.038C37.7351 100.018 37.9081 99.9831 38.0851 99.9361C38.2621 99.8881 38.4071 99.8281 38.5191 99.7561V100.497C38.5191 101.062 38.2641 101.469 37.7541 101.717C37.4511 101.867 37.1381 101.942 36.8141 101.942V101.943ZM42.8801 102.749C43.6351 102.749 44.1981 102.572 44.5671 102.218C44.9371 101.864 45.1211 101.443 45.1211 100.957C45.1211 100.453 44.9421 100.084 44.5851 99.8491C44.3601 99.6991 43.9181 99.5441 43.2581 99.3841L42.6501 99.2361C42.4389 99.1919 42.2356 99.1161 42.0471 99.0111C41.8131 98.8681 41.6951 98.6781 41.6951 98.4401C41.6951 98.2221 41.7851 98.0461 41.9631 97.9141C42.1421 97.7811 42.4051 97.7141 42.7531 97.7141C43.2731 97.7141 43.6391 97.8351 43.8501 98.0771C43.9801 98.2471 44.0521 98.4371 44.0701 98.6441H44.9371C44.9424 98.2859 44.8253 97.9366 44.6051 97.6541C44.2411 97.1701 43.6471 96.9281 42.8241 96.9281C42.1941 96.9281 41.6931 97.0881 41.3201 97.4081C40.9471 97.7281 40.7601 98.1471 40.7601 98.6641C40.7601 99.1041 40.9581 99.4471 41.3531 99.6961C41.5741 99.8391 41.9181 99.9681 42.3841 100.084L43.1141 100.267C43.5061 100.367 43.7681 100.453 43.9011 100.527C43.998 100.579 44.0784 100.656 44.1334 100.751C44.1883 100.846 44.2156 100.954 44.2121 101.064C44.2121 101.374 44.0821 101.603 43.8241 101.751C43.5496 101.903 43.2398 101.98 42.9261 101.973C42.3541 101.973 41.9521 101.825 41.7211 101.528C41.5951 101.365 41.5181 101.13 41.4911 100.824H40.6081C40.6311 101.369 40.8131 101.825 41.1511 102.194C41.4911 102.564 42.0661 102.749 42.8801 102.749ZM48.3071 102.733C48.5871 102.733 48.8371 102.706 49.0571 102.652C49.4691 102.556 49.8151 102.372 50.0941 102.1C50.2611 101.944 50.4111 101.742 50.5461 101.495C50.6801 101.249 50.7591 101.025 50.7831 100.824H49.8801C49.8146 101.061 49.6955 101.279 49.5321 101.462C49.2461 101.779 48.8641 101.937 48.3841 101.937C47.8701 101.937 47.4901 101.769 47.2451 101.434C47.0001 101.099 46.8691 100.654 46.8521 100.099H50.8601C50.8601 99.5471 50.8331 99.1461 50.7781 98.8941C50.726 98.5499 50.6009 98.2209 50.4111 97.9291C50.2201 97.6391 49.9431 97.4041 49.5781 97.2221C49.2288 97.0436 48.8424 96.9501 48.4501 96.9491C47.6801 96.9491 47.0581 97.2231 46.5811 97.7711C46.1051 98.3191 45.8671 99.0311 45.8671 99.9101C45.8671 100.802 46.1031 101.495 46.5771 101.99C47.0491 102.486 47.6271 102.733 48.3071 102.733ZM49.9151 99.3691H46.8771C46.8941 98.8991 47.0461 98.5121 47.3321 98.2071C47.4664 98.0597 47.6306 97.9426 47.8137 97.8638C47.9969 97.785 48.1948 97.7462 48.3941 97.7501C48.9831 97.7501 49.4041 97.9721 49.6541 98.4141C49.7911 98.6521 49.8781 98.9711 49.9151 99.3691ZM59.5651 102.539V101.671H55.5721C55.6611 101.311 55.8751 100.982 56.2161 100.686C56.459 100.484 56.7225 100.307 57.0021 100.16L57.7021 99.7721C58.3181 99.4281 58.7451 99.1361 58.9831 98.8941C59.3951 98.4791 59.6011 97.9781 59.6011 97.3931C59.6011 96.8381 59.4081 96.3341 59.0211 95.8821C58.6351 95.4291 58.0231 95.2021 57.1861 95.2021C56.1781 95.2021 55.4761 95.5571 55.0771 96.2651C54.8531 96.6661 54.7351 97.1851 54.7251 97.8221H55.6591C55.6731 97.3691 55.7441 97.0151 55.8741 96.7601C56.1151 96.2831 56.5511 96.0451 57.1811 96.0451C57.6061 96.0451 57.9471 96.1701 58.2011 96.4201C58.4571 96.6701 58.5851 97.0081 58.5851 97.4341C58.5851 97.7981 58.4451 98.1211 58.1661 98.4041C57.9891 98.5841 57.6811 98.8021 57.2421 99.0571L56.2621 99.6241C55.6051 100.005 55.1631 100.429 54.9371 100.895C54.7101 101.362 54.5801 101.91 54.5471 102.539H59.5651ZM62.8581 102.739C63.8321 102.739 64.5331 102.272 64.9621 101.339C65.2581 100.689 65.4061 99.8671 65.4061 98.8741C65.4061 97.8251 65.2431 97.0001 64.9161 96.3971C64.4941 95.6171 63.8101 95.2281 62.8631 95.2281C61.8121 95.2281 61.0851 95.7831 60.6831 96.8931C60.4691 97.4881 60.3621 98.2011 60.3621 99.0321C60.3621 100.104 60.5401 100.958 60.8981 101.595C61.3271 102.357 61.9801 102.739 62.8581 102.739ZM62.8531 101.901C62.2611 101.901 61.8431 101.556 61.5971 100.865C61.4371 100.412 61.3571 99.8131 61.3571 99.0681C61.3571 98.0781 61.4821 97.3281 61.7321 96.8181C61.9821 96.3101 62.3781 96.0551 62.9191 96.0551C63.5091 96.0551 63.9051 96.3231 64.1091 96.8591C64.3131 97.3951 64.4151 98.0791 64.4151 98.9091C64.4151 100.059 64.2751 100.846 63.9921 101.269C63.7091 101.69 63.3301 101.901 62.8531 101.901ZM69.5521 102.539V95.2591H68.8271C68.6971 95.8241 68.5021 96.1821 68.2401 96.3331C67.9781 96.4851 67.5151 96.5931 66.8501 96.6581V97.3621H68.5711V102.539H69.5511H69.5521ZM74.3521 102.723C75.2871 102.723 75.9691 102.459 76.3961 101.932C76.8231 101.404 77.0361 100.795 77.0361 100.104C77.0361 99.4401 76.8041 98.8921 76.3371 98.4601C75.8711 98.0281 75.3021 97.8121 74.6321 97.8121C74.2751 97.8121 73.9601 97.8681 73.6871 97.9801C73.514 98.0566 73.3511 98.1543 73.2021 98.2711L73.5141 96.2391H76.6241V95.3511H72.8241L72.2681 99.2871L73.0641 99.3331C73.2168 99.1218 73.415 98.9475 73.6441 98.8231C73.8701 98.7001 74.1421 98.6391 74.4581 98.6391C74.8941 98.6391 75.2681 98.7791 75.5791 99.0571C75.8901 99.3371 76.0461 99.7311 76.0461 100.242C76.0461 100.664 75.9161 101.049 75.6531 101.396C75.3911 101.743 74.9881 101.916 74.4431 101.916C74.1829 101.922 73.9246 101.87 73.6871 101.763C73.2621 101.563 73.0191 101.2 72.9571 100.676H72.0021C72.0571 101.37 72.3131 101.885 72.7711 102.22C73.2291 102.556 73.7551 102.723 74.3511 102.723H74.3521ZM80.4781 100.099V99.1541H77.9151V100.099H80.4781ZM83.7861 102.739C84.7601 102.739 85.4611 102.272 85.8901 101.339C86.1861 100.689 86.3341 99.8671 86.3341 98.8741C86.3341 97.8251 86.1711 97.0001 85.8441 96.3971C85.4221 95.6171 84.7381 95.2281 83.7921 95.2281C82.7401 95.2281 82.0131 95.7831 81.6121 96.8931C81.3971 97.4881 81.2901 98.2011 81.2901 99.0321C81.2901 100.104 81.4681 100.958 81.8261 101.595C82.2551 102.357 82.9081 102.739 83.7861 102.739ZM83.7811 101.901C83.1891 101.901 82.7711 101.556 82.5251 100.865C82.3651 100.412 82.2851 99.8131 82.2851 99.0681C82.2851 98.0781 82.4101 97.3281 82.6611 96.8181C82.9111 96.3101 83.3061 96.0551 83.8481 96.0551C84.4371 96.0551 84.8331 96.3231 85.0381 96.8591C85.2421 97.3951 85.3441 98.0791 85.3441 98.9091C85.3441 100.059 85.2021 100.846 84.9201 101.269C84.6371 101.69 84.2581 101.901 83.7811 101.901ZM89.4231 102.744C90.4881 102.744 91.2441 102.168 91.6901 101.018C91.9591 100.327 92.0931 99.5341 92.0931 98.6381C92.0931 97.8461 91.9811 97.1851 91.7561 96.6581C91.3511 95.6981 90.6161 95.2181 89.5511 95.2181C88.7611 95.2181 88.1641 95.4701 87.7591 95.9741C87.3575 96.468 87.1423 97.0875 87.1511 97.7241C87.1511 98.4161 87.3561 98.9811 87.7661 99.4201C88.1761 99.8591 88.7341 100.078 89.4381 100.078C89.7861 100.078 90.1101 100.013 90.4111 99.8821C90.7121 99.7511 90.9651 99.5241 91.1691 99.2001C91.0391 100.32 90.8201 101.063 90.5111 101.429C90.2011 101.795 89.8261 101.978 89.3871 101.978C89.1665 101.982 88.9487 101.929 88.7541 101.825C88.3901 101.631 88.1941 101.28 88.1671 100.773H87.2371C87.2371 101.338 87.4231 101.808 87.7941 102.182C88.1651 102.556 88.7081 102.744 89.4241 102.744H89.4231ZM89.5611 99.2721C89.0541 99.2721 88.6841 99.1321 88.4531 98.8511C88.2221 98.5701 88.1061 98.1911 88.1061 97.7151C88.1061 97.2111 88.2381 96.8081 88.5011 96.5071C88.7651 96.2061 89.1211 96.0551 89.5711 96.0551C89.9901 96.0551 90.3341 96.1871 90.6051 96.4511C90.8751 96.7151 91.0111 97.1151 91.0111 97.6531C91.0111 98.2531 90.8611 98.6721 90.5591 98.9121C90.2581 99.1521 89.9251 99.2721 89.5611 99.2721ZM95.5911 100.099V99.1541H93.0281V100.099H95.5911ZM99.7771 102.539V95.2591H99.0521C98.9231 95.8241 98.7271 96.1821 98.4651 96.3331C98.2031 96.4851 97.7401 96.5931 97.0761 96.6581V97.3621H98.7971V102.539H99.7771ZM104.715 102.739C105.688 102.739 106.389 102.272 106.818 101.339C107.114 100.689 107.262 99.8671 107.262 98.8741C107.262 97.8251 107.099 97.0001 106.772 96.3971C106.35 95.6171 105.666 95.2281 104.72 95.2281C103.668 95.2281 102.941 95.7831 102.54 96.8931C102.325 97.4881 102.218 98.2011 102.218 99.0321C102.218 100.104 102.397 100.958 102.754 101.595C103.183 102.357 103.836 102.739 104.714 102.739H104.715ZM104.709 101.901C104.117 101.901 103.699 101.556 103.453 100.865C103.293 100.412 103.213 99.8131 103.213 99.0681C103.213 98.0781 103.339 97.3281 103.589 96.8181C103.839 96.3101 104.235 96.0551 104.776 96.0551C105.365 96.0551 105.761 96.3231 105.966 96.8591C106.17 97.3951 106.272 98.0791 106.272 98.9091C106.272 100.059 106.131 100.846 105.848 101.269C105.566 101.69 105.186 101.901 104.709 101.901Z" fill="black" fill-opacity="0.65"/>
<path d="M3.988 102.312C5.63823 102.312 6.976 100.974 6.976 99.3239C6.976 97.6737 5.63823 96.3359 3.988 96.3359C2.33777 96.3359 1 97.6737 1 99.3239C1 100.974 2.33777 102.312 3.988 102.312Z" fill="white" stroke="#0010F7" stroke-width="1.494"/>
<path d="M16.6771 71.17V64.563H19.2051V63.67H13.1191V64.563H15.6461V71.17H16.6771ZM20.9871 71.364C21.2661 71.364 21.5161 71.337 21.7371 71.282C22.1273 71.1983 22.4864 71.0075 22.7741 70.731C22.9401 70.574 23.0911 70.373 23.2251 70.126C23.3601 69.879 23.4391 69.656 23.4631 69.455H22.5591C22.4939 69.6915 22.3752 69.9098 22.2121 70.093C21.9261 70.409 21.5431 70.568 21.0631 70.568C20.5491 70.568 20.1701 70.4 19.9251 70.065C19.6791 69.729 19.5481 69.285 19.5311 68.73H23.5391C23.5391 68.178 23.5121 67.777 23.4581 67.525C23.4057 67.1808 23.2803 66.8517 23.0901 66.56C22.9001 66.27 22.6221 66.035 22.2581 65.853C21.9089 65.6742 21.5225 65.5804 21.1301 65.579C20.3601 65.579 19.7371 65.853 19.2601 66.401C18.7841 66.949 18.5461 67.663 18.5461 68.541C18.5461 69.432 18.7831 70.126 19.2561 70.621C19.4758 70.8599 19.7435 71.0496 20.0416 71.1777C20.3398 71.3057 20.6617 71.3692 20.9861 71.364H20.9871ZM22.5951 68H19.5571C19.5741 67.53 19.7251 67.144 20.0111 66.839C20.2971 66.534 20.6511 66.382 21.0731 66.382C21.6631 66.382 22.0831 66.603 22.3341 67.046C22.4711 67.284 22.5571 67.602 22.5941 68H22.5951ZM26.6441 71.33C27.2801 71.33 27.8031 71.162 28.2111 70.826C28.6201 70.491 28.8751 69.961 28.9771 69.236H28.0831C27.9981 69.641 27.8441 69.96 27.6211 70.193C27.3981 70.427 27.0961 70.543 26.7151 70.543C26.2181 70.543 25.8541 70.356 25.6231 69.982C25.3911 69.607 25.2751 69.146 25.2751 68.598C25.2751 68.053 25.3571 67.595 25.5201 67.224C25.7721 66.653 26.1901 66.367 26.7761 66.367C27.2061 66.367 27.5161 66.478 27.7111 66.701C27.9051 66.924 28.0291 67.204 28.0831 67.541H28.9771C28.8991 66.809 28.6671 66.293 28.2801 65.994C27.8941 65.694 27.3921 65.544 26.7761 65.544C26.0551 65.544 25.4611 65.812 24.9951 66.346C24.5281 66.881 24.2951 67.628 24.2951 68.588C24.2951 69.371 24.5081 70.023 24.9331 70.546C25.3591 71.068 25.9291 71.329 26.6431 71.329L26.6441 71.33ZM30.8151 71.171V68.271C30.8151 67.543 30.9701 67.047 31.2801 66.785C31.5901 66.523 31.9351 66.392 32.3161 66.392C32.7761 66.392 33.0891 66.542 33.2561 66.842C33.3581 67.029 33.4091 67.323 33.4091 67.725V71.171H34.3531V67.664C34.3531 67.126 34.2771 66.705 34.1231 66.402C33.8411 65.848 33.3031 65.57 32.5101 65.57C32.0681 65.57 31.6981 65.667 31.4021 65.861C31.2291 65.974 31.0321 66.168 30.8151 66.443V63.645H29.8961V71.171H30.8151ZM36.6301 71.171V68.307C36.6301 67.949 36.6531 67.675 36.7001 67.482C36.7451 67.29 36.8451 67.104 36.9981 66.923C37.17 66.7106 37.4011 66.554 37.6621 66.473C37.8021 66.43 37.9801 66.408 38.1981 66.408C38.6271 66.408 38.9231 66.578 39.0861 66.918C39.1851 67.122 39.2341 67.391 39.2341 67.725V71.171H40.1691V67.664C40.1691 67.112 40.0941 66.688 39.9441 66.392C39.6721 65.851 39.1471 65.58 38.3711 65.58C38.0171 65.58 37.6961 65.65 37.4061 65.79C37.1171 65.93 36.8431 66.159 36.5841 66.479V65.703H35.7111V71.171H36.6311H36.6301ZM42.4611 64.712V63.67H41.5271V64.711H42.4611V64.712ZM42.4611 71.172V65.728H41.5271V71.171H42.4611V71.172ZM45.8261 71.329C46.4621 71.329 46.9851 71.162 47.3931 70.826C47.8021 70.491 48.0571 69.961 48.1591 69.236H47.2651C47.1801 69.641 47.0261 69.96 46.8031 70.193C46.5801 70.427 46.2781 70.543 45.8971 70.543C45.4001 70.543 45.0361 70.356 44.8051 69.982C44.5731 69.607 44.4571 69.146 44.4571 68.598C44.4571 68.053 44.5391 67.595 44.7021 67.224C44.9541 66.653 45.3731 66.367 45.9581 66.367C46.3881 66.367 46.6981 66.478 46.8931 66.701C47.0871 66.924 47.2111 67.204 47.2651 67.541H48.1591C48.0811 66.809 47.8491 66.293 47.4621 65.994C47.0761 65.694 46.5751 65.544 45.9581 65.544C45.2371 65.544 44.6431 65.812 44.1771 66.346C43.7101 66.881 43.4771 67.628 43.4771 68.588C43.4771 69.371 43.6901 70.023 44.1151 70.546C44.5411 71.068 45.1111 71.329 45.8251 71.329H45.8261ZM50.5481 71.355C50.9711 71.355 51.3571 71.265 51.7081 71.085C52.0581 70.904 52.3271 70.691 52.5141 70.446C52.5315 70.6237 52.5853 70.796 52.6721 70.952C52.8151 71.176 53.0451 71.289 53.3621 71.289C53.4911 71.289 53.5931 71.283 53.6681 71.273C53.7787 71.2549 53.8879 71.2295 53.9951 71.197V70.517C53.8956 70.5342 53.7951 70.5446 53.6941 70.548C53.5681 70.548 53.4851 70.519 53.4461 70.461C53.4038 70.392 53.3833 70.3119 53.3871 70.231V67.081C53.3871 66.564 53.1881 66.183 52.7901 65.938C52.3881 65.693 51.8661 65.57 51.2221 65.57C50.6681 65.57 50.1801 65.702 49.7601 65.966C49.3401 66.23 49.1201 66.699 49.1041 67.372H49.9611C49.9951 67.09 50.0681 66.877 50.1811 66.734C50.3811 66.476 50.7221 66.346 51.2021 66.346C51.6171 66.346 51.9361 66.416 52.1591 66.558C52.3821 66.699 52.4941 66.927 52.4941 67.24C52.5006 67.3605 52.4794 67.481 52.4321 67.592C52.3611 67.742 52.2201 67.83 52.0091 67.858L50.5431 68.041C50.0291 68.106 49.6141 68.278 49.2981 68.557C48.9811 68.837 48.8231 69.229 48.8231 69.737C48.8231 70.199 48.9831 70.585 49.3051 70.893C49.6271 71.201 50.0411 71.355 50.5481 71.355ZM50.7631 70.574C50.4971 70.574 50.2681 70.497 50.0731 70.344C49.9784 70.2699 49.9026 70.1743 49.8522 70.0651C49.8018 69.9559 49.7781 69.8362 49.7831 69.716C49.7831 69.366 49.9231 69.11 50.2061 68.95C50.3731 68.855 50.6231 68.785 50.9561 68.74L51.5131 68.67C51.6831 68.649 51.8571 68.615 52.0341 68.567C52.2111 68.52 52.3561 68.46 52.4681 68.389V69.129C52.4681 69.694 52.2131 70.101 51.7021 70.349C51.3991 70.499 51.0861 70.574 50.7621 70.574H50.7631ZM55.8381 71.171V63.671H54.9181V71.171H55.8381ZM61.4081 71.258C61.5411 71.258 61.6641 71.251 61.7781 71.238C61.8921 71.224 62.0021 71.202 62.1081 71.171V70.446C62.0012 70.4573 61.8937 70.4623 61.7861 70.461C61.6191 70.461 61.5001 70.443 61.4291 70.405C61.2991 70.341 61.2351 70.213 61.2351 70.022V66.453H62.1081V65.703H61.2351V64.176H60.3051V65.703H59.5651V66.453H60.3051V70.073C60.3051 70.424 60.3821 70.709 60.5351 70.929C60.6881 71.149 60.9791 71.258 61.4081 71.258ZM65.1611 71.365C65.4401 71.365 65.6911 71.338 65.9111 71.283C66.3014 71.1995 66.6605 71.0087 66.9481 70.732C67.1298 70.5555 67.2823 70.3513 67.4001 70.127C67.5341 69.88 67.6131 69.657 67.6371 69.456H66.7331C66.6679 69.6925 66.5492 69.9108 66.3861 70.094C66.1001 70.41 65.7171 70.569 65.2371 70.569C64.7231 70.569 64.3441 70.401 64.0991 70.066C63.8541 69.73 63.7231 69.286 63.7061 68.731H67.7141C67.7141 68.179 67.6861 67.778 67.6321 67.526C67.5797 67.1818 67.4543 66.8527 67.2641 66.561C67.0741 66.271 66.7961 66.036 66.4321 65.854C66.0829 65.6752 65.6965 65.5814 65.3041 65.58C64.5341 65.58 63.9121 65.854 63.4351 66.402C62.9591 66.95 62.7201 67.664 62.7201 68.542C62.7201 69.433 62.9571 70.127 63.4301 70.622C63.6498 70.8609 63.9175 71.0506 64.2156 71.1787C64.5138 71.3067 64.8357 71.3702 65.1601 71.365H65.1611ZM66.7691 68H63.7311C63.7481 67.53 63.9001 67.144 64.1861 66.839C64.4721 66.534 64.8261 66.382 65.2481 66.382C65.8371 66.382 66.2571 66.603 66.5081 67.046C66.6451 67.284 66.7321 67.602 66.7691 68ZM70.7771 71.38C71.5331 71.38 72.0951 71.203 72.4651 70.85C72.8341 70.495 73.0191 70.075 73.0191 69.588C73.0191 69.085 72.8391 68.715 72.4821 68.48C72.2581 68.33 71.8151 68.176 71.1551 68.016L70.5471 67.868C70.2821 67.803 70.0811 67.728 69.9451 67.643C69.7101 67.5 69.5931 67.31 69.5931 67.071C69.5931 66.853 69.6821 66.678 69.8611 66.545C70.0391 66.413 70.3021 66.346 70.6491 66.346C71.1701 66.346 71.5361 66.467 71.7471 66.709C71.8771 66.879 71.9501 67.068 71.9671 67.275H72.8351C72.8404 66.9168 72.7233 66.5676 72.5031 66.285C72.1391 65.802 71.5451 65.56 70.7211 65.56C70.0911 65.56 69.5911 65.72 69.2171 66.04C68.8451 66.36 68.6581 66.779 68.6581 67.296C68.6581 67.735 68.8561 68.079 69.2511 68.327C69.4711 68.47 69.8161 68.6 70.2811 68.715L71.0121 68.899C71.4031 68.998 71.6661 69.085 71.7981 69.159C71.8952 69.2104 71.9758 69.288 72.031 69.3829C72.0861 69.4778 72.1136 69.5863 72.1101 69.696C72.1101 70.006 71.9801 70.234 71.7221 70.382C71.4474 70.5342 71.1372 70.6108 70.8231 70.604C70.2511 70.604 69.8501 70.456 69.6181 70.16C69.4921 69.997 69.4161 69.762 69.3881 69.456H68.5051C68.5291 70 68.7101 70.457 69.0491 70.826C69.3881 71.196 69.9641 71.38 70.7771 71.38ZM75.3571 71.258C75.4901 71.258 75.6131 71.251 75.7271 71.238C75.8411 71.224 75.9511 71.202 76.0571 71.171V70.446C75.9502 70.4573 75.8427 70.4623 75.7351 70.461C75.5681 70.461 75.4491 70.443 75.3771 70.405C75.2481 70.341 75.1831 70.213 75.1831 70.022V66.453H76.0561V65.703H75.1831V64.176H74.2541V65.703H73.5141V66.453H74.2541V70.073C74.2541 70.424 74.3311 70.709 74.4841 70.929C74.6371 71.149 74.9281 71.258 75.3571 71.258ZM77.9101 64.712V63.67H76.9751V64.711H77.9101V64.712ZM77.9101 71.172V65.728H76.9751V71.171H77.9101V71.172ZM80.2181 71.172V68.307C80.2181 67.949 80.2411 67.675 80.2861 67.482C80.3321 67.29 80.4321 67.104 80.5861 66.923C80.7578 66.7107 80.9885 66.5541 81.2491 66.473C81.3891 66.43 81.5671 66.408 81.7851 66.408C82.2141 66.408 82.5101 66.578 82.6731 66.918C82.7731 67.122 82.8211 67.391 82.8211 67.725V71.171H83.7561V67.664C83.7561 67.112 83.6811 66.688 83.5311 66.392C83.2591 65.851 82.7351 65.58 81.9591 65.58C81.6051 65.58 81.2831 65.65 80.9941 65.79C80.7041 65.93 80.4301 66.159 80.1721 66.479V65.703H79.2991V71.171H80.2181V71.172ZM87.0801 73.484C88.1381 73.484 88.8581 73.113 89.2401 72.371C89.4431 71.969 89.5461 71.421 89.5461 70.727V65.754H88.6981V66.444C88.5482 66.2448 88.3696 66.0689 88.1681 65.922C87.8334 65.7068 87.4419 65.5968 87.0441 65.606C86.4111 65.606 85.8701 65.863 85.4231 66.376C84.9751 66.891 84.7511 67.606 84.7511 68.521C84.7511 69.491 84.9731 70.187 85.4181 70.607C85.8621 71.027 86.3801 71.237 86.9721 71.237C87.3981 71.237 87.7401 71.169 87.9991 71.033C88.2698 70.8855 88.4981 70.671 88.6621 70.41C88.6721 71.163 88.6131 71.685 88.4841 71.978C88.2661 72.475 87.8041 72.723 87.1001 72.723C86.6541 72.723 86.3271 72.621 86.1201 72.417C85.9871 72.284 85.8981 72.095 85.8541 71.85H84.9201C84.9681 72.412 85.1921 72.825 85.5941 73.088C85.9951 73.352 86.4911 73.484 87.0801 73.484ZM87.0801 70.487C86.6571 70.487 86.3211 70.327 86.0711 70.004C85.8211 69.683 85.6961 69.214 85.6961 68.598C85.6961 68.074 85.7591 67.65 85.8851 67.327C86.1231 66.721 86.5651 66.417 87.2121 66.417C87.6451 66.417 88.0001 66.581 88.2791 66.907C88.5591 67.235 88.6991 67.737 88.6991 68.414C88.6991 68.864 88.6231 69.256 88.4731 69.594C88.2051 70.189 87.7401 70.487 87.0801 70.487ZM98.5061 71.171V70.303H94.5131C94.6021 69.943 94.8161 69.613 95.1571 69.318C95.4001 69.1157 95.6635 68.9394 95.9431 68.792L96.6431 68.404C97.2591 68.06 97.6861 67.767 97.9241 67.526C98.3361 67.11 98.5421 66.61 98.5421 66.025C98.5421 65.47 98.3491 64.966 97.9621 64.513C97.5761 64.061 96.9641 63.834 96.1271 63.834C95.1191 63.834 94.4171 64.188 94.0181 64.896C93.7941 65.298 93.6761 65.817 93.6661 66.453H94.6001C94.6141 66.001 94.6851 65.647 94.8151 65.391C95.0561 64.915 95.4921 64.677 96.1221 64.677C96.5471 64.677 96.8881 64.802 97.1421 65.052C97.3981 65.302 97.5261 65.64 97.5261 66.065C97.5261 66.43 97.3861 66.753 97.1071 67.035C96.9301 67.215 96.6221 67.434 96.1831 67.689L95.2031 68.256C94.5461 68.637 94.1041 69.061 93.8781 69.527C93.6511 69.993 93.5211 70.541 93.4881 71.171H98.5061ZM101.799 71.371C102.773 71.371 103.474 70.904 103.903 69.971C104.199 69.321 104.347 68.499 104.347 67.505C104.347 66.457 104.184 65.631 103.857 65.029C103.435 64.249 102.751 63.859 101.804 63.859C100.753 63.859 100.026 64.415 99.6241 65.524C99.4101 66.12 99.3031 66.833 99.3031 67.664C99.3031 68.736 99.4811 69.59 99.8391 70.227C100.268 70.989 100.921 71.37 101.799 71.37V71.371ZM101.794 70.533C101.202 70.533 100.784 70.187 100.538 69.496C100.378 69.044 100.298 68.445 100.298 67.699C100.298 66.709 100.423 65.959 100.673 65.45C100.923 64.941 101.319 64.687 101.861 64.687C102.449 64.687 102.846 64.955 103.051 65.491C103.254 66.027 103.356 66.711 103.356 67.541C103.356 68.691 103.216 69.478 102.933 69.9C102.65 70.322 102.271 70.533 101.794 70.533ZM108.493 71.171V63.891H107.768C107.638 64.455 107.443 64.814 107.181 64.965C106.919 65.117 106.456 65.225 105.791 65.289V65.994H107.512V71.171H108.492H108.493ZM113.293 71.355C114.228 71.355 114.91 71.091 115.337 70.564C115.764 70.036 115.977 69.427 115.977 68.736C115.977 68.072 115.745 67.524 115.278 67.092C114.812 66.659 114.243 66.443 113.573 66.443C113.216 66.443 112.901 66.499 112.628 66.612C112.455 66.6882 112.292 66.7856 112.143 66.902L112.455 64.871H115.565V63.982H111.765L111.209 67.919L112.005 67.965C112.158 67.7537 112.356 67.5794 112.585 67.455C112.811 67.332 113.083 67.27 113.399 67.27C113.835 67.27 114.209 67.41 114.52 67.69C114.831 67.968 114.987 68.363 114.987 68.874C114.987 69.296 114.857 69.68 114.594 70.027C114.332 70.375 113.929 70.548 113.384 70.548C113.124 70.5539 112.866 70.5016 112.628 70.395C112.203 70.195 111.96 69.832 111.898 69.308H110.944C110.998 70.002 111.254 70.517 111.712 70.852C112.17 71.187 112.696 71.355 113.292 71.355H113.293ZM119.419 68.731V67.786H116.856V68.731H119.419ZM122.727 71.371C123.701 71.371 124.402 70.904 124.831 69.971C125.127 69.321 125.275 68.499 125.275 67.505C125.275 66.457 125.112 65.631 124.785 65.029C124.363 64.249 123.679 63.859 122.733 63.859C121.681 63.859 120.954 64.415 120.553 65.524C120.338 66.12 120.231 66.833 120.231 67.664C120.231 68.736 120.409 69.59 120.767 70.227C121.196 70.989 121.849 71.37 122.727 71.37V71.371ZM122.722 70.533C122.13 70.533 121.712 70.187 121.466 69.496C121.306 69.044 121.226 68.445 121.226 67.699C121.226 66.709 121.351 65.959 121.602 65.45C121.852 64.941 122.247 64.687 122.789 64.687C123.378 64.687 123.774 64.955 123.979 65.491C124.183 66.027 124.285 66.711 124.285 67.541C124.285 68.691 124.143 69.478 123.861 69.9C123.578 70.322 123.199 70.533 122.722 70.533ZM128.364 71.375C129.429 71.375 130.185 70.8 130.631 69.65C130.9 68.959 131.034 68.166 131.034 67.27C131.034 66.477 130.922 65.817 130.697 65.29C130.292 64.33 129.557 63.85 128.492 63.85C127.702 63.85 127.105 64.101 126.7 64.605C126.298 65.0993 126.083 65.7191 126.092 66.356C126.092 67.047 126.297 67.612 126.707 68.052C127.117 68.491 127.675 68.71 128.379 68.71C128.727 68.71 129.051 68.645 129.352 68.514C129.653 68.383 129.906 68.155 130.11 67.832C129.98 68.952 129.761 69.695 129.452 70.061C129.142 70.427 128.767 70.609 128.328 70.609C128.108 70.6126 127.89 70.5599 127.695 70.456C127.331 70.262 127.135 69.912 127.108 69.405H126.178C126.178 69.97 126.364 70.439 126.735 70.814C127.106 71.188 127.649 71.375 128.365 71.375H128.364ZM128.502 67.903C127.995 67.903 127.625 67.763 127.394 67.483C127.163 67.201 127.047 66.823 127.047 66.346C127.047 65.842 127.179 65.44 127.443 65.139C127.706 64.838 128.063 64.687 128.513 64.687C128.931 64.687 129.275 64.819 129.546 65.083C129.816 65.346 129.952 65.747 129.952 66.285C129.952 66.885 129.802 67.304 129.5 67.544C129.199 67.784 128.866 67.904 128.502 67.904V67.903ZM134.532 68.731V67.786H131.969V68.731H134.532ZM137.84 71.371C138.814 71.371 139.515 70.904 139.944 69.971C140.24 69.321 140.388 68.499 140.388 67.505C140.388 66.457 140.225 65.631 139.898 65.029C139.476 64.249 138.792 63.859 137.845 63.859C136.794 63.859 136.067 64.415 135.665 65.524C135.451 66.12 135.344 66.833 135.344 67.664C135.344 68.736 135.522 69.59 135.88 70.227C136.309 70.989 136.962 71.37 137.84 71.37V71.371ZM137.835 70.533C137.243 70.533 136.825 70.187 136.579 69.496C136.419 69.044 136.339 68.445 136.339 67.699C136.339 66.709 136.464 65.959 136.714 65.45C136.964 64.941 137.36 64.687 137.902 64.687C138.49 64.687 138.887 64.955 139.092 65.491C139.295 66.027 139.397 66.711 139.397 67.541C139.397 68.691 139.257 69.478 138.974 69.9C138.691 70.322 138.312 70.533 137.835 70.533ZM143.548 71.37C144.393 71.37 145.044 71.15 145.504 70.712C145.964 70.272 146.194 69.704 146.194 69.006C146.194 68.571 146.085 68.202 145.869 67.901C145.65 67.5978 145.331 67.3817 144.968 67.291C145.206 67.192 145.4 67.056 145.55 66.882C145.791 66.603 145.912 66.239 145.912 65.79C145.912 65.16 145.708 64.68 145.3 64.347C144.891 64.016 144.314 63.85 143.569 63.85C142.626 63.85 141.967 64.19 141.593 64.87C141.375 65.252 141.266 65.715 141.266 66.26H142.175C142.192 65.844 142.265 65.524 142.395 65.3C142.629 64.891 143.053 64.687 143.665 64.687C144.01 64.687 144.311 64.786 144.57 64.983C144.828 65.18 144.958 65.461 144.958 65.825C144.958 66.315 144.764 66.656 144.376 66.847C144.154 66.956 143.872 67.01 143.528 67.01C143.378 67.0098 143.228 67.0011 143.078 66.984V67.796C143.204 67.7895 143.33 67.7862 143.456 67.786C144.004 67.786 144.433 67.886 144.741 68.087C145.049 68.288 145.203 68.64 145.203 69.144C145.203 69.553 145.056 69.886 144.763 70.144C144.471 70.404 144.083 70.533 143.599 70.533C142.977 70.533 142.546 70.341 142.308 69.956C142.172 69.742 142.083 69.398 142.042 68.925H141.082C141.082 69.605 141.277 70.183 141.667 70.658C142.057 71.133 142.684 71.37 143.548 71.37Z" fill="black" fill-opacity="0.65"/>
<path d="M3.988 70.9428C5.63823 70.9428 6.976 69.605 6.976 67.9548C6.976 66.3046 5.63823 64.9668 3.988 64.9668C2.33777 64.9668 1 66.3046 1 67.9548C1 69.605 2.33777 70.9428 3.988 70.9428Z" fill="white" stroke="#0010F7" stroke-width="1.494"/>
<path d="M16.4218 40.0198C17.2218 40.0198 17.9238 39.8418 18.5278 39.4838C19.1318 39.1268 19.4338 38.5328 19.4338 37.7018C19.4338 37.0348 19.1958 36.5258 18.7198 36.1758C18.4438 35.9748 18.0518 35.8158 17.5448 35.7008L16.4938 35.4608C15.7858 35.2978 15.3308 35.1608 15.1298 35.0528C14.8238 34.8828 14.6698 34.6128 14.6698 34.2458C14.6698 33.9118 14.8018 33.6198 15.0638 33.3678C15.3258 33.1158 15.7568 32.9898 16.3558 32.9898C17.0978 32.9898 17.6238 33.1858 17.9328 33.5768C18.0998 33.7908 18.2088 34.0988 18.2598 34.5008H19.2148C19.2148 33.6668 18.9398 33.0608 18.3898 32.6808C17.8398 32.3008 17.1728 32.1108 16.3858 32.1108C15.5318 32.1108 14.8718 32.3278 14.4058 32.7608C13.9388 33.1918 13.7058 33.7448 13.7058 34.4188C13.7058 35.0418 13.9438 35.5098 14.4208 35.8238C14.6958 36.0038 15.1658 36.1688 15.8298 36.3188L16.8458 36.5488C17.3968 36.6738 17.8018 36.8228 18.0608 36.9928C18.3158 37.1658 18.4438 37.4568 18.4438 37.8658C18.4438 38.4098 18.1408 38.7878 17.5348 38.9988C17.2218 39.1088 16.8748 39.1628 16.4938 39.1628C15.6428 39.1628 15.0488 38.9138 14.7118 38.4168C14.5348 38.1518 14.4338 37.8068 14.4098 37.3808H13.4558C13.4458 38.1908 13.7038 38.8318 14.2318 39.3058C14.7588 39.7818 15.4888 40.0198 16.4218 40.0198ZM22.6818 39.9998C23.5838 39.9998 24.2488 39.7118 24.6778 39.1368C25.1068 38.5618 25.3208 37.8328 25.3208 36.9518C25.3208 36.0398 25.0778 35.3488 24.5908 34.8788C24.1038 34.4088 23.5088 34.1738 22.8038 34.1738C22.0178 34.1738 21.3918 34.4468 20.9248 34.9908C20.4588 35.5358 20.2248 36.2678 20.2248 37.1868C20.2248 38.0438 20.4468 38.7268 20.8898 39.2368C21.3318 39.7458 21.9298 39.9998 22.6818 39.9998ZM22.7678 39.2088C22.2138 39.2088 21.8078 39.0148 21.5528 38.6268C21.2978 38.2378 21.1698 37.7528 21.1698 37.1708C21.1698 36.5658 21.2978 36.0478 21.5528 35.6188C21.8088 35.1898 22.2168 34.9758 22.7788 34.9758C23.4118 34.9758 23.8578 35.2278 24.1158 35.7318C24.2798 36.0518 24.3608 36.4668 24.3608 36.9768C24.3683 37.5096 24.2519 38.0368 24.0208 38.5168C23.7958 38.9778 23.3778 39.2088 22.7678 39.2088ZM27.3578 39.8008V32.3008H26.4388V39.8008H27.3588H27.3578ZM31.1158 39.8008L33.1788 34.3328H32.1728L30.6458 38.7848L29.1858 34.3328H28.1198L30.1368 39.8008H31.1168H31.1158ZM36.0988 39.9948C36.3788 39.9948 36.6288 39.9678 36.8488 39.9128C37.2392 39.8296 37.5984 39.6387 37.8858 39.3618C38.0528 39.2048 38.2038 39.0028 38.3378 38.7568C38.4728 38.5098 38.5518 38.2868 38.5758 38.0848H37.6718C37.6068 38.3216 37.488 38.5403 37.3248 38.7238C37.0388 39.0398 36.6548 39.1978 36.1748 39.1978C35.6618 39.1978 35.2818 39.0308 35.0368 38.6948C34.7918 38.3598 34.6608 37.9148 34.6438 37.3598H38.6518C38.6518 36.8088 38.6248 36.4068 38.5708 36.1548C38.5184 35.8106 38.393 35.4816 38.2028 35.1898C38.0128 34.9008 37.7348 34.6648 37.3708 34.4828C37.0212 34.3043 36.6344 34.2107 36.2418 34.2098C35.4728 34.2098 34.8498 34.4838 34.3738 35.0318C33.8968 35.5798 33.6588 36.2928 33.6588 37.1718C33.6588 38.0628 33.8948 38.7568 34.3688 39.2518C34.8418 39.7468 35.4188 39.9948 36.0988 39.9948ZM37.7078 36.6298H34.6698C34.6868 36.1598 34.8378 35.7728 35.1238 35.4688C35.4098 35.1638 35.7638 35.0118 36.1858 35.0118C36.7748 35.0118 37.1958 35.2318 37.4468 35.6748C37.5828 35.9138 37.6698 36.2318 37.7068 36.6298H37.7078ZM43.6198 33.3418V32.3008H42.6858V33.3418H43.6198ZM43.6198 39.8008V34.3578H42.6858V39.8008H43.6198ZM45.9278 39.8008V36.9368C45.9278 36.5788 45.9508 36.3038 45.9968 36.1118C46.0429 35.9198 46.1418 35.7328 46.2948 35.5518C46.467 35.3401 46.6981 35.1842 46.9588 35.1038C47.0988 35.0588 47.2768 35.0368 47.4948 35.0368C47.9248 35.0368 48.2198 35.2068 48.3838 35.5468C48.4818 35.7518 48.5318 36.0208 48.5318 36.3538V39.8008H49.4658V36.2928C49.4658 35.7418 49.3909 35.3178 49.2408 35.0218C48.9688 34.4808 48.4448 34.2098 47.6688 34.2098C47.3148 34.2098 46.9928 34.2798 46.7038 34.4198C46.4138 34.5588 46.1408 34.7888 45.8818 35.1088V34.3328H45.0088V39.7998H45.9278V39.8008ZM51.7578 33.3418V32.3008H50.8238V33.3418H51.7578ZM51.7578 39.8008V34.3578H50.8238V39.8008H51.7578ZM54.4338 39.8878C54.5668 39.8878 54.6898 39.8808 54.8038 39.8678C54.9178 39.8538 55.0278 39.8308 55.1338 39.8008V39.0758C55.0269 39.0871 54.9194 39.0922 54.8118 39.0908C54.6448 39.0908 54.5258 39.0718 54.4538 39.0348C54.3238 38.9698 54.2598 38.8428 54.2598 38.6518V35.0828H55.1328V34.3328H54.2598V32.8058H53.3308V34.3328H52.5908V35.0828H53.3308V38.7028C53.3308 39.0528 53.4078 39.3388 53.5608 39.5578C53.7138 39.7778 54.0048 39.8878 54.4338 39.8878ZM56.9868 33.3418V32.3008H56.0518V33.3418H56.9868ZM56.9868 39.8008V34.3578H56.0518V39.8008H56.9868ZM59.8458 39.9848C60.2678 39.9848 60.6538 39.8948 61.0048 39.7138C61.3548 39.5338 61.6248 39.3208 61.8118 39.0758C61.8293 39.2532 61.8831 39.4251 61.9698 39.5808C62.1129 39.8058 62.3428 39.9178 62.6598 39.9178C62.7878 39.9178 62.8898 39.9128 62.9648 39.9028C63.0754 39.8844 63.1847 39.8586 63.2918 39.8258V39.1468C63.1923 39.1637 63.0918 39.1737 62.9908 39.1768C62.8648 39.1768 62.7818 39.1488 62.7428 39.0908C62.7009 39.0217 62.6807 38.9416 62.6848 38.8608V35.7108C62.6848 35.1938 62.4848 34.8128 62.0868 34.5678C61.6858 34.3218 61.1628 34.1998 60.5198 34.1998C59.9648 34.1998 59.4768 34.3318 59.0568 34.5958C58.6368 34.8588 58.4178 35.3278 58.4008 36.0018H59.2588C59.2928 35.7198 59.3658 35.5068 59.4788 35.3638C59.6788 35.1048 60.0188 34.9758 60.4988 34.9758C60.9148 34.9758 61.2338 35.0458 61.4568 35.1878C61.6798 35.3288 61.7908 35.5558 61.7908 35.8688C61.7908 36.0228 61.7708 36.1398 61.7298 36.2218C61.6578 36.3718 61.5168 36.4598 61.3058 36.4868L59.8408 36.6708C59.3268 36.7358 58.9109 36.9078 58.5948 37.1868C58.2778 37.4658 58.1198 37.8588 58.1198 38.3668C58.1198 38.8288 58.2808 39.2148 58.6028 39.5228C58.9238 39.8308 59.3388 39.9848 59.8458 39.9848ZM60.0598 39.2028C59.7948 39.2028 59.5648 39.1268 59.3708 38.9728C59.276 38.8989 59.2002 38.8035 59.1496 38.6945C59.099 38.5855 59.0751 38.4659 59.0798 38.3458C59.0798 37.9958 59.2208 37.7398 59.5038 37.5798C59.6708 37.4848 59.9208 37.4148 60.2538 37.3698L60.8108 37.2988C60.9808 37.2788 61.1549 37.2448 61.3308 37.1968C61.484 37.1594 61.6307 37.099 61.7658 37.0178V37.7578C61.7658 38.3238 61.5098 38.7298 60.9998 38.9778C60.6968 39.1278 60.3839 39.2028 60.0598 39.2028ZM65.1348 39.8008V32.3008H64.2159V39.8008H65.1358H65.1348ZM70.2668 41.9808V39.1878C70.4668 39.4368 70.6488 39.6118 70.8129 39.7138C71.0919 39.8938 71.4368 39.9838 71.8488 39.9838C72.3738 39.9838 72.8328 39.8228 73.2278 39.4998C73.8508 38.9888 74.1618 38.1378 74.1618 36.9468C74.1618 36.0648 73.9458 35.3868 73.5138 34.9118C73.0808 34.4368 72.5558 34.1998 71.9358 34.1998C71.5495 34.1908 71.1692 34.2974 70.8438 34.5058C70.6083 34.6585 70.4037 34.8543 70.2408 35.0828V34.3578H69.3478V41.9808H70.2668ZM71.7268 39.1828C71.0938 39.1828 70.6578 38.9008 70.4198 38.3358C70.2938 38.0388 70.2299 37.6798 70.2299 37.2578C70.2299 36.7338 70.2938 36.3018 70.4198 35.9608C70.6548 35.3248 71.0898 35.0068 71.7268 35.0068C72.3598 35.0068 72.7958 35.3068 73.0338 35.9098C73.1598 36.2228 73.2228 36.5978 73.2228 37.0338C73.2228 37.7478 73.0808 38.2848 72.7958 38.6438C72.5118 39.0038 72.1558 39.1828 71.7258 39.1828H71.7268ZM76.1788 39.8008V36.6558C76.1788 36.2678 76.3028 35.9248 76.5518 35.6258C76.7999 35.3288 77.1558 35.1798 77.6189 35.1798C77.7198 35.1774 77.8208 35.1861 77.9198 35.2058V34.2358C77.8213 34.226 77.7226 34.2173 77.6238 34.2098C77.2598 34.2098 76.9378 34.3418 76.6588 34.6058C76.3788 34.8698 76.2038 35.0928 76.1329 35.2768V34.3328H75.2598V39.7998H76.1788V39.8008ZM80.7989 39.9998C81.7019 39.9998 82.3668 39.7118 82.7958 39.1368C83.2248 38.5618 83.4389 37.8328 83.4389 36.9518C83.4389 36.0398 83.1958 35.3488 82.7088 34.8788C82.2218 34.4088 81.6268 34.1738 80.9218 34.1738C80.1358 34.1738 79.5098 34.4468 79.0428 34.9908C78.5768 35.5358 78.3428 36.2678 78.3428 37.1868C78.3428 38.0438 78.5648 38.7268 79.0069 39.2368C79.4499 39.7458 80.0469 39.9998 80.7999 39.9998H80.7989ZM80.8858 39.2088C80.3318 39.2088 79.9258 39.0148 79.6708 38.6268C79.4158 38.2378 79.2878 37.7528 79.2878 37.1708C79.2878 36.5658 79.4158 36.0478 79.6708 35.6188C79.9268 35.1898 80.3349 34.9758 80.8969 34.9758C81.5299 34.9758 81.9758 35.2278 82.2338 35.7318C82.3979 36.0518 82.4788 36.4668 82.4788 36.9768C82.4863 37.5096 82.3699 38.0368 82.1388 38.5168C81.9128 38.9778 81.4958 39.2088 80.8858 39.2088ZM86.9058 39.9738C87.6478 39.9738 88.2279 39.6888 88.6469 39.1168C89.0658 38.5448 89.2748 37.8268 89.2748 36.9618C89.2748 36.0498 89.0629 35.3598 88.6388 34.8918C88.2159 34.4238 87.6628 34.1898 86.9828 34.1898C86.6558 34.1898 86.3528 34.2588 86.0728 34.3958C85.79 34.5379 85.5436 34.7432 85.3528 34.9958V32.2758H84.4598V39.7998H85.3078V39.0998C85.5018 39.3618 85.6838 39.5528 85.8538 39.6718C86.1398 39.8728 86.4908 39.9728 86.9058 39.9728V39.9738ZM86.8498 39.1628C86.1898 39.1628 85.7378 38.8608 85.4968 38.2588C85.3669 37.9388 85.3028 37.5218 85.3028 37.0078C85.3028 36.2968 85.4598 35.7858 85.7748 35.4758C85.9174 35.3283 86.0883 35.2111 86.2774 35.1313C86.4664 35.0516 86.6697 35.0109 86.8748 35.0118C87.3549 35.0118 87.7188 35.2008 87.9648 35.5778C88.2118 35.9558 88.3348 36.4328 88.3348 37.0078C88.3348 37.6548 88.2118 38.1758 87.9648 38.5698C87.7188 38.9648 87.3468 39.1628 86.8498 39.1628ZM91.2918 39.8008V32.3008H90.3718V39.8008H91.2918ZM94.8038 39.9948C95.0838 39.9948 95.3338 39.9678 95.5548 39.9128C95.9448 39.8294 96.3037 39.6385 96.5909 39.3618C96.7579 39.2048 96.9088 39.0028 97.0428 38.7568C97.1778 38.5098 97.2568 38.2868 97.2808 38.0848H96.3768C96.3118 38.3216 96.193 38.5403 96.0298 38.7238C95.7438 39.0398 95.3608 39.1978 94.8808 39.1978C94.3668 39.1978 93.9878 39.0308 93.7418 38.6948C93.4968 38.3598 93.3658 37.9148 93.3488 37.3598H97.3568C97.3568 36.8088 97.3298 36.4068 97.2758 36.1548C97.2234 35.8106 97.098 35.4816 96.9078 35.1898C96.7178 34.9008 96.4398 34.6648 96.0758 34.4828C95.7262 34.3043 95.3394 34.2107 94.9468 34.2098C94.1778 34.2098 93.5548 34.4838 93.0788 35.0318C92.6019 35.5798 92.3638 36.2928 92.3638 37.1718C92.3638 38.0628 92.6008 38.7568 93.0738 39.2518C93.5468 39.7468 94.1238 39.9948 94.8038 39.9948ZM96.4128 36.6298H93.3748C93.3918 36.1598 93.5428 35.7728 93.8288 35.4688C94.1149 35.1638 94.4688 35.0118 94.8908 35.0118C95.4808 35.0118 95.9008 35.2318 96.1518 35.6748C96.2888 35.9138 96.3748 36.2318 96.4118 36.6298H96.4128ZM99.4048 39.7998V36.8998C99.4048 36.1958 99.5469 35.7098 99.8308 35.4398C100.115 35.1718 100.431 35.0368 100.778 35.0368C101.159 35.0368 101.42 35.1648 101.559 35.4198C101.648 35.5898 101.692 35.8598 101.692 36.2318V39.8008H102.626V36.6198C102.626 36.0548 102.756 35.6518 103.016 35.4098C103.277 35.1678 103.588 35.0468 103.949 35.0468C104.211 35.0468 104.433 35.1158 104.615 35.2518C104.797 35.3878 104.888 35.6378 104.888 36.0018V39.8008H105.843V36.1608C105.843 35.6768 105.771 35.2928 105.629 35.0068C105.363 34.4758 104.863 34.2098 104.127 34.2098C103.784 34.2098 103.474 34.2798 103.198 34.4218C102.908 34.5759 102.66 34.7996 102.478 35.0728C102.38 34.8667 102.241 34.6826 102.07 34.5318C101.804 34.3168 101.454 34.2098 101.018 34.2098C100.633 34.2098 100.29 34.3138 99.9868 34.5218C99.8098 34.6438 99.6118 34.8398 99.3938 35.1088V34.3328H98.4858V39.7998H99.4048ZM109.131 40.0098C109.887 40.0098 110.449 39.8328 110.818 39.4798C111.188 39.1248 111.372 38.7048 111.372 38.2178C111.372 37.7138 111.194 37.3448 110.836 37.1098C110.612 36.9598 110.169 36.8048 109.509 36.6458L108.901 36.4968C108.69 36.453 108.487 36.3775 108.299 36.2728C108.064 36.1298 107.946 35.9388 107.946 35.7008C107.946 35.4828 108.036 35.3078 108.215 35.1748C108.393 35.0418 108.656 34.9758 109.003 34.9758C109.524 34.9758 109.89 35.0958 110.101 35.3378C110.231 35.5078 110.304 35.6978 110.321 35.9048H111.189C111.194 35.5467 111.077 35.1974 110.857 34.9148C110.493 34.4308 109.899 34.1898 109.075 34.1898C108.445 34.1898 107.944 34.3498 107.571 34.6698C107.198 34.9898 107.012 35.4078 107.012 35.9258C107.012 36.3648 107.21 36.7078 107.604 36.9568C107.826 37.0998 108.169 37.2288 108.636 37.3448L109.366 37.5288C109.757 37.6278 110.019 37.7138 110.152 37.7888C110.249 37.8401 110.329 37.9175 110.384 38.0123C110.44 38.107 110.467 38.2153 110.464 38.3248C110.464 38.6348 110.334 38.8638 110.076 39.0118C109.801 39.1642 109.49 39.2408 109.176 39.2338C108.606 39.2338 108.203 39.0858 107.972 38.7898C107.846 38.6268 107.769 38.3918 107.742 38.0848H106.859C106.883 38.6298 107.064 39.0868 107.403 39.4558C107.741 39.8258 108.317 40.0098 109.131 40.0098ZM120.001 39.7998V38.9328H116.008C116.097 38.5728 116.311 38.2428 116.652 37.9468C116.895 37.7449 117.158 37.569 117.438 37.4218L118.138 37.0338C118.754 36.6898 119.181 36.3968 119.418 36.1548C119.831 35.7398 120.037 35.2398 120.037 34.6548C120.037 34.0988 119.844 33.5948 119.457 33.1428C119.071 32.6898 118.459 32.4638 117.622 32.4638C116.614 32.4638 115.912 32.8178 115.513 33.5258C115.288 33.9278 115.171 34.4458 115.161 35.0828H116.095C116.109 34.6298 116.18 34.2758 116.31 34.0208C116.551 33.5448 116.987 33.3058 117.617 33.3058C118.042 33.3058 118.382 33.4308 118.637 33.6818C118.893 33.9318 119.021 34.2698 119.021 34.6948C119.021 35.0588 118.881 35.3828 118.602 35.6648C118.425 35.8448 118.117 36.0628 117.678 36.3188L116.698 36.8848C116.041 37.2668 115.599 37.6898 115.373 38.1568C115.146 38.6228 115.016 39.1708 114.983 39.8008H120L120.001 39.7998ZM123.294 39.9998C124.268 39.9998 124.969 39.5338 125.398 38.6008C125.694 37.9508 125.842 37.1288 125.842 36.1348C125.842 35.0868 125.679 34.2608 125.352 33.6588C124.93 32.8788 124.246 32.4888 123.299 32.4888C122.247 32.4888 121.521 33.0438 121.119 34.1538C120.905 34.7498 120.797 35.4628 120.797 36.2938C120.797 37.3648 120.977 38.2198 121.334 38.8558C121.762 39.6188 122.416 39.9998 123.294 39.9998ZM123.289 39.1628C122.697 39.1628 122.279 38.8168 122.033 38.1258C121.873 37.6728 121.793 37.0738 121.793 36.3288C121.793 35.3388 121.918 34.5888 122.168 34.0788C122.418 33.5708 122.814 33.3168 123.355 33.3168C123.945 33.3168 124.341 33.5848 124.545 34.1208C124.749 34.6568 124.851 35.3408 124.851 36.1708C124.851 37.3208 124.711 38.1068 124.428 38.5298C124.145 38.9518 123.766 39.1628 123.289 39.1628ZM129.988 39.8008V32.5208H129.263C129.133 33.0848 128.938 33.4428 128.676 33.5948C128.413 33.7458 127.951 33.8548 127.286 33.9188V34.6238H129.007V39.7998H129.987L129.988 39.8008ZM134.787 39.9848C135.723 39.9848 136.405 39.7208 136.832 39.1928C137.254 38.6782 137.481 38.0306 137.472 37.3648C137.472 36.7018 137.239 36.1538 136.773 35.7208C136.307 35.2888 135.738 35.0728 135.068 35.0728C134.71 35.0728 134.396 35.1288 134.123 35.2408C133.95 35.3174 133.787 35.4151 133.638 35.5318L133.95 33.4998H137.06V32.6118H133.26L132.704 36.5488L133.5 36.5938C133.66 36.3768 133.854 36.2058 134.08 36.0838C134.306 35.9608 134.578 35.8998 134.894 35.8998C135.33 35.8998 135.704 36.0398 136.015 36.3188C136.326 36.5978 136.482 36.9928 136.482 37.5028C136.482 37.9248 136.352 38.3098 136.089 38.6568C135.827 39.0038 135.424 39.1768 134.879 39.1768C134.593 39.1768 134.341 39.1268 134.123 39.0248C133.698 38.8238 133.454 38.4608 133.393 37.9368H132.438C132.493 38.6318 132.749 39.1468 133.207 39.4818C133.665 39.8168 134.191 39.9848 134.787 39.9848ZM140.914 37.3598V36.4158H138.351V37.3598H140.914ZM144.222 39.9998C145.196 39.9998 145.897 39.5338 146.326 38.6008C146.622 37.9508 146.77 37.1288 146.77 36.1348C146.77 35.0868 146.607 34.2608 146.28 33.6588C145.858 32.8788 145.174 32.4888 144.227 32.4888C143.176 32.4888 142.449 33.0438 142.047 34.1538C141.833 34.7498 141.726 35.4628 141.726 36.2938C141.726 37.3648 141.904 38.2198 142.262 38.8558C142.691 39.6188 143.344 39.9998 144.222 39.9998ZM144.217 39.1628C143.625 39.1628 143.207 38.8168 142.961 38.1258C142.801 37.6728 142.721 37.0738 142.721 36.3288C142.721 35.3388 142.846 34.5888 143.097 34.0788C143.347 33.5708 143.742 33.3168 144.284 33.3168C144.872 33.3168 145.269 33.5848 145.474 34.1208C145.677 34.6568 145.78 35.3408 145.78 36.1708C145.78 37.3208 145.638 38.1068 145.356 38.5298C145.073 38.9518 144.694 39.1628 144.217 39.1628ZM149.859 40.0048C150.924 40.0048 151.68 39.4298 152.126 38.2788C152.395 37.5888 152.529 36.7948 152.529 35.8998C152.529 35.1068 152.417 34.4468 152.192 33.9198C151.787 32.9598 151.052 32.4798 149.987 32.4798C149.197 32.4798 148.6 32.7308 148.195 33.2348C147.793 33.7291 147.578 34.3489 147.587 34.9858C147.587 35.6768 147.792 36.2418 148.202 36.6808C148.612 37.1208 149.17 37.3398 149.874 37.3398C150.222 37.3398 150.546 37.2738 150.847 37.1428C151.148 37.0128 151.401 36.7848 151.605 36.4618C151.475 37.5818 151.256 38.3238 150.947 38.6898C150.637 39.0558 150.262 39.2398 149.823 39.2398C149.602 39.2431 149.384 39.1901 149.19 39.0858C148.826 38.8918 148.63 38.5408 148.603 38.0338H147.673C147.673 38.5988 147.859 39.0688 148.23 39.4438C148.601 39.8178 149.144 40.0048 149.859 40.0048ZM149.997 36.5328C149.49 36.5328 149.12 36.3928 148.889 36.1118C148.657 35.8318 148.542 35.4518 148.542 34.9758C148.542 34.4718 148.674 34.0698 148.937 33.7678C149.201 33.4678 149.557 33.3168 150.007 33.3168C150.426 33.3168 150.77 33.4488 151.041 33.7118C151.311 33.9758 151.447 34.3768 151.447 34.9148C151.447 35.5138 151.297 35.9328 150.995 36.1728C150.694 36.4128 150.361 36.5328 149.997 36.5328ZM156.027 37.3598V36.4158H153.464V37.3598H156.027ZM159.335 39.9998C160.309 39.9998 161.01 39.5338 161.439 38.6008C161.735 37.9508 161.883 37.1288 161.883 36.1348C161.883 35.0868 161.719 34.2608 161.393 33.6588C160.971 32.8788 160.287 32.4888 159.34 32.4888C158.288 32.4888 157.562 33.0438 157.16 34.1538C156.946 34.7498 156.838 35.4628 156.838 36.2938C156.838 37.3648 157.018 38.2198 157.375 38.8558C157.803 39.6188 158.457 39.9998 159.335 39.9998ZM159.33 39.1628C158.738 39.1628 158.32 38.8168 158.074 38.1258C157.914 37.6728 157.834 37.0738 157.834 36.3288C157.834 35.3388 157.959 34.5888 158.209 34.0788C158.459 33.5708 158.855 33.3168 159.396 33.3168C159.986 33.3168 160.382 33.5848 160.586 34.1208C160.79 34.6568 160.892 35.3408 160.892 36.1708C160.892 37.3208 160.752 38.1068 160.469 38.5298C160.186 38.9518 159.807 39.1628 159.33 39.1628ZM167.673 39.8008V38.9328H163.68C163.769 38.5728 163.983 38.2428 164.323 37.9468C164.566 37.7449 164.83 37.5689 165.11 37.4218L165.81 37.0338C166.425 36.6898 166.852 36.3968 167.09 36.1548C167.503 35.7398 167.708 35.2398 167.708 34.6548C167.708 34.0988 167.515 33.5948 167.129 33.1428C166.743 32.6898 166.131 32.4638 165.293 32.4638C164.286 32.4638 163.583 32.8178 163.185 33.5258C162.96 33.9278 162.843 34.4458 162.833 35.0828H163.767C163.78 34.6298 163.852 34.2758 163.981 34.0208C164.223 33.5448 164.659 33.3058 165.288 33.3058C165.714 33.3058 166.054 33.4308 166.31 33.6818C166.565 33.9318 166.692 34.2698 166.692 34.6948C166.692 35.0588 166.552 35.3828 166.274 35.6648C166.097 35.8448 165.789 36.0628 165.35 36.3188L164.37 36.8848C163.712 37.2668 163.27 37.6898 163.044 38.1568C162.818 38.6228 162.688 39.1708 162.654 39.8008H167.673Z" fill="black" fill-opacity="0.65"/>
<path d="M3.988 39.5741C5.63823 39.5741 6.976 38.2364 6.976 36.5861C6.976 34.9359 5.63823 33.5981 3.988 33.5981C2.33777 33.5981 1 34.9359 1 36.5861C1 38.2364 2.33777 39.5741 3.988 39.5741Z" fill="white" stroke="#0010F7" stroke-width="1.494"/>
<path d="M16.7742 8.62603C17.7852 8.62603 18.5892 8.30403 19.1842 7.66103C19.6812 7.12603 19.9742 6.46403 20.0622 5.67403H19.0722C18.9702 6.16803 18.8152 6.56603 18.6072 6.86903C18.2162 7.44403 17.6462 7.73203 16.8972 7.73203C16.0832 7.73203 15.4722 7.45903 15.0612 6.91203C14.6512 6.36603 14.4462 5.65403 14.4462 4.77603C14.4462 3.70403 14.6732 2.90803 15.1282 2.38903C15.5822 1.86903 16.1782 1.61003 16.9182 1.61003C17.5232 1.61003 17.9942 1.75203 18.3292 2.03403C18.6642 2.31703 18.8892 2.70003 19.0002 3.18303H19.9902C19.9332 2.54603 19.6422 1.97803 19.1182 1.47803C18.5942 0.978027 17.8572 0.728027 16.9082 0.728027C15.7942 0.728027 14.9212 1.11203 14.2882 1.88103C13.7022 2.58903 13.4102 3.49603 13.4102 4.60203C13.4102 6.05903 13.8002 7.13603 14.5792 7.83403C15.1712 8.36203 15.9032 8.62603 16.7742 8.62603ZM22.1202 8.43203V5.28603C22.1202 4.89803 22.2442 4.55603 22.4932 4.25803C22.7412 3.96003 23.0972 3.81103 23.5602 3.81103C23.6611 3.8086 23.7621 3.81731 23.8612 3.83703V2.86703C23.7626 2.85716 23.6639 2.84849 23.5652 2.84103C23.2012 2.84103 22.8792 2.97303 22.6002 3.23703C22.3202 3.50003 22.1462 3.72403 22.0742 3.90703V2.96303H21.2012V8.43203H22.1202ZM26.7922 8.62603C27.0712 8.62603 27.3212 8.59803 27.5422 8.54403C27.9542 8.44903 28.3002 8.26403 28.5792 7.99203C28.7452 7.83603 28.8962 7.63403 29.0312 7.38703C29.1652 7.14103 29.2442 6.91703 29.2682 6.71603H28.3642C28.2989 6.95248 28.1802 7.17077 28.0172 7.35403C27.7312 7.67103 27.3482 7.82903 26.8682 7.82903C26.3542 7.82903 25.9752 7.66103 25.7302 7.32603C25.4852 6.99103 25.3542 6.54603 25.3372 5.99103H29.3452C29.3452 5.44003 29.3172 5.03803 29.2632 4.78603C29.2108 4.44179 29.0853 4.11275 28.8952 3.82103C28.7052 3.53103 28.4272 3.29603 28.0632 3.11403C27.7139 2.93559 27.3274 2.84206 26.9352 2.84103C26.1652 2.84103 25.5432 3.11503 25.0662 3.66303C24.5892 4.21103 24.3512 4.92303 24.3512 5.80303C24.3512 6.69303 24.5882 7.38703 25.0612 7.88303C25.5342 8.37803 26.1112 8.62603 26.7912 8.62603H26.7922ZM28.4002 5.26003H25.3622C25.3792 4.79003 25.5312 4.40303 25.8172 4.09803C26.1022 3.79403 26.4572 3.64103 26.8792 3.64103C27.4672 3.64103 27.8882 3.86303 28.1392 4.30503C28.2762 4.54303 28.3632 4.86203 28.4002 5.26003ZM31.9432 8.61403C32.3652 8.61403 32.7522 8.52403 33.1032 8.34403C33.4532 8.16403 33.7222 7.95103 33.9092 7.70603C33.9266 7.88341 33.9804 8.05531 34.0672 8.21103C34.2102 8.43603 34.4402 8.54803 34.7572 8.54803C34.8862 8.54803 34.9882 8.54303 35.0632 8.53303C35.1737 8.51455 35.283 8.48883 35.3902 8.45603V7.77703C35.2903 7.79394 35.1894 7.80397 35.0882 7.80703C34.9622 7.80703 34.8802 7.77903 34.8412 7.72103C34.7988 7.65203 34.7783 7.57188 34.7822 7.49103V4.34103C34.7822 3.82403 34.5832 3.44203 34.1852 3.19703C33.7832 2.95203 33.2612 2.83003 32.6172 2.83003C32.0622 2.83003 31.5752 2.96203 31.1552 3.22503C30.7352 3.48903 30.5152 3.95803 30.4982 4.63203H31.3562C31.3902 4.34903 31.4632 4.13703 31.5762 3.99403C31.7762 3.73503 32.1162 3.60603 32.5962 3.60603C33.0122 3.60603 33.3312 3.67603 33.5542 3.81803C33.7772 3.95803 33.8892 4.18603 33.8892 4.49903C33.8957 4.61956 33.8744 4.73997 33.8272 4.85103C33.7562 5.00103 33.6152 5.09003 33.4042 5.11703L31.9382 5.30103C31.4242 5.36503 31.0092 5.53703 30.6922 5.81603C30.3762 6.09603 30.2182 6.48903 30.2182 6.99603C30.2182 7.45903 30.3782 7.84403 30.7002 8.15203C31.0222 8.46003 31.4362 8.61403 31.9432 8.61403ZM32.1582 7.83403C31.8922 7.83403 31.6632 7.75703 31.4682 7.60403C31.3733 7.52982 31.2974 7.43404 31.247 7.32464C31.1966 7.21524 31.173 7.09538 31.1782 6.97503C31.1782 6.62503 31.3182 6.37003 31.6012 6.21003C31.7682 6.11403 32.0182 6.04403 32.3512 6.00003L32.9082 5.92903C33.0782 5.90903 33.2522 5.87403 33.4292 5.82703C33.6062 5.77903 33.7512 5.71903 33.8632 5.64703V6.38803C33.8632 6.95303 33.6082 7.36003 33.0972 7.60803C32.7942 7.75803 32.4812 7.83303 32.1572 7.83303L32.1582 7.83403ZM37.5752 8.51703C37.7082 8.51703 37.8312 8.51103 37.9452 8.49703C38.0567 8.48352 38.167 8.46146 38.2752 8.43103V7.70603C38.1682 7.71733 38.0607 7.72234 37.9532 7.72103C37.7862 7.72103 37.6672 7.70203 37.5952 7.66503C37.4662 7.60003 37.4012 7.47203 37.4012 7.28203V3.71203H38.2742V2.96203H37.4012V1.43703H36.4722V2.96303H35.7322V3.71303H36.4722V7.33303C36.4722 7.68403 36.5492 7.96903 36.7022 8.18903C36.8552 8.40903 37.1462 8.51903 37.5752 8.51903V8.51703ZM41.3282 8.62503C41.6072 8.62503 41.8572 8.59703 42.0782 8.54303C42.4902 8.44803 42.8352 8.26303 43.1152 7.99103C43.2967 7.81463 43.449 7.61039 43.5662 7.38603C43.6873 7.17946 43.768 6.95175 43.8042 6.71503H42.9002C42.8349 6.95148 42.7162 7.16977 42.5532 7.35303C42.2672 7.67003 41.8842 7.82803 41.4042 7.82803C40.8902 7.82803 40.5112 7.66003 40.2662 7.32503C40.0212 6.99003 39.8892 6.54503 39.8722 5.99003H43.8802C43.8802 5.43903 43.8532 5.03703 43.7992 4.78503C43.7468 4.44079 43.6213 4.11175 43.4312 3.82003C43.2412 3.53003 42.9632 3.29503 42.5992 3.11303C42.2499 2.93459 41.8634 2.84106 41.4712 2.84003C40.7012 2.84003 40.0782 3.11403 39.6012 3.66203C39.1252 4.21003 38.8872 4.92203 38.8872 5.80203C38.8872 6.69203 39.1242 7.38603 39.5972 7.88203C40.0702 8.37703 40.6472 8.62503 41.3272 8.62503H41.3282ZM42.9362 5.26003H39.8982C39.9152 4.79003 40.0662 4.40303 40.3522 4.09803C40.4864 3.95062 40.6506 3.83359 40.8338 3.75478C41.0169 3.67597 41.2148 3.63718 41.4142 3.64103C42.0042 3.64103 42.4242 3.86303 42.6752 4.30503C42.8122 4.54303 42.8982 4.86203 42.9352 5.26003H42.9362ZM49.3842 8.61403C49.8062 8.61403 50.1932 8.52403 50.5442 8.34403C50.8942 8.16403 51.1632 7.95103 51.3502 7.70603C51.3676 7.88341 51.4214 8.05531 51.5082 8.21103C51.6512 8.43603 51.8812 8.54803 52.1982 8.54803C52.3272 8.54803 52.4292 8.54303 52.5042 8.53303C52.6147 8.51455 52.724 8.48883 52.8312 8.45603V7.77703C52.7313 7.79394 52.6304 7.80397 52.5292 7.80703C52.4032 7.80703 52.3212 7.77903 52.2822 7.72103C52.2398 7.65203 52.2193 7.57188 52.2232 7.49103V4.34103C52.2232 3.82403 52.0242 3.44203 51.6262 3.19703C51.2242 2.95203 50.7022 2.83003 50.0582 2.83003C49.5032 2.83003 49.0162 2.96203 48.5962 3.22503C48.1762 3.48903 47.9562 3.95803 47.9392 4.63203H48.7972C48.8312 4.34903 48.9042 4.13703 49.0172 3.99403C49.2172 3.73503 49.5572 3.60603 50.0372 3.60603C50.4532 3.60603 50.7722 3.67603 50.9952 3.81803C51.2182 3.95803 51.3302 4.18603 51.3302 4.49903C51.3367 4.61956 51.3154 4.73997 51.2682 4.85103C51.1972 5.00103 51.0562 5.09003 50.8452 5.11703L49.3792 5.30103C48.8652 5.36503 48.4502 5.53703 48.1332 5.81603C47.8172 6.09603 47.6592 6.48903 47.6592 6.99603C47.6592 7.45903 47.8192 7.84403 48.1412 8.15203C48.4632 8.46003 48.8772 8.61403 49.3842 8.61403ZM49.5992 7.83403C49.3332 7.83403 49.1042 7.75703 48.9092 7.60403C48.8143 7.52982 48.7384 7.43404 48.688 7.32464C48.6376 7.21524 48.614 7.09538 48.6192 6.97503C48.6192 6.62503 48.7592 6.37003 49.0422 6.21003C49.2092 6.11403 49.4592 6.04403 49.7922 6.00003L50.3492 5.92903C50.5192 5.90903 50.6932 5.87403 50.8702 5.82703C51.0472 5.77903 51.1922 5.71903 51.3042 5.64703V6.38803C51.3042 6.95303 51.0492 7.36003 50.5382 7.60803C50.2352 7.75803 49.9222 7.83303 49.5982 7.83303L49.5992 7.83403ZM58.5692 8.64003C59.3252 8.64003 59.8882 8.46303 60.2572 8.10903C60.6272 7.75503 60.8112 7.33503 60.8112 6.84803C60.8112 6.34403 60.6322 5.97503 60.2752 5.74003C60.0502 5.59003 59.6082 5.43503 58.9472 5.27503L58.3402 5.12703C58.1291 5.08288 57.9258 5.00737 57.7372 4.90303C57.5022 4.76003 57.3852 4.56903 57.3852 4.33103C57.3852 4.11303 57.4752 3.93803 57.6532 3.80503C57.8322 3.67203 58.0952 3.60503 58.4422 3.60503C58.9622 3.60503 59.3282 3.72703 59.5402 3.96803C59.6692 4.13803 59.7422 4.32803 59.7602 4.53503H60.6272C60.6324 4.17685 60.5153 3.8276 60.2952 3.54503C59.9312 3.06103 59.3372 2.81903 58.5132 2.81903C57.8832 2.81903 57.3832 2.97903 57.0102 3.29903C56.6372 3.61903 56.4502 4.03803 56.4502 4.55503C56.4502 4.99503 56.6482 5.33803 57.0432 5.58703C57.2642 5.73003 57.6082 5.85903 58.0742 5.97503L58.8042 6.15903C59.1962 6.25703 59.4582 6.34403 59.5912 6.41903C59.6878 6.47047 59.7682 6.54792 59.8232 6.64264C59.8781 6.73736 59.9055 6.84557 59.9022 6.95503C59.9022 7.26503 59.7722 7.49403 59.5142 7.64203C59.2394 7.79418 58.9292 7.87078 58.6152 7.86403C58.0442 7.86403 57.6422 7.71603 57.4102 7.42003C57.2852 7.25603 57.2082 7.02103 57.1802 6.71503H56.2972C56.3212 7.26003 56.5032 7.71703 56.8412 8.08503C57.1802 8.45503 57.7562 8.64003 58.5692 8.64003ZM63.9972 8.62503C64.2762 8.62503 64.5272 8.59703 64.7472 8.54303C65.1592 8.44803 65.5052 8.26303 65.7842 7.99103C65.9512 7.83503 66.1012 7.63303 66.2362 7.38603C66.3702 7.14003 66.4492 6.91603 66.4732 6.71503H65.5692C65.5039 6.95148 65.3852 7.16977 65.2222 7.35303C64.9362 7.67003 64.5532 7.82803 64.0732 7.82803C63.5592 7.82803 63.1802 7.66003 62.9352 7.32503C62.6902 6.99003 62.5592 6.54503 62.5422 5.99003H66.5502C66.5502 5.43903 66.5222 5.03703 66.4682 4.78503C66.4158 4.44079 66.2903 4.11175 66.1002 3.82003C65.9102 3.53003 65.6322 3.29503 65.2682 3.11303C64.9189 2.93459 64.5324 2.84106 64.1402 2.84003C63.3702 2.84003 62.7482 3.11403 62.2712 3.66203C61.7952 4.21003 61.5562 4.92203 61.5562 5.80203C61.5562 6.69203 61.7932 7.38603 62.2662 7.88203C62.7392 8.37703 63.3162 8.62503 63.9962 8.62503H63.9972ZM65.6052 5.26003H62.5672C62.5842 4.79003 62.7362 4.40303 63.0222 4.09803C63.1564 3.95062 63.3206 3.83359 63.5038 3.75478C63.6869 3.67597 63.8848 3.63718 64.0842 3.64103C64.6722 3.64103 65.0932 3.86303 65.3442 4.30503C65.4812 4.54303 65.5682 4.86203 65.6052 5.26003ZM68.6232 8.43003V5.28703C68.6232 4.89903 68.7472 4.55703 68.9952 4.25903C69.2442 3.96103 69.5992 3.81203 70.0622 3.81203C70.1631 3.8096 70.2641 3.81831 70.3632 3.83803V2.86803C70.2646 2.85816 70.1659 2.84949 70.0672 2.84203C69.7032 2.84203 69.3822 2.97403 69.1022 3.23803C68.8232 3.50103 68.6482 3.72503 68.5772 3.90803V2.96403H67.7042V8.43303H68.6232V8.43003ZM73.5392 8.43003L75.6022 2.96203H74.5962L73.0702 7.41603L71.6102 2.96303H70.5422L72.5592 8.43203H73.5392V8.43003ZM77.3232 1.97203V0.930027H76.3882V1.97203H77.3232ZM77.3232 8.43103V2.98903H76.3882V8.43203H77.3232V8.43103ZM80.6871 8.58903C81.3242 8.58903 81.8472 8.42103 82.2552 8.08603C82.6632 7.75103 82.9182 7.22003 83.0212 6.49603H82.1272C82.0422 6.90103 81.8872 7.22003 81.6652 7.45303C81.4422 7.68603 81.1402 7.80303 80.7592 7.80303C80.2622 7.80303 79.8982 7.61503 79.6662 7.24103C79.4352 6.86603 79.3192 6.40503 79.3192 5.85703C79.3192 5.31303 79.4012 4.85503 79.5642 4.48403C79.8162 3.91203 80.2342 3.62603 80.8202 3.62603C81.2492 3.62603 81.5602 3.73803 81.7542 3.96103C81.9482 4.18303 82.0732 4.46303 82.1272 4.80103H83.0212C82.9422 4.06903 82.7102 3.55303 82.3242 3.25303C81.9372 2.95303 81.4362 2.80403 80.8202 2.80403C80.0982 2.80403 79.5042 3.07103 79.0382 3.60603C78.5722 4.14003 78.3382 4.88703 78.3382 5.84703C78.3382 6.63003 78.5512 7.28303 78.9772 7.80503C79.4022 8.32803 79.9722 8.58903 80.6871 8.58903ZM86.0742 8.62503C86.3532 8.62503 86.6032 8.59703 86.8242 8.54303C87.2362 8.44803 87.5822 8.26303 87.8612 7.99103C88.0282 7.83503 88.1782 7.63303 88.3132 7.38603C88.4472 7.14003 88.5262 6.91603 88.5502 6.71503H87.6462C87.5809 6.95148 87.4622 7.16977 87.2992 7.35303C87.0132 7.67003 86.6302 7.82803 86.1502 7.82803C85.6362 7.82803 85.2572 7.66003 85.0122 7.32503C84.7672 6.99003 84.6362 6.54503 84.6192 5.99003H88.6272C88.6272 5.43903 88.5992 5.03703 88.5452 4.78503C88.4927 4.44079 88.3673 4.11175 88.1772 3.82003C87.9872 3.53003 87.7092 3.29503 87.3452 3.11303C86.9958 2.93459 86.6094 2.84106 86.2172 2.84003C85.4472 2.84003 84.8252 3.11403 84.3482 3.66203C83.8712 4.21003 83.6332 4.92203 83.6332 5.80203C83.6332 6.69203 83.8702 7.38603 84.3432 7.88203C84.8162 8.37703 85.3932 8.62503 86.0732 8.62503H86.0742ZM87.6822 5.26003H84.6441C84.6611 4.79003 84.8131 4.40303 85.0992 4.09803C85.3842 3.79403 85.7392 3.64103 86.1612 3.64103C86.7492 3.64103 87.1702 3.86303 87.4212 4.30503C87.5582 4.54303 87.6452 4.86203 87.6822 5.26003ZM91.6902 8.64003C92.4462 8.64003 93.0081 8.46303 93.3772 8.10903C93.7472 7.75503 93.9312 7.33503 93.9312 6.84803C93.9312 6.34403 93.7532 5.97503 93.3952 5.74003C93.1712 5.59003 92.7282 5.43503 92.0682 5.27503L91.4602 5.12703C91.2495 5.08274 91.0466 5.00724 90.8582 4.90303C90.6232 4.76003 90.5052 4.56903 90.5052 4.33103C90.5052 4.11303 90.5952 3.93803 90.7742 3.80503C90.9522 3.67203 91.2151 3.60503 91.5621 3.60503C92.0832 3.60503 92.4492 3.72703 92.6602 3.96803C92.7902 4.13803 92.8632 4.32803 92.8802 4.53503H93.7482C93.7534 4.17685 93.6363 3.8276 93.4162 3.54503C93.0522 3.06103 92.4582 2.81903 91.6342 2.81903C91.0042 2.81903 90.5032 2.97903 90.1302 3.29903C89.7572 3.61903 89.5712 4.03803 89.5712 4.55503C89.5712 4.99503 89.7692 5.33803 90.1632 5.58703C90.3852 5.73003 90.7282 5.85903 91.1952 5.97503L91.9252 6.15903C92.3162 6.25703 92.5781 6.34403 92.7112 6.41903C92.808 6.47033 92.8886 6.54773 92.9437 6.64246C92.9989 6.73719 93.0264 6.84546 93.0232 6.95503C93.0232 7.26503 92.8932 7.49403 92.6352 7.64203C92.3601 7.79435 92.0495 7.87096 91.7352 7.86403C91.1652 7.86403 90.7622 7.71603 90.5312 7.42003C90.4052 7.25603 90.3282 7.02103 90.3012 6.71503H89.4182C89.4422 7.26003 89.6232 7.71703 89.9622 8.08503C90.3002 8.45503 90.8762 8.64003 91.6902 8.64003ZM99.8232 8.64003C100.579 8.64003 101.141 8.46303 101.511 8.10903C101.881 7.75503 102.065 7.33503 102.065 6.84803C102.065 6.34403 101.886 5.97503 101.529 5.74003C101.304 5.59003 100.861 5.43503 100.201 5.27503L99.5942 5.12703C99.3831 5.08288 99.1798 5.00737 98.9911 4.90303C98.7561 4.76003 98.6392 4.56903 98.6392 4.33103C98.6392 4.11303 98.7291 3.93803 98.9072 3.80503C99.0862 3.67203 99.3492 3.60503 99.6962 3.60503C100.216 3.60503 100.582 3.72703 100.793 3.96803C100.923 4.13803 100.996 4.32803 101.013 4.53503H101.881C101.886 4.17685 101.769 3.8276 101.549 3.54503C101.185 3.06103 100.591 2.81903 99.7672 2.81903C99.1372 2.81903 98.6372 2.97903 98.2642 3.29903C97.8912 3.61903 97.7042 4.03803 97.7042 4.55503C97.7042 4.99503 97.9022 5.33803 98.2971 5.58703C98.5182 5.73003 98.8622 5.85903 99.3282 5.97503L100.058 6.15903C100.45 6.25703 100.712 6.34403 100.844 6.41903C100.941 6.47033 101.022 6.54773 101.077 6.64246C101.132 6.73719 101.159 6.84546 101.156 6.95503C101.156 7.26503 101.026 7.49403 100.768 7.64203C100.493 7.79418 100.183 7.87078 99.8692 7.86403C99.2972 7.86403 98.8962 7.71603 98.6642 7.42003C98.5382 7.25603 98.4622 7.02103 98.4342 6.71503H97.5512C97.5752 7.26003 97.7562 7.71703 98.0952 8.08503C98.4342 8.45503 99.0101 8.64003 99.8232 8.64003ZM104.051 1.97203V0.930027H103.117V1.97203H104.051ZM104.051 8.43103V2.98903H103.117V8.43203H104.051V8.43103ZM106.726 8.51703C106.859 8.51703 106.982 8.51103 107.096 8.49703C107.208 8.48352 107.318 8.46146 107.426 8.43103V7.70603C107.319 7.71733 107.212 7.72234 107.104 7.72103C106.937 7.72103 106.818 7.70203 106.747 7.66503C106.617 7.60003 106.553 7.47203 106.553 7.28203V3.71203H107.426V2.96203H106.553V1.43703H105.623V2.96303H104.883V3.71303H105.623V7.33303C105.623 7.68403 105.7 7.96903 105.853 8.18903C106.006 8.40903 106.297 8.51903 106.726 8.51903V8.51703ZM110.479 8.62503C110.758 8.62503 111.009 8.59703 111.229 8.54303C111.641 8.44803 111.987 8.26303 112.266 7.99103C112.433 7.83503 112.583 7.63303 112.718 7.38603C112.852 7.14003 112.931 6.91603 112.955 6.71503H112.051C111.986 6.95148 111.867 7.16977 111.704 7.35303C111.418 7.67003 111.035 7.82803 110.555 7.82803C110.042 7.82803 109.662 7.66003 109.417 7.32503C109.172 6.99003 109.041 6.54503 109.024 5.99003H113.032C113.032 5.43903 113.005 5.03703 112.95 4.78503C112.898 4.44079 112.772 4.11175 112.582 3.82003C112.392 3.53003 112.114 3.29503 111.75 3.11303C111.401 2.93459 111.014 2.84106 110.622 2.84003C109.852 2.84003 109.23 3.11403 108.753 3.66203C108.277 4.21003 108.038 4.92203 108.038 5.80203C108.038 6.69203 108.275 7.38603 108.748 7.88203C109.221 8.37703 109.798 8.62503 110.478 8.62503H110.479ZM112.087 5.26003H109.049C109.066 4.79003 109.218 4.40303 109.504 4.09803C109.638 3.95062 109.803 3.83359 109.986 3.75478C110.169 3.67597 110.367 3.63718 110.566 3.64103C111.155 3.64103 111.575 3.86303 111.826 4.30503C111.963 4.54303 112.05 4.86203 112.087 5.26003ZM121.737 8.43003V7.56303H117.744C117.833 7.20203 118.047 6.87303 118.388 6.57703C118.631 6.37475 118.895 6.19846 119.174 6.05103L119.874 5.66303C120.489 5.31903 120.917 5.02703 121.154 4.78503C121.567 4.37003 121.773 3.86903 121.773 3.28403C121.773 2.72903 121.579 2.22503 121.193 1.77303C120.807 1.32003 120.195 1.09303 119.358 1.09303C118.35 1.09303 117.648 1.44803 117.249 2.15603C117.024 2.55703 116.907 3.07603 116.897 3.71303H117.831C117.845 3.26003 117.916 2.90603 118.046 2.65103C118.287 2.17403 118.723 1.93603 119.353 1.93603C119.778 1.93603 120.118 2.06103 120.373 2.31103C120.629 2.56103 120.757 2.89903 120.757 3.32503C120.757 3.68903 120.617 4.01203 120.338 4.29503C120.161 4.47503 119.853 4.69303 119.414 4.94803L118.434 5.51503C117.777 5.89603 117.335 6.32003 117.109 6.78703C116.882 7.25303 116.752 7.80103 116.718 8.43103H121.737V8.43003ZM125.03 8.63003C126.004 8.63003 126.705 8.16303 127.134 7.23003C127.43 6.58003 127.578 5.75903 127.578 4.76503C127.578 3.71603 127.414 2.89103 127.088 2.28803C126.666 1.50803 125.981 1.11903 125.035 1.11903C123.983 1.11903 123.257 1.67403 122.855 2.78403C122.641 3.37903 122.533 4.09203 122.533 4.92303C122.533 5.99503 122.713 6.84903 123.07 7.48603C123.498 8.24803 124.152 8.63003 125.03 8.63003ZM125.025 7.79203C124.433 7.79203 124.015 7.44703 123.769 6.75603C123.609 6.30303 123.529 5.70403 123.529 4.95903C123.529 3.96903 123.654 3.21903 123.904 2.70903C124.154 2.20103 124.55 1.94603 125.091 1.94603C125.681 1.94603 126.077 2.21403 126.281 2.75003C126.485 3.28703 126.587 3.97003 126.587 4.80003C126.587 5.95003 126.447 6.73703 126.164 7.16003C125.881 7.58103 125.502 7.79203 125.025 7.79203ZM131.724 8.43103V1.15003H130.999C130.869 1.71503 130.674 2.07303 130.411 2.22503C130.149 2.37603 129.686 2.48503 129.023 2.54903V3.25303H130.743V8.43103H131.723H131.724ZM136.523 8.61403C137.459 8.61403 138.141 8.35103 138.568 7.82303C138.995 7.29503 139.208 6.68603 139.208 5.99503C139.208 5.33103 138.975 4.78303 138.509 4.35103C138.043 3.91903 137.474 3.70303 136.804 3.70303C136.446 3.70303 136.132 3.75903 135.859 3.87103C135.686 3.94755 135.523 4.0453 135.374 4.16203L135.686 2.13003H138.795V1.24203H134.996L134.44 5.17803L135.236 5.22403C135.389 5.01249 135.587 4.83815 135.816 4.71403C136.042 4.59103 136.314 4.53003 136.63 4.53003C137.066 4.53003 137.44 4.67003 137.75 4.94803C138.062 5.22803 138.218 5.62203 138.218 6.13303C138.218 6.55503 138.087 6.94003 137.825 7.28703C137.563 7.63403 137.159 7.80703 136.615 7.80703C136.355 7.81289 136.097 7.76062 135.859 7.65403C135.434 7.45403 135.19 7.09103 135.129 6.56703H134.174C134.229 7.26103 134.484 7.77703 134.943 8.11103C135.401 8.44703 135.927 8.61403 136.523 8.61403ZM142.65 5.99003V5.04503H140.087V5.99003H142.65ZM145.958 8.63003C146.932 8.63003 147.633 8.16303 148.062 7.23003C148.358 6.58003 148.506 5.75903 148.506 4.76503C148.506 3.71603 148.343 2.89103 148.016 2.28803C147.594 1.50803 146.91 1.11903 145.963 1.11903C144.912 1.11903 144.185 1.67403 143.783 2.78403C143.569 3.37903 143.462 4.09203 143.462 4.92303C143.462 5.99503 143.64 6.84903 143.998 7.48603C144.427 8.24803 145.08 8.63003 145.958 8.63003ZM145.953 7.79203C145.361 7.79203 144.943 7.44703 144.697 6.75603C144.537 6.30303 144.457 5.70403 144.457 4.95903C144.457 3.96903 144.582 3.21903 144.832 2.70903C145.082 2.20103 145.478 1.94603 146.02 1.94603C146.608 1.94603 147.005 2.21403 147.21 2.75003C147.413 3.28703 147.515 3.97003 147.515 4.80003C147.515 5.95003 147.375 6.73703 147.092 7.16003C146.809 7.58103 146.43 7.79203 145.953 7.79203ZM151.595 8.63503C152.66 8.63503 153.416 8.06003 153.862 6.90903C154.131 6.21903 154.265 5.42503 154.265 4.52903C154.265 3.73703 154.153 3.07603 153.928 2.54903C153.523 1.58903 152.788 1.10903 151.723 1.10903C150.933 1.10903 150.336 1.36103 149.93 1.86503C149.529 2.35913 149.314 2.97856 149.323 3.61503C149.323 4.30703 149.528 4.87203 149.938 5.31103C150.348 5.75103 150.906 5.97003 151.61 5.97003C151.957 5.97003 152.282 5.90403 152.583 5.77303C152.884 5.64203 153.137 5.41503 153.341 5.09103C153.211 6.21103 152.992 6.95403 152.682 7.32003C152.372 7.68603 151.998 7.86903 151.559 7.86903C151.339 7.87256 151.121 7.81991 150.926 7.71603C150.562 7.52203 150.366 7.17103 150.339 6.66403H149.409C149.409 7.22903 149.595 7.69903 149.966 8.07403C150.337 8.44803 150.88 8.63403 151.595 8.63403V8.63503ZM151.733 5.16303C151.226 5.16303 150.856 5.02303 150.625 4.74203C150.393 4.46103 150.278 4.08203 150.278 3.60603C150.278 3.10203 150.41 2.69903 150.673 2.39803C150.937 2.09703 151.293 1.94603 151.743 1.94603C152.162 1.94603 152.506 2.07803 152.777 2.34203C153.047 2.60603 153.183 3.00703 153.183 3.54403C153.183 4.14403 153.033 4.56303 152.731 4.80303C152.43 5.04303 152.097 5.16303 151.733 5.16303ZM157.763 5.99003V5.04503H155.2V5.99003H157.763ZM161.071 8.63003C162.045 8.63003 162.746 8.16303 163.175 7.23003C163.471 6.58003 163.619 5.75903 163.619 4.76503C163.619 3.71603 163.455 2.89103 163.129 2.28803C162.707 1.50803 162.022 1.11903 161.076 1.11903C160.024 1.11903 159.298 1.67403 158.896 2.78403C158.682 3.37903 158.574 4.09203 158.574 4.92303C158.574 5.99503 158.754 6.84903 159.11 7.48603C159.54 8.24803 160.193 8.63003 161.071 8.63003ZM161.066 7.79203C160.474 7.79203 160.055 7.44703 159.81 6.75603C159.65 6.30303 159.57 5.70403 159.57 4.95903C159.57 3.96903 159.695 3.21903 159.945 2.70903C160.195 2.20103 160.591 1.94603 161.132 1.94603C161.722 1.94603 162.118 2.21403 162.322 2.75003C162.526 3.28703 162.628 3.97003 162.628 4.80003C162.628 5.95003 162.487 6.73703 162.205 7.16003C161.922 7.58103 161.542 7.79203 161.066 7.79203ZM167.765 8.43103V1.15003H167.04C166.91 1.71503 166.715 2.07303 166.452 2.22503C166.19 2.37603 165.727 2.48503 165.064 2.54903V3.25303H166.784V8.43103H167.764H167.765Z" fill="black" fill-opacity="0.65"/>
<path d="M3.988 8.20403C5.63823 8.20403 6.976 6.86625 6.976 5.21603C6.976 3.5658 5.63823 2.22803 3.988 2.22803C2.33777 2.22803 1 3.5658 1 5.21603C1 6.86625 2.33777 8.20403 3.988 8.20403Z" fill="white" stroke="#0010F7" stroke-width="1.494"/>
</svg>
