<svg xmlns="http://www.w3.org/2000/svg" xmlns:xlink="http://www.w3.org/1999/xlink" width="626" zoomAndPan="magnify" viewBox="0 0 469.5 312.749995" height="417" preserveAspectRatio="xMidYMid meet" version="1.0"><defs><clipPath id="bfb5ec0dee"><path d="M 135.046875 82.355469 L 193.835938 82.355469 L 193.835938 141 L 135.046875 141 Z M 135.046875 82.355469 " clip-rule="nonzero"/></clipPath><clipPath id="38f387a798"><path d="M 135.472656 111.679688 C 135.472656 109.761719 135.660156 107.863281 136.035156 105.980469 C 136.40625 104.101562 136.960938 102.273438 137.691406 100.503906 C 138.425781 98.730469 139.324219 97.046875 140.386719 95.453125 C 141.449219 93.859375 142.65625 92.382812 144.011719 91.027344 C 145.363281 89.671875 146.835938 88.460938 148.425781 87.394531 C 150.015625 86.328125 151.695312 85.429688 153.464844 84.695312 C 155.234375 83.960938 157.054688 83.410156 158.933594 83.035156 C 160.808594 82.660156 162.703125 82.472656 164.617188 82.472656 C 166.53125 82.472656 168.425781 82.660156 170.304688 83.035156 C 172.179688 83.410156 174.003906 83.960938 175.769531 84.695312 C 177.539062 85.429688 179.21875 86.328125 180.808594 87.394531 C 182.402344 88.460938 183.875 89.671875 185.226562 91.027344 C 186.578125 92.382812 187.789062 93.859375 188.851562 95.453125 C 189.914062 97.046875 190.8125 98.730469 191.542969 100.503906 C 192.277344 102.273438 192.828125 104.101562 193.203125 105.980469 C 193.574219 107.863281 193.761719 109.761719 193.761719 111.679688 C 193.761719 113.597656 193.574219 115.496094 193.203125 117.375 C 192.828125 119.257812 192.277344 121.085938 191.542969 122.855469 C 190.8125 124.628906 189.914062 126.3125 188.851562 127.90625 C 187.789062 129.5 186.578125 130.976562 185.226562 132.332031 C 183.875 133.6875 182.402344 134.898438 180.808594 135.964844 C 179.21875 137.027344 177.539062 137.929688 175.769531 138.660156 C 174.003906 139.394531 172.179688 139.949219 170.304688 140.324219 C 168.425781 140.699219 166.53125 140.886719 164.617188 140.886719 C 162.703125 140.886719 160.808594 140.699219 158.933594 140.324219 C 157.054688 139.949219 155.234375 139.394531 153.464844 138.660156 C 151.695312 137.929688 150.015625 137.027344 148.425781 135.964844 C 146.835938 134.898438 145.363281 133.6875 144.011719 132.332031 C 142.65625 130.976562 141.449219 129.5 140.386719 127.90625 C 139.324219 126.3125 138.425781 124.628906 137.691406 122.855469 C 136.960938 121.085938 136.40625 119.257812 136.035156 117.375 C 135.660156 115.496094 135.472656 113.597656 135.472656 111.679688 Z M 135.472656 111.679688 " clip-rule="nonzero"/></clipPath><clipPath id="eddbf6324e"><path d="M 154 92 L 176 92 L 176 114 L 154 114 Z M 154 92 " clip-rule="nonzero"/></clipPath><clipPath id="0492c5ed64"><path d="M 135.472656 111.679688 C 135.472656 109.761719 135.660156 107.863281 136.035156 105.980469 C 136.40625 104.101562 136.960938 102.273438 137.691406 100.503906 C 138.425781 98.730469 139.324219 97.046875 140.386719 95.453125 C 141.449219 93.859375 142.65625 92.382812 144.011719 91.027344 C 145.363281 89.671875 146.835938 88.460938 148.425781 87.394531 C 150.015625 86.328125 151.695312 85.429688 153.464844 84.695312 C 155.234375 83.960938 157.054688 83.410156 158.933594 83.035156 C 160.808594 82.660156 162.703125 82.472656 164.617188 82.472656 C 166.53125 82.472656 168.425781 82.660156 170.304688 83.035156 C 172.179688 83.410156 174.003906 83.960938 175.769531 84.695312 C 177.539062 85.429688 179.21875 86.328125 180.808594 87.394531 C 182.402344 88.460938 183.875 89.671875 185.226562 91.027344 C 186.578125 92.382812 187.789062 93.859375 188.851562 95.453125 C 189.914062 97.046875 190.8125 98.730469 191.542969 100.503906 C 192.277344 102.273438 192.828125 104.101562 193.203125 105.980469 C 193.574219 107.863281 193.761719 109.761719 193.761719 111.679688 C 193.761719 113.597656 193.574219 115.496094 193.203125 117.375 C 192.828125 119.257812 192.277344 121.085938 191.542969 122.855469 C 190.8125 124.628906 189.914062 126.3125 188.851562 127.90625 C 187.789062 129.5 186.578125 130.976562 185.226562 132.332031 C 183.875 133.6875 182.402344 134.898438 180.808594 135.964844 C 179.21875 137.027344 177.539062 137.929688 175.769531 138.660156 C 174.003906 139.394531 172.179688 139.949219 170.304688 140.324219 C 168.425781 140.699219 166.53125 140.886719 164.617188 140.886719 C 162.703125 140.886719 160.808594 140.699219 158.933594 140.324219 C 157.054688 139.949219 155.234375 139.394531 153.464844 138.660156 C 151.695312 137.929688 150.015625 137.027344 148.425781 135.964844 C 146.835938 134.898438 145.363281 133.6875 144.011719 132.332031 C 142.65625 130.976562 141.449219 129.5 140.386719 127.90625 C 139.324219 126.3125 138.425781 124.628906 137.691406 122.855469 C 136.960938 121.085938 136.40625 119.257812 136.035156 117.375 C 135.660156 115.496094 135.472656 113.597656 135.472656 111.679688 Z M 135.472656 111.679688 " clip-rule="nonzero"/></clipPath><clipPath id="d1f7c4ae5b"><path d="M 150 115 L 179 115 L 179 141 L 150 141 Z M 150 115 " clip-rule="nonzero"/></clipPath><clipPath id="a8860a8f2d"><path d="M 135.472656 111.679688 C 135.472656 109.761719 135.660156 107.863281 136.035156 105.980469 C 136.40625 104.101562 136.960938 102.273438 137.691406 100.503906 C 138.425781 98.730469 139.324219 97.046875 140.386719 95.453125 C 141.449219 93.859375 142.65625 92.382812 144.011719 91.027344 C 145.363281 89.671875 146.835938 88.460938 148.425781 87.394531 C 150.015625 86.328125 151.695312 85.429688 153.464844 84.695312 C 155.234375 83.960938 157.054688 83.410156 158.933594 83.035156 C 160.808594 82.660156 162.703125 82.472656 164.617188 82.472656 C 166.53125 82.472656 168.425781 82.660156 170.304688 83.035156 C 172.179688 83.410156 174.003906 83.960938 175.769531 84.695312 C 177.539062 85.429688 179.21875 86.328125 180.808594 87.394531 C 182.402344 88.460938 183.875 89.671875 185.226562 91.027344 C 186.578125 92.382812 187.789062 93.859375 188.851562 95.453125 C 189.914062 97.046875 190.8125 98.730469 191.542969 100.503906 C 192.277344 102.273438 192.828125 104.101562 193.203125 105.980469 C 193.574219 107.863281 193.761719 109.761719 193.761719 111.679688 C 193.761719 113.597656 193.574219 115.496094 193.203125 117.375 C 192.828125 119.257812 192.277344 121.085938 191.542969 122.855469 C 190.8125 124.628906 189.914062 126.3125 188.851562 127.90625 C 187.789062 129.5 186.578125 130.976562 185.226562 132.332031 C 183.875 133.6875 182.402344 134.898438 180.808594 135.964844 C 179.21875 137.027344 177.539062 137.929688 175.769531 138.660156 C 174.003906 139.394531 172.179688 139.949219 170.304688 140.324219 C 168.425781 140.699219 166.53125 140.886719 164.617188 140.886719 C 162.703125 140.886719 160.808594 140.699219 158.933594 140.324219 C 157.054688 139.949219 155.234375 139.394531 153.464844 138.660156 C 151.695312 137.929688 150.015625 137.027344 148.425781 135.964844 C 146.835938 134.898438 145.363281 133.6875 144.011719 132.332031 C 142.65625 130.976562 141.449219 129.5 140.386719 127.90625 C 139.324219 126.3125 138.425781 124.628906 137.691406 122.855469 C 136.960938 121.085938 136.40625 119.257812 136.035156 117.375 C 135.660156 115.496094 135.472656 113.597656 135.472656 111.679688 Z M 135.472656 111.679688 " clip-rule="nonzero"/></clipPath><clipPath id="01b4f6ff0a"><path d="M 119.078125 168 L 211 168 L 211 265.234375 L 119.078125 265.234375 Z M 119.078125 168 " clip-rule="nonzero"/></clipPath><clipPath id="eaa877a52c"><path d="M 236.242188 47.734375 L 333.097656 47.734375 L 333.097656 166.382812 L 236.242188 166.382812 Z M 236.242188 47.734375 " clip-rule="nonzero"/></clipPath><clipPath id="3de0a77ce0"><path d="M 284.785156 166.285156 C 281.617188 166.28125 278.480469 165.96875 275.375 165.347656 C 272.269531 164.726562 269.25 163.808594 266.324219 162.589844 C 263.398438 161.375 260.621094 159.882812 257.988281 158.121094 C 255.355469 156.355469 252.917969 154.351562 250.675781 152.105469 C 248.4375 149.863281 246.4375 147.421875 244.675781 144.78125 C 242.914062 142.144531 241.429688 139.359375 240.214844 136.425781 C 239 133.492188 238.082031 130.472656 237.460938 127.359375 C 236.839844 124.246094 236.527344 121.101562 236.523438 117.929688 L 236.523438 96.292969 C 236.523438 93.117188 236.832031 89.972656 237.453125 86.859375 C 238.070312 83.746094 238.984375 80.71875 240.199219 77.785156 C 241.410156 74.851562 242.898438 72.066406 244.65625 69.425781 C 246.417969 66.785156 248.417969 64.339844 250.660156 62.097656 C 252.902344 59.851562 255.339844 57.847656 257.972656 56.082031 C 260.609375 54.316406 263.390625 52.828125 266.316406 51.613281 C 269.246094 50.398438 272.261719 49.480469 275.371094 48.859375 C 278.476562 48.242188 281.617188 47.929688 284.785156 47.929688 C 287.953125 47.929688 291.09375 48.242188 294.199219 48.859375 C 297.308594 49.480469 300.324219 50.398438 303.253906 51.613281 C 306.179688 52.828125 308.960938 54.316406 311.597656 56.082031 C 314.230469 57.847656 316.667969 59.851562 318.910156 62.097656 C 321.152344 64.339844 323.152344 66.785156 324.914062 69.425781 C 326.671875 72.066406 328.160156 74.851562 329.371094 77.785156 C 330.585938 80.71875 331.5 83.746094 332.117188 86.859375 C 332.738281 89.972656 333.046875 93.117188 333.046875 96.292969 L 333.046875 117.929688 C 333.042969 121.101562 332.730469 124.246094 332.109375 127.359375 C 331.488281 130.472656 330.570312 133.492188 329.355469 136.425781 C 328.144531 139.359375 326.65625 142.144531 324.894531 144.78125 C 323.132812 147.421875 321.132812 149.863281 318.894531 152.105469 C 316.652344 154.351562 314.214844 156.355469 311.582031 158.121094 C 308.949219 159.882812 306.171875 161.375 303.246094 162.589844 C 300.320312 163.808594 297.300781 164.726562 294.195312 165.347656 C 291.089844 165.96875 287.953125 166.28125 284.785156 166.285156 Z M 284.785156 64.355469 C 282.691406 64.355469 280.621094 64.5625 278.570312 64.972656 C 276.519531 65.382812 274.527344 65.992188 272.59375 66.792969 C 270.660156 67.597656 268.824219 68.582031 267.085938 69.746094 C 265.347656 70.914062 263.738281 72.238281 262.257812 73.71875 C 260.777344 75.203125 259.457031 76.8125 258.296875 78.558594 C 257.132812 80.300781 256.148438 82.140625 255.347656 84.078125 C 254.546875 86.011719 253.941406 88.007812 253.53125 90.066406 C 253.121094 92.121094 252.914062 94.199219 252.914062 96.292969 L 252.914062 117.929688 C 252.9375 120.007812 253.164062 122.066406 253.59375 124.101562 C 254.019531 126.140625 254.636719 128.113281 255.449219 130.03125 C 256.261719 131.945312 257.253906 133.761719 258.417969 135.484375 C 259.585938 137.203125 260.90625 138.796875 262.386719 140.257812 C 263.863281 141.722656 265.464844 143.027344 267.199219 144.175781 C 268.929688 145.320312 270.753906 146.289062 272.675781 147.082031 C 274.597656 147.871094 276.574219 148.46875 278.613281 148.871094 C 280.648438 149.273438 282.707031 149.476562 284.78125 149.476562 C 286.859375 149.476562 288.914062 149.273438 290.953125 148.871094 C 292.988281 148.46875 294.96875 147.871094 296.890625 147.082031 C 298.808594 146.289062 300.636719 145.320312 302.367188 144.171875 C 304.097656 143.027344 305.703125 141.722656 307.179688 140.257812 C 308.65625 138.796875 309.980469 137.203125 311.148438 135.484375 C 312.3125 133.761719 313.304688 131.945312 314.113281 130.03125 C 314.925781 128.113281 315.546875 126.140625 315.972656 124.101562 C 316.402344 122.066406 316.625 120.007812 316.652344 117.929688 L 316.652344 96.292969 C 316.648438 94.199219 316.445312 92.121094 316.035156 90.066406 C 315.625 88.011719 315.019531 86.015625 314.21875 84.078125 C 313.417969 82.140625 312.433594 80.300781 311.269531 78.558594 C 310.109375 76.816406 308.789062 75.203125 307.308594 73.722656 C 305.828125 72.238281 304.222656 70.914062 302.480469 69.75 C 300.742188 68.585938 298.90625 67.601562 296.976562 66.796875 C 295.042969 65.992188 293.050781 65.386719 291 64.976562 C 288.949219 64.5625 286.878906 64.355469 284.785156 64.355469 Z M 284.785156 64.355469 " clip-rule="nonzero"/></clipPath><clipPath id="e109b8add8"><path d="M 236.242188 114 L 259 114 L 259 129 L 236.242188 129 Z M 236.242188 114 " clip-rule="nonzero"/></clipPath><clipPath id="5b738907e0"><path d="M 284.785156 166.285156 C 281.617188 166.28125 278.480469 165.96875 275.375 165.347656 C 272.269531 164.726562 269.25 163.808594 266.324219 162.589844 C 263.398438 161.375 260.621094 159.882812 257.988281 158.121094 C 255.355469 156.355469 252.917969 154.351562 250.675781 152.105469 C 248.4375 149.863281 246.4375 147.421875 244.675781 144.78125 C 242.914062 142.144531 241.429688 139.359375 240.214844 136.425781 C 239 133.492188 238.082031 130.472656 237.460938 127.359375 C 236.839844 124.246094 236.527344 121.101562 236.523438 117.929688 L 236.523438 96.292969 C 236.523438 93.117188 236.832031 89.972656 237.453125 86.859375 C 238.070312 83.746094 238.984375 80.71875 240.199219 77.785156 C 241.410156 74.851562 242.898438 72.066406 244.65625 69.425781 C 246.417969 66.785156 248.417969 64.339844 250.660156 62.097656 C 252.902344 59.851562 255.339844 57.847656 257.972656 56.082031 C 260.609375 54.316406 263.390625 52.828125 266.316406 51.613281 C 269.246094 50.398438 272.261719 49.480469 275.371094 48.859375 C 278.476562 48.242188 281.617188 47.929688 284.785156 47.929688 C 287.953125 47.929688 291.09375 48.242188 294.199219 48.859375 C 297.308594 49.480469 300.324219 50.398438 303.253906 51.613281 C 306.179688 52.828125 308.960938 54.316406 311.597656 56.082031 C 314.230469 57.847656 316.667969 59.851562 318.910156 62.097656 C 321.152344 64.339844 323.152344 66.785156 324.914062 69.425781 C 326.671875 72.066406 328.160156 74.851562 329.371094 77.785156 C 330.585938 80.71875 331.5 83.746094 332.117188 86.859375 C 332.738281 89.972656 333.046875 93.117188 333.046875 96.292969 L 333.046875 117.929688 C 333.042969 121.101562 332.730469 124.246094 332.109375 127.359375 C 331.488281 130.472656 330.570312 133.492188 329.355469 136.425781 C 328.144531 139.359375 326.65625 142.144531 324.894531 144.78125 C 323.132812 147.421875 321.132812 149.863281 318.894531 152.105469 C 316.652344 154.351562 314.214844 156.355469 311.582031 158.121094 C 308.949219 159.882812 306.171875 161.375 303.246094 162.589844 C 300.320312 163.808594 297.300781 164.726562 294.195312 165.347656 C 291.089844 165.96875 287.953125 166.28125 284.785156 166.285156 Z M 284.785156 64.355469 C 282.691406 64.355469 280.621094 64.5625 278.570312 64.972656 C 276.519531 65.382812 274.527344 65.992188 272.59375 66.792969 C 270.660156 67.597656 268.824219 68.582031 267.085938 69.746094 C 265.347656 70.914062 263.738281 72.238281 262.257812 73.71875 C 260.777344 75.203125 259.457031 76.8125 258.296875 78.558594 C 257.132812 80.300781 256.148438 82.140625 255.347656 84.078125 C 254.546875 86.011719 253.941406 88.007812 253.53125 90.066406 C 253.121094 92.121094 252.914062 94.199219 252.914062 96.292969 L 252.914062 117.929688 C 252.9375 120.007812 253.164062 122.066406 253.59375 124.101562 C 254.019531 126.140625 254.636719 128.113281 255.449219 130.03125 C 256.261719 131.945312 257.253906 133.761719 258.417969 135.484375 C 259.585938 137.203125 260.90625 138.796875 262.386719 140.257812 C 263.863281 141.722656 265.464844 143.027344 267.199219 144.175781 C 268.929688 145.320312 270.753906 146.289062 272.675781 147.082031 C 274.597656 147.871094 276.574219 148.46875 278.613281 148.871094 C 280.648438 149.273438 282.707031 149.476562 284.78125 149.476562 C 286.859375 149.476562 288.914062 149.273438 290.953125 148.871094 C 292.988281 148.46875 294.96875 147.871094 296.890625 147.082031 C 298.808594 146.289062 300.636719 145.320312 302.367188 144.171875 C 304.097656 143.027344 305.703125 141.722656 307.179688 140.257812 C 308.65625 138.796875 309.980469 137.203125 311.148438 135.484375 C 312.3125 133.761719 313.304688 131.945312 314.113281 130.03125 C 314.925781 128.113281 315.546875 126.140625 315.972656 124.101562 C 316.402344 122.066406 316.625 120.007812 316.652344 117.929688 L 316.652344 96.292969 C 316.648438 94.199219 316.445312 92.121094 316.035156 90.066406 C 315.625 88.011719 315.019531 86.015625 314.21875 84.078125 C 313.417969 82.140625 312.433594 80.300781 311.269531 78.558594 C 310.109375 76.816406 308.789062 75.203125 307.308594 73.722656 C 305.828125 72.238281 304.222656 70.914062 302.480469 69.75 C 300.742188 68.585938 298.90625 67.601562 296.976562 66.796875 C 295.042969 65.992188 293.050781 65.386719 291 64.976562 C 288.949219 64.5625 286.878906 64.355469 284.785156 64.355469 Z M 284.785156 64.355469 " clip-rule="nonzero"/></clipPath><clipPath id="2da1e2fc21"><path d="M 310 114 L 333.097656 114 L 333.097656 129 L 310 129 Z M 310 114 " clip-rule="nonzero"/></clipPath><clipPath id="f2a893ee00"><path d="M 284.785156 166.285156 C 281.617188 166.28125 278.480469 165.96875 275.375 165.347656 C 272.269531 164.726562 269.25 163.808594 266.324219 162.589844 C 263.398438 161.375 260.621094 159.882812 257.988281 158.121094 C 255.355469 156.355469 252.917969 154.351562 250.675781 152.105469 C 248.4375 149.863281 246.4375 147.421875 244.675781 144.78125 C 242.914062 142.144531 241.429688 139.359375 240.214844 136.425781 C 239 133.492188 238.082031 130.472656 237.460938 127.359375 C 236.839844 124.246094 236.527344 121.101562 236.523438 117.929688 L 236.523438 96.292969 C 236.523438 93.117188 236.832031 89.972656 237.453125 86.859375 C 238.070312 83.746094 238.984375 80.71875 240.199219 77.785156 C 241.410156 74.851562 242.898438 72.066406 244.65625 69.425781 C 246.417969 66.785156 248.417969 64.339844 250.660156 62.097656 C 252.902344 59.851562 255.339844 57.847656 257.972656 56.082031 C 260.609375 54.316406 263.390625 52.828125 266.316406 51.613281 C 269.246094 50.398438 272.261719 49.480469 275.371094 48.859375 C 278.476562 48.242188 281.617188 47.929688 284.785156 47.929688 C 287.953125 47.929688 291.09375 48.242188 294.199219 48.859375 C 297.308594 49.480469 300.324219 50.398438 303.253906 51.613281 C 306.179688 52.828125 308.960938 54.316406 311.597656 56.082031 C 314.230469 57.847656 316.667969 59.851562 318.910156 62.097656 C 321.152344 64.339844 323.152344 66.785156 324.914062 69.425781 C 326.671875 72.066406 328.160156 74.851562 329.371094 77.785156 C 330.585938 80.71875 331.5 83.746094 332.117188 86.859375 C 332.738281 89.972656 333.046875 93.117188 333.046875 96.292969 L 333.046875 117.929688 C 333.042969 121.101562 332.730469 124.246094 332.109375 127.359375 C 331.488281 130.472656 330.570312 133.492188 329.355469 136.425781 C 328.144531 139.359375 326.65625 142.144531 324.894531 144.78125 C 323.132812 147.421875 321.132812 149.863281 318.894531 152.105469 C 316.652344 154.351562 314.214844 156.355469 311.582031 158.121094 C 308.949219 159.882812 306.171875 161.375 303.246094 162.589844 C 300.320312 163.808594 297.300781 164.726562 294.195312 165.347656 C 291.089844 165.96875 287.953125 166.28125 284.785156 166.285156 Z M 284.785156 64.355469 C 282.691406 64.355469 280.621094 64.5625 278.570312 64.972656 C 276.519531 65.382812 274.527344 65.992188 272.59375 66.792969 C 270.660156 67.597656 268.824219 68.582031 267.085938 69.746094 C 265.347656 70.914062 263.738281 72.238281 262.257812 73.71875 C 260.777344 75.203125 259.457031 76.8125 258.296875 78.558594 C 257.132812 80.300781 256.148438 82.140625 255.347656 84.078125 C 254.546875 86.011719 253.941406 88.007812 253.53125 90.066406 C 253.121094 92.121094 252.914062 94.199219 252.914062 96.292969 L 252.914062 117.929688 C 252.9375 120.007812 253.164062 122.066406 253.59375 124.101562 C 254.019531 126.140625 254.636719 128.113281 255.449219 130.03125 C 256.261719 131.945312 257.253906 133.761719 258.417969 135.484375 C 259.585938 137.203125 260.90625 138.796875 262.386719 140.257812 C 263.863281 141.722656 265.464844 143.027344 267.199219 144.175781 C 268.929688 145.320312 270.753906 146.289062 272.675781 147.082031 C 274.597656 147.871094 276.574219 148.46875 278.613281 148.871094 C 280.648438 149.273438 282.707031 149.476562 284.78125 149.476562 C 286.859375 149.476562 288.914062 149.273438 290.953125 148.871094 C 292.988281 148.46875 294.96875 147.871094 296.890625 147.082031 C 298.808594 146.289062 300.636719 145.320312 302.367188 144.171875 C 304.097656 143.027344 305.703125 141.722656 307.179688 140.257812 C 308.65625 138.796875 309.980469 137.203125 311.148438 135.484375 C 312.3125 133.761719 313.304688 131.945312 314.113281 130.03125 C 314.925781 128.113281 315.546875 126.140625 315.972656 124.101562 C 316.402344 122.066406 316.625 120.007812 316.652344 117.929688 L 316.652344 96.292969 C 316.648438 94.199219 316.445312 92.121094 316.035156 90.066406 C 315.625 88.011719 315.019531 86.015625 314.21875 84.078125 C 313.417969 82.140625 312.433594 80.300781 311.269531 78.558594 C 310.109375 76.816406 308.789062 75.203125 307.308594 73.722656 C 305.828125 72.238281 304.222656 70.914062 302.480469 69.75 C 300.742188 68.585938 298.90625 67.601562 296.976562 66.796875 C 295.042969 65.992188 293.050781 65.386719 291 64.976562 C 288.949219 64.5625 286.878906 64.355469 284.785156 64.355469 Z M 284.785156 64.355469 " clip-rule="nonzero"/></clipPath><clipPath id="0767b8666e"><path d="M 256 131.128906 L 339.84375 131.128906 L 339.84375 225.296875 L 256 225.296875 Z M 256 131.128906 " clip-rule="nonzero"/></clipPath><clipPath id="ef254611cd"><path d="M 230.148438 223.363281 L 230.148438 133.328125 C 230.148438 132.828125 230.324219 132.402344 230.679688 132.046875 C 231.03125 131.695312 231.457031 131.515625 231.957031 131.515625 L 337.613281 131.515625 C 338.113281 131.515625 338.539062 131.695312 338.890625 132.046875 C 339.246094 132.402344 339.421875 132.828125 339.421875 133.328125 L 339.421875 223.363281 C 339.421875 223.863281 339.246094 224.292969 338.890625 224.644531 C 338.539062 225 338.113281 225.175781 337.613281 225.175781 L 231.957031 225.175781 C 231.457031 225.175781 231.03125 225 230.679688 224.644531 C 230.324219 224.292969 230.148438 223.863281 230.148438 223.363281 Z M 230.148438 223.363281 " clip-rule="nonzero"/></clipPath><clipPath id="5a9a4043d3"><path d="M 175 182.316406 L 220 182.316406 L 220 243 L 175 243 Z M 175 182.316406 " clip-rule="nonzero"/></clipPath><clipPath id="3c8a0f40d9"><path d="M 196.628906 241.472656 C 194.84375 242.25 192.976562 242.679688 191.03125 242.761719 C 189.085938 242.847656 187.191406 242.578125 185.34375 241.957031 C 183.496094 241.339844 181.820312 240.40625 180.320312 239.167969 C 178.816406 237.925781 177.585938 236.457031 176.625 234.757812 C 178.320312 235.246094 180.046875 235.40625 181.800781 235.234375 C 183.554688 235.066406 185.21875 234.578125 186.785156 233.773438 C 188.355469 232.96875 189.722656 231.902344 190.886719 230.578125 C 192.050781 229.25 192.933594 227.757812 193.53125 226.09375 C 194.125 224.433594 194.398438 222.71875 194.34375 220.953125 C 194.285156 219.1875 193.910156 217.492188 193.210938 215.871094 C 192.511719 214.25 191.539062 212.8125 190.296875 211.5625 C 189.050781 210.3125 187.621094 209.332031 186.003906 208.628906 C 184.386719 207.925781 182.695312 207.542969 180.933594 207.480469 C 179.171875 207.421875 177.460938 207.691406 175.800781 208.28125 C 174.140625 208.875 172.648438 209.753906 171.320312 210.917969 C 169.996094 212.082031 168.929688 213.449219 168.121094 215.019531 C 167.582031 213.128906 167.394531 211.203125 167.554688 209.238281 C 167.714844 207.277344 168.214844 205.410156 169.050781 203.628906 C 169.890625 201.847656 171.011719 200.273438 172.421875 198.902344 C 173.832031 197.53125 175.433594 196.453125 177.234375 195.664062 L 207.921875 182.316406 L 227.714844 227.949219 Z M 196.628906 241.472656 " clip-rule="nonzero"/></clipPath></defs><path fill="#287eef" d="M 201.121094 111.679688 C 201.121094 112.878906 201.0625 114.074219 200.945312 115.265625 C 200.828125 116.457031 200.652344 117.640625 200.417969 118.816406 C 200.1875 119.992188 199.894531 121.152344 199.550781 122.296875 C 199.203125 123.445312 198.800781 124.570312 198.34375 125.675781 C 197.882812 126.785156 197.375 127.867188 196.8125 128.921875 C 196.246094 129.980469 195.632812 131.003906 194.96875 132 C 194.304688 132.996094 193.59375 133.960938 192.835938 134.886719 C 192.078125 135.8125 191.273438 136.699219 190.429688 137.546875 C 189.585938 138.390625 188.699219 139.195312 187.773438 139.957031 C 186.851562 140.714844 185.890625 141.429688 184.898438 142.09375 C 183.902344 142.761719 182.878906 143.375 181.824219 143.941406 C 180.769531 144.503906 179.691406 145.015625 178.585938 145.476562 C 177.484375 145.933594 176.359375 146.335938 175.214844 146.683594 C 174.070312 147.03125 172.910156 147.324219 171.738281 147.554688 C 170.566406 147.789062 169.386719 147.964844 168.195312 148.082031 C 167.007812 148.199219 165.8125 148.257812 164.617188 148.257812 C 163.421875 148.257812 162.230469 148.199219 161.039062 148.082031 C 159.851562 147.964844 158.667969 147.789062 157.496094 147.554688 C 156.324219 147.324219 155.164062 147.03125 154.023438 146.683594 C 152.878906 146.335938 151.753906 145.933594 150.648438 145.476562 C 149.542969 145.015625 148.464844 144.503906 147.410156 143.941406 C 146.355469 143.375 145.332031 142.761719 144.339844 142.09375 C 143.34375 141.429688 142.386719 140.714844 141.460938 139.957031 C 140.535156 139.195312 139.652344 138.390625 138.808594 137.546875 C 137.960938 136.699219 137.160156 135.8125 136.402344 134.886719 C 135.644531 133.960938 134.929688 132.996094 134.265625 132 C 133.601562 131.003906 132.988281 129.980469 132.425781 128.921875 C 131.863281 127.867188 131.351562 126.785156 130.894531 125.675781 C 130.4375 124.570312 130.035156 123.445312 129.6875 122.296875 C 129.339844 121.152344 129.050781 119.992188 128.816406 118.816406 C 128.582031 117.640625 128.410156 116.457031 128.292969 115.265625 C 128.175781 114.074219 128.117188 112.878906 128.117188 111.679688 C 128.117188 110.480469 128.175781 109.285156 128.292969 108.09375 C 128.410156 106.902344 128.582031 105.71875 128.816406 104.542969 C 129.050781 103.367188 129.339844 102.207031 129.6875 101.058594 C 130.035156 99.914062 130.4375 98.789062 130.894531 97.679688 C 131.351562 96.574219 131.863281 95.492188 132.425781 94.433594 C 132.988281 93.378906 133.601562 92.351562 134.265625 91.355469 C 134.929688 90.359375 135.644531 89.398438 136.402344 88.472656 C 137.160156 87.546875 137.960938 86.660156 138.808594 85.8125 C 139.652344 84.964844 140.535156 84.164062 141.460938 83.402344 C 142.386719 82.640625 143.34375 81.929688 144.339844 81.265625 C 145.332031 80.597656 146.355469 79.984375 147.410156 79.417969 C 148.464844 78.855469 149.542969 78.34375 150.648438 77.882812 C 151.753906 77.425781 152.878906 77.023438 154.023438 76.675781 C 155.164062 76.328125 156.324219 76.035156 157.496094 75.800781 C 158.667969 75.566406 159.851562 75.394531 161.039062 75.273438 C 162.230469 75.15625 163.421875 75.097656 164.617188 75.097656 C 165.8125 75.097656 167.007812 75.15625 168.195312 75.273438 C 169.386719 75.394531 170.566406 75.566406 171.738281 75.800781 C 172.910156 76.035156 174.070312 76.328125 175.214844 76.675781 C 176.359375 77.023438 177.484375 77.425781 178.585938 77.882812 C 179.691406 78.34375 180.769531 78.855469 181.824219 79.417969 C 182.878906 79.984375 183.902344 80.597656 184.898438 81.265625 C 185.890625 81.929688 186.851562 82.640625 187.773438 83.402344 C 188.699219 84.164062 189.585938 84.964844 190.429688 85.8125 C 191.273438 86.660156 192.078125 87.546875 192.835938 88.472656 C 193.59375 89.398438 194.304688 90.359375 194.96875 91.355469 C 195.632812 92.351562 196.246094 93.378906 196.8125 94.433594 C 197.375 95.492188 197.882812 96.574219 198.34375 97.679688 C 198.800781 98.789062 199.203125 99.914062 199.550781 101.058594 C 199.894531 102.207031 200.1875 103.367188 200.417969 104.542969 C 200.652344 105.71875 200.828125 106.902344 200.945312 108.09375 C 201.0625 109.285156 201.121094 110.480469 201.121094 111.679688 Z M 201.121094 111.679688 " fill-opacity="1" fill-rule="nonzero"/><g clip-path="url(#bfb5ec0dee)"><g clip-path="url(#38f387a798)"><path fill="#287eef" d="M 193.761719 111.679688 C 193.761719 112.636719 193.714844 113.589844 193.621094 114.542969 C 193.527344 115.492188 193.386719 116.4375 193.203125 117.378906 C 193.015625 118.316406 192.785156 119.242188 192.507812 120.15625 C 192.230469 121.074219 191.910156 121.972656 191.542969 122.855469 C 191.179688 123.738281 190.769531 124.601562 190.320312 125.445312 C 189.871094 126.289062 189.382812 127.109375 188.851562 127.90625 C 188.320312 128.699219 187.753906 129.46875 187.148438 130.207031 C 186.542969 130.945312 185.902344 131.65625 185.226562 132.332031 C 184.550781 133.007812 183.84375 133.648438 183.105469 134.253906 C 182.371094 134.863281 181.601562 135.433594 180.808594 135.964844 C 180.015625 136.496094 179.199219 136.984375 178.355469 137.4375 C 177.515625 137.886719 176.652344 138.296875 175.769531 138.660156 C 174.890625 139.027344 173.992188 139.351562 173.078125 139.628906 C 172.164062 139.90625 171.238281 140.136719 170.304688 140.324219 C 169.367188 140.511719 168.425781 140.652344 167.476562 140.746094 C 166.523438 140.839844 165.574219 140.886719 164.617188 140.886719 C 163.664062 140.886719 162.710938 140.839844 161.761719 140.746094 C 160.8125 140.652344 159.867188 140.511719 158.933594 140.324219 C 157.996094 140.136719 157.070312 139.90625 156.15625 139.628906 C 155.246094 139.351562 154.347656 139.027344 153.464844 138.660156 C 152.582031 138.296875 151.722656 137.886719 150.878906 137.4375 C 150.039062 136.984375 149.21875 136.496094 148.425781 135.964844 C 147.632812 135.433594 146.867188 134.863281 146.128906 134.253906 C 145.390625 133.648438 144.683594 133.007812 144.011719 132.332031 C 143.335938 131.65625 142.695312 130.945312 142.089844 130.207031 C 141.484375 129.46875 140.914062 128.699219 140.386719 127.90625 C 139.855469 127.109375 139.363281 126.289062 138.914062 125.445312 C 138.464844 124.601562 138.058594 123.738281 137.691406 122.855469 C 137.328125 121.972656 137.007812 121.074219 136.730469 120.15625 C 136.453125 119.242188 136.21875 118.316406 136.035156 117.378906 C 135.847656 116.4375 135.707031 115.492188 135.613281 114.542969 C 135.519531 113.589844 135.472656 112.636719 135.472656 111.679688 C 135.472656 110.722656 135.519531 109.769531 135.613281 108.816406 C 135.707031 107.863281 135.847656 106.917969 136.035156 105.980469 C 136.21875 105.042969 136.453125 104.117188 136.730469 103.199219 C 137.007812 102.285156 137.328125 101.386719 137.691406 100.503906 C 138.058594 99.617188 138.464844 98.753906 138.914062 97.910156 C 139.363281 97.066406 139.855469 96.25 140.386719 95.453125 C 140.914062 94.65625 141.484375 93.890625 142.089844 93.152344 C 142.695312 92.410156 143.335938 91.703125 144.011719 91.027344 C 144.683594 90.351562 145.390625 89.710938 146.128906 89.101562 C 146.867188 88.496094 147.632812 87.925781 148.425781 87.394531 C 149.21875 86.863281 150.039062 86.371094 150.878906 85.921875 C 151.722656 85.472656 152.582031 85.0625 153.464844 84.695312 C 154.347656 84.332031 155.246094 84.007812 156.15625 83.730469 C 157.070312 83.453125 157.996094 83.222656 158.933594 83.035156 C 159.867188 82.847656 160.8125 82.707031 161.761719 82.613281 C 162.710938 82.519531 163.664062 82.472656 164.617188 82.472656 C 165.574219 82.472656 166.523438 82.519531 167.476562 82.613281 C 168.425781 82.707031 169.367188 82.847656 170.304688 83.035156 C 171.238281 83.222656 172.164062 83.453125 173.078125 83.730469 C 173.992188 84.007812 174.890625 84.332031 175.769531 84.695312 C 176.652344 85.0625 177.515625 85.472656 178.355469 85.921875 C 179.199219 86.371094 180.015625 86.863281 180.808594 87.394531 C 181.601562 87.925781 182.371094 88.496094 183.105469 89.101562 C 183.84375 89.710938 184.550781 90.351562 185.226562 91.027344 C 185.902344 91.703125 186.542969 92.410156 187.148438 93.152344 C 187.753906 93.890625 188.320312 94.65625 188.851562 95.453125 C 189.382812 96.25 189.871094 97.066406 190.320312 97.910156 C 190.769531 98.753906 191.179688 99.617188 191.542969 100.503906 C 191.910156 101.386719 192.230469 102.285156 192.507812 103.199219 C 192.785156 104.117188 193.015625 105.042969 193.203125 105.980469 C 193.386719 106.917969 193.527344 107.863281 193.621094 108.816406 C 193.714844 109.769531 193.761719 110.722656 193.761719 111.679688 Z M 193.761719 111.679688 " fill-opacity="1" fill-rule="nonzero"/></g></g><g clip-path="url(#eddbf6324e)"><g clip-path="url(#0492c5ed64)"><path fill="#86ebf9" d="M 175.09375 102.585938 C 175.09375 103.273438 175.027344 103.957031 174.894531 104.632812 C 174.757812 105.308594 174.558594 105.964844 174.296875 106.605469 C 174.035156 107.242188 173.710938 107.84375 173.328125 108.417969 C 172.945312 108.992188 172.511719 109.523438 172.027344 110.007812 C 171.539062 110.496094 171.011719 110.933594 170.4375 111.316406 C 169.867188 111.699219 169.261719 112.019531 168.628906 112.285156 C 167.992188 112.550781 167.335938 112.75 166.660156 112.882812 C 165.988281 113.015625 165.304688 113.085938 164.617188 113.085938 C 163.929688 113.085938 163.25 113.015625 162.574219 112.882812 C 161.898438 112.75 161.246094 112.550781 160.609375 112.285156 C 159.972656 112.019531 159.371094 111.699219 158.796875 111.316406 C 158.226562 110.933594 157.695312 110.496094 157.210938 110.007812 C 156.722656 109.523438 156.289062 108.992188 155.90625 108.417969 C 155.523438 107.84375 155.203125 107.242188 154.9375 106.605469 C 154.675781 105.964844 154.476562 105.308594 154.34375 104.632812 C 154.210938 103.957031 154.140625 103.273438 154.140625 102.585938 C 154.140625 101.898438 154.210938 101.214844 154.34375 100.539062 C 154.476562 99.863281 154.675781 99.207031 154.9375 98.570312 C 155.203125 97.933594 155.523438 97.328125 155.90625 96.753906 C 156.289062 96.179688 156.722656 95.648438 157.210938 95.164062 C 157.695312 94.675781 158.226562 94.238281 158.796875 93.855469 C 159.371094 93.472656 159.972656 93.152344 160.609375 92.886719 C 161.246094 92.625 161.898438 92.425781 162.574219 92.289062 C 163.25 92.15625 163.929688 92.085938 164.617188 92.085938 C 165.304688 92.085938 165.988281 92.15625 166.660156 92.289062 C 167.335938 92.425781 167.992188 92.625 168.628906 92.886719 C 169.261719 93.152344 169.867188 93.472656 170.4375 93.855469 C 171.011719 94.238281 171.539062 94.675781 172.027344 95.164062 C 172.511719 95.648438 172.945312 96.179688 173.328125 96.753906 C 173.710938 97.328125 174.035156 97.933594 174.296875 98.570312 C 174.558594 99.207031 174.757812 99.863281 174.894531 100.539062 C 175.027344 101.214844 175.09375 101.898438 175.09375 102.585938 Z M 175.09375 102.585938 " fill-opacity="1" fill-rule="nonzero"/></g></g><g clip-path="url(#d1f7c4ae5b)"><g clip-path="url(#a8860a8f2d)"><path fill="#86ebf9" d="M 162.496094 115.363281 L 166.738281 115.363281 C 167.511719 115.363281 168.277344 115.4375 169.035156 115.589844 C 169.792969 115.742188 170.53125 115.964844 171.242188 116.261719 C 171.957031 116.558594 172.636719 116.921875 173.277344 117.351562 C 173.921875 117.78125 174.515625 118.269531 175.0625 118.820312 C 175.609375 119.367188 176.097656 119.960938 176.527344 120.605469 C 176.957031 121.25 177.320312 121.929688 177.613281 122.644531 C 177.910156 123.363281 178.132812 124.101562 178.285156 124.859375 C 178.433594 125.621094 178.511719 126.386719 178.511719 127.160156 L 178.511719 139.039062 C 178.511719 139.816406 178.433594 140.582031 178.285156 141.34375 C 178.132812 142.101562 177.910156 142.839844 177.613281 143.554688 C 177.320312 144.269531 176.957031 144.949219 176.527344 145.59375 C 176.097656 146.238281 175.609375 146.835938 175.0625 147.382812 C 174.515625 147.929688 173.921875 148.417969 173.277344 148.847656 C 172.636719 149.28125 171.957031 149.644531 171.242188 149.941406 C 170.53125 150.234375 169.792969 150.460938 169.035156 150.609375 C 168.277344 150.761719 167.511719 150.835938 166.738281 150.835938 L 162.496094 150.835938 C 161.726562 150.835938 160.960938 150.761719 160.199219 150.609375 C 159.441406 150.460938 158.707031 150.234375 157.992188 149.941406 C 157.277344 149.644531 156.601562 149.28125 155.957031 148.847656 C 155.316406 148.417969 154.71875 147.929688 154.171875 147.382812 C 153.625 146.835938 153.140625 146.238281 152.710938 145.59375 C 152.28125 144.949219 151.917969 144.269531 151.621094 143.554688 C 151.324219 142.839844 151.101562 142.101562 150.953125 141.34375 C 150.800781 140.582031 150.726562 139.816406 150.726562 139.039062 L 150.726562 127.160156 C 150.726562 126.386719 150.800781 125.621094 150.953125 124.859375 C 151.101562 124.101562 151.324219 123.363281 151.621094 122.644531 C 151.917969 121.929688 152.28125 121.25 152.710938 120.605469 C 153.140625 119.960938 153.625 119.367188 154.171875 118.820312 C 154.71875 118.269531 155.316406 117.78125 155.957031 117.351562 C 156.601562 116.921875 157.277344 116.558594 157.992188 116.261719 C 158.707031 115.964844 159.441406 115.742188 160.199219 115.589844 C 160.960938 115.4375 161.726562 115.363281 162.496094 115.363281 Z M 162.496094 115.363281 " fill-opacity="1" fill-rule="nonzero"/></g></g><path fill="#287eef" d="M 182 140.242188 C 183.644531 142.730469 185.777344 144.683594 188.398438 146.101562 C 196.832031 150.570312 205.824219 146.101562 206.878906 145.53125 C 203.917969 144.421875 201.40625 142.667969 199.347656 140.261719 C 193.984375 133.925781 195.011719 126.085938 195.222656 124.726562 C 194.789062 124.636719 188.875 123.449219 184.558594 127.722656 C 183.765625 128.527344 183.101562 129.433594 182.566406 130.433594 C 182.035156 131.433594 181.65625 132.492188 181.429688 133.601562 C 181.203125 134.714844 181.136719 135.835938 181.234375 136.964844 C 181.332031 138.09375 181.585938 139.1875 182 140.242188 Z M 182 140.242188 " fill-opacity="1" fill-rule="nonzero"/><g clip-path="url(#01b4f6ff0a)"><path fill="#834a27" d="M 119.292969 226.570312 C 128.027344 221.347656 133.226562 215.6875 136.308594 211.628906 C 138.296875 209.011719 140.792969 201.808594 149.148438 189.484375 C 157.210938 177.613281 161.546875 174.832031 163.671875 173.625 C 169.9375 170.109375 175.71875 169.660156 180.929688 169.28125 C 189.226562 168.691406 202.132812 167.773438 207.394531 174.964844 C 213.011719 182.65625 209.113281 198.625 209.125 196.992188 C 209.125 196.992188 206.4375 230.90625 196.875 238.335938 C 187.316406 245.761719 170.328125 247.09375 170.328125 247.09375 L 153.992188 265.21875 C 137.363281 258.019531 124.890625 244.164062 119.292969 226.570312 Z M 119.292969 226.570312 " fill-opacity="1" fill-rule="nonzero"/></g><path fill="#6e3d1e" d="M 205.625 180.644531 C 202.289062 178.605469 198.683594 177.332031 194.808594 176.828125 C 182.441406 175.253906 169.621094 182.433594 163.582031 191.796875 C 163.144531 192.429688 162.792969 193.105469 162.53125 193.832031 C 161.601562 196.765625 161.421875 199.742188 162 202.765625 C 163.445312 210.054688 160.71875 212.726562 162.179688 222.75 C 162.625 225.8125 164.949219 241.777344 172.558594 243.484375 C 174.542969 243.925781 176.242188 243.25 179.394531 241.667969 C 195.777344 233.414062 208.902344 221.96875 208.902344 221.96875 C 208.902344 221.96875 208.984375 223.003906 205.625 180.644531 Z M 205.625 180.644531 " fill-opacity="1" fill-rule="nonzero"/><g clip-path="url(#eaa877a52c)"><g clip-path="url(#3de0a77ce0)"><path fill="#c6c6c6" d="M 284.785156 166.285156 C 283.207031 166.285156 281.628906 166.203125 280.058594 166.046875 C 278.484375 165.890625 276.921875 165.65625 275.375 165.347656 C 273.824219 165.039062 272.292969 164.652344 270.78125 164.191406 C 269.269531 163.730469 267.785156 163.199219 266.324219 162.589844 C 264.867188 161.984375 263.441406 161.308594 262.046875 160.558594 C 260.652344 159.8125 259.300781 159 257.988281 158.121094 C 256.671875 157.238281 255.40625 156.296875 254.183594 155.292969 C 252.964844 154.289062 251.792969 153.226562 250.675781 152.105469 C 249.558594 150.988281 248.5 149.816406 247.496094 148.59375 C 246.496094 147.367188 245.554688 146.097656 244.675781 144.78125 C 243.796875 143.464844 242.984375 142.109375 242.242188 140.714844 C 241.496094 139.316406 240.820312 137.886719 240.214844 136.425781 C 239.609375 134.964844 239.074219 133.476562 238.617188 131.960938 C 238.15625 130.445312 237.769531 128.910156 237.460938 127.359375 C 237.152344 125.804688 236.917969 124.242188 236.761719 122.667969 C 236.605469 121.089844 236.527344 119.511719 236.523438 117.929688 L 236.523438 96.292969 C 236.523438 94.710938 236.601562 93.128906 236.757812 91.554688 C 236.910156 89.976562 237.144531 88.414062 237.453125 86.859375 C 237.761719 85.304688 238.144531 83.769531 238.601562 82.253906 C 239.0625 80.738281 239.59375 79.25 240.199219 77.785156 C 240.804688 76.324219 241.476562 74.894531 242.222656 73.496094 C 242.96875 72.097656 243.78125 70.742188 244.65625 69.425781 C 245.535156 68.109375 246.476562 66.835938 247.480469 65.613281 C 248.480469 64.386719 249.542969 63.214844 250.660156 62.097656 C 251.777344 60.976562 252.945312 59.914062 254.167969 58.910156 C 255.390625 57.902344 256.660156 56.960938 257.972656 56.082031 C 259.289062 55.203125 260.640625 54.386719 262.035156 53.640625 C 263.429688 52.894531 264.855469 52.21875 266.316406 51.613281 C 267.777344 51.007812 269.261719 50.472656 270.777344 50.011719 C 272.289062 49.554688 273.820312 49.167969 275.371094 48.859375 C 276.921875 48.550781 278.480469 48.320312 280.054688 48.164062 C 281.628906 48.007812 283.203125 47.929688 284.785156 47.929688 C 286.367188 47.929688 287.941406 48.007812 289.515625 48.164062 C 291.089844 48.320312 292.648438 48.550781 294.199219 48.859375 C 295.75 49.167969 297.28125 49.554688 298.792969 50.011719 C 300.308594 50.472656 301.792969 51.007812 303.253906 51.613281 C 304.714844 52.21875 306.140625 52.894531 307.535156 53.640625 C 308.929688 54.386719 310.28125 55.203125 311.597656 56.082031 C 312.910156 56.960938 314.179688 57.902344 315.402344 58.910156 C 316.625 59.914062 317.792969 60.976562 318.910156 62.097656 C 320.027344 63.214844 321.089844 64.386719 322.089844 65.613281 C 323.09375 66.835938 324.035156 68.109375 324.914062 69.425781 C 325.789062 70.742188 326.601562 72.097656 327.347656 73.496094 C 328.09375 74.894531 328.765625 76.324219 329.371094 77.785156 C 329.976562 79.25 330.507812 80.738281 330.96875 82.253906 C 331.425781 83.769531 331.808594 85.304688 332.117188 86.859375 C 332.425781 88.414062 332.660156 89.976562 332.8125 91.554688 C 332.96875 93.128906 333.046875 94.710938 333.046875 96.292969 L 333.046875 117.929688 C 333.042969 119.511719 332.964844 121.089844 332.808594 122.667969 C 332.652344 124.242188 332.417969 125.804688 332.109375 127.359375 C 331.800781 128.910156 331.414062 130.445312 330.953125 131.960938 C 330.496094 133.476562 329.960938 134.964844 329.355469 136.425781 C 328.75 137.886719 328.074219 139.316406 327.332031 140.714844 C 326.585938 142.109375 325.773438 143.464844 324.894531 144.78125 C 324.015625 146.097656 323.074219 147.367188 322.074219 148.59375 C 321.070312 149.816406 320.011719 150.988281 318.894531 152.105469 C 317.777344 153.226562 316.605469 154.289062 315.386719 155.292969 C 314.164062 156.296875 312.898438 157.238281 311.582031 158.121094 C 310.269531 159 308.917969 159.8125 307.523438 160.558594 C 306.128906 161.308594 304.703125 161.984375 303.246094 162.589844 C 301.785156 163.199219 300.300781 163.730469 298.789062 164.191406 C 297.277344 164.652344 295.746094 165.039062 294.195312 165.347656 C 292.648438 165.65625 291.085938 165.890625 289.511719 166.046875 C 287.941406 166.203125 286.367188 166.285156 284.785156 166.285156 Z M 284.785156 64.355469 C 283.742188 64.355469 282.699219 64.40625 281.664062 64.511719 C 280.625 64.613281 279.59375 64.769531 278.570312 64.972656 C 277.546875 65.179688 276.535156 65.433594 275.539062 65.738281 C 274.539062 66.042969 273.558594 66.394531 272.59375 66.792969 C 271.628906 67.195312 270.6875 67.640625 269.769531 68.136719 C 268.847656 68.628906 267.953125 69.167969 267.085938 69.746094 C 266.21875 70.328125 265.382812 70.953125 264.574219 71.613281 C 263.769531 72.277344 262.996094 72.980469 262.257812 73.71875 C 261.519531 74.457031 260.820312 75.234375 260.160156 76.039062 C 259.496094 76.847656 258.875 77.6875 258.296875 78.558594 C 257.714844 79.425781 257.179688 80.324219 256.6875 81.246094 C 256.195312 82.167969 255.75 83.109375 255.347656 84.078125 C 254.949219 85.042969 254.597656 86.027344 254.292969 87.027344 C 253.988281 88.027344 253.734375 89.039062 253.53125 90.066406 C 253.328125 91.089844 253.171875 92.125 253.070312 93.164062 C 252.964844 94.203125 252.914062 95.25 252.914062 96.292969 L 252.914062 117.929688 C 252.925781 118.964844 252.988281 120 253.101562 121.03125 C 253.214844 122.0625 253.378906 123.085938 253.59375 124.101562 C 253.804688 125.117188 254.066406 126.121094 254.378906 127.113281 C 254.6875 128.101562 255.046875 129.074219 255.449219 130.03125 C 255.855469 130.984375 256.304688 131.917969 256.800781 132.828125 C 257.296875 133.742188 257.835938 134.625 258.417969 135.484375 C 259 136.34375 259.625 137.171875 260.285156 137.96875 C 260.949219 138.765625 261.648438 139.527344 262.386719 140.257812 C 263.121094 140.988281 263.890625 141.679688 264.695312 142.332031 C 265.5 142.988281 266.335938 143.601562 267.199219 144.171875 C 268.0625 144.746094 268.953125 145.277344 269.867188 145.761719 C 270.78125 146.246094 271.71875 146.6875 272.675781 147.082031 C 273.632812 147.476562 274.609375 147.820312 275.601562 148.121094 C 276.59375 148.421875 277.597656 148.671875 278.613281 148.871094 C 279.628906 149.070312 280.652344 149.222656 281.683594 149.324219 C 282.714844 149.425781 283.746094 149.476562 284.78125 149.476562 C 285.820312 149.476562 286.851562 149.425781 287.882812 149.324219 C 288.914062 149.222656 289.9375 149.070312 290.953125 148.871094 C 291.96875 148.671875 292.972656 148.421875 293.964844 148.121094 C 294.957031 147.820312 295.929688 147.476562 296.890625 147.082031 C 297.847656 146.6875 298.785156 146.246094 299.699219 145.761719 C 300.613281 145.277344 301.503906 144.746094 302.367188 144.171875 C 303.230469 143.601562 304.066406 142.988281 304.871094 142.332031 C 305.671875 141.679688 306.445312 140.988281 307.179688 140.257812 C 307.917969 139.527344 308.617188 138.765625 309.28125 137.96875 C 309.941406 137.171875 310.566406 136.34375 311.148438 135.484375 C 311.730469 134.625 312.265625 133.742188 312.761719 132.828125 C 313.257812 131.917969 313.710938 130.984375 314.113281 130.03125 C 314.519531 129.074219 314.878906 128.101562 315.1875 127.113281 C 315.5 126.121094 315.761719 125.117188 315.972656 124.101562 C 316.1875 123.085938 316.351562 122.0625 316.464844 121.03125 C 316.578125 120 316.640625 118.964844 316.652344 117.929688 L 316.652344 96.292969 C 316.652344 95.25 316.597656 94.207031 316.496094 93.164062 C 316.390625 92.125 316.238281 91.089844 316.035156 90.066406 C 315.828125 89.039062 315.574219 88.027344 315.273438 87.027344 C 314.96875 86.027344 314.617188 85.042969 314.21875 84.078125 C 313.816406 83.113281 313.371094 82.167969 312.878906 81.246094 C 312.386719 80.324219 311.851562 79.429688 311.269531 78.558594 C 310.691406 77.691406 310.070312 76.851562 309.410156 76.042969 C 308.746094 75.234375 308.046875 74.460938 307.308594 73.722656 C 306.570312 72.980469 305.800781 72.28125 304.992188 71.617188 C 304.1875 70.953125 303.347656 70.332031 302.480469 69.75 C 301.613281 69.167969 300.722656 68.628906 299.800781 68.136719 C 298.882812 67.644531 297.9375 67.195312 296.976562 66.796875 C 296.011719 66.394531 295.03125 66.042969 294.03125 65.738281 C 293.035156 65.433594 292.023438 65.179688 291 64.976562 C 289.976562 64.769531 288.945312 64.617188 287.90625 64.511719 C 286.871094 64.410156 285.828125 64.355469 284.785156 64.355469 Z M 284.785156 64.355469 " fill-opacity="1" fill-rule="nonzero"/></g></g><g clip-path="url(#e109b8add8)"><g clip-path="url(#5b738907e0)"><path fill="#2d1929" d="M 231.945312 114.609375 L 258.582031 114.609375 L 258.582031 128.070312 L 231.945312 128.070312 Z M 231.945312 114.609375 " fill-opacity="1" fill-rule="nonzero"/></g></g><g clip-path="url(#2da1e2fc21)"><g clip-path="url(#f2a893ee00)"><path fill="#2d1929" d="M 310.027344 114.609375 L 336.660156 114.609375 L 336.660156 128.070312 L 310.027344 128.070312 Z M 310.027344 114.609375 " fill-opacity="1" fill-rule="nonzero"/></g></g><path fill="#917eec" d="M 232.675781 121.023438 L 336.894531 121.023438 C 337.75 121.023438 338.59375 121.105469 339.429688 121.273438 C 340.269531 121.441406 341.082031 121.6875 341.871094 122.015625 C 342.65625 122.34375 343.40625 122.742188 344.117188 123.21875 C 344.824219 123.691406 345.484375 124.234375 346.085938 124.839844 C 346.6875 125.441406 347.226562 126.101562 347.703125 126.8125 C 348.175781 127.523438 348.578125 128.273438 348.902344 129.0625 C 349.230469 129.851562 349.476562 130.667969 349.644531 131.507812 C 349.808594 132.34375 349.890625 133.191406 349.890625 134.046875 L 349.890625 222.644531 C 349.890625 223.5 349.808594 224.347656 349.644531 225.1875 C 349.476562 226.023438 349.230469 226.839844 348.902344 227.628906 C 348.578125 228.417969 348.175781 229.171875 347.703125 229.882812 C 347.226562 230.59375 346.6875 231.25 346.085938 231.855469 C 345.484375 232.460938 344.824219 233 344.117188 233.476562 C 343.40625 233.949219 342.65625 234.351562 341.871094 234.679688 C 341.082031 235.003906 340.269531 235.253906 339.429688 235.417969 C 338.59375 235.585938 337.75 235.667969 336.894531 235.667969 L 232.675781 235.667969 C 231.820312 235.667969 230.976562 235.585938 230.140625 235.417969 C 229.300781 235.253906 228.488281 235.003906 227.699219 234.679688 C 226.914062 234.351562 226.164062 233.949219 225.453125 233.476562 C 224.746094 233 224.089844 232.460938 223.484375 231.855469 C 222.882812 231.25 222.34375 230.59375 221.867188 229.882812 C 221.394531 229.171875 220.992188 228.417969 220.667969 227.628906 C 220.339844 226.839844 220.09375 226.023438 219.929688 225.1875 C 219.761719 224.347656 219.679688 223.5 219.679688 222.644531 L 219.679688 134.046875 C 219.679688 133.191406 219.761719 132.34375 219.929688 131.507812 C 220.09375 130.667969 220.339844 129.851562 220.667969 129.0625 C 220.992188 128.273438 221.394531 127.523438 221.867188 126.8125 C 222.34375 126.101562 222.882812 125.441406 223.484375 124.839844 C 224.089844 124.234375 224.746094 123.691406 225.453125 123.21875 C 226.164062 122.742188 226.914062 122.34375 227.699219 122.015625 C 228.488281 121.6875 229.300781 121.441406 230.140625 121.273438 C 230.976562 121.105469 231.820312 121.023438 232.675781 121.023438 Z M 232.675781 121.023438 " fill-opacity="1" fill-rule="nonzero"/><path fill="#efbd42" d="M 231.957031 131.515625 L 337.613281 131.515625 C 337.855469 131.515625 338.085938 131.5625 338.304688 131.65625 C 338.527344 131.746094 338.722656 131.878906 338.890625 132.046875 C 339.0625 132.21875 339.191406 132.414062 339.285156 132.632812 C 339.375 132.855469 339.421875 133.085938 339.421875 133.328125 L 339.421875 223.363281 C 339.421875 223.605469 339.375 223.835938 339.285156 224.058594 C 339.191406 224.28125 339.0625 224.476562 338.890625 224.644531 C 338.722656 224.816406 338.527344 224.945312 338.304688 225.039062 C 338.085938 225.128906 337.855469 225.175781 337.613281 225.175781 L 231.957031 225.175781 C 231.714844 225.175781 231.484375 225.128906 231.265625 225.039062 C 231.042969 224.945312 230.847656 224.816406 230.679688 224.644531 C 230.507812 224.476562 230.378906 224.28125 230.285156 224.058594 C 230.195312 223.835938 230.148438 223.605469 230.148438 223.363281 L 230.148438 133.328125 C 230.148438 133.085938 230.195312 132.855469 230.285156 132.632812 C 230.378906 132.414062 230.507812 132.21875 230.679688 132.046875 C 230.847656 131.878906 231.042969 131.746094 231.265625 131.65625 C 231.484375 131.5625 231.714844 131.515625 231.957031 131.515625 Z M 231.957031 131.515625 " fill-opacity="1" fill-rule="nonzero"/><g clip-path="url(#0767b8666e)"><g clip-path="url(#ef254611cd)"><path fill="#d7981a" d="M 343.175781 126.46875 C 343.175781 126.46875 331.792969 208.597656 256.214844 232.324219 L 339.421875 232.324219 L 343.175781 220.917969 L 356.832031 130.132812 Z M 343.175781 126.46875 " fill-opacity="1" fill-rule="nonzero"/></g></g><path fill="#d7981a" d="M 235.878906 136.050781 L 256.046875 136.050781 L 235.878906 155.769531 Z M 235.878906 136.050781 " fill-opacity="1" fill-rule="nonzero"/><path fill="#d7981a" d="M 235.878906 162.789062 L 263.292969 136.050781 L 273.402344 136.050781 L 235.878906 171.367188 Z M 235.878906 162.789062 " fill-opacity="1" fill-rule="nonzero"/><path fill="#efefef" d="M 243.011719 89.667969 C 243.035156 88.125 243.632812 69.074219 259.554688 58.945312 C 270.445312 52.015625 281.753906 53.566406 284.785156 54.082031 C 278.367188 54.167969 272.285156 55.636719 266.535156 58.492188 C 248.722656 67.433594 243.816406 86.355469 243.011719 89.667969 Z M 243.011719 89.667969 " fill-opacity="1" fill-rule="nonzero"/><path fill="#2d1929" d="M 296 160.71875 C 296 161.457031 295.925781 162.1875 295.785156 162.910156 C 295.640625 163.632812 295.425781 164.335938 295.144531 165.019531 C 294.863281 165.699219 294.519531 166.347656 294.109375 166.960938 C 293.699219 167.574219 293.234375 168.140625 292.714844 168.664062 C 292.195312 169.1875 291.628906 169.652344 291.015625 170.0625 C 290.402344 170.472656 289.757812 170.816406 289.078125 171.101562 C 288.394531 171.382812 287.695312 171.59375 286.972656 171.738281 C 286.25 171.882812 285.523438 171.957031 284.785156 171.957031 C 284.050781 171.957031 283.320312 171.882812 282.597656 171.738281 C 281.875 171.59375 281.175781 171.382812 280.492188 171.101562 C 279.8125 170.816406 279.167969 170.472656 278.554688 170.0625 C 277.941406 169.652344 277.375 169.1875 276.855469 168.664062 C 276.335938 168.140625 275.871094 167.574219 275.460938 166.960938 C 275.050781 166.347656 274.707031 165.699219 274.425781 165.019531 C 274.144531 164.335938 273.929688 163.632812 273.789062 162.910156 C 273.644531 162.1875 273.570312 161.457031 273.570312 160.71875 C 273.570312 159.980469 273.644531 159.25 273.789062 158.527344 C 273.929688 157.800781 274.144531 157.097656 274.425781 156.417969 C 274.707031 155.734375 275.050781 155.089844 275.460938 154.476562 C 275.871094 153.863281 276.335938 153.292969 276.855469 152.773438 C 277.375 152.25 277.941406 151.785156 278.554688 151.375 C 279.167969 150.964844 279.8125 150.617188 280.492188 150.335938 C 281.175781 150.054688 281.875 149.839844 282.597656 149.695312 C 283.320312 149.554688 284.050781 149.480469 284.785156 149.480469 C 285.523438 149.480469 286.25 149.554688 286.972656 149.695312 C 287.695312 149.839844 288.394531 150.054688 289.078125 150.335938 C 289.757812 150.617188 290.402344 150.964844 291.015625 151.375 C 291.628906 151.785156 292.195312 152.25 292.714844 152.773438 C 293.234375 153.292969 293.699219 153.863281 294.109375 154.476562 C 294.519531 155.089844 294.863281 155.734375 295.144531 156.417969 C 295.425781 157.097656 295.640625 157.800781 295.785156 158.527344 C 295.925781 159.25 296 159.980469 296 160.71875 Z M 296 160.71875 " fill-opacity="1" fill-rule="nonzero"/><path fill="#2d1929" d="M 295.785156 207.210938 L 273.785156 207.210938 L 278.167969 164.097656 L 291.398438 164.097656 Z M 295.785156 207.210938 " fill-opacity="1" fill-rule="nonzero"/><path fill="#c6c6c6" d="M 275.386719 191.902344 L 277.546875 186.554688 C 277.636719 186.328125 277.769531 186.132812 277.949219 185.96875 C 278.125 185.804688 278.332031 185.6875 278.5625 185.617188 C 278.792969 185.542969 279.027344 185.527344 279.265625 185.558594 C 279.507812 185.59375 279.726562 185.679688 279.929688 185.816406 L 283.113281 187.945312 C 283.328125 188.085938 283.558594 188.171875 283.8125 188.203125 C 284.070312 188.234375 284.316406 188.207031 284.558594 188.117188 C 284.796875 188.03125 285.003906 187.894531 285.179688 187.707031 C 285.355469 187.519531 285.480469 187.300781 285.550781 187.054688 C 288.800781 176.09375 288.757812 167.160156 284.585938 164.5 C 284.074219 164.175781 283.523438 163.945312 282.929688 163.816406 C 282.597656 163.746094 282.277344 163.777344 281.964844 163.914062 L 204.039062 197.863281 C 203.84375 197.949219 203.671875 198.070312 203.527344 198.222656 C 203.378906 198.378906 203.265625 198.554688 203.1875 198.753906 C 203.109375 198.953125 203.070312 199.160156 203.074219 199.371094 C 203.078125 199.585938 203.121094 199.792969 203.207031 199.988281 L 211.597656 219.328125 C 211.683594 219.523438 211.800781 219.695312 211.953125 219.84375 C 212.109375 219.992188 212.285156 220.105469 212.480469 220.183594 C 212.679688 220.261719 212.886719 220.300781 213.097656 220.296875 C 213.3125 220.292969 213.515625 220.25 213.710938 220.164062 L 260.171875 199.921875 C 260.464844 199.792969 260.699219 199.59375 260.878906 199.328125 L 266.464844 190.765625 C 266.574219 190.59375 266.710938 190.449219 266.875 190.332031 C 267.042969 190.214844 267.222656 190.132812 267.417969 190.082031 C 267.613281 190.03125 267.8125 190.019531 268.011719 190.046875 C 268.210938 190.070312 268.402344 190.132812 268.578125 190.226562 L 273.136719 192.714844 C 273.339844 192.824219 273.554688 192.886719 273.78125 192.902344 C 274.007812 192.921875 274.230469 192.890625 274.445312 192.8125 C 274.660156 192.734375 274.847656 192.617188 275.011719 192.460938 C 275.179688 192.300781 275.304688 192.117188 275.386719 191.902344 Z M 275.386719 191.902344 " fill-opacity="1" fill-rule="nonzero"/><path fill="#efefef" d="M 213.414062 198.722656 L 274.445312 172.128906 C 274.636719 172.046875 274.839844 172 275.050781 172 C 275.261719 171.996094 275.464844 172.03125 275.660156 172.109375 C 275.855469 172.1875 276.027344 172.296875 276.179688 172.445312 C 276.332031 172.589844 276.449219 172.761719 276.53125 172.953125 L 276.757812 173.476562 C 276.84375 173.667969 276.886719 173.871094 276.890625 174.082031 C 276.894531 174.292969 276.855469 174.496094 276.78125 174.691406 C 276.703125 174.886719 276.589844 175.0625 276.445312 175.210938 C 276.300781 175.363281 276.128906 175.480469 275.9375 175.566406 L 214.902344 202.160156 C 214.710938 202.246094 214.507812 202.289062 214.300781 202.292969 C 214.089844 202.296875 213.886719 202.257812 213.691406 202.179688 C 213.496094 202.105469 213.320312 201.992188 213.171875 201.847656 C 213.019531 201.699219 212.902344 201.53125 212.816406 201.335938 L 212.589844 200.8125 C 212.507812 200.621094 212.464844 200.417969 212.460938 200.207031 C 212.457031 199.996094 212.492188 199.792969 212.570312 199.597656 C 212.648438 199.402344 212.757812 199.230469 212.90625 199.078125 C 213.050781 198.925781 213.21875 198.808594 213.414062 198.722656 Z M 213.414062 198.722656 " fill-opacity="1" fill-rule="nonzero"/><path fill="#2d1929" d="M 215.613281 192.8125 L 223.046875 189.574219 L 232.71875 211.871094 L 225.289062 215.109375 Z M 215.613281 192.8125 " fill-opacity="1" fill-rule="nonzero"/><path fill="#c6c6c6" d="M 208.375 174.667969 L 174.519531 189.417969 C 173.832031 189.71875 173.15625 190.050781 172.5 190.417969 C 171.839844 190.785156 171.203125 191.183594 170.582031 191.617188 C 169.964844 192.046875 169.367188 192.503906 168.792969 192.992188 C 168.222656 193.480469 167.671875 194 167.148438 194.542969 C 166.625 195.082031 166.132812 195.652344 165.664062 196.242188 C 165.195312 196.835938 164.757812 197.449219 164.351562 198.082031 C 163.945312 198.714844 163.570312 199.371094 163.226562 200.042969 C 162.882812 200.714844 162.574219 201.398438 162.296875 202.101562 C 162.019531 202.804688 161.78125 203.519531 161.574219 204.242188 C 161.367188 204.96875 161.199219 205.703125 161.0625 206.445312 C 160.929688 207.1875 160.832031 207.9375 160.769531 208.6875 C 160.710938 209.441406 160.6875 210.195312 160.699219 210.949219 C 160.714844 211.703125 160.761719 212.453125 160.851562 213.203125 C 160.9375 213.953125 161.058594 214.699219 161.21875 215.433594 C 161.378906 216.171875 161.574219 216.898438 161.808594 217.617188 C 162.039062 218.335938 162.304688 219.042969 162.605469 219.734375 L 169.660156 236.007812 C 169.953125 236.6875 170.28125 237.347656 170.640625 237.996094 C 171 238.644531 171.390625 239.269531 171.8125 239.878906 C 172.230469 240.488281 172.683594 241.074219 173.160156 241.636719 C 173.640625 242.203125 174.144531 242.742188 174.675781 243.253906 C 175.207031 243.769531 175.761719 244.257812 176.34375 244.714844 C 176.921875 245.175781 177.523438 245.605469 178.144531 246.007812 C 178.765625 246.40625 179.402344 246.777344 180.0625 247.113281 C 180.71875 247.449219 181.390625 247.753906 182.078125 248.027344 C 182.765625 248.296875 183.464844 248.535156 184.175781 248.738281 C 184.886719 248.941406 185.605469 249.105469 186.332031 249.238281 C 187.058594 249.371094 187.792969 249.464844 188.527344 249.527344 C 189.265625 249.585938 190.003906 249.609375 190.742188 249.59375 C 191.480469 249.582031 192.214844 249.535156 192.949219 249.449219 C 193.683594 249.363281 194.410156 249.242188 195.132812 249.082031 C 195.855469 248.925781 196.570312 248.734375 197.273438 248.507812 C 197.976562 248.28125 198.664062 248.019531 199.34375 247.722656 L 233.59375 232.800781 C 234 232.621094 234.355469 232.371094 234.664062 232.050781 C 234.96875 231.730469 235.203125 231.363281 235.367188 230.949219 C 235.527344 230.535156 235.605469 230.105469 235.601562 229.660156 C 235.59375 229.21875 235.503906 228.792969 235.328125 228.382812 L 212.78125 176.40625 C 212.601562 176 212.351562 175.644531 212.03125 175.335938 C 211.710938 175.03125 211.347656 174.792969 210.933594 174.632812 C 210.519531 174.46875 210.09375 174.390625 209.648438 174.398438 C 209.207031 174.402344 208.78125 174.496094 208.375 174.667969 Z M 183.285156 227.894531 C 182.859375 228.082031 182.417969 228.222656 181.964844 228.320312 C 181.511719 228.417969 181.050781 228.472656 180.585938 228.480469 C 180.121094 228.488281 179.660156 228.453125 179.203125 228.367188 C 178.746094 228.285156 178.300781 228.160156 177.871094 227.988281 C 177.4375 227.816406 177.027344 227.605469 176.632812 227.351562 C 176.242188 227.101562 175.882812 226.8125 175.546875 226.488281 C 175.210938 226.164062 174.914062 225.8125 174.648438 225.429688 C 174.382812 225.046875 174.160156 224.640625 173.972656 224.214844 C 173.789062 223.789062 173.648438 223.347656 173.546875 222.890625 C 173.449219 222.4375 173.394531 221.976562 173.386719 221.511719 C 173.378906 221.042969 173.417969 220.582031 173.5 220.125 C 173.582031 219.664062 173.710938 219.21875 173.878906 218.785156 C 174.050781 218.351562 174.261719 217.941406 174.511719 217.550781 C 174.765625 217.15625 175.050781 216.792969 175.375 216.460938 C 175.699219 216.125 176.050781 215.824219 176.433594 215.558594 C 176.8125 215.292969 177.21875 215.066406 177.644531 214.882812 C 178.070312 214.695312 178.511719 214.554688 178.964844 214.457031 C 179.417969 214.355469 179.878906 214.304688 180.34375 214.296875 C 180.808594 214.289062 181.269531 214.324219 181.726562 214.40625 C 182.183594 214.492188 182.628906 214.617188 183.0625 214.789062 C 183.492188 214.960938 183.90625 215.171875 184.296875 215.421875 C 184.6875 215.675781 185.050781 215.960938 185.382812 216.285156 C 185.71875 216.609375 186.019531 216.960938 186.28125 217.34375 C 186.546875 217.726562 186.773438 218.132812 186.957031 218.558594 C 187.144531 218.988281 187.285156 219.429688 187.382812 219.882812 C 187.484375 220.339844 187.535156 220.800781 187.542969 221.265625 C 187.550781 221.730469 187.515625 222.195312 187.433594 222.652344 C 187.347656 223.109375 187.222656 223.554688 187.050781 223.988281 C 186.882812 224.421875 186.671875 224.835938 186.417969 225.226562 C 186.167969 225.621094 185.878906 225.984375 185.558594 226.316406 C 185.234375 226.652344 184.882812 226.953125 184.5 227.21875 C 184.117188 227.484375 183.710938 227.710938 183.285156 227.894531 Z M 183.285156 227.894531 " fill-opacity="1" fill-rule="nonzero"/><g clip-path="url(#5a9a4043d3)"><g clip-path="url(#3c8a0f40d9)"><path fill="#efefef" d="M 175.941406 250.484375 L 183.09375 254.800781 L 208.152344 179.828125 L 212.214844 181.757812 L 189.621094 249.589844 L 200.421875 249.589844 L 219.507812 172.902344 L 205.535156 169.585938 C 201.097656 180.386719 206.261719 166.511719 175.941406 250.484375 Z M 175.941406 250.484375 " fill-opacity="1" fill-rule="nonzero"/></g></g><path fill="#834a27" d="M 162.03125 225.089844 C 162.03125 225.089844 170.453125 211.984375 178.414062 205.972656 C 186.375 199.957031 195.984375 196.125 197.726562 190.164062 C 199.472656 184.207031 183.507812 188.832031 171.675781 193.578125 C 159.847656 198.328125 154.988281 196.929688 154.988281 196.929688 C 154.988281 196.929688 141.1875 218.679688 162.03125 225.089844 Z M 162.03125 225.089844 " fill-opacity="1" fill-rule="nonzero"/></svg>